<?xml version="1.0" encoding="UTF-8" standalone="no"?>
<!-- Created with Inkscape (http://www.inkscape.org/) -->

<svg
   xmlns:dc="http://purl.org/dc/elements/1.1/"
   xmlns:cc="http://creativecommons.org/ns#"
   xmlns:rdf="http://www.w3.org/1999/02/22-rdf-syntax-ns#"
   xmlns:svg="http://www.w3.org/2000/svg"
   xmlns="http://www.w3.org/2000/svg"
   version="1.1"
   width="127.5625"
   height="26.512501"
   id="svg2"
   xml:space="preserve"><metadata
     id="metadata8"><rdf:RDF><cc:Work
         rdf:about=""><dc:format>image/svg+xml</dc:format><dc:type
           rdf:resource="http://purl.org/dc/dcmitype/StillImage" /><dc:title></dc:title></cc:Work></rdf:RDF></metadata><defs
     id="defs6" /><g
     transform="matrix(1.25,0,0,-1.25,0,26.5125)"
     id="g10"><g
       transform="scale(0.1,0.1)"
       id="g12"><path
         d="m 101.441,212.109 c 0,0 61.528,-60.996 78.696,-78.019 -27.907,0 -180.137,0 -180.137,0 L 0,78.6523 c 0,0 152.457,0 180.234,0 C 163.176,61.6094 101.539,0 101.539,0 l 82.891,0 106.082,106.051 -106.082,106.058 -82.989,0"
         id="path14"
         style="fill:#00a650;fill-opacity:1;fill-rule:nonzero;stroke:none" /><path
         d="m 390.902,78.6523 212.145,0 0,55.4375 -212.145,0 0,-55.4375 z"
         id="path16"
         style="fill:#00a650;fill-opacity:1;fill-rule:nonzero;stroke:none" /><path
         d="m 831.484,212.109 c 0,0 61.043,-61.015 78.059,-78.019 -27.773,0 -180.207,0 -180.207,0 l 0,-55.4377 c 0,0 152.656,0 180.305,0 C 892.734,61.6211 831.582,0 831.582,0 l 82.793,0 106.095,106.051 -106.095,106.058 -82.891,0"
         id="path18"
         style="fill:#00a650;fill-opacity:1;fill-rule:nonzero;stroke:none" /></g></g></svg>