<?xml version="1.0" encoding="UTF-8" standalone="no"?>
<!-- Created with Inkscape (http://www.inkscape.org/) -->

<svg
   xmlns:dc="http://purl.org/dc/elements/1.1/"
   xmlns:cc="http://creativecommons.org/ns#"
   xmlns:rdf="http://www.w3.org/1999/02/22-rdf-syntax-ns#"
   xmlns:svg="http://www.w3.org/2000/svg"
   xmlns="http://www.w3.org/2000/svg"
   version="1.1"
   width="70.862503"
   height="70.862503"
   id="svg2"
   xml:space="preserve"><metadata
     id="metadata8"><rdf:RDF><cc:Work
         rdf:about=""><dc:format>image/svg+xml</dc:format><dc:type
           rdf:resource="http://purl.org/dc/dcmitype/StillImage" /><dc:title></dc:title></cc:Work></rdf:RDF></metadata><defs
     id="defs6"><clipPath
       id="clipPath18"><path
         d="M 0,566.93 0,0 l 566.934,0 0,566.93 -566.934,0 z"
         id="path20" /></clipPath></defs><g
     transform="matrix(1.25,0,0,-1.25,0,70.8625)"
     id="g10"><rect
       width="55.008522"
       height="55.24873"
       rx="0.056433745"
       x="0.72063559"
       y="-55.729153"
       transform="scale(1,-1)"
       id="rect3031"
       style="color:#000000;fill:#ffffff;fill-opacity:1;fill-rule:nonzero;stroke:none;stroke-width:1;marker:none;visibility:visible;display:inline;overflow:visible;enable-background:accumulate" /><g
       transform="scale(0.1,0.1)"
       id="g12"><g
         id="g14"><g
           clip-path="url(#clipPath18)"
           id="g16"><path
             d="m 0,0 566.934,0 0,566.93 L 0,566.93 0,0 z"
             id="path22"
             style="fill:#ed1c24;fill-opacity:1;fill-rule:nonzero;stroke:none" /><path
             d="m 289.16,450.492 c 0,-21.937 -17.746,-38.781 -38.816,-38.781 -20.918,0 -38.774,16.844 -38.774,38.781 0,21.047 17.856,37.891 38.774,37.891 21.07,0 38.816,-16.844 38.816,-37.891"
             id="path24"
             style="fill:#ffffff;fill-opacity:1;fill-rule:nonzero;stroke:none" /><path
             d="m 222.832,28.2617 c -2.07,1.1133 -2.07,14.7071 -2.07,30.5195 1.054,6.4454 1.054,12.6172 2.07,16.7774 -23.152,24.2383 -42.031,51.5974 -45.254,72.6954 0,2.109 0,4.195 0,5.234 l 0,95.77 c 0,11.504 6.387,21.035 20.067,19.922 9.406,0 16.718,-6.239 16.718,-19.922 l 0,-71.543 c 0,-2.129 0,-7.363 7.453,-9.551 0,0 1.016,0 2.11,0 2.07,0 5.207,1.172 6.219,3.164 2.218,1.094 3.195,3.223 3.195,5.371 l 0,203.024 c 0,11.527 9.48,21.089 21.062,21.089 11.653,0 20.032,-9.562 20.032,-21.089 l 0,-111.559 c 0,11.527 9.445,21.082 20.988,21.082 11.57,0 21.082,-9.555 21.082,-21.082 l 0,-0.996 c 3.086,6.262 10.508,11.586 18.887,11.586 11.621,0 21.093,-9.574 21.093,-21.195 l 0,-10.489 c 2.09,10.489 9.414,17.981 22.09,17.981 13.574,0 19.961,-9.524 19.961,-21.086 l 0,-162.9767 c 0,-8.4571 -5.273,-29.5625 -16.797,-29.5625 -4.179,0 1.094,-6.3281 8.34,-7.3047 3.184,0 7.344,-4.2578 7.344,-8.4766 -0.996,-3.164 -4.16,-7.3828 -7.344,-7.3828 l -167.246,0"
             id="path26"
             style="fill:#ffffff;fill-opacity:1;fill-rule:nonzero;stroke:none" /><path
             d="m 334.18,366.383 -44.317,0 0,13.289 c 0,4.394 -3.386,12.137 -3.386,12.137 l 22.214,0 0,116.023 -116.953,0 0,-116.023 31.094,0 c 0,0 -3.34,-7.743 -3.34,-12.137 l 0,-13.289 -52.187,0 0,166.812 166.875,0 0,-166.812"
             id="path28"
             style="fill:#ffffff;fill-opacity:1;fill-rule:nonzero;stroke:none" /></g></g></g></g></svg>