<?xml version="1.0" encoding="UTF-8" standalone="no"?>
<!-- Created with Inkscape (http://www.inkscape.org/) -->

<svg
   xmlns:dc="http://purl.org/dc/elements/1.1/"
   xmlns:cc="http://creativecommons.org/ns#"
   xmlns:rdf="http://www.w3.org/1999/02/22-rdf-syntax-ns#"
   xmlns:svg="http://www.w3.org/2000/svg"
   xmlns="http://www.w3.org/2000/svg"
   version="1.1"
   width="70.862503"
   height="33.237499"
   id="svg2"
   xml:space="preserve"><metadata
     id="metadata8"><rdf:RDF><cc:Work
         rdf:about=""><dc:format>image/svg+xml</dc:format><dc:type
           rdf:resource="http://purl.org/dc/dcmitype/StillImage" /><dc:title></dc:title></cc:Work></rdf:RDF></metadata><defs
     id="defs6"><clipPath
       id="clipPath18"><path
         d="M 0,265.945 0,0 l 566.934,0 0,265.945 -566.934,0 z"
         id="path20" /></clipPath></defs><g
     transform="matrix(1.25,0,0,-1.25,0,33.2375)"
     id="g10"><rect
       width="67.544525"
       height="30.335787"
       rx="0.82121897"
       x="2.3699834"
       y="1.9537187"
       transform="matrix(0.8,0,0,-0.8,0,26.59)"
       id="rect3001"
       style="color:#000000;fill:#ffffff;fill-opacity:1;fill-rule:nonzero;stroke:none;stroke-width:1;marker:none;visibility:visible;display:inline;overflow:visible;enable-background:accumulate" /><g
       transform="scale(0.1,0.1)"
       id="g12"><g
         id="g14"><g
           clip-path="url(#clipPath18)"
           id="g16"><path
             d="M 554.18,253.199 12.75,12.7422 l 541.43,0 0,240.4568"
             id="path22"
             style="fill:#ed1c24;fill-opacity:1;fill-rule:nonzero;stroke:none" /><path
             d="m 541.438,240.449 c 0,-21.578 0,-193.3709 0,-214.9607 -23.743,0 -492.2232,0 -515.9419,0 0,21.5898 0,193.3827 0,214.9607 23.7187,0 492.1989,0 515.9419,0 z M 554.18,265.945 0,265.945 0,0 l 566.934,0 0,265.945 -12.754,0"
             id="path24"
             style="fill:#231f20;fill-opacity:1;fill-rule:nonzero;stroke:none" /></g></g></g></g></svg>