<?xml version="1.0" encoding="UTF-8" standalone="no"?>
<!-- Created with Inkscape (http://www.inkscape.org/) -->

<svg
   xmlns:dc="http://purl.org/dc/elements/1.1/"
   xmlns:cc="http://creativecommons.org/ns#"
   xmlns:rdf="http://www.w3.org/1999/02/22-rdf-syntax-ns#"
   xmlns:svg="http://www.w3.org/2000/svg"
   xmlns="http://www.w3.org/2000/svg"
   version="1.1"
   width="70.862503"
   height="36.837502"
   id="svg2"
   xml:space="preserve"><metadata
     id="metadata8"><rdf:RDF><cc:Work
         rdf:about=""><dc:format>image/svg+xml</dc:format><dc:type
           rdf:resource="http://purl.org/dc/dcmitype/StillImage" /><dc:title></dc:title></cc:Work></rdf:RDF></metadata><defs
     id="defs6"><clipPath
       id="clipPath18"><path
         d="M 0,294.68 0,0 l 566.934,0 0,294.68 -566.934,0 z"
         id="path20" /></clipPath></defs><g
     transform="matrix(1.25,0,0,-1.25,0,36.8375)"
     id="g10"><g
       transform="scale(0.1,0.1)"
       id="g12"><g
         id="g14"><g
           clip-path="url(#clipPath18)"
           id="g16"><path
             d="m 11.1484,283.531 544.6326,0 -544.6326,0"
             id="path22"
             style="fill:#f7ed19;fill-opacity:1;fill-rule:nonzero;stroke:none" /><path
             d="m 11.1484,283.531 544.6326,0 -544.6326,0 z"
             id="path24"
             style="fill:none;stroke:#f7ed19;stroke-width:7.84487009;stroke-linecap:round;stroke-linejoin:round;stroke-miterlimit:4;stroke-opacity:1;stroke-dasharray:none" /><path
             d="m 11.1484,11.1445 544.633,0 0,272.387 -544.633,0 0,-272.387 z"
             id="path26"
             style="fill:#fcd205;fill-opacity:1;fill-rule:nonzero;stroke:none" /><path
             d="m 544.641,272.387 c 0,-19.637 0,-230.4729 0,-250.1018 -20.942,0 -501.4105,0 -522.3519,0 0,19.6289 0,230.4648 0,250.1018 20.9414,0 501.4099,0 522.3519,0 z M 555.781,294.68 0,294.68 0,0 l 566.934,0 0,294.68 -11.153,0"
             id="path28"
             style="fill:#231f20;fill-opacity:1;fill-rule:nonzero;stroke:none" /><path
             d="m 262.496,225.305 c -1.082,-0.293 -1.988,-1.035 -2.484,-2.047 l -13.84,-27.969 c -0.274,-0.547 -0.402,-1.133 -0.402,-1.738 0,-0.43 0.066,-0.852 0.207,-1.262 0,0 31.75,-92.8242 37.414,-109.3984 C 266.879,92.3555 83.9141,196.957 83.9141,196.957 c -1.2149,0.695 -2.7071,0.684 -3.918,-0.008 -1.2109,-0.703 -1.9492,-1.992 -1.9492,-3.398 l 0,-30.742 c 0,-1.575 0.9375,-2.989 2.3828,-3.614 L 291.816,69.082 c 0.782,-0.332 1.668,-0.4101 2.5,-0.2031 l 10.164,2.5859 c 1.055,0.2813 1.958,0.9766 2.485,1.9532 0.32,0.5664 0.469,1.2226 0.469,1.8554 0,0.4297 -0.071,0.8711 -0.207,1.2813 0,0 -29.946,87.4143 -35.008,102.1913 13.976,-6.484 103.086,-47.828 109.969,-51.031 -3.528,-5.867 -17.43,-28.9845 -17.43,-28.9845 -0.371,-0.625 -0.57,-1.336 -0.57,-2.0313 0,-0.5937 0.136,-1.1797 0.421,-1.7383 0.579,-1.1992 1.739,-2.0117 3.079,-2.1562 L 478.457,80.5273 c 1.543,-0.164 3.047,0.586 3.828,1.9336 0.774,1.3399 0.695,3.0196 -0.223,4.2774 l -64.523,89.1057 c -0.769,1.066 -2.031,1.679 -3.34,1.621 -1.316,-0.059 -2.519,-0.77 -3.191,-1.895 0,0 -16.313,-27.097 -19.738,-32.793 -6.458,4.231 -125.59,82.028 -125.59,82.028 -0.938,0.609 -2.106,0.797 -3.184,0.5"
             id="path30"
             style="fill:#231f20;fill-opacity:1;fill-rule:nonzero;stroke:none" /></g></g></g></g></svg>