<?xml version="1.0" encoding="UTF-8" standalone="no"?>
<!-- Created with Inkscape (http://www.inkscape.org/) -->

<svg
   xmlns:dc="http://purl.org/dc/elements/1.1/"
   xmlns:cc="http://creativecommons.org/ns#"
   xmlns:rdf="http://www.w3.org/1999/02/22-rdf-syntax-ns#"
   xmlns:svg="http://www.w3.org/2000/svg"
   xmlns="http://www.w3.org/2000/svg"
   version="1.1"
   width="70.862503"
   height="70.400002"
   id="svg2"
   xml:space="preserve"><metadata
     id="metadata8"><rdf:RDF><cc:Work
         rdf:about=""><dc:format>image/svg+xml</dc:format><dc:type
           rdf:resource="http://purl.org/dc/dcmitype/StillImage" /><dc:title></dc:title></cc:Work></rdf:RDF></metadata><defs
     id="defs6"><clipPath
       id="clipPath18"><path
         d="m 0,0 566.934,0 0,563 L 0,563 0,0 z"
         id="path20" /></clipPath></defs><rect
     width="69.21183"
     height="6.787117"
     rx="0.036715977"
     x="0.92170721"
     y="38.949356"
     id="rect3007"
     style="color:#000000;fill:#ffffff;fill-opacity:1;fill-rule:nonzero;stroke:none;stroke-width:1;marker:none;visibility:visible;display:inline;overflow:visible;enable-background:accumulate" /><g
     transform="matrix(0.125,0,0,-0.125,0,70.4)"
     clip-path="url(#clipPath18)"
     id="g16"><path
       d="m 554.414,246.113 c 0,-8.613 0,-34.226 0,-42.832 -12.109,0 -529.7617,0 -541.8671,0 0,8.606 0,34.219 0,42.832 12.1054,0 529.7581,0 541.8671,0 z M 0,258.621 0,190.77 l 566.934,0 0,67.851 -566.934,0"
       id="path24"
       style="fill:#231f20;fill-opacity:1;fill-rule:nonzero;stroke:none" /><path
       d="M 244.02,67.0586 311.145,0 319.973,8.82812 252.891,75.8867 244.02,67.0586"
       id="path26"
       style="fill:#231f20;fill-opacity:1;fill-rule:nonzero;stroke:none" /><path
       d="M 244.02,8.82812 252.891,0 319.973,67.0586 311.145,75.8867 244.02,8.82812"
       id="path28"
       style="fill:#231f20;fill-opacity:1;fill-rule:nonzero;stroke:none" /><path
       d="m 244.02,554.281 67.125,-67.054 8.828,8.875 -67.082,67.058 -8.871,-8.879"
       id="path30"
       style="fill:#231f20;fill-opacity:1;fill-rule:nonzero;stroke:none" /><path
       d="m 244.02,496.102 8.871,-8.875 67.082,67.054 -8.828,8.879 -67.125,-67.058"
       id="path32"
       style="fill:#231f20;fill-opacity:1;fill-rule:nonzero;stroke:none" /><path
       d="m 281.199,442.09 c 0,0 36.535,-14.055 57.61,-22.168 -30.829,-7.93 -191.77,-49.395 -191.77,-49.395 0,0 217.824,-90.273 242.617,-100.547 -24.793,-10.273 -240.961,-99.89 -240.961,-99.89 l 132.805,-43.274 3.891,11.895 c 0,0 -76.625,25 -100.586,32.773 27.363,11.375 237.55,98.496 237.55,98.496 0,0 -206.07,85.403 -235.894,97.754 29.805,7.696 193.363,49.832 193.363,49.832 l -94.125,36.243 -4.5,-11.719"
       id="path34"
       style="fill:#231f20;fill-opacity:1;fill-rule:nonzero;stroke:none" /><path
       d="m 38.7539,255.43 -0.7851,-58.41 12.5429,0 c 0,0 0,55.214 0,55.304 0.6992,-0.312 86.7303,154.602 86.7303,154.602 L 126.27,412.996 38.7539,255.43"
       id="path36"
       style="fill:#231f20;fill-opacity:1;fill-rule:nonzero;stroke:none" /><path
       d="m 103.824,357.219 c 0,0 403.461,-107.246 412.602,-109.66 0,-8.047 0,-50.539 0,-50.539 l 12.519,0 0,60.16 -421.883,112.144 -3.238,-12.105"
       id="path38"
       style="fill:#231f20;fill-opacity:1;fill-rule:nonzero;stroke:none" /><path
       d="m 277.172,80.2617 12.5508,0 0,399.688 -12.5508,0 0,-399.688 z"
       id="path40"
       style="fill:#231f20;fill-opacity:1;fill-rule:nonzero;stroke:none" /></g></svg>