<?xml version="1.0" encoding="UTF-8" standalone="no"?>
<!-- Created with Inkscape (http://www.inkscape.org/) -->

<svg
   xmlns:dc="http://purl.org/dc/elements/1.1/"
   xmlns:cc="http://creativecommons.org/ns#"
   xmlns:rdf="http://www.w3.org/1999/02/22-rdf-syntax-ns#"
   xmlns:svg="http://www.w3.org/2000/svg"
   xmlns="http://www.w3.org/2000/svg"
   version="1.1"
   width="70.862503"
   height="70.400002"
   id="svg2"
   xml:space="preserve"><metadata
     id="metadata8"><rdf:RDF><cc:Work
         rdf:about=""><dc:format>image/svg+xml</dc:format><dc:type
           rdf:resource="http://purl.org/dc/dcmitype/StillImage" /><dc:title></dc:title></cc:Work></rdf:RDF></metadata><defs
     id="defs6"><clipPath
       id="clipPath18"><path
         d="m 0,0 566.934,0 0,563 L 0,563 0,0 z"
         id="path20" /></clipPath></defs><g
     transform="matrix(1.25,0,0,-1.25,0,70.4)"
     id="g10"><rect
       width="55.369465"
       height="5.4296937"
       rx="0.029372782"
       x="0.73736578"
       y="-25.160515"
       transform="scale(1,-1)"
       id="rect3007"
       style="color:#000000;fill:#ffffff;fill-opacity:1;fill-rule:nonzero;stroke:none;stroke-width:1;marker:none;visibility:visible;display:inline;overflow:visible;enable-background:accumulate" /><g
       transform="scale(0.1,0.1)"
       id="g12"><g
         id="g14"><g
           clip-path="url(#clipPath18)"
           id="g16"><path
             d="m 277.184,80.2656 12.5469,0 0,399.688 -12.5469,0 0,-399.688 z"
             id="path22"
             style="fill:#231f20;fill-opacity:1;fill-rule:nonzero;stroke:none" /><path
             d="M 244.02,67.0625 311.152,0 319.98,8.82812 252.895,75.8906 244.02,67.0625"
             id="path24"
             style="fill:#231f20;fill-opacity:1;fill-rule:nonzero;stroke:none" /><path
             d="M 244.02,8.82812 252.895,0 319.98,67.0625 311.152,75.8906 244.02,8.82812"
             id="path26"
             style="fill:#231f20;fill-opacity:1;fill-rule:nonzero;stroke:none" /><path
             d="m 244.02,554.297 67.132,-67.059 8.828,8.867 -67.085,67.063 -8.875,-8.871"
             id="path28"
             style="fill:#231f20;fill-opacity:1;fill-rule:nonzero;stroke:none" /><path
             d="m 244.02,496.105 8.875,-8.867 67.085,67.059 -8.828,8.871 -67.132,-67.063"
             id="path30"
             style="fill:#231f20;fill-opacity:1;fill-rule:nonzero;stroke:none" /><path
             d="m 554.434,246.121 c 0,-8.609 0,-34.312 0,-42.93 -12.11,0 -529.7817,0 -541.891,0 0,8.618 0,34.321 0,42.93 12.1093,0 529.781,0 541.891,0 z M 0,258.621 l 0,-67.937 566.934,0 0,67.937 -566.934,0"
             id="path32"
             style="fill:#231f20;fill-opacity:1;fill-rule:nonzero;stroke:none" /><path
             d="m 38.7539,255.43 -0.7851,-58.489 12.5429,0 c 0,0 0,55.293 0,55.383 0.7031,-0.301 86.7303,154.602 86.7303,154.602 L 126.273,413.008 38.7539,255.43"
             id="path34"
             style="fill:#231f20;fill-opacity:1;fill-rule:nonzero;stroke:none" /><path
             d="m 103.824,357.227 c 0,0 403.481,-107.254 412.621,-109.668 0,-8.036 0,-50.618 0,-50.618 l 12.5,0 0,60.239 -421.879,112.156 -3.242,-12.109"
             id="path36"
             style="fill:#231f20;fill-opacity:1;fill-rule:nonzero;stroke:none" /></g></g></g></g></svg>