<?xml version="1.0" encoding="UTF-8" standalone="no"?>
<!-- Created with Inkscape (http://www.inkscape.org/) -->

<svg
   xmlns:dc="http://purl.org/dc/elements/1.1/"
   xmlns:cc="http://creativecommons.org/ns#"
   xmlns:rdf="http://www.w3.org/1999/02/22-rdf-syntax-ns#"
   xmlns:svg="http://www.w3.org/2000/svg"
   xmlns="http://www.w3.org/2000/svg"
   version="1.1"
   width="70.862503"
   height="35.799999"
   id="svg2"
   xml:space="preserve"><metadata
     id="metadata8"><rdf:RDF><cc:Work
         rdf:about=""><dc:format>image/svg+xml</dc:format><dc:type
           rdf:resource="http://purl.org/dc/dcmitype/StillImage" /><dc:title></dc:title></cc:Work></rdf:RDF></metadata><defs
     id="defs6"><clipPath
       id="clipPath18"><path
         d="m 0,0 566.934,0 0,286 L 0,286 0,0 z"
         id="path20" /></clipPath></defs><g
     transform="matrix(1.25,0,0,-1.25,0,35.8)"
     id="g10"><rect
       width="33.890762"
       height="33.653763"
       rx="0.029372782"
       x="18.48587"
       y="0.96124357"
       transform="matrix(0.8,0,0,-0.8,0,28.64)"
       id="rect3020"
       style="color:#000000;fill:#ffffff;fill-opacity:1;fill-rule:nonzero;stroke:none;stroke-width:1;marker:none;visibility:visible;display:inline;overflow:visible;enable-background:accumulate" /><g
       transform="scale(0.1,0.1)"
       id="g12"><g
         id="g14"><g
           clip-path="url(#clipPath18)"
           id="g16"><path
             d="m 407.852,19.7344 c -17.618,0 -229.317,0 -246.934,0 0,17.6015 0,229.3046 0,246.9416 17.617,0 229.316,0 246.934,0 0,-17.637 0,-229.3401 0,-246.9416 m 159.082,134.2696 -139.344,0 0,132.398 -286.399,0 0,-132.398 -141.191,0 0,-19.766 141.191,0 0,-134.238 286.399,0 0,134.238 139.344,0 0,19.766"
             id="path22"
             style="fill:#231f20;fill-opacity:1;fill-rule:nonzero;stroke:none" /></g></g></g></g></svg>