<?xml version="1.0" encoding="UTF-8" standalone="no"?>
<!-- Created with Inkscape (http://www.inkscape.org/) -->

<svg
   xmlns:dc="http://purl.org/dc/elements/1.1/"
   xmlns:cc="http://creativecommons.org/ns#"
   xmlns:rdf="http://www.w3.org/1999/02/22-rdf-syntax-ns#"
   xmlns:svg="http://www.w3.org/2000/svg"
   xmlns="http://www.w3.org/2000/svg"
   version="1.1"
   width="70.862503"
   height="44.224998"
   id="svg2"
   xml:space="preserve"><metadata
     id="metadata8"><rdf:RDF><cc:Work
         rdf:about=""><dc:format>image/svg+xml</dc:format><dc:type
           rdf:resource="http://purl.org/dc/dcmitype/StillImage" /><dc:title></dc:title></cc:Work></rdf:RDF></metadata><defs
     id="defs6"><clipPath
       id="clipPath18"><path
         d="M 0,353.828 0,0 l 566.934,0 0,353.828 -566.934,0 z"
         id="path20" /></clipPath></defs><g
     transform="matrix(1.25,0,0,-1.25,0,44.225)"
     id="g10"><rect
       width="41.711708"
       height="41.000713"
       rx="0.01879858"
       x="1.1849917"
       y="1.5652976"
       transform="matrix(0.8,0,0,-0.8,0,35.38)"
       id="rect3003"
       style="color:#000000;fill:#ffffff;fill-opacity:1;fill-rule:nonzero;stroke:none;stroke-width:1;marker:none;visibility:visible;display:inline;overflow:visible;enable-background:accumulate" /><g
       transform="scale(0.1,0.1)"
       id="g12"><g
         id="g14"><g
           clip-path="url(#clipPath18)"
           id="g16"><path
             d="m 331.758,329.434 c 0,-21.789 0,-283.3129 0,-305.0473 -21.77,0 -285.5783,0 -307.34,0 0,21.7344 0,283.2583 0,305.0473 21.7617,0 285.57,0 307.34,0 M 343.992,353.828 0,353.828 0,0 l 356.133,0 0,353.828 -12.141,0"
             id="path22"
             style="fill:#231f20;fill-opacity:1;fill-rule:nonzero;stroke:none" /><path
             d="m 137.449,224.656 -0.293,-0.801 -2.984,-18.203 6.504,-16.199 9.383,-12.539 14.765,-8.84 c 0,0 11.836,-3.965 13.914,-4.683 1.535,-0.864 5.989,-3.547 8.403,-5.012 1.504,-1.984 3.484,-4.629 4.578,-6.043 0.644,-1.582 1.64,-4.223 2.785,-6.965 -0.625,-3.555 -1.438,-8.586 -1.645,-9.695 -0.496,-1.633 -27.586,-87.3166 -27.586,-87.3166 l 23.274,-7.3633 28.113,88.9839 2.996,18.133 -6.504,16.242 -9.375,12.508 -14.761,8.891 c 0,0 -11.836,3.894 -13.95,4.605 -1.48,0.93 -5.925,3.555 -8.367,5.039 -1.484,1.985 -3.484,4.641 -4.582,6.086 -0.594,1.543 -1.656,4.168 -2.781,6.922 0.598,3.567 1.465,8.633 1.609,9.758 0.532,1.609 27.602,87.293 27.602,87.293 l -23.274,7.316 -27.824,-88.117"
             id="path24"
             style="fill:#231f20;fill-opacity:1;fill-rule:nonzero;stroke:none" /><path
             d="m 468.895,101.641 -26.637,0 0,44.238 28.113,0 c 14.578,0 23.367,-0.203 26.309,-0.606 5.793,-0.918 10.363,-3.156 13.593,-6.804 3.196,-3.617 4.793,-8.332 4.793,-14.231 0,-5.176 -1.187,-9.543 -3.628,-13 -2.461,-3.457 -5.872,-5.945 -10.129,-7.359 -4.329,-1.477 -15.086,-2.238 -32.414,-2.238 M 545.117,35 c -8.64,13.5625 -15.449,23.0078 -20.527,28.293 -5,5.3281 -11.453,10.2031 -19.219,14.6758 15.645,2.2343 27.371,7.5664 35.274,16.1523 7.871,8.5349 11.789,19.3559 11.789,32.5119 0,10.262 -2.571,19.453 -7.856,27.476 -5.183,8.059 -12.09,13.657 -20.769,16.797 -8.692,3.176 -22.61,4.739 -41.731,4.739 l -76.062,0 0,-174.67625 36.242,0 0,72.83985 7.312,0 c 8.313,0 14.422,-0.6641 18.211,-1.9336 3.907,-1.3164 7.524,-3.7109 10.918,-7.2656 3.43,-3.5078 9.824,-12.043 19.153,-25.5469 l 25.753,-38.09375 43.329,0 L 545.117,35"
             id="path26"
             style="fill:#231f20;fill-opacity:1;fill-rule:nonzero;stroke:none" /></g></g></g></g></svg>