<?xml version="1.0" encoding="UTF-8" standalone="no"?>
<!-- Created with Inkscape (http://www.inkscape.org/) -->

<svg
   xmlns:dc="http://purl.org/dc/elements/1.1/"
   xmlns:cc="http://creativecommons.org/ns#"
   xmlns:rdf="http://www.w3.org/1999/02/22-rdf-syntax-ns#"
   xmlns:svg="http://www.w3.org/2000/svg"
   xmlns="http://www.w3.org/2000/svg"
   version="1.1"
   width="70.862503"
   height="45.700001"
   id="svg2"
   xml:space="preserve"><metadata
     id="metadata8"><rdf:RDF><cc:Work
         rdf:about=""><dc:format>image/svg+xml</dc:format><dc:type
           rdf:resource="http://purl.org/dc/dcmitype/StillImage" /><dc:title></dc:title></cc:Work></rdf:RDF></metadata><defs
     id="defs6"><clipPath
       id="clipPath18"><path
         d="M 0,365.566 0,0 l 566.934,0 0,365.566 -566.934,0 z"
         id="path20" /></clipPath></defs><g
     transform="matrix(1.25,0,0,-1.25,0,45.7)"
     id="g10"><rect
       width="43.133698"
       height="43.607693"
       rx="0.01879858"
       x="1.1849917"
       y="1.1443132"
       transform="matrix(0.8,0,0,-0.8,0,36.56)"
       id="rect3001"
       style="color:#000000;fill:#ffffff;fill-opacity:1;fill-rule:nonzero;stroke:none;stroke-width:1;marker:none;visibility:visible;display:inline;overflow:visible;enable-background:accumulate" /><g
       transform="scale(0.1,0.1)"
       id="g12"><g
         id="g14"><g
           clip-path="url(#clipPath18)"
           id="g16"><path
             d="m 342.578,25.3906 c -22.5,0 -294.8944,0 -317.3553,0 0,22.461 0,292.4884 0,314.9494 9.6211,0 65.0156,0 127.0583,0 L 70.7617,258.863 88.5742,241.051 c 0,0 79.2348,79.246 94.0858,94.082 14.883,-14.836 94.121,-94.082 94.121,-94.082 l 17.789,17.812 -81.468,81.477 c 62.949,0 119.75,0 129.476,0 0,-22.461 0,-292.4884 0,-314.9494 M 367.773,365.566 0,365.566 0,0.15625 l 367.773,0 0,365.40975 z"
             id="path22"
             style="fill:#231f20;fill-opacity:1;fill-rule:nonzero;stroke:none" /><path
             d="m 419.238,183.5 37.422,0 0,-98.0234 c 0,-15.5352 0.488,-25.6133 1.367,-30.1758 1.621,-7.4492 5.45,-13.3789 11.465,-17.8399 5.996,-4.5117 14.199,-6.7187 24.649,-6.7187 10.586,0 18.613,2.0976 24.023,6.2969 5.352,4.25 8.594,9.4453 9.707,15.6367 1.094,6.1406 1.621,16.4258 1.621,30.8008 l 0,100.0234 37.442,0 0,-94.7695 c 0,-21.6719 -1.036,-36.9922 -3.067,-45.9688 C 561.875,33.8359 558.105,26.2891 552.676,20.1445 547.285,13.9531 540.039,9.07031 530.938,5.44922 521.836,1.83594 509.922,0 495.312,0 477.598,0 464.18,1.99219 455.078,5.97656 c -9.121,3.9336 -16.367,9.08204 -21.66,15.42964 -5.313,6.2969 -8.789,12.9571 -10.508,19.9883 -2.461,10.3907 -3.672,25.6641 -3.672,45.8125 l 0,96.293"
             id="path24"
             style="fill:#231f20;fill-opacity:1;fill-rule:nonzero;stroke:none" /></g></g></g></g></svg>