<?xml version="1.0" encoding="UTF-8" standalone="no"?>
<!-- Created with Inkscape (http://www.inkscape.org/) -->

<svg
   xmlns:dc="http://purl.org/dc/elements/1.1/"
   xmlns:cc="http://creativecommons.org/ns#"
   xmlns:rdf="http://www.w3.org/1999/02/22-rdf-syntax-ns#"
   xmlns:svg="http://www.w3.org/2000/svg"
   xmlns="http://www.w3.org/2000/svg"
   version="1.1"
   width="70.862503"
   height="45.737499"
   id="svg2"
   xml:space="preserve"><metadata
     id="metadata8"><rdf:RDF><cc:Work
         rdf:about=""><dc:format>image/svg+xml</dc:format><dc:type
           rdf:resource="http://purl.org/dc/dcmitype/StillImage" /><dc:title></dc:title></cc:Work></rdf:RDF></metadata><defs
     id="defs6"><clipPath
       id="clipPath18"><path
         d="M 0,365.891 0,0 l 566.934,0 0,365.891 -566.934,0 z"
         id="path20" /></clipPath></defs><g
     transform="matrix(1.25,0,0,-1.25,0,45.7375)"
     id="g10"><rect
       width="42.896698"
       height="42.659702"
       rx="0.015038865"
       x="1.42199"
       y="1.6558083"
       transform="matrix(0.8,0,0,-0.8,0,36.59)"
       id="rect3003"
       style="color:#000000;fill:#ffffff;fill-opacity:1;fill-rule:nonzero;stroke:none;stroke-width:1;marker:none;visibility:visible;display:inline;overflow:visible;enable-background:accumulate" /><g
       transform="scale(0.1,0.1)"
       id="g12"><g
         id="g14"><g
           clip-path="url(#clipPath18)"
           id="g16"><path
             d="m 339.824,340.719 c 0,-22.426 0,-292.1643 0,-314.6448 -22.422,0 -292.1717,0 -314.6521,0 0,22.4805 0,292.2188 0,314.6448 22.4804,0 292.2301,0 314.6521,0 m 25.156,25.172 -364.98,0 0,-364.941781 364.98,0 0,364.941781 z"
             id="path22"
             style="fill:#231f20;fill-opacity:1;fill-rule:nonzero;stroke:none" /><path
             d="m 474.902,0 0,149.504 -54.668,0 0,30.684 146.7,0 0,-30.684 -54.629,0 0,-149.504 -37.403,0"
             id="path24"
             style="fill:#231f20;fill-opacity:1;fill-rule:nonzero;stroke:none" /><path
             d="m 180.738,70.9297 c -11.945,0 -21.582,9.6367 -21.582,21.5898 0,11.8945 9.637,21.6135 21.582,21.6135 11.922,0 21.61,-9.719 21.61,-21.6135 0,-11.9531 -9.688,-21.5898 -21.61,-21.5898 m 13.133,66.2773 0,173.313 -25.183,0 0,-172.989 c -19.961,-5.332 -34.747,-23.398 -34.747,-45.0115 0,-25.789 21.004,-46.7773 46.797,-46.7773 25.821,0 46.797,20.9883 46.797,46.7773 0,21.2105 -14.258,38.9645 -33.664,44.6875"
             id="path26"
             style="fill:#231f20;fill-opacity:1;fill-rule:nonzero;stroke:none" /></g></g></g></g></svg>