<?xml version="1.0" encoding="UTF-8" standalone="no"?>
<!-- Created with Inkscape (http://www.inkscape.org/) -->

<svg
   xmlns:dc="http://purl.org/dc/elements/1.1/"
   xmlns:cc="http://creativecommons.org/ns#"
   xmlns:rdf="http://www.w3.org/1999/02/22-rdf-syntax-ns#"
   xmlns:svg="http://www.w3.org/2000/svg"
   xmlns="http://www.w3.org/2000/svg"
   version="1.1"
   width="70.862503"
   height="45.662498"
   id="svg2"
   xml:space="preserve"><metadata
     id="metadata8"><rdf:RDF><cc:Work
         rdf:about=""><dc:format>image/svg+xml</dc:format><dc:type
           rdf:resource="http://purl.org/dc/dcmitype/StillImage" /><dc:title></dc:title></cc:Work></rdf:RDF></metadata><defs
     id="defs6"><clipPath
       id="clipPath18"><path
         d="m 0,0 566.934,0 0,365 L 0,365 0,0 z"
         id="path20" /></clipPath></defs><g
     transform="matrix(1.25,0,0,-1.25,0,45.6625)"
     id="g10"><rect
       width="43.133698"
       height="43.133698"
       rx="0.012031091"
       x="1.1849917"
       y="1.5808076"
       transform="matrix(0.8,0,0,-0.8,0,36.53)"
       id="rect3001"
       style="color:#000000;fill:#ffffff;fill-opacity:1;fill-rule:nonzero;stroke:none;stroke-width:1;marker:none;visibility:visible;display:inline;overflow:visible;enable-background:accumulate" /><g
       transform="scale(0.1,0.1)"
       id="g12"><g
         id="g14"><g
           clip-path="url(#clipPath18)"
           id="g16"><path
             d="m 339.922,25.3516 c -22.442,0 -292.2892,0 -314.7384,0 0,22.4531 0,292.3554 0,314.8004 9.5859,0 64.4414,0 125.7964,0 L 70.2734,259.438 88.043,241.605 c 0,0 78.465,78.512 93.309,93.34 14.855,-14.828 93.332,-93.34 93.332,-93.34 l 17.816,17.833 -80.719,80.714 c 62.278,0 118.453,0 128.141,0 0,-22.445 0,-292.3473 0,-314.8004 M 365.117,365.312 0,365.312 0,0.207031 l 365.117,0 0,365.104969 z"
             id="path22"
             style="fill:#231f20;fill-opacity:1;fill-rule:nonzero;stroke:none" /><path
             d="m 416.23,62.1211 36.602,3.5625 c 2.188,-11.875 6.621,-20.5547 13.301,-26.1914 6.679,-5.6133 15.703,-8.3984 27.09,-8.3984 12.011,0 21.074,2.4726 27.207,7.4218 6.093,4.961 9.16,10.7813 9.16,17.4414 0,4.1719 -1.289,7.8125 -3.848,10.8321 -2.578,3.0351 -7.07,5.6836 -13.437,7.8593 -4.395,1.4454 -14.317,4.0938 -29.844,7.8125 -20,4.8555 -34.023,10.8125 -42.109,17.7851 -11.329,9.91 -17.012,21.942 -17.012,36.16 0,9.121 2.656,17.649 7.969,25.696 5.351,7.918 13.027,13.976 23.046,18.148 10.02,4.148 22.129,6.219 36.329,6.219 23.164,0 40.605,-4.961 52.324,-14.848 11.68,-9.961 17.832,-23.23 18.437,-39.832 l -37.363,-1.184 c -1.602,9.211 -5,15.821 -10.234,19.883 -5.254,4.063 -13.086,6.106 -23.477,6.106 -10.82,0 -19.238,-2.199 -25.332,-6.555 -3.906,-2.801 -5.879,-6.426 -5.879,-11.062 0,-4.278 1.797,-7.922 5.528,-10.938 4.687,-3.859 16.093,-7.863 34.257,-12.062 18.145,-4.122 31.504,-8.418 40.215,-12.93 8.711,-4.5118 15.488,-10.6134 20.41,-18.4259 4.922,-7.7656 7.364,-17.3945 7.364,-28.7695 0,-10.461 -2.969,-20.1875 -8.848,-29.211 C 552.168,17.5391 543.828,10.832 533.047,6.50391 522.266,2.14844 508.848,0 492.754,0 469.297,0 451.348,5.21484 438.73,15.8398 426.191,26.3477 418.691,41.8281 416.23,62.1211"
             id="path24"
             style="fill:#231f20;fill-opacity:1;fill-rule:nonzero;stroke:none" /></g></g></g></g></svg>