<?xml version="1.0" encoding="UTF-8" standalone="no"?>
<!-- Created with Inkscape (http://www.inkscape.org/) -->

<svg
   xmlns:dc="http://purl.org/dc/elements/1.1/"
   xmlns:cc="http://creativecommons.org/ns#"
   xmlns:rdf="http://www.w3.org/1999/02/22-rdf-syntax-ns#"
   xmlns:svg="http://www.w3.org/2000/svg"
   xmlns="http://www.w3.org/2000/svg"
   version="1.1"
   width="70.862503"
   height="44.924999"
   id="svg2"
   xml:space="preserve"><metadata
     id="metadata8"><rdf:RDF><cc:Work
         rdf:about=""><dc:format>image/svg+xml</dc:format><dc:type
           rdf:resource="http://purl.org/dc/dcmitype/StillImage" /><dc:title></dc:title></cc:Work></rdf:RDF></metadata><defs
     id="defs6"><clipPath
       id="clipPath18"><path
         d="m 0,0 566.934,0 0,359 L 0,359 0,0 z"
         id="path20" /></clipPath></defs><g
     transform="matrix(1.25,0,0,-1.25,0,44.925)"
     id="g10"><rect
       width="42.185703"
       height="41.948708"
       rx="0.0096248733"
       x="1.1849917"
       y="1.3173051"
       transform="matrix(0.8,0,0,-0.8,0,35.94)"
       id="rect3009"
       style="color:#000000;fill:#ffffff;fill-opacity:1;fill-rule:nonzero;stroke:none;stroke-width:1;marker:none;visibility:visible;display:inline;overflow:visible;enable-background:accumulate" /><g
       transform="scale(0.1,0.1)"
       id="g12"><g
         id="g14"><g
           clip-path="url(#clipPath18)"
           id="g16"><path
             d="m 333.086,334.723 c 0,-21.977 0,-286.43 0,-308.4144 -21.992,0 -286.3829,0 -308.3829,0 0,21.9844 0,286.4374 0,308.4144 22,0 286.3909,0 308.3829,0 m 24.687,24.664 -357.773,0 0,-357.73466 357.773,0 0,357.73466 z"
             id="path22"
             style="fill:#231f20;fill-opacity:1;fill-rule:nonzero;stroke:none" /><path
             d="m 180.895,217.246 2.976,-24.504 76.867,9.289 -3,24.5 -76.843,-9.285"
             id="path24"
             style="fill:#231f20;fill-opacity:1;fill-rule:nonzero;stroke:none" /><path
             d="m 177.543,141.613 55.898,-11.601 5,24.14 -55.886,11.66 -5.012,-24.199"
             id="path26"
             style="fill:#231f20;fill-opacity:1;fill-rule:nonzero;stroke:none" /><path
             d="m 146.625,261.152 6.27,-23.836 132.785,34.93 -6.27,23.887 -132.785,-34.981"
             id="path28"
             style="fill:#231f20;fill-opacity:1;fill-rule:nonzero;stroke:none" /><path
             d="m 487.91,67.8438 0,30.0781 79.024,0 0,-70.5781 C 559.238,20.0703 548.105,13.6719 533.496,8.20312 518.926,2.73438 504.141,0 489.16,0 c -19.023,0 -35.586,3.86719 -49.707,11.6016 -14.16,7.7461 -24.824,18.7812 -31.894,33.2343 -7.11,14.3946 -10.684,30.0743 -10.684,46.9883 0,18.4808 3.984,34.8278 11.953,49.1718 7.91,14.348 19.531,25.332 34.844,32.969 11.66,5.832 26.172,8.769 43.555,8.769 22.539,0 40.175,-4.636 52.871,-13.828 12.695,-9.226 20.84,-21.972 24.511,-38.23 l -36.269,-6.543 c -2.559,8.66 -7.344,15.574 -14.492,20.574 -7.051,5.059 -15.918,7.59 -26.543,7.59 -16.075,0 -28.867,-4.953 -38.36,-14.809 -9.492,-9.898 -14.238,-24.558 -14.238,-44.0583 0,-20.9961 4.824,-36.7305 14.434,-47.2578 9.648,-10.4766 22.265,-15.7305 37.89,-15.7305 7.715,0 15.469,1.4453 23.242,4.3828 7.774,2.9414 14.454,6.4961 20.02,10.6719 l 0,22.3477 -42.383,0"
             id="path30"
             style="fill:#231f20;fill-opacity:1;fill-rule:nonzero;stroke:none" /><path
             d="m 69.3398,183.047 c 0,20.891 16.9883,37.922 37.9062,37.922 20.895,0 37.934,-17.031 37.934,-37.922 0,-20.899 -17.039,-37.918 -37.934,-37.918 -20.9179,0 -37.9062,17.019 -37.9062,37.918 m -24.6992,0 c 0,-34.52 28.1016,-62.586 62.6054,-62.586 34.527,0 62.613,28.066 62.613,62.586 0,34.512 -28.086,62.578 -62.613,62.578 -34.5038,0 -62.6054,-28.066 -62.6054,-62.578"
             id="path32"
             style="fill:#231f20;fill-opacity:1;fill-rule:nonzero;stroke:none" /></g></g></g></g></svg>