<?xml version="1.0" encoding="UTF-8" standalone="no"?>
<!-- Created with Inkscape (http://www.inkscape.org/) -->

<svg
   xmlns:dc="http://purl.org/dc/elements/1.1/"
   xmlns:cc="http://creativecommons.org/ns#"
   xmlns:rdf="http://www.w3.org/1999/02/22-rdf-syntax-ns#"
   xmlns:svg="http://www.w3.org/2000/svg"
   xmlns="http://www.w3.org/2000/svg"
   version="1.1"
   width="141.7375"
   height="65.800003"
   id="svg2"
   xml:space="preserve"><metadata
     id="metadata8"><rdf:RDF><cc:Work
         rdf:about=""><dc:format>image/svg+xml</dc:format><dc:type
           rdf:resource="http://purl.org/dc/dcmitype/StillImage" /><dc:title></dc:title></cc:Work></rdf:RDF></metadata><defs
     id="defs6"><clipPath
       id="clipPath18"><path
         d="m 0,0 1133.86,0 0,526 L 0,526 0,0 z"
         id="path20" /></clipPath></defs><g
     transform="matrix(1.25,0,0,-1.25,0,65.8)"
     id="g10"><g
       transform="scale(0.1,0.1)"
       id="g12"><g
         id="g14"><g
           clip-path="url(#clipPath18)"
           id="g16"><path
             d="m 0,0 1133.86,0 0,526.43 L 0,526.43 0,0 z"
             id="path22"
             style="fill:#00a650;fill-opacity:1;fill-rule:nonzero;stroke:none" /><path
             d="m 650.906,77.9805 135.547,133.0275 -108.594,0 0,219.004 -53.906,0 0,-219.004 -110.148,0 137.101,-133.0275"
             id="path24"
             style="fill:#ffffff;fill-opacity:1;fill-rule:nonzero;stroke:none" /><path
             d="m 872.656,78.8398 203.363,0 0,354.98 -203.363,0 0,-354.98 z"
             id="path26"
             style="fill:#ffffff;fill-opacity:1;fill-rule:nonzero;stroke:none" /><path
             d="m 355.508,117.062 0,72.618 -75.203,75.199 21.879,21.875 46.015,-46.012 c 5.016,-5.019 13.141,-5.019 18.156,0 l 12.102,12.102 c 5.012,5.008 5.012,13.133 0,18.148 l -46.019,46.02 32.406,32.406 0,11.613 c 5.609,-2.222 11.715,-3.457 18.117,-3.457 27.176,0 49.203,22.031 49.203,49.203 0,27.18 -22.027,49.203 -49.203,49.203 -27.18,0 -49.211,-22.023 -49.211,-49.203 0,-4.711 0.68,-9.265 1.918,-13.578 l -138.371,0 -59.332,-59.336 c -5.012,-5.011 -5.012,-13.14 0,-18.156 l 12.101,-12.098 c 5.016,-5.011 13.141,-5.011 18.157,0 l 46.797,46.797 34.582,0 -105.114,-105.113 -73.8083,0 c -7.0899,0 -12.8359,-5.75 -12.8359,-12.84 l 0,-25.668 c 0,-7.097 5.746,-12.84 12.8359,-12.84 l 138.6913,0 34.629,34.629 60.16,-60.164 0,-85.1288 c 0,-7.0898 5.746,-12.832 12.844,-12.832 l 25.668,0 c 7.09,0 12.836,5.7422 12.836,12.832 l 0,33.7808"
             id="path28"
             style="fill:#ffffff;fill-opacity:1;fill-rule:nonzero;stroke:none" /></g></g></g></g></svg>