<?xml version="1.0" encoding="UTF-8" standalone="no"?>
<!-- Created with Inkscape (http://www.inkscape.org/) -->

<svg
   xmlns:dc="http://purl.org/dc/elements/1.1/"
   xmlns:cc="http://creativecommons.org/ns#"
   xmlns:rdf="http://www.w3.org/1999/02/22-rdf-syntax-ns#"
   xmlns:svg="http://www.w3.org/2000/svg"
   xmlns="http://www.w3.org/2000/svg"
   version="1.1"
   width="141.7375"
   height="65.800003"
   id="svg2"
   xml:space="preserve"><metadata
     id="metadata8"><rdf:RDF><cc:Work
         rdf:about=""><dc:format>image/svg+xml</dc:format><dc:type
           rdf:resource="http://purl.org/dc/dcmitype/StillImage" /><dc:title></dc:title></cc:Work></rdf:RDF></metadata><defs
     id="defs6"><clipPath
       id="clipPath18"><path
         d="m 0,0 1133.86,0 0,526 L 0,526 0,0 z"
         id="path20" /></clipPath></defs><g
     transform="matrix(1.25,0,0,-1.25,0,65.8)"
     id="g10"><g
       transform="scale(0.1,0.1)"
       id="g12"><g
         id="g14"><g
           clip-path="url(#clipPath18)"
           id="g16"><path
             d="m 0,0 1133.86,0 0,526.43 L 0,526.43 0,0 z"
             id="path22"
             style="fill:#00a650;fill-opacity:1;fill-rule:nonzero;stroke:none" /><path
             d="m 827.473,256.641 -133.032,135.543 0,-108.59 -218.992,0 0,-53.906 218.992,0 0,-110.157 133.032,137.11"
             id="path24"
             style="fill:#ffffff;fill-opacity:1;fill-rule:nonzero;stroke:none" /><path
             d="m 872.645,78.8281 203.367,0 0,354.984 -203.367,0 0,-354.984 z"
             id="path26"
             style="fill:#ffffff;fill-opacity:1;fill-rule:nonzero;stroke:none" /><path
             d="m 355.508,117.051 0,72.617 -75.203,75.215 21.875,21.875 46.023,-46.016 c 5.012,-5.019 13.137,-5.019 18.152,0 l 12.102,12.102 c 5.012,5.008 5.012,13.144 0,18.152 l -46.016,46.016 32.403,32.414 0,11.609 c 5.605,-2.226 11.718,-3.457 18.117,-3.457 27.176,0 49.207,22.031 49.207,49.195 0,27.176 -22.031,49.207 -49.207,49.207 -27.18,0 -49.211,-22.031 -49.211,-49.207 0,-4.718 0.684,-9.269 1.914,-13.574 l -138.367,0 -59.328,-59.332 c -5.02,-5.008 -5.02,-13.133 0,-18.152 l 12.097,-12.102 c 5.012,-5.008 13.149,-5.008 18.157,0 l 46.797,46.797 34.582,0 -105.122,-105.117 -73.7964,0 c -7.0898,0 -12.8398,-5.762 -12.8398,-12.852 l 0,-25.664 c 0,-7.089 5.75,-12.832 12.8398,-12.832 l 138.6794,0 34.629,34.629 60.168,-60.176 0,-85.1168 c 0,-7.0898 5.75,-12.832 12.844,-12.832 l 25.672,0 c 7.09,0 12.832,5.7422 12.832,12.832 l 0,33.7698"
             id="path28"
             style="fill:#ffffff;fill-opacity:1;fill-rule:nonzero;stroke:none" /></g></g></g></g></svg>