<?xml version="1.0" encoding="UTF-8" standalone="no"?>
<!-- Created with Inkscape (http://www.inkscape.org/) -->

<svg
   xmlns:dc="http://purl.org/dc/elements/1.1/"
   xmlns:cc="http://creativecommons.org/ns#"
   xmlns:rdf="http://www.w3.org/1999/02/22-rdf-syntax-ns#"
   xmlns:svg="http://www.w3.org/2000/svg"
   xmlns="http://www.w3.org/2000/svg"
   version="1.1"
   width="141.7375"
   height="65.800003"
   id="svg2"
   xml:space="preserve"><metadata
     id="metadata8"><rdf:RDF><cc:Work
         rdf:about=""><dc:format>image/svg+xml</dc:format><dc:type
           rdf:resource="http://purl.org/dc/dcmitype/StillImage" /><dc:title></dc:title></cc:Work></rdf:RDF></metadata><defs
     id="defs6"><clipPath
       id="clipPath18"><path
         d="m 0,0 1133.86,0 0,526 L 0,526 0,0 z"
         id="path20" /></clipPath></defs><g
     transform="matrix(1.25,0,0,-1.25,0,65.8)"
     id="g10"><g
       transform="scale(0.1,0.1)"
       id="g12"><g
         id="g14"><g
           clip-path="url(#clipPath18)"
           id="g16"><path
             d="m 0,0 1133.86,0 0,526.43 L 0,526.43 0,0 z"
             id="path22"
             style="fill:#00a650;fill-opacity:1;fill-rule:nonzero;stroke:none" /><path
             d="m 318.312,262.98 133.028,135.54 0,-108.586 219.004,0 0,-53.918 -219.004,0 0,-110.157 -133.028,137.121"
             id="path24"
             style="fill:#ffffff;fill-opacity:1;fill-rule:nonzero;stroke:none" /><path
             d="m 69.7773,85.1562 203.359,0 0,354.996 -203.359,0 0,-354.996 z"
             id="path26"
             style="fill:#ffffff;fill-opacity:1;fill-rule:nonzero;stroke:none" /><path
             d="m 790.266,123.398 0,72.618 75.214,75.195 -21.875,21.887 -46.015,-46.028 c -5.024,-5.019 -13.149,-5.019 -18.149,0 l -12.105,12.11 c -5.024,5.011 -5.024,13.136 0,18.156 l 46.016,46.016 -32.422,32.402 0,11.609 c -5.586,-2.215 -11.7,-3.457 -18.11,-3.457 -27.168,0 -49.199,22.032 -49.199,49.203 0,27.18 22.031,49.211 49.199,49.211 27.168,0 49.2,-22.031 49.2,-49.211 0,-4.714 -0.665,-9.265 -1.915,-13.582 l 138.379,0 59.336,-59.324 c 5.02,-5.015 5.02,-13.141 0,-18.152 l -12.09,-12.098 c -5.039,-5.019 -13.164,-5.019 -18.164,0 l -46.796,46.785 -34.586,0 105.116,-105.117 73.81,0 c 7.09,0 12.83,-5.742 12.83,-12.832 l 0,-25.684 c 0,-7.089 -5.74,-12.832 -12.83,-12.832 l -138.692,0 -34.633,34.629 -60.152,-60.156 0,-85.1366 c 0,-7.0899 -5.742,-12.8321 -12.856,-12.8321 l -25.664,0 c -7.09,0 -12.847,5.7422 -12.847,12.8321 l 0,33.7886"
             id="path28"
             style="fill:#ffffff;fill-opacity:1;fill-rule:nonzero;stroke:none" /></g></g></g></g></svg>