<?xml version="1.0" encoding="UTF-8" standalone="no"?>
<!-- Created with Inkscape (http://www.inkscape.org/) -->

<svg
   xmlns:dc="http://purl.org/dc/elements/1.1/"
   xmlns:cc="http://creativecommons.org/ns#"
   xmlns:rdf="http://www.w3.org/1999/02/22-rdf-syntax-ns#"
   xmlns:svg="http://www.w3.org/2000/svg"
   xmlns="http://www.w3.org/2000/svg"
   version="1.1"
   width="141.7375"
   height="70.849998"
   id="svg2"
   xml:space="preserve"><metadata
     id="metadata8"><rdf:RDF><cc:Work
         rdf:about=""><dc:format>image/svg+xml</dc:format><dc:type
           rdf:resource="http://purl.org/dc/dcmitype/StillImage" /><dc:title></dc:title></cc:Work></rdf:RDF></metadata><defs
     id="defs6"><clipPath
       id="clipPath18"><path
         d="M 0,566.848 0,0 l 1133.86,0 0,566.848 -1133.86,0 z"
         id="path20" /></clipPath></defs><g
     transform="matrix(1.25,0,0,-1.25,0,70.85)"
     id="g10"><g
       transform="scale(0.1,0.1)"
       id="g12"><g
         id="g14"><g
           clip-path="url(#clipPath18)"
           id="g16"><path
             d="m 0,0 1133.86,0 0,566.848 L 0,566.848 0,0 z"
             id="path22"
             style="fill:#00a650;fill-opacity:1;fill-rule:nonzero;stroke:none" /><path
             d="M 343.137,139.074 337.629,343.547 422.258,262.285 587.09,431.926 629.062,391.594 464.246,221.965 550.09,139.562 343.137,139.074"
             id="path24"
             style="fill:#ffffff;fill-opacity:1;fill-rule:nonzero;stroke:none" /><path
             d="m 62.6836,84.9219 196.691,0 0,382.238 -196.691,0 0,-382.238 z"
             id="path26"
             style="fill:#ffffff;fill-opacity:1;fill-rule:nonzero;stroke:none" /><path
             d="m 748.77,126.016 0,78.164 81.464,81.054 -23.679,23.555 -49.895,-49.559 c -5.371,-5.449 -14.238,-5.449 -19.687,0 l -13.106,13.028 c -5.371,5.41 -5.371,14.16 0.086,19.566 l 49.797,49.524 -35.145,34.953 0,12.488 c -6.027,-2.441 -12.699,-3.738 -19.535,-3.738 -29.461,0 -53.308,23.719 -53.308,53.015 0,29.297 23.847,52.981 53.308,52.981 29.375,0 53.215,-23.684 53.215,-52.981 0,-5.125 -0.723,-10.097 -1.953,-14.648 l 149.746,0 64.285,-63.887 c 5.449,-5.41 5.449,-14.199 0,-19.531 l -13.015,-13.055 c -5.457,-5.422 -14.246,-5.422 -19.7,0 l -50.703,50.371 -37.507,0 113.925,-113.164 79.997,0 c 7.65,0 13.92,-6.222 13.92,-13.828 l 0,-27.629 c 0,-7.656 -6.27,-13.836 -13.92,-13.836 l -150.309,0 -37.434,37.274 -65.262,-64.824 0,-91.7074 c 0,-7.5704 -6.191,-13.8399 -13.835,-13.8399 l -27.832,0 c -7.727,0 -13.918,6.2695 -13.918,13.8399 l 0,36.4144"
             id="path28"
             style="fill:#ffffff;fill-opacity:1;fill-rule:nonzero;stroke:none" /></g></g></g></g></svg>