<?xml version="1.0" encoding="UTF-8" standalone="no"?>
<!-- Created with Inkscape (http://www.inkscape.org/) -->

<svg
   xmlns:dc="http://purl.org/dc/elements/1.1/"
   xmlns:cc="http://creativecommons.org/ns#"
   xmlns:rdf="http://www.w3.org/1999/02/22-rdf-syntax-ns#"
   xmlns:svg="http://www.w3.org/2000/svg"
   xmlns="http://www.w3.org/2000/svg"
   version="1.1"
   width="141.7375"
   height="70.849998"
   id="svg2"
   xml:space="preserve"><metadata
     id="metadata8"><rdf:RDF><cc:Work
         rdf:about=""><dc:format>image/svg+xml</dc:format><dc:type
           rdf:resource="http://purl.org/dc/dcmitype/StillImage" /><dc:title></dc:title></cc:Work></rdf:RDF></metadata><defs
     id="defs6"><clipPath
       id="clipPath18"><path
         d="M 0,566.848 0,0 l 1133.86,0 0,566.848"
         id="path20" /></clipPath></defs><g
     transform="matrix(1.25,0,0,-1.25,0,70.85)"
     id="g10"><rect
       width="135.575"
       height="63.521156"
       rx="1.2831546"
       x="4.2663465"
       y="4.0105739"
       transform="matrix(0.8,0,0,-0.8,0,56.68)"
       id="rect3005"
       style="color:#000000;fill:#ffffff;fill-opacity:1;fill-rule:nonzero;stroke:none;stroke-width:1;marker:none;visibility:visible;display:inline;overflow:visible;enable-background:accumulate" /><g
       transform="scale(0.1,0.1)"
       id="g12"><g
         id="g14"><g
           clip-path="url(#clipPath18)"
           id="g16"><path
             d="m 0,0 1133.86,0 0,566.848 L 0,566.848 0,0 z"
             id="path22"
             style="fill:#00a650;fill-opacity:1;fill-rule:nonzero;stroke:none" /><path
             d="m 790.195,139.074 5.508,204.473 -84.629,-81.262 -164.836,169.641 -41.968,-40.332 164.812,-169.629 -85.84,-82.403 206.953,-0.488"
             id="path24"
             style="fill:#ffffff;fill-opacity:1;fill-rule:nonzero;stroke:none" /><path
             d="m 873.953,84.9219 196.688,0 0,382.238 -196.688,0 0,-382.238 z"
             id="path26"
             style="fill:#ffffff;fill-opacity:1;fill-rule:nonzero;stroke:none" /><path
             d="m 384.562,126.016 0,78.164 -81.464,81.054 23.679,23.555 49.895,-49.559 c 5.371,-5.449 14.234,-5.449 19.683,0 l 13.11,13.028 c 5.371,5.41 5.371,14.16 -0.09,19.566 l -49.797,49.524 35.149,34.953 0,12.488 c 6.027,-2.441 12.695,-3.738 19.531,-3.738 29.465,0 53.308,23.719 53.308,53.015 0,29.297 -23.843,52.981 -53.308,52.981 -29.375,0 -53.211,-23.684 -53.211,-52.981 0,-5.125 0.723,-10.097 1.949,-14.648 l -149.742,0 -64.289,-63.887 c -5.449,-5.41 -5.449,-14.199 0,-19.531 l 13.015,-13.055 c 5.461,-5.422 14.25,-5.422 19.7,0 l 50.703,50.371 37.512,0 -113.926,-113.164 -80.0002,0 c -7.6485,0 -13.918,-6.222 -13.918,-13.828 l 0,-27.629 c 0,-7.656 6.2695,-13.836 13.918,-13.836 l 150.3082,0 37.434,37.274 65.266,-64.824 0,-91.7074 c 0,-7.5704 6.191,-13.8399 13.835,-13.8399 l 27.833,0 c 7.722,0 13.917,6.2695 13.917,13.8399 l 0,36.4144"
             id="path28"
             style="fill:#ffffff;fill-opacity:1;fill-rule:nonzero;stroke:none" /></g></g></g></g></svg>