<?xml version="1.0" encoding="UTF-8" standalone="no"?>
<!-- Created with Inkscape (http://www.inkscape.org/) -->

<svg
   xmlns:dc="http://purl.org/dc/elements/1.1/"
   xmlns:cc="http://creativecommons.org/ns#"
   xmlns:rdf="http://www.w3.org/1999/02/22-rdf-syntax-ns#"
   xmlns:svg="http://www.w3.org/2000/svg"
   xmlns="http://www.w3.org/2000/svg"
   version="1.1"
   width="141.7375"
   height="70.875"
   id="svg2"
   xml:space="preserve"><metadata
     id="metadata8"><rdf:RDF><cc:Work
         rdf:about=""><dc:format>image/svg+xml</dc:format><dc:type
           rdf:resource="http://purl.org/dc/dcmitype/StillImage" /><dc:title></dc:title></cc:Work></rdf:RDF></metadata><defs
     id="defs6"><clipPath
       id="clipPath18"><path
         d="M 0,566.988 0,0 l 1133.87,0 0,566.988"
         id="path20" /></clipPath></defs><g
     transform="matrix(1.25,0,0,-1.25,0,70.875)"
     id="g10"><rect
       width="134.62692"
       height="62.099041"
       rx="1.0265237"
       x="3.7923079"
       y="5.9317293"
       transform="matrix(0.8,0,0,-0.8,0,56.7)"
       id="rect3005"
       style="color:#000000;fill:#ffffff;fill-opacity:1;fill-rule:nonzero;stroke:none;stroke-width:1;marker:none;visibility:visible;display:inline;overflow:visible;enable-background:accumulate" /><g
       transform="scale(0.1,0.1)"
       id="g12"><g
         id="g14"><g
           clip-path="url(#clipPath18)"
           id="g16"><path
             d="m 0,0 1133.87,0 0,566.988 L 0,566.988 0,0 z"
             id="path22"
             style="fill:#00a650;fill-opacity:1;fill-rule:nonzero;stroke:none" /><path
             d="m 357.188,412.562 208.804,0.372 -83.238,-82.723 167.766,-166.793 -41.301,-40.977 -167.793,166.793 -84.317,-83.953 0.079,207.281"
             id="path24"
             style="fill:#ffffff;fill-opacity:1;fill-rule:nonzero;stroke:none" /><path
             d="m 61.9336,84.9219 196.699,0 0,382.211 -196.699,0 0,-382.211 z"
             id="path26"
             style="fill:#ffffff;fill-opacity:1;fill-rule:nonzero;stroke:none" /><path
             d="m 749.48,126.102 0,78.164 81.418,80.984 -23.718,23.594 -49.825,-49.567 c -5.414,-5.371 -14.242,-5.371 -19.679,0 l -13.164,13.067 c -5.371,5.375 -5.371,14.125 0.09,19.535 l 49.839,49.562 -35.132,34.911 0,12.453 c -6.086,-2.403 -12.7,-3.703 -19.575,-3.703 -29.5,0 -53.347,23.761 -53.347,53.058 0,29.18 23.847,52.977 53.347,52.977 29.426,0 53.286,-23.797 53.286,-52.977 0,-5.168 -0.754,-10.012 -2.114,-14.726 l 150,0 64.25,-63.926 c 5.41,-5.371 5.41,-14.082 0,-19.492 l -13.144,-12.981 c -5.41,-5.496 -14.2,-5.496 -19.649,0 l -50.722,50.371 -37.453,0 113.832,-113.246 80.02,0 c 7.64,0 13.87,-6.144 13.87,-13.828 l 0,-27.629 c 0,-7.613 -6.23,-13.836 -13.87,-13.836 l -150.235,0 -37.571,37.313 -65.175,-64.785 0,-91.6294 c 0,-7.6953 -6.243,-13.8789 -13.868,-13.8789 l -27.793,0 c -7.714,0 -13.918,6.1836 -13.918,13.8789 l 0,36.3364"
             id="path28"
             style="fill:#ffffff;fill-opacity:1;fill-rule:nonzero;stroke:none" /></g></g></g></g></svg>