<?xml version="1.0" encoding="UTF-8" standalone="no"?>
<!-- Created with Inkscape (http://www.inkscape.org/) -->

<svg
   xmlns:dc="http://purl.org/dc/elements/1.1/"
   xmlns:cc="http://creativecommons.org/ns#"
   xmlns:rdf="http://www.w3.org/1999/02/22-rdf-syntax-ns#"
   xmlns:svg="http://www.w3.org/2000/svg"
   xmlns="http://www.w3.org/2000/svg"
   version="1.1"
   width="141.7375"
   height="70.875"
   id="svg2"
   xml:space="preserve"><metadata
     id="metadata8"><rdf:RDF><cc:Work
         rdf:about=""><dc:format>image/svg+xml</dc:format><dc:type
           rdf:resource="http://purl.org/dc/dcmitype/StillImage" /><dc:title></dc:title></cc:Work></rdf:RDF></metadata><defs
     id="defs6"><clipPath
       id="clipPath18"><path
         d="M 0,566.988 0,0 l 1133.87,0 0,566.988 -1133.87,0 z"
         id="path20" /></clipPath></defs><g
     transform="matrix(1.25,0,0,-1.25,0,70.875)"
     id="g10"><g
       transform="scale(0.1,0.1)"
       id="g12"><g
         id="g14"><g
           clip-path="url(#clipPath18)"
           id="g16"><path
             d="m 0,0 1133.87,0 0,566.988 L 0,566.988 0,0 z"
             id="path22"
             style="fill:#00a650;fill-opacity:1;fill-rule:nonzero;stroke:none" /><path
             d="m 776.68,412.562 -208.805,0.372 83.238,-82.723 -167.769,-166.793 41.301,-40.977 167.796,166.793 84.317,-83.953 -0.078,207.281"
             id="path24"
             style="fill:#ffffff;fill-opacity:1;fill-rule:nonzero;stroke:none" /><path
             d="m 875.234,84.9219 196.695,0 0,382.211 -196.695,0 0,-382.211 z"
             id="path26"
             style="fill:#ffffff;fill-opacity:1;fill-rule:nonzero;stroke:none" /><path
             d="m 384.379,126.102 0,78.164 -81.414,80.984 23.719,23.594 49.824,-49.567 c 5.41,-5.371 14.238,-5.371 19.68,0 l 13.164,13.067 c 5.371,5.375 5.371,14.125 -0.09,19.535 l -49.844,49.562 35.137,34.911 0,12.453 c 6.086,-2.403 12.695,-3.703 19.57,-3.703 29.504,0 53.352,23.761 53.352,53.058 0,29.18 -23.848,52.977 -53.352,52.977 -29.422,0 -53.281,-23.797 -53.281,-52.977 0,-5.168 0.754,-10.012 2.109,-14.726 l -150,0 -64.246,-63.926 c -5.41,-5.371 -5.41,-14.082 0,-19.492 l 13.145,-12.981 c 5.41,-5.496 14.199,-5.496 19.648,0 l 50.723,50.371 37.449,0 -113.828,-113.246 -80.0198,0 c -7.6445,0 -13.875,-6.144 -13.875,-13.828 l 0,-27.629 c 0,-7.613 6.2305,-13.836 13.875,-13.836 l 150.2348,0 37.57,37.313 65.176,-64.785 0,-91.6294 c 0,-7.6953 6.238,-13.8789 13.867,-13.8789 l 27.793,0 c 7.715,0 13.914,6.1836 13.914,13.8789 l 0,36.3364"
             id="path28"
             style="fill:#ffffff;fill-opacity:1;fill-rule:nonzero;stroke:none" /></g></g></g></g></svg>