<?xml version="1.0" encoding="UTF-8" standalone="no"?>
<!-- Created with Inkscape (http://www.inkscape.org/) -->

<svg
   xmlns:dc="http://purl.org/dc/elements/1.1/"
   xmlns:cc="http://creativecommons.org/ns#"
   xmlns:rdf="http://www.w3.org/1999/02/22-rdf-syntax-ns#"
   xmlns:svg="http://www.w3.org/2000/svg"
   xmlns="http://www.w3.org/2000/svg"
   version="1.1"
   width="70.862503"
   height="70.862503"
   id="svg2"
   xml:space="preserve"><metadata
     id="metadata8"><rdf:RDF><cc:Work
         rdf:about=""><dc:format>image/svg+xml</dc:format><dc:type
           rdf:resource="http://purl.org/dc/dcmitype/StillImage" /><dc:title></dc:title></cc:Work></rdf:RDF></metadata><defs
     id="defs6"><clipPath
       id="clipPath18"><path
         d="M 0,566.93 0,0 l 566.934,0 0,566.93 -566.934,0 z"
         id="path20" /></clipPath></defs><g
     transform="matrix(1.25,0,0,-1.25,0,70.8625)"
     id="g10"><g
       transform="scale(0.1,0.1)"
       id="g12"><g
         id="g14"><g
           clip-path="url(#clipPath18)"
           id="g16"><path
             d="m 0,0 566.934,0 0,566.93 L 0,566.93 0,0 z"
             id="path22"
             style="fill:#00a650;fill-opacity:1;fill-rule:nonzero;stroke:none" /><path
             d="m 405.176,110.039 0,62.441 -240.93,0 0,-62.441 240.93,0 m 0,155.41 -240.899,0 0,-62.48 240.899,0 0,62.48 z m -240.93,30.367 240.871,0 0,62.469 -240.871,0 0,-62.469 z m 240.93,155.457 -240.899,0 0,-62.527 240.899,0 0,62.527 z m 30.41,84.895 0,-507.7891 -30.41,0 0,51.2109 -240.93,0 0,-51.2109 -30.406,0 0,507.7891 30.406,0 0,-54.531 240.93,0 0,54.531 30.41,0"
             id="path24"
             style="fill:#ffffff;fill-opacity:1;fill-rule:nonzero;stroke:none" /></g></g></g></g></svg>