<?xml version="1.0" encoding="UTF-8" standalone="no"?>
<!-- Created with Inkscape (http://www.inkscape.org/) -->

<svg
   xmlns:dc="http://purl.org/dc/elements/1.1/"
   xmlns:cc="http://creativecommons.org/ns#"
   xmlns:rdf="http://www.w3.org/1999/02/22-rdf-syntax-ns#"
   xmlns:svg="http://www.w3.org/2000/svg"
   xmlns="http://www.w3.org/2000/svg"
   version="1.1"
   width="70.862503"
   height="70.862503"
   id="svg2"
   xml:space="preserve"><metadata
     id="metadata8"><rdf:RDF><cc:Work
         rdf:about=""><dc:format>image/svg+xml</dc:format><dc:type
           rdf:resource="http://purl.org/dc/dcmitype/StillImage" /><dc:title></dc:title></cc:Work></rdf:RDF></metadata><defs
     id="defs6"><clipPath
       id="clipPath18"><path
         d="M 0,566.891 0,0 l 566.934,0 0,566.891 -566.934,0 z"
         id="path20" /></clipPath></defs><g
     transform="matrix(1.25,0,0,-1.25,0,70.8625)"
     id="g10"><g
       transform="scale(0.1,0.1)"
       id="g12"><g
         id="g14"><g
           clip-path="url(#clipPath18)"
           id="g16"><path
             d="m 0,0 566.934,0 0,566.891 L 0,566.891 0,0 z"
             id="path22"
             style="fill:#00a650;fill-opacity:1;fill-rule:nonzero;stroke:none" /><path
             d="m 508.926,366.801 -141.641,0 c -4.199,0 -7.07,2.773 -7.07,6.308 l 0,142.45 c 0,3.488 -2.793,6.308 -6.289,6.308 l -142.367,0 c -3.489,0 -6.457,-2.82 -6.457,-6.308 l 0,-142.45 c 0,-3.535 -3.516,-6.308 -7.051,-6.308 l -142.3674,0 c -3.5156,0 -6.2188,-3.582 -6.2188,-7.059 l 0,-142.347 c 0,0.71 0,0.71 0,0 0,-3.516 2.7032,-6.399 6.2188,-6.399 l 142.3674,0 c 3.535,0 7.051,-2.84 7.051,-6.316 l 0,-142.3753 c 0,-3.582 2.968,-7.0703 6.457,-7.0703 l 142.367,0 c 3.496,0 6.289,3.4883 6.289,7.0703 l 0,142.3753 c 0,3.476 2.871,6.316 7.07,6.316 l 141.641,0 c 4.258,0 7.109,2.883 7.109,6.399 l 0,142.347 c 0,3.477 -2.851,7.059 -7.109,7.059"
             id="path24"
             style="fill:#ffffff;fill-opacity:1;fill-rule:nonzero;stroke:none" /></g></g></g></g></svg>