<?xml version="1.0" encoding="UTF-8" standalone="no"?>
<!-- Created with Inkscape (http://www.inkscape.org/) -->

<svg
   xmlns:dc="http://purl.org/dc/elements/1.1/"
   xmlns:cc="http://creativecommons.org/ns#"
   xmlns:rdf="http://www.w3.org/1999/02/22-rdf-syntax-ns#"
   xmlns:svg="http://www.w3.org/2000/svg"
   xmlns="http://www.w3.org/2000/svg"
   version="1.1"
   width="70.862503"
   height="70.862503"
   id="svg2"
   xml:space="preserve"><metadata
     id="metadata8"><rdf:RDF><cc:Work
         rdf:about=""><dc:format>image/svg+xml</dc:format><dc:type
           rdf:resource="http://purl.org/dc/dcmitype/StillImage" /><dc:title></dc:title></cc:Work></rdf:RDF></metadata><defs
     id="defs6"><clipPath
       id="clipPath18"><path
         d="M 0,566.93 0,0 l 566.934,0 0,566.93 -566.934,0 z"
         id="path20" /></clipPath></defs><g
     transform="matrix(1.25,0,0,-1.25,0,70.8625)"
     id="g10"><g
       transform="scale(0.1,0.1)"
       id="g12"><g
         id="g14"><g
           clip-path="url(#clipPath18)"
           id="g16"><path
             d="m 0,0 566.934,0 0,566.93 L 0,566.93 0,0 z"
             id="path22"
             style="fill:#00a650;fill-opacity:1;fill-rule:nonzero;stroke:none" /><path
             d="m 250.879,540.934 0,-138.02 19.285,6.563 22.024,6.562 0,114.563 -22.024,5.683 -19.285,4.649"
             id="path24"
             style="fill:#ffffff;fill-opacity:1;fill-rule:nonzero;stroke:none" /><path
             d="m 461.445,70.2148 -47.707,42.7262 -56.621,50.938 c -15.625,-12.285 -29.656,-12.285 -41.972,-4.914 -22.149,12.285 -39.415,45.945 -51.739,72.285 -3.261,6.574 -5.761,13.086 -8.218,18.027 -17.297,36.207 -44.387,59.157 -50.969,100.289 -6.582,41.024 12.351,39.403 27.961,51.739 l 0,137.968 c -49.289,0 -105.989,-36.171 -113.379,-72.324 -18.082,-87.082 6.543,-168.34 45.996,-247.191 24.629,-47.629 57.508,-92.016 98.609,-127.2853 26.328,-23.1368 55.871,-42.0039 88.742,-55.918 13.133,-6.6211 37.735,-4.9727 61.59,3.2617 18.071,5.7813 35.305,16.4922 47.707,30.3984"
             id="path26"
             style="fill:#ffffff;fill-opacity:1;fill-rule:nonzero;stroke:none" /><path
             d="m 490.105,122.422 -86.121,79.465 -33.347,-24.797 47.656,-43.524 54.234,-49.1988 17.578,38.0548"
             id="path28"
             style="fill:#ffffff;fill-opacity:1;fill-rule:nonzero;stroke:none" /></g></g></g></g></svg>