<?xml version="1.0" encoding="UTF-8" standalone="no"?>
<!-- Created with Inkscape (http://www.inkscape.org/) -->

<svg
   xmlns:dc="http://purl.org/dc/elements/1.1/"
   xmlns:cc="http://creativecommons.org/ns#"
   xmlns:rdf="http://www.w3.org/1999/02/22-rdf-syntax-ns#"
   xmlns:svg="http://www.w3.org/2000/svg"
   xmlns="http://www.w3.org/2000/svg"
   version="1.1"
   width="70.862503"
   height="70.862503"
   id="svg2"
   xml:space="preserve"><metadata
     id="metadata8"><rdf:RDF><cc:Work
         rdf:about=""><dc:format>image/svg+xml</dc:format><dc:type
           rdf:resource="http://purl.org/dc/dcmitype/StillImage" /><dc:title></dc:title></cc:Work></rdf:RDF></metadata><defs
     id="defs6"><clipPath
       id="clipPath18"><path
         d="M 0,566.93 0,0 l 566.934,0 0,566.93 -566.934,0 z"
         id="path20" /></clipPath></defs><g
     transform="matrix(1.25,0,0,-1.25,0,70.8625)"
     id="g10"><g
       transform="scale(0.1,0.1)"
       id="g12"><g
         id="g14"><g
           clip-path="url(#clipPath18)"
           id="g16"><path
             d="m 0,0 566.934,0 0,566.93 L 0,566.93 0,0 z"
             id="path22"
             style="fill:#00a650;fill-opacity:1;fill-rule:nonzero;stroke:none" /><path
             d="m 493.508,393.535 0,43.891 c 0,1.773 1.883,3.062 3.758,3.062 l 43.789,0 c 1.789,0 3.679,1.789 3.679,3.614 l 0,43.902 c 0,1.832 -1.89,3.59 -3.679,3.59 l -43.789,0 c -1.875,0 -3.758,1.258 -3.758,3.039 l 0,43.875 c 0,1.84 -1.184,3.621 -2.988,3.621 l -43.879,0 c -1.829,0 -3.703,-1.781 -3.703,-3.621 l 0,-43.875 c 0,-1.781 -1.2,-3.039 -3.614,-3.039 l -43.25,0 c -2.383,0 -3.672,-1.758 -3.672,-3.59 l 0,-43.902 c 0,-1.825 1.289,-3.614 3.672,-3.614 l 43.25,0 c 2.414,0 3.614,-1.289 3.614,-3.062 l 0,-43.891 c 0,-1.805 1.874,-3.633 3.703,-3.633 l 43.879,0 c 1.804,0 2.988,1.828 2.988,3.633"
             id="path24"
             style="fill:#ffffff;fill-opacity:1;fill-rule:nonzero;stroke:none" /><path
             d="m 537.852,283.008 0,17.203 -507.8872,0 0,-17.203 27.3633,0 0,-173.36 -27.3633,0 0,-17.3238 507.8872,0 0,17.3238 -27.442,0 0,173.36 27.442,0"
             id="path26"
             style="fill:#ffffff;fill-opacity:1;fill-rule:nonzero;stroke:none" /><path
             d="m 150.141,196.27 c 0,-17.704 -14.325,-31.864 -31.934,-31.864 -17.648,0 -32.0039,14.16 -32.0039,31.864 0,17.734 14.3559,31.933 32.0039,31.933 17.609,0 31.934,-14.199 31.934,-31.933"
             id="path28"
             style="fill:#00a650;fill-opacity:1;fill-rule:nonzero;stroke:none" /><path
             d="m 300.02,113.469 -114.059,0 c -15.625,0 -28.203,12.742 -28.203,28.886 l 0,109.598 c 0,16.082 12.578,29.098 28.203,29.098 l 114.059,0 0,-0.352 c 4.707,0 8.449,-3.668 8.449,-8.316 l 0,-11.317 c 0,-4.336 -3.762,-8.378 -8.449,-8.378 l -92.958,0 c -1.757,0 -1.828,-3.918 -1.828,-4.102 0,-0.305 0.071,-8.145 1.828,-8.145 l 252.579,0 c 5.027,0 9.058,-4.093 9.058,-9.074 l 0,-16.336 c 0,-4.875 -4.031,-9.152 -9.058,-9.152 l -142.278,0 c -2.129,0 -2.843,-7.371 -2.843,-8.68 0,-1.293 0.714,-8.769 2.843,-8.769 l 142.278,0 0,-0.071 c 5.027,0 9.058,-4.101 9.058,-9.113 l 0,-16.344 c 0,-4.922 -4.031,-9.074 -9.058,-9.074 l -252.579,0 c -1.757,0 -1.828,-3.992 -1.828,-4.129 0,-0.187 0.071,-8.078 1.828,-8.078 l 92.958,0 0,-0.32 c 4.707,0 8.449,-3.692 8.449,-8.34 l 0,-11.281 c 0,-4.422 -3.762,-8.211 -8.449,-8.211"
             id="path30"
             style="fill:#00a650;fill-opacity:1;fill-rule:nonzero;stroke:none" /></g></g></g></g></svg>