<?xml version="1.0" encoding="UTF-8" standalone="no"?>
<!-- Created with Inkscape (http://www.inkscape.org/) -->

<svg
   xmlns:dc="http://purl.org/dc/elements/1.1/"
   xmlns:cc="http://creativecommons.org/ns#"
   xmlns:rdf="http://www.w3.org/1999/02/22-rdf-syntax-ns#"
   xmlns:svg="http://www.w3.org/2000/svg"
   xmlns="http://www.w3.org/2000/svg"
   version="1.1"
   width="70.862503"
   height="70.862503"
   id="svg2"
   xml:space="preserve"><metadata
     id="metadata8"><rdf:RDF><cc:Work
         rdf:about=""><dc:format>image/svg+xml</dc:format><dc:type
           rdf:resource="http://purl.org/dc/dcmitype/StillImage" /><dc:title></dc:title></cc:Work></rdf:RDF></metadata><defs
     id="defs6"><clipPath
       id="clipPath18"><path
         d="M 0,566.93 0,0 l 566.934,0 0,566.93 -566.934,0 z"
         id="path20" /></clipPath></defs><g
     transform="matrix(1.25,0,0,-1.25,0,70.8625)"
     id="g10"><g
       transform="scale(0.1,0.1)"
       id="g12"><g
         id="g14"><g
           clip-path="url(#clipPath18)"
           id="g16"><path
             d="m 0,0 566.934,0 0,566.93 L 0,566.93 0,0 z"
             id="path22"
             style="fill:#00a650;fill-opacity:1;fill-rule:nonzero;stroke:none" /><path
             d="m 162.434,101.133 0,-2.3127 6.82,0 339.398,-24.8828 1.36,4.1875 0,1.2227 c 0,3.3945 1.66,6.1484 3.972,7.4765 4.317,0 6.25,4.125 6.25,8.0391 l 0,23.9177 c 0,3.004 3.184,7.5 7.461,7.5 l 8.059,1.004 0.641,4.641 2.793,29.715 c 0,145.589 -110.165,216.312 -212.5,220.343 C 225.387,386.027 111.117,324.738 99.6328,180.676 96.1211,139.961 64.125,107.902 23.5312,104.551 c -4.1093,0 -6.2031,-4.031 -6.2031,-6.2893 0,-5.9179 4.1172,-7.9805 8.0821,-7.9805 L 162.336,101.133"
             id="path24"
             style="fill:#ffffff;fill-opacity:1;fill-rule:nonzero;stroke:none" /><path
             d="m 503.328,116.777 c 0,4.903 -3.348,8.274 -6.707,8.274 L 338.523,115.039 c -1.628,0 -1.628,-1.609 -1.628,-3.328 0,-1.633 1.628,-3.313 3.371,-3.313 l 158.074,-8.23 c 3.308,0 4.988,3.199 4.988,6.578 0,3.332 0,6.684 0,10.031"
             id="path26"
             style="fill:#00a650;fill-opacity:1;fill-rule:nonzero;stroke:none" /><path
             d="m 127.184,177.695 0.074,0.188 c -1.098,-17.492 -8.469,-34.914 -22.551,-53.106 0,0 -2.656,-3.418 -5.039,-6.515 10.277,0.683 411.328,28.164 411.328,28.164 l -1.094,15.019 c 0,126.418 -94.929,188.008 -183.214,191.715 -88.497,3.891 -188.762,-49.437 -199.504,-175.465"
             id="path28"
             style="fill:#00a650;fill-opacity:1;fill-rule:nonzero;stroke:none" /><path
             d="m 205.996,198.535 0,-24.558 17.68,0 c 6.836,0 11.207,0.066 13.086,0.574 2.793,0.5 5.136,1.789 6.832,3.761 1.894,1.876 2.754,4.454 2.754,7.743 0,2.726 -0.633,4.98 -2.032,7.019 -1.378,1.809 -3.332,3.207 -5.961,4.172 -2.632,0.899 -8.296,1.289 -16.933,1.289 l -15.426,0 m 0,37.754 0,-21.816 12.504,0 c 7.484,0 12.105,0.105 13.902,0.476 3.243,0.254 5.821,1.399 7.672,3.285 1.891,1.914 2.864,4.278 2.864,7.286 0,2.929 -0.813,5.242 -2.434,7.031 -1.582,1.933 -4.074,2.984 -7.188,3.347 -1.878,0.176 -7.332,0.391 -16.425,0.391 l -10.895,0 z m -18.855,15.789 37.621,0 c 7.508,0 12.988,-0.211 16.621,-0.945 3.695,-0.516 6.972,-1.863 9.894,-3.797 2.942,-1.984 5.321,-4.688 7.164,-7.981 1.957,-3.281 2.903,-7.089 2.903,-11.121 0,-4.472 -1.172,-8.39 -3.59,-12.148 -2.383,-3.715 -5.563,-6.555 -9.625,-8.438 5.648,-1.488 10.152,-4.347 13.183,-8.41 3.118,-3.926 4.629,-8.703 4.629,-14.023 0,-4.324 -1.074,-8.445 -2.961,-12.547 -2.042,-3.938 -4.699,-7.07 -8.125,-9.563 -3.46,-2.382 -7.71,-3.972 -12.847,-4.433 -3.086,-0.32 -10.813,-0.555 -22.852,-0.684 l -32.015,0 0,94.09"
             id="path30"
             style="fill:#ffffff;fill-opacity:1;fill-rule:nonzero;stroke:none" /><path
             d="m 281.855,157.988 0,94.09 18.957,0 0,-37.129 37.352,0 0,37.129 18.906,0 0,-94.09 -18.906,0 0,41.086 -37.352,0 0,-41.086 -18.957,0"
             id="path32"
             style="fill:#ffffff;fill-opacity:1;fill-rule:nonzero;stroke:none" /><path
             d="m 400.273,157.988 -33.171,94.09 20.515,0 23.516,-69.676 22.898,69.676 20.051,0 -33.262,-94.09 -20.547,0"
             id="path34"
             style="fill:#ffffff;fill-opacity:1;fill-rule:nonzero;stroke:none" /><path
             d="m 493.535,393.512 0,43.855 c 0,1.879 1.848,3.137 3.731,3.137 l 43.82,0 c 1.758,0 3.621,1.762 3.621,3.59 l 0,43.816 c 0,1.914 -1.863,3.668 -3.621,3.668 l -43.82,0 c -1.883,0 -3.731,1.211 -3.731,3.09 l 0,43.824 c 0,1.844 -1.211,3.641 -3.055,3.641 l -43.808,0 c -1.875,0 -3.652,-1.797 -3.652,-3.641 l 0,-43.824 c 0,-1.879 -1.274,-3.09 -3.657,-3.09 l -43.301,0 c -2.363,0 -3.691,-1.754 -3.691,-3.668 l 0,-43.816 c 0,-1.828 1.328,-3.59 3.691,-3.59 l 43.301,0 c 2.383,0 3.657,-1.258 3.657,-3.137 l 0,-43.855 c 0,-1.766 1.777,-3.61 3.652,-3.61 l 43.808,0 c 1.844,0 3.055,1.844 3.055,3.61"
             id="path36"
             style="fill:#ffffff;fill-opacity:1;fill-rule:nonzero;stroke:none" /></g></g></g></g></svg>