<?xml version="1.0" encoding="UTF-8" standalone="no"?>
<!-- Created with Inkscape (http://www.inkscape.org/) -->

<svg
   xmlns:dc="http://purl.org/dc/elements/1.1/"
   xmlns:cc="http://creativecommons.org/ns#"
   xmlns:rdf="http://www.w3.org/1999/02/22-rdf-syntax-ns#"
   xmlns:svg="http://www.w3.org/2000/svg"
   xmlns="http://www.w3.org/2000/svg"
   version="1.1"
   width="70.862503"
   height="70.862503"
   id="svg2"
   xml:space="preserve"><metadata
     id="metadata8"><rdf:RDF><cc:Work
         rdf:about=""><dc:format>image/svg+xml</dc:format><dc:type
           rdf:resource="http://purl.org/dc/dcmitype/StillImage" /><dc:title></dc:title></cc:Work></rdf:RDF></metadata><defs
     id="defs6"><clipPath
       id="clipPath18"><path
         d="M 0,566.93 0,0 l 566.934,0 0,566.93 -566.934,0 z"
         id="path20" /></clipPath></defs><g
     transform="matrix(1.25,0,0,-1.25,0,70.8625)"
     id="g10"><g
       transform="scale(0.1,0.1)"
       id="g12"><g
         id="g14"><g
           clip-path="url(#clipPath18)"
           id="g16"><path
             d="m 0,0 566.934,0 0,566.93 L 0,566.93 0,0 z"
             id="path22"
             style="fill:#00a650;fill-opacity:1;fill-rule:nonzero;stroke:none" /><path
             d="m 177.379,145.203 25.4531,0 0,24.1836 -25.4531,0 0,-24.1836 z"
             id="path24"
             style="fill:#ffffff;fill-opacity:1;fill-rule:nonzero;stroke:none" /><path
             d="m 461.145,526.008 c -33.11,0 -60.161,-28.719 -60.161,-63.762 l 0,-255.184 c 0,-31.66 21.204,-58.75 50.344,-63.109 l 0,-22.144 c -4.695,-3.11 -8.047,-8.243 -8.047,-14.278 0,-7.6599 5.031,-13.9099 11.973,-16.2224 l 0,-11.7656 c 0,-19.2891 -14.902,-34.8555 -33.066,-34.8555 l -193.25,0 c -18.235,0 -33.075,15.5664 -33.075,34.8555 l 0,42.527 -11.644,0 0,-42.527 c 0,-26.0352 20.09,-47.3633 44.719,-47.3633 l 193.25,0 c 24.589,0 44.687,21.3281 44.687,47.3633 l 0,11.9609 c 6.453,2.5508 11.008,8.6911 11.008,16.0271 0,5.371 -2.461,9.746 -6.211,12.938 l 0,23.039 c 30.269,3.25 49.754,31.094 49.754,63.554 l 0,255.184 c 0,35.043 -27.09,63.762 -60.281,63.762"
             id="path26"
             style="fill:#ffffff;fill-opacity:1;fill-rule:evenodd;stroke:none" /><path
             d="m 235.012,420.148 60.73,-10.039 -9.707,-58.718 -16.172,-49.571 c 0,0 21.465,3.625 29.871,7.379 8.536,3.492 10.84,2.168 15.461,24.961 4.871,24.34 -1.726,76.508 -1.726,76.508 0,0 -1.574,16.078 -18.996,19.324 -19.801,3.699 -59.864,12.043 -104.778,12.043 -44.89,0 -82.234,-8.203 -101.9606,-12.207 -18.0156,-3.633 -19.0625,-19.398 -19.0625,-19.398 0,0 -6.8399,-52.242 -1.6328,-76.528 5.0156,-22.632 6.8711,-21.418 15.4218,-25.039 8.5,-3.675 29.9371,-7.301 29.9371,-7.301 l -16.1871,49.68 -9.6914,58.703 60.6605,9.914 c 0,0 26.652,2.055 42.632,2.055 15.993,0 45.2,-1.766 45.2,-1.766"
             id="path28"
             style="fill:#ffffff;fill-opacity:1;fill-rule:evenodd;stroke:none" /><path
             d="m 184.844,358.324 c -0.543,-0.258 -17.371,-14.922 -23.074,-30.867 -5.676,-15.715 -20.254,-27.887 -26.297,-29.508 0,0 25.011,-4.062 55.504,-3.847 30.5,0.312 56.378,3.453 56.378,3.453 -6.05,1.625 -20.617,13.757 -26.293,29.511 -5.636,15.883 -22.546,31 -23.011,31.258 -0.613,0.293 -1.668,0.961 -6.328,0.961 -4.582,0 -6.414,-0.668 -6.879,-0.961"
             id="path30"
             style="fill:#ffffff;fill-opacity:1;fill-rule:evenodd;stroke:none" /><path
             d="m 328.652,327.066 c -5.82,-29.082 -8.3,-26.386 -18.507,-30.875 0,0 -45.965,-16.765 -119.133,-16.765 -73.18,0 -118.6722,16.66 -118.6722,16.66 -10.1914,4.398 -12.6328,1.738 -18.4765,30.84 -5.8672,29.14 1.2305,91.648 1.2305,91.648 0,0 3.0429,19.828 23.5937,23.461 22.8325,4.176 45.0855,11.485 112.8825,14.27 l 0.2,0.054 c 67.156,-2.785 89.507,-9.629 112.078,-14.16 21.523,-4.207 23.554,-23.293 23.554,-23.293 0,0 7.032,-62.707 1.25,-91.84 M 247.754,214.133 c -5.524,15.484 -25.289,28.015 -56.031,28.015 -30.711,0 -53.207,-14.187 -56.203,-28.015 l -0.458,12.332 c 0,18.312 25.422,32.89 56.626,32.89 31.374,0 56.703,-14.578 56.703,-32.89 l -0.637,-12.332 z m 91.641,210.617 c -4.661,31.133 -39.551,45.957 -39.551,45.957 -41.274,55.301 -84.981,57.965 -84.981,57.965 l 0,-7.711 c 0,0 -0.312,-4.715 6.082,-7.332 7.43,-2.965 12.617,-6.676 12.617,-6.676 l 17.879,-15.375 -6.39,-6.32 -16.36,13.769 c 0,0 -7.109,5.176 -14.515,8.141 -7.453,3.02 -7.821,11.539 -7.821,11.539 l 0,26.031 -30.585,0 0,-26.031 c 0,0 -0.383,-8.551 -7.825,-11.582 -7.461,-3.02 -14.515,-8.141 -14.515,-8.141 l -16.379,-13.824 -6.363,6.34 17.867,15.375 c 0,0 5.199,3.789 12.629,6.754 6.375,2.562 6.039,7.332 6.039,7.332 l 0,7.668 c 0,0 -43.688,-2.621 -84.8714,-57.973 0,0 -34.9688,-14.933 -39.6446,-45.906 -4.6211,-31.09 -7.0781,-73.645 -0.875,-108.145 5.5508,-30.589 37.4805,-34.453 37.4805,-34.453 L 121.863,228.496 53.3438,220.82 c 0,0 -1.2696,-3.386 -0.8399,-9.773 0.457,-6.25 2.957,-10.676 2.957,-10.676 l 72.3831,7.746 c 0,0 1,-4.679 2.738,-13.996 0,0 3.426,-34.551 60.223,-34.551 56.797,0 60.722,34.61 60.722,34.61 1.75,9.258 6.094,32.011 6.094,32.011 l 45.25,56.016 c 0,0 31.863,3.809 37.402,34.473 6.219,34.425 3.797,76.98 -0.878,108.07"
             id="path32"
             style="fill:#ffffff;fill-opacity:1;fill-rule:evenodd;stroke:none" /></g></g></g></g></svg>