<?xml version="1.0" encoding="UTF-8" standalone="no"?>
<!-- Created with Inkscape (http://www.inkscape.org/) -->

<svg
   xmlns:dc="http://purl.org/dc/elements/1.1/"
   xmlns:cc="http://creativecommons.org/ns#"
   xmlns:rdf="http://www.w3.org/1999/02/22-rdf-syntax-ns#"
   xmlns:svg="http://www.w3.org/2000/svg"
   xmlns="http://www.w3.org/2000/svg"
   version="1.1"
   width="70.862503"
   height="70.862503"
   id="svg2"
   xml:space="preserve"><metadata
     id="metadata8"><rdf:RDF><cc:Work
         rdf:about=""><dc:format>image/svg+xml</dc:format><dc:type
           rdf:resource="http://purl.org/dc/dcmitype/StillImage" /><dc:title></dc:title></cc:Work></rdf:RDF></metadata><defs
     id="defs6"><clipPath
       id="clipPath18"><path
         d="M 0,566.93 0,0 l 566.934,0 0,566.93 -566.934,0 z"
         id="path20" /></clipPath></defs><g
     transform="matrix(1.25,0,0,-1.25,0,70.8625)"
     id="g10"><g
       transform="scale(0.1,0.1)"
       id="g12"><g
         id="g14"><g
           clip-path="url(#clipPath18)"
           id="g16"><path
             d="m 0,0 566.934,0 0,566.93 L 0,566.93 0,0 z"
             id="path22"
             style="fill:#00a650;fill-opacity:1;fill-rule:nonzero;stroke:none" /><path
             d="m 342.605,377.184 84.446,-10.543 -15.215,-84.477 -21.953,-67.437 c 0,0 29.16,4.941 40.625,9.921 11.582,4.903 14.637,3.094 20.93,34.024 6.621,33.043 -2.208,103.965 -2.208,103.965 0,0 -2.218,21.832 -25.832,26.246 -26.945,5.027 -81.386,16.289 -142.336,16.289 -61,0 -111.687,-11.09 -138.55,-16.539 -24.383,-4.961 -25.778,-26.317 -25.778,-26.317 0,0 -9.347,-70.933 -2.222,-103.949 6.715,-30.836 9.343,-29.137 20.875,-34.043 11.539,-4.976 40.683,-9.898 40.683,-9.898 l -21.961,67.449 -15.254,84.531 84.485,10.379 c 0,0 36.18,2.805 57.844,2.805 21.699,0 61.421,-2.406 61.421,-2.406"
             id="path24"
             style="fill:#ffffff;fill-opacity:1;fill-rule:evenodd;stroke:none" /><path
             d="m 274.457,291.543 c -0.785,-0.32 -23.656,-20.371 -31.316,-41.965 -7.77,-21.402 -27.528,-37.859 -35.762,-40.094 0,0 33.933,-5.5 75.394,-5.136 41.446,0.371 76.575,4.683 76.575,4.683 -8.188,2.153 -28,18.606 -35.703,40.031 -7.676,21.622 -30.637,42.161 -31.301,42.481 -0.782,0.332 -2.239,1.289 -8.532,1.289 -6.21,0 -8.71,-0.934 -9.355,-1.289"
             id="path26"
             style="fill:#ffffff;fill-opacity:1;fill-rule:evenodd;stroke:none" /><path
             d="m 283.609,424.594 c -92.082,-3.801 -122.375,-13.739 -153.343,-19.379 -27.918,-4.965 -32.0082,-31.91 -32.0082,-31.91 0,0 -9.6601,-84.899 -1.6758,-124.387 7.949,-39.609 11.215,-36.016 25.055,-41.906 0,0 61.781,-22.735 161.211,-22.735 99.32,0 161.781,22.911 161.781,22.911 13.84,6.074 17.234,2.382 25.098,41.874 7.878,39.571 -1.68,124.739 -1.68,124.739 0,0 -2.793,25.867 -31.992,31.66 -30.664,6.113 -60.996,15.43 -152.223,19.25 l -0.223,-0.117 M 364.98,68.6133 c 2.364,12.5469 8.25,43.3597 8.25,43.3597 l 61.426,76.191 c 0,0 43.324,5.188 50.879,46.777 8.43,46.731 5.102,104.551 -1.238,146.762 -6.317,42.281 -53.723,62.434 -53.723,62.434 -56.012,75.078 -115.359,78.765 -115.359,78.765 l 0,-10.574 c 0,0 -0.449,-6.328 8.269,-9.851 10.063,-4.137 17.082,-9.114 17.082,-9.114 l 24.344,-20.84 -8.633,-8.625 -22.261,18.723 c 0,0 -9.582,7.008 -19.77,11.067 -10.098,4.117 -10.547,15.652 -10.547,15.652 l 0,35.383 -41.554,0 0,-35.446 c 0,0 -0.559,-11.519 -10.625,-15.644 -10.141,-4.047 -19.758,-11.031 -19.758,-11.031 l -22.25,-18.813 -8.614,8.594 24.344,20.836 c 0,0 6.985,5.121 17.059,9.203 8.672,3.508 8.222,9.906 8.222,9.906 l 0,10.465 c 0,0 -59.308,-3.578 -115.343,-78.731 0,0 -47.4222,-20.281 -53.7073,-62.359 -6.3125,-42.211 -9.668,-100.031 -1.2539,-146.801 7.539,-41.64 50.9262,-46.882 50.9262,-46.882 l 57.796,-72.825 -93.0816,-10.418 c 0,0 -1.7032,-4.601 -1.1485,-13.2458 C 95.3359,82.9219 98.75,77.0508 98.75,77.0508 L 197.008,87.5 c 0,0 1.422,-6.3398 3.738,-18.9336 0,0 4.645,-47.0352 81.82,-47.0352 77.129,0 82.414,47.0821 82.414,47.0821"
             id="path28"
             style="fill:#ffffff;fill-opacity:1;fill-rule:evenodd;stroke:none" /><path
             d="m 365.359,81.9531 c 0,26.5819 -36.589,47.7029 -81.847,47.7029 -45.043,0 -81.617,-21.121 -81.617,-47.7029 l 0.75,-5.1562 c 4.386,19.8359 36.832,40.3511 81.07,40.3511 44.39,0 72.973,-18.2027 80.836,-40.3511 l 0.808,5.1562"
             id="path30"
             style="fill:#00a650;fill-opacity:1;fill-rule:evenodd;stroke:none" /><path
             d="m 365.52,117.844 c 0,26.465 -36.594,47.461 -81.805,47.461 -45.031,0 -81.645,-20.996 -81.645,-47.461 l 0.782,-5.383 c 4.339,19.902 36.871,40.383 81.285,40.383 44.203,0 72.699,-18.137 80.558,-40.383 l 0.825,5.383"
             id="path32"
             style="fill:#00a650;fill-opacity:1;fill-rule:evenodd;stroke:none" /></g></g></g></g></svg>