<?xml version="1.0" encoding="UTF-8" standalone="no"?>
<!-- Created with Inkscape (http://www.inkscape.org/) -->

<svg
   xmlns:dc="http://purl.org/dc/elements/1.1/"
   xmlns:cc="http://creativecommons.org/ns#"
   xmlns:rdf="http://www.w3.org/1999/02/22-rdf-syntax-ns#"
   xmlns:svg="http://www.w3.org/2000/svg"
   xmlns="http://www.w3.org/2000/svg"
   version="1.1"
   width="70.862503"
   height="70.862503"
   id="svg2"
   xml:space="preserve"><metadata
     id="metadata8"><rdf:RDF><cc:Work
         rdf:about=""><dc:format>image/svg+xml</dc:format><dc:type
           rdf:resource="http://purl.org/dc/dcmitype/StillImage" /><dc:title></dc:title></cc:Work></rdf:RDF></metadata><defs
     id="defs6"><clipPath
       id="clipPath18"><path
         d="M 0,566.93 0,0 l 566.934,0 0,566.93"
         id="path20" /></clipPath></defs><g
     transform="matrix(1.25,0,0,-1.25,0,70.8625)"
     id="g10"><g
       transform="scale(0.1,0.1)"
       id="g12"><g
         id="g14"><g
           clip-path="url(#clipPath18)"
           id="g16"><path
             d="m 0,0 566.934,0 0,566.93 L 0,566.93 0,0 z"
             id="path22"
             style="fill:#00a650;fill-opacity:1;fill-rule:nonzero;stroke:none" /><path
             d="m 0,0 566.934,0 0,566.93 L 0,566.93 0,0 z"
             id="path24"
             style="fill:#00a650;fill-opacity:1;fill-rule:nonzero;stroke:none" /><path
             d="m 313.645,171.965 88.503,0 0,67.613 88.567,0 0,63.137 46.797,0 0.047,22.074 -67.969,0 0,-67.59 -88.567,0 0,-67.48 -88.503,0 0,-67.551 -88.5,0 0,-67.6172 -158.4145,0 0.1093,-19.8516 179.4222,0 0,69.6958 88.508,0 0,67.57"
             id="path26"
             style="fill:#ffffff;fill-opacity:1;fill-rule:nonzero;stroke:none" /><path
             d="m 183.926,246.418 -55.93,25.34 -58.8202,-104.754 c -3.1914,-5.859 -10.4727,-7.863 -16.2227,-4.707 l -17.2656,9.414 c -5.7031,3.289 -7.8398,10.508 -4.6484,16.238 l 71.1719,129.086 c 4.953,9.098 13.797,13.008 23.379,8.641 l 64.797,-29.352 19.593,66.903 -36.71,-20.676 c -6.04,-3.332 -13.719,-1.453 -16.942,4.261 l -4.289,7.653 c -3.254,5.734 -0.902,13.176 5.168,16.64 l 65.504,36.856 8.144,29.582 c 3.016,12.434 16.254,11.344 16.254,11.344 l 23.938,-3.512 24.383,-8.754 -111.504,-190.203"
             id="path28"
             style="fill:#ffffff;fill-opacity:1;fill-rule:nonzero;stroke:none" /><path
             d="m 308.789,498.207 c -0.519,22.422 -19.094,40.137 -41.601,39.641 -22.379,-0.547 -40.118,-19.121 -39.645,-41.575 0.547,-22.429 19.191,-40.238 41.613,-39.734 22.453,0.633 40.153,19.219 39.633,41.668"
             id="path30"
             style="fill:#ffffff;fill-opacity:1;fill-rule:nonzero;stroke:none" /><path
             d="m 363.984,265.93 c -3.601,4.539 -10.293,5.215 -14.754,1.492 -40.042,-32.754 -71.402,-57.805 -97.234,-78.016 l -38.434,18.524 149.907,250.972 c 1.355,2.266 1.804,4.961 1.25,7.563 l -15.278,69.84 c -1.226,5.679 -6.812,9.265 -12.488,8.043 -5.027,-1.086 -9.433,-7.09 -8.008,-12.5 0,0 12.766,-58.477 14.325,-65.758 -2.579,-4.391 -86.59,-145.039 -148.696,-249 l -44.152,21.289 c -5.504,2.617 -12.145,0.32 -14.707,-5.117 -2.641,-5.606 -0.285,-12.227 5.191,-14.774 l 42.313,-20.414 c -16.344,-27.359 -30.531,-51.109 -40.309,-67.469 -2.719,0.793 -5.551,1.309 -8.531,1.25 -15.719,-0.339 -28.184,-13.425 -27.793,-29.218 0.418,-15.6253 13.41,-28.0862 29.129,-27.7425 12.574,0.293 22.961,8.7657 26.465,20.1953 41.789,31.0312 87.941,64.0512 200.371,156.0942 4.492,3.652 5.105,10.254 1.433,14.746 z M 232.543,174.27 c -29.617,-22.872 -51.234,-38.801 -71.004,-53.442 l 40.664,68.09 30.34,-14.648"
             id="path32"
             style="fill:#ffffff;fill-opacity:1;fill-rule:nonzero;stroke:none" /></g></g></g></g></svg>