<?xml version="1.0" encoding="UTF-8" standalone="no"?>
<!-- Created with Inkscape (http://www.inkscape.org/) -->

<svg
   xmlns:dc="http://purl.org/dc/elements/1.1/"
   xmlns:cc="http://creativecommons.org/ns#"
   xmlns:rdf="http://www.w3.org/1999/02/22-rdf-syntax-ns#"
   xmlns:svg="http://www.w3.org/2000/svg"
   xmlns="http://www.w3.org/2000/svg"
   version="1.1"
   width="70.862503"
   height="70.862503"
   id="svg2"
   xml:space="preserve"><metadata
     id="metadata8"><rdf:RDF><cc:Work
         rdf:about=""><dc:format>image/svg+xml</dc:format><dc:type
           rdf:resource="http://purl.org/dc/dcmitype/StillImage" /><dc:title></dc:title></cc:Work></rdf:RDF></metadata><defs
     id="defs6"><clipPath
       id="clipPath18"><path
         d="M 0,566.93 0,0 l 566.934,0 0,566.93 -566.934,0 z"
         id="path20" /></clipPath></defs><g
     transform="matrix(1.25,0,0,-1.25,0,70.8625)"
     id="g10"><g
       transform="scale(0.1,0.1)"
       id="g12"><g
         id="g14"><g
           clip-path="url(#clipPath18)"
           id="g16"><path
             d="M 566.934,0.0117188 0.0117188,0 0,566.918 566.914,566.93 566.934,0.0117188"
             id="path22"
             style="fill:#00a650;fill-opacity:1;fill-rule:nonzero;stroke:none" /><path
             d="m 147.184,363.074 c -14.645,2.895 -28.629,7.375 -38.715,19.164 -17.512,20.461 -6.785,57.821 27.367,71.754 2.976,1.211 7.008,2.461 11.348,3.637 l 0,-94.555 z m 52.765,-57.527 c 7.098,-13.582 7.246,-29.434 -2.836,-40.438 -10.367,-11.32 -22.215,-14.464 -35.14,-16.781 l -0.004,78.852 c 14.601,-2.785 30.621,-7.539 37.98,-21.633 z M 147.188,177.238 c -4.024,1.485 -7.579,3.153 -9.876,5.02 -8.597,6.988 -8.417,19.219 -0.054,28.074 2.652,2.813 6.105,4.66 9.93,5.938 l 0,-39.032 z m 33.207,-57.277 c 0.714,-12.09 -7.797,-20.4883 -18.422,-24.8243 l 0,44.1093 c 9.226,-3.152 17.754,-8.004 18.422,-19.285 z m 84.656,357.211 c -22.137,13.555 -49.707,20.246 -79.403,18.742 -7.71,-0.394 -15.8,-1.734 -23.679,-3.383 l 0,47.766 -14.785,0 0,-51.16 c -15.805,-3.903 -28.918,-8.86 -42.911,-18.375 -24.3902,-16.602 -37.2183,-46.688 -33.3511,-74.856 1.3672,-9.972 6,-22.433 11.1601,-31.179 6.3789,-10.817 15.0664,-16.118 25.148,-22.684 12,-7.813 26.016,-10.227 39.954,-12.398 l 0.004,-83.93 c -1.469,-0.293 -2.954,-0.606 -4.446,-0.949 C 112.41,237.734 91.5,211.691 95.0156,186.301 96.9961,171.965 106.5,154.426 120.551,148.938 c 8.48,-3.313 17.707,-3.977 26.637,-5.684 l 0,-51.4571 c -3.481,-0.2031 -6.86,0.0117 -9.922,0.6445 -16.836,3.5352 -33.071,20.6836 -39.9379,26.7306 -1.1914,-32.7189 23.9809,-50.754 40.9769,-53.4298 2.226,-0.3516 5.383,-0.6524 8.883,-0.8399 l 0,-35.039 14.789,0 0,35.1875 c 2.718,0.2304 5.168,0.625 7.046,1.2109 17.532,5.418 32.547,18.8672 37.454,36.8433 2.289,8.399 4.089,21.348 1.765,29.891 -1.719,6.359 -5.133,14.32 -9.469,19.359 -6.492,7.54 -18.222,15.301 -27.918,18.055 -2.355,0.676 -5.472,1.465 -8.882,2.356 l 0,46.355 c 3.562,0.402 7.027,0.723 10.113,1.211 18.555,2.961 34.949,9.434 46.875,24.504 11.289,14.277 17.008,33.008 17.324,51.141 0.137,7.785 -1.047,17.863 -4.769,24.859 -10.137,19.051 -28.895,29.223 -48.828,35.23 -6.567,1.977 -13.594,3.243 -20.719,4.426 l 0,100.66 c 2.765,0.586 5.328,1.086 7.445,1.465 8.977,1.606 25.227,2.766 33.004,-3.691 16.473,-13.684 31.707,-20.274 54.738,-19.235 8.289,0.371 23.496,5.938 26.512,12.786 4.375,9.941 -9.598,19.168 -18.617,24.695"
             id="path24"
             style="fill:#ffffff;fill-opacity:1;fill-rule:nonzero;stroke:none" /><path
             d="m 538.762,440.68 0,53.261 -47.344,0 0,47.344 -53.266,0 0,-47.347 -47.34,0 0,-53.262 47.34,0 0,-47.348 53.266,0 0,47.352 47.344,0"
             id="path26"
             style="fill:#ffffff;fill-opacity:1;fill-rule:nonzero;stroke:none" /></g></g></g></g></svg>