<?xml version="1.0" encoding="UTF-8" standalone="no"?>
<!-- Created with Inkscape (http://www.inkscape.org/) -->

<svg
   xmlns:dc="http://purl.org/dc/elements/1.1/"
   xmlns:cc="http://creativecommons.org/ns#"
   xmlns:rdf="http://www.w3.org/1999/02/22-rdf-syntax-ns#"
   xmlns:svg="http://www.w3.org/2000/svg"
   xmlns="http://www.w3.org/2000/svg"
   version="1.1"
   width="70.162498"
   height="70.162498"
   id="svg2"
   xml:space="preserve"><metadata
     id="metadata8"><rdf:RDF><cc:Work
         rdf:about=""><dc:format>image/svg+xml</dc:format><dc:type
           rdf:resource="http://purl.org/dc/dcmitype/StillImage" /><dc:title></dc:title></cc:Work></rdf:RDF></metadata><defs
     id="defs6" /><g
     transform="matrix(1.25,0,0,-1.25,0,70.1625)"
     id="g10"><path
       d="m 74.919279,41.77047 a 31.662313,31.662313 0 1 1 -63.324627,0 31.662313,31.662313 0 1 1 63.324627,0 z"
       transform="matrix(0.8,0,0,-0.8,-6.162161,61.405678)"
       id="path3019"
       style="color:#000000;fill:#ffffff;fill-opacity:1;fill-rule:nonzero;stroke:none;stroke-width:1;marker:none;visibility:visible;display:inline;overflow:visible;enable-background:accumulate" /><g
       transform="scale(0.1,0.1)"
       id="g12"><path
         d="m 561.266,280.551 c 0,154.558 -126.328,280.711 -280.7,280.711 C 126.199,561.262 0,435.109 0,280.551 0,126.145 126.199,0 280.566,0 c 154.372,0 280.7,126.145 280.7,280.551"
         id="path14"
         style="fill:#5fcbf4;fill-opacity:1;fill-rule:nonzero;stroke:none" /><path
         d="m 561.266,280.551 c 0,154.558 -126.328,280.711 -280.7,280.711 C 126.199,561.262 0,435.109 0,280.551 0,126.145 126.199,0 280.566,0 c 154.372,0 280.7,126.145 280.7,280.551"
         id="path16"
         style="fill:#ed1c24;fill-opacity:1;fill-rule:nonzero;stroke:none" /><path
         d="m 462.34,149.055 c 26.883,36.98 42.762,82.437 42.762,131.496 0,123.644 -100.879,224.679 -224.536,224.679 -48.878,0 -94.175,-15.792 -131.097,-42.496 L 462.34,149.055"
         id="path18"
         style="fill:#ffffff;fill-opacity:1;fill-rule:nonzero;stroke:none" /><path
         d="M 108.902,425.059 C 75.957,385.898 56.0312,335.492 56.0312,280.551 56.0312,156.875 156.91,56.0352 280.566,56.0352 c 54.672,0 104.907,19.7265 143.922,52.4338 l -315.586,316.59"
         id="path20"
         style="fill:#ffffff;fill-opacity:1;fill-rule:nonzero;stroke:none" /><path
         d="m 308.754,377.535 32.902,32.211 -26.398,0 0,53.059 -13.047,0 0,-53.059 -26.688,0 33.231,-32.211"
         id="path22"
         style="fill:#231f20;fill-opacity:1;fill-rule:nonzero;stroke:none" /><path
         d="m 242.309,462.805 -32.895,-32.27 26.363,0 0,-53 13.075,0 0,53 26.671,0 -33.214,32.27"
         id="path24"
         style="fill:#231f20;fill-opacity:1;fill-rule:nonzero;stroke:none" /><path
         d="m 234.418,279.371 c 10.894,0.477 21.652,-1.367 27.363,-10.926 l 13.926,-46.961 -0.348,-2.863 c -0.656,-1.512 -2.347,-3.008 -4.183,-3.008 -2.176,-0.332 -4.188,0.668 -5.711,2.492 l -12.266,40.821 -4.179,-0.188 20.125,-67.097 -18.262,0 -0.18,-51.375 c 0.18,-2.364 -1.683,-4.192 -3.344,-5.364 -2.047,-1.191 -4.523,-1.054 -6.554,-0.136 -2.02,0.996 -3.36,3.136 -3.867,5.129 l 0,51.558 -5.028,0 0,-51.558 c -0.5,-1.993 -1.867,-4.133 -3.867,-5.129 -2.02,-0.918 -4.508,-1.055 -6.523,0.136 -1.692,1.172 -3.375,3 -3.208,5.364 l -0.167,51.375 -18.465,0 20.148,67.097 -4.016,0.188 -12.429,-40.821 c -1.52,-1.824 -3.52,-2.824 -5.707,-2.492 -1.864,0 -3.531,1.496 -4.192,3.008 l -0.332,2.863 13.918,46.961 c 5.703,9.559 16.465,11.403 27.348,10.926"
         id="path26"
         style="fill:#231f20;fill-opacity:1;fill-rule:nonzero;stroke:none" /><path
         d="m 226.113,307.48 c -1.187,-0.839 -2.23,-1.882 -3.093,-3.117 -3.024,-3.836 -3.524,-10.23 -1.34,-14.418 2.496,-4.519 7.554,-8.211 12.914,-8.074 4.414,0 8.426,2.324 11.144,5.918 l -19.625,19.691"
         id="path28"
         style="fill:#231f20;fill-opacity:1;fill-rule:nonzero;stroke:none" /><path
         d="m 329.633,282.047 c 1.211,0.043 2.394,0.277 3.496,0.683 3.652,1.317 7.461,4.844 8.527,8.536 1.336,3.414 1.133,8.074 -0.488,11.078 -3.047,6.894 -11.133,9.594 -17.785,7.082 -5.203,-1.797 -8.485,-7.016 -9.129,-11.906 l 15.379,-15.473"
         id="path30"
         style="fill:#231f20;fill-opacity:1;fill-rule:nonzero;stroke:none" /><path
         d="m 362.973,249.055 0,14.05 c -1.504,5.887 -8.446,11.391 -14.246,12.399 l -12.2,0.058 26.446,-26.507"
         id="path32"
         style="fill:#231f20;fill-opacity:1;fill-rule:nonzero;stroke:none" /><path
         d="m 330.895,202.82 0,-63.55 c 0,-2.676 1.335,-4.731 3.203,-6.368 2.324,-1.371 5.359,-2.179 8.242,-0.996 2.519,0.625 4.676,3.543 5.203,5.996 l -0.125,48.309 -16.523,16.609"
         id="path34"
         style="fill:#231f20;fill-opacity:1;fill-rule:nonzero;stroke:none" /><path
         d="m 293.715,240.09 0.097,-29.68 1.68,-3.222 c 1.68,-1.133 3.867,-1.805 6.055,-1.133 1.66,0.644 3.34,2.148 3.848,3.996 l 0.039,18.261 -11.719,11.778"
         id="path36"
         style="fill:#231f20;fill-opacity:1;fill-rule:nonzero;stroke:none" /><path
         d="m 309.82,223.938 0.118,-87.161 c 0.808,-2.011 3.007,-4.246 5.203,-5.058 1.828,-0.703 4.668,-0.703 6.699,0.187 2.355,0.809 4.219,3.36 4.707,5.684 l 0.168,67.969 1.414,0 -18.309,18.379"
         id="path38"
         style="fill:#231f20;fill-opacity:1;fill-rule:nonzero;stroke:none" /><path
         d="m 268.723,343.16 123.929,0 0,-124.273 13.602,-13.645 0,151.469 -151.074,0 13.543,-13.551"
         id="path40"
         style="fill:#231f20;fill-opacity:1;fill-rule:nonzero;stroke:none" /><path
         d="m 392.652,140.41 0,-20.945 -223.66,0 -0.183,223.695 21.796,0 -13.566,13.551 -21.812,0 0.16,-250.852 250.867,0 0,20.95 -13.602,13.601"
         id="path42"
         style="fill:#231f20;fill-opacity:1;fill-rule:nonzero;stroke:none" /></g></g></svg>