<?xml version="1.0" encoding="UTF-8" standalone="no"?>
<!-- Created with Inkscape (http://www.inkscape.org/) -->

<svg
   xmlns:dc="http://purl.org/dc/elements/1.1/"
   xmlns:cc="http://creativecommons.org/ns#"
   xmlns:rdf="http://www.w3.org/1999/02/22-rdf-syntax-ns#"
   xmlns:svg="http://www.w3.org/2000/svg"
   xmlns="http://www.w3.org/2000/svg"
   version="1.1"
   width="70.862503"
   height="62.037498"
   id="svg2"
   xml:space="preserve"><metadata
     id="metadata8"><rdf:RDF><cc:Work
         rdf:about=""><dc:format>image/svg+xml</dc:format><dc:type
           rdf:resource="http://purl.org/dc/dcmitype/StillImage" /><dc:title></dc:title></cc:Work></rdf:RDF></metadata><defs
     id="defs6"><clipPath
       id="clipPath18"><path
         d="m 0,0 566.934,0 0,496 L 0,496 0,0 z"
         id="path20" /></clipPath></defs><g
     transform="matrix(1.25,0,0,-1.25,0,62.0375)"
     id="g10"><g
       transform="scale(0.1,0.1)"
       id="g12"><g
         id="g14"><g
           clip-path="url(#clipPath18)"
           id="g16"><path
             d="M 30.5859,0 536.348,0 c 16.882,0 30.586,13.6211 30.586,30.4102 0,5.3515 -1.407,10.5781 -4.102,15.207 L 309.949,481.047 c -8.433,14.594 -27.156,19.519 -41.773,11.125 -4.653,-2.617 -8.504,-6.508 -11.199,-11.125 L 4.10156,45.6172 C -4.33984,31.0742 0.671875,12.4727 15.293,4.08203 19.9414,1.40625 25.207,0 30.5859,0 l 0,0"
             id="path22"
             style="fill:#fcd213;fill-opacity:1;fill-rule:evenodd;stroke:none" /><path
             d="m 30.5859,15.0117 505.7621,0 c 8.437,0 15.293,6.8164 15.293,15.2031 0,2.6758 -0.735,5.293 -2.079,7.6094 L 296.68,473.246 c -4.219,7.301 -13.578,9.797 -20.86,5.598 -2.324,-1.34 -4.281,-3.282 -5.629,-5.598 L 17.3164,37.8242 c -4.2266,-7.2461 -1.7148,-16.543 5.625,-20.7461 2.3242,-1.3359 4.9531,-2.0664 7.6445,-2.0664 l 0,0"
             id="path24"
             style="fill:#231f20;fill-opacity:1;fill-rule:evenodd;stroke:none" /><path
             d="m 67.6055,51.6719 431.5545,0 L 283.418,423.246 67.6055,51.6719 l 0,0"
             id="path26"
             style="fill:#fcd213;fill-opacity:1;fill-rule:evenodd;stroke:none" /><path
             d="m 313.895,102.148 c 0,17.063 -13.75,31.36 -30.434,31.36 -16.688,0 -30.434,-14.297 -30.434,-31.36 0,-17.0582 13.746,-31.3589 30.434,-31.3589 16.684,0 30.434,14.3007 30.434,31.3589 l 0,0"
             id="path28"
             style="fill:#231f20;fill-opacity:1;fill-rule:nonzero;stroke:none" /><path
             d="M 249.102,301.344 263.336,177.41 c 1.226,-10.535 9.816,-18.316 20.125,-18.316 10.309,0 19.144,7.781 20.367,18.316 l 14.238,123.934 c 0,19.316 -15.461,35.121 -34.605,35.121 -18.899,0 -34.359,-15.805 -34.359,-35.121 l 0,0"
             id="path30"
             style="fill:#231f20;fill-opacity:1;fill-rule:nonzero;stroke:none" /></g></g></g></g></svg>