<?xml version="1.0" encoding="UTF-8" standalone="no"?>
<!-- Created with Inkscape (http://www.inkscape.org/) -->

<svg
   xmlns:dc="http://purl.org/dc/elements/1.1/"
   xmlns:cc="http://creativecommons.org/ns#"
   xmlns:rdf="http://www.w3.org/1999/02/22-rdf-syntax-ns#"
   xmlns:svg="http://www.w3.org/2000/svg"
   xmlns="http://www.w3.org/2000/svg"
   version="1.1"
   width="70.862503"
   height="62.037498"
   id="svg2"
   xml:space="preserve"><metadata
     id="metadata8"><rdf:RDF><cc:Work
         rdf:about=""><dc:format>image/svg+xml</dc:format><dc:type
           rdf:resource="http://purl.org/dc/dcmitype/StillImage" /><dc:title></dc:title></cc:Work></rdf:RDF></metadata><defs
     id="defs6"><clipPath
       id="clipPath18"><path
         d="m 0,0 566.938,0 0,496 L 0,496 0,0 z"
         id="path20" /></clipPath></defs><g
     transform="matrix(1.25,0,0,-1.25,0,62.0375)"
     id="g10"><g
       transform="scale(0.1,0.1)"
       id="g12"><g
         id="g14"><g
           clip-path="url(#clipPath18)"
           id="g16"><path
             d="M 30.5898,0 536.352,0 c 16.886,0 30.586,13.6211 30.586,30.4102 0,5.3515 -1.407,10.5742 -4.102,15.2031 L 309.957,481.035 c -8.437,14.594 -27.16,19.516 -41.777,11.129 -4.657,-2.617 -8.508,-6.508 -11.2,-11.129 L 4.10156,45.6133 C -4.33984,31.0742 0.679688,12.4727 15.2969,4.07031 19.9453,1.39453 25.207,0 30.5898,0 l 0,0"
             id="path22"
             style="fill:#fcd213;fill-opacity:1;fill-rule:evenodd;stroke:none" /><path
             d="m 30.5898,15.0117 505.7622,0 c 8.437,0 15.293,6.8125 15.293,15.2031 0,2.6758 -0.743,5.293 -2.079,7.5977 L 296.684,473.238 c -4.219,7.301 -13.582,9.789 -20.86,5.594 -2.324,-1.336 -4.285,-3.285 -5.629,-5.594 L 17.3164,37.8125 c -4.2226,-7.2383 -1.7109,-16.5352 5.6289,-20.7344 2.3242,-1.3359 4.957,-2.0664 7.6445,-2.0664 l 0,0"
             id="path24"
             style="fill:#231f20;fill-opacity:1;fill-rule:evenodd;stroke:none" /><path
             d="m 67.6055,51.6719 431.5585,0 L 283.418,423.238 67.6055,51.6719 l 0,0"
             id="path26"
             style="fill:#fcd213;fill-opacity:1;fill-rule:evenodd;stroke:none" /><path
             d="m 243.598,91.5156 c -21.59,20.3204 -35.082,48.6604 -37.782,78.7574 0,0.497 0,0.75 0,1.25 0,6.524 -1.464,13.047 -4.66,18.821 7.36,-2.016 13.496,-7.278 17.172,-14.309 -4.172,12.805 -3.433,26.848 2.207,39.129 0.985,2.016 1.473,4.27 1.473,6.777 0,5.012 -2.453,9.778 -6.379,12.786 12.266,-1.504 22.816,-8.782 28.949,-19.563 2.207,8.527 5.399,17.063 9.817,24.832 2.453,4.012 3.675,9.027 3.675,14.047 0,7.523 -3.187,15.051 -8.582,20.316 11.039,-4.515 19.621,-13.543 24.285,-24.832 l 0,10.035 c -9.812,13.29 -5.156,32.606 9.567,39.626 -0.735,-3.012 -1.227,-6.02 -1.227,-9.028 0,-8.777 3.434,-17.055 9.571,-23.074 10.058,-7.524 16.191,-19.566 16.191,-32.106 0,-1.757 -0.242,-3.503 -0.242,-5.019 9.07,5.769 14.472,16.055 14.472,27.09 0,0.754 0,1.754 0,2.511 6.622,-11.292 10.059,-24.082 10.059,-37.121 0,-9.277 -1.719,-18.554 -5.156,-27.089 12.265,7.531 20.117,21.32 20.117,36.125 0,2.753 -0.246,5.511 -0.977,8.265 9.559,-13.289 14.715,-29.344 14.715,-45.894 0,-13.289 -3.437,-26.336 -9.812,-38.125 8.34,5.515 13.738,14.55 14.472,24.836 0.497,-3.762 0.497,-7.278 0.497,-10.786 0,-29.597 -11.778,-57.695 -32.637,-78.2574 l -24.285,0 c 22.078,8.7774 36.562,30.3474 37.05,54.4294 -2.453,-9.785 -9.816,-17.312 -19.14,-19.812 4.91,8.015 7.851,17.551 7.851,27.082 0,6.023 -1.222,11.797 -3.183,17.312 0,-13.547 -10.801,-24.836 -24.043,-24.836 6.375,9.536 9.558,20.317 9.558,31.606 0,14.043 -5.144,27.586 -14.472,37.867 0,-0.254 0,-0.496 0,-0.75 0,-17.305 -5.145,-34.355 -14.473,-48.906 -9.812,10.781 -14.961,25.078 -14.473,39.629 -6.378,-8.028 -10.058,-18.059 -10.058,-28.594 0,-7.273 1.719,-14.297 5.152,-20.82 -14.719,4.765 -24.531,18.82 -24.289,34.621 -1.226,-5.774 -1.957,-11.543 -1.957,-17.317 0,-17.05 5.887,-33.855 16.434,-47.148 -8.34,2.258 -16.434,5.516 -24.039,10.027 7.351,-18.804 20.605,-34.605 37.777,-44.6365 l -29.195,0.2461"
             id="path28"
             style="fill:#231f20;fill-opacity:1;fill-rule:nonzero;stroke:none" /><path
             d="m 227.652,74.9609 116.289,0 0,9.03125 -116.289,0 0,-9.03125 z"
             id="path30"
             style="fill:#231f20;fill-opacity:1;fill-rule:nonzero;stroke:none" /></g></g></g></g></svg>