<?xml version="1.0" encoding="UTF-8" standalone="no"?>
<!-- Created with Inkscape (http://www.inkscape.org/) -->

<svg
   xmlns:dc="http://purl.org/dc/elements/1.1/"
   xmlns:cc="http://creativecommons.org/ns#"
   xmlns:rdf="http://www.w3.org/1999/02/22-rdf-syntax-ns#"
   xmlns:svg="http://www.w3.org/2000/svg"
   xmlns="http://www.w3.org/2000/svg"
   version="1.1"
   width="70.862503"
   height="62.037498"
   id="svg2"
   xml:space="preserve"><metadata
     id="metadata8"><rdf:RDF><cc:Work
         rdf:about=""><dc:format>image/svg+xml</dc:format><dc:type
           rdf:resource="http://purl.org/dc/dcmitype/StillImage" /><dc:title></dc:title></cc:Work></rdf:RDF></metadata><defs
     id="defs6"><clipPath
       id="clipPath18"><path
         d="m 0,0 566.938,0 0,496 L 0,496 0,0 z"
         id="path20" /></clipPath></defs><g
     transform="matrix(1.25,0,0,-1.25,0,62.0375)"
     id="g10"><g
       transform="scale(0.1,0.1)"
       id="g12"><g
         id="g14"><g
           clip-path="url(#clipPath18)"
           id="g16"><path
             d="M 30.5898,0 536.352,0 c 16.886,0 30.586,13.6211 30.586,30.4023 0,5.3516 -1.407,10.5821 -4.102,15.2032 L 309.957,481.035 c -8.437,14.594 -27.16,19.524 -41.777,11.129 -4.657,-2.617 -8.508,-6.504 -11.2,-11.129 L 4.10156,45.6055 C -4.33984,31.0742 0.679688,12.4609 15.2969,4.07031 19.9453,1.39844 25.207,0 30.5898,0 l 0,0"
             id="path22"
             style="fill:#fcd213;fill-opacity:1;fill-rule:evenodd;stroke:none" /><path
             d="m 30.5898,15.0117 505.7622,0 c 8.437,0 15.293,6.8047 15.293,15.2031 0,2.6758 -0.731,5.2813 -2.079,7.5977 L 296.684,473.238 c -4.219,7.301 -13.582,9.793 -20.86,5.594 -2.324,-1.336 -4.285,-3.281 -5.629,-5.594 L 17.3164,37.8125 c -4.2226,-7.2383 -1.7109,-16.543 5.6289,-20.7422 2.3242,-1.3359 4.957,-2.0586 7.6445,-2.0586 l 0,0"
             id="path24"
             style="fill:#231f20;fill-opacity:1;fill-rule:evenodd;stroke:none" /><path
             d="m 67.6055,51.6719 431.5585,0 L 283.418,423.238 67.6055,51.6719 l 0,0"
             id="path26"
             style="fill:#fcd213;fill-opacity:1;fill-rule:evenodd;stroke:none" /><path
             d="m 181.73,169.734 c -3.191,-0.504 -6.132,-1.511 -9.078,-2.761 -2.457,-1.004 -4.175,-3.504 -4.175,-6.27 0,-2.512 1.472,-4.765 3.679,-6.015 0.985,-0.508 1.477,-1.504 1.477,-2.762 0,-0.246 0,-0.754 -0.25,-0.996 -0.242,-0.508 -0.731,-0.754 -1.227,-0.508 -1.222,-1.762 -1.718,-3.762 -1.718,-6.02 0,-5.015 3.441,-9.273 8.347,-10.281 3.438,-0.754 7.117,-1.008 10.555,-1.008 1.472,0 2.945,0 4.414,0 2.949,0.254 5.894,-0.242 8.594,-1.25 l 39.511,-14.043 c 1.231,-2.761 2.211,-5.261 3.196,-7.769 L 191.547,94.7578 c -5.399,0 -10.555,-2.7656 -13.5,-7.5312 -0.488,-1.0039 -0.981,-2.2539 -0.981,-3.5039 0,-3.7618 2.95,-6.7813 6.379,-6.7813 l 0.246,0 c 2.211,0.2539 4.176,-0.9961 5.157,-3.0039 0.98,-2.0039 1.718,-3.5078 2.699,-5.0117 1.226,-2.5078 3.683,-4.0156 6.383,-4.0156 1.226,0 2.457,0.2578 3.437,0.7539 4.664,2.7539 8.59,6.2695 11.531,10.5273 1.719,2.5078 3.684,4.5234 6.141,6.0274 l 35.34,10.5234 c 6.629,-9.7734 17.672,-15.5469 29.207,-15.5469 11.781,0 22.582,5.7735 29.457,15.5469 l 35.098,-10.5234 c 2.449,-1.504 4.656,-3.5196 6.375,-6.0274 2.949,-4.2578 6.875,-8.0156 11.289,-10.5273 0.988,-0.4961 2.218,-0.7539 3.437,-0.7539 2.949,0 5.403,1.5078 6.633,4.0156 0.977,2.0039 1.719,3.5078 2.695,5.2656 0.985,1.7539 2.95,3.0039 5.157,2.75 l 0,0 c 3.679,0 6.375,3.0195 6.375,6.7813 0,1.25 -0.243,2.5 -0.977,3.5039 -2.949,4.7656 -7.852,7.5312 -13.496,7.5312 l -53.504,15.2932 c 1.219,2.754 2.207,5.261 3.191,7.769 l 39.512,14.043 c 2.695,1.008 5.645,1.504 8.594,1.25 1.465,0 2.941,0 4.414,0 3.684,0 7.363,0.254 10.801,1.008 4.902,1.008 8.34,5.266 8.34,10.281 0,2.258 -0.731,4.258 -1.707,6.02 -0.5,-0.246 -1.231,0 -1.485,0.508 -0.488,1.504 0,3.008 1.485,3.758 2.195,1.25 3.425,3.503 3.425,6.015 0,2.766 -1.472,5.266 -3.925,6.27 -2.95,1.25 -5.887,2.004 -9.082,2.761 -0.731,0.246 -1.219,0.246 -1.961,0.246 -3.926,0 -7.122,-2.753 -8.098,-6.511 -0.742,-4.27 -3.68,-7.778 -7.371,-9.531 l -37.793,-15.305 c 0.242,3.515 0.496,6.777 0.496,10.027 0,0.754 0,1.516 0,2.512 3.43,2.258 6.133,5.519 8.34,9.031 3.926,6.02 6.633,12.539 8.351,19.563 0.489,1.75 0.731,3.761 0.731,5.761 0,3.262 -0.731,6.778 -2.207,9.785 6.379,7.024 10.058,15.793 10.801,25.325 0.246,3.515 0.488,7.019 0.488,10.535 0,6.769 -0.488,13.293 -1.473,19.808 -2.207,14.797 -10.058,28.086 -21.847,36.868 -12.762,9.523 -28.465,14.793 -44.422,14.793 0,0 0,0 -0.246,0 l -11.539,0 c -0.243,0 -0.243,0 -0.489,0 -15.949,0 -31.414,-5.27 -44.422,-14.793 -11.781,-8.782 -19.632,-22.071 -21.843,-36.618 -0.985,-6.519 -1.473,-13.289 -1.473,-20.058 0,-3.516 0.246,-7.02 0.488,-10.789 0.739,-9.278 4.664,-18.305 11.047,-25.071 -1.476,-3.007 -2.207,-6.523 -2.207,-9.785 0,-2 0.242,-4.011 0.731,-6.015 1.718,-6.77 4.418,-13.543 8.101,-19.309 2.211,-3.765 5.156,-6.773 8.59,-9.031 0,-0.75 0,-1.758 0,-2.512 0,-3.25 0,-6.512 0.492,-10.027 l -37.797,15.305 c -3.926,1.753 -6.629,5.261 -7.609,9.531 -0.735,3.758 -4.168,6.511 -8.102,6.511 -0.484,0 -1.222,0 -1.715,-0.246"
             id="path28"
             style="fill:#231f20;fill-opacity:1;fill-rule:nonzero;stroke:none" /><path
             d="m 329.488,132.871 40.742,16.301 c 5.157,2.508 9.071,7.266 10.301,13.035 0.5,2.012 2.207,3.008 3.938,2.766 2.937,-0.754 5.633,-1.758 8.34,-2.766 0.73,-0.254 0.976,-0.754 0.976,-1.504 0,-0.754 -0.246,-1.25 -0.734,-1.504 -2.696,-1.258 -4.414,-4.011 -4.414,-7.273 0,-0.996 0.246,-2.004 0.734,-3.008 0.488,-1.25 1.231,-2.258 2.449,-3.012 0,-0.496 0.246,-1.004 0.246,-1.504 0,-2.507 -1.964,-4.761 -4.414,-5.261 -4.414,-1.004 -9.082,-1.258 -13.742,-1.004 -0.742,0.254 -1.23,0.254 -1.961,0.254 -2.949,0 -6.144,-0.754 -8.84,-1.758 L 327.281,123.84 c 0.977,3.008 1.707,6.023 2.207,9.273 l 0,-0.242"
             id="path30"
             style="fill:#fcd213;fill-opacity:1;fill-rule:nonzero;stroke:none" /><path
             d="m 320.16,105.281 54.973,-15.5466 c 3.933,0.2539 7.605,-1.7539 9.824,-5.2617 0.242,-0.2539 0.242,-0.5079 0.242,-0.75 0,-1.0079 -0.488,-1.5039 -1.472,-1.5039 l 0,0 c 0,0 0,0 -0.247,0 -3.925,0 -7.605,-2.2579 -9.324,-6.0274 -0.734,-1.25 -1.718,-3.0078 -2.453,-4.5117 -0.742,-1.7578 -2.215,-2.2539 -3.445,-1.5039 -3.918,2.2578 -7.11,5.2656 -9.817,9.0351 -2.207,3.0079 -4.902,5.7618 -8.339,7.5196 l -34.364,10.2812 c 1.473,2.7539 2.95,5.5153 4.422,8.2693"
             id="path32"
             style="fill:#fcd213;fill-opacity:1;fill-rule:nonzero;stroke:none" /><path
             d="M 247.262,105.281 192.285,89.7344 c -0.246,0 -0.246,0 -0.492,0 -3.926,0 -7.363,-2 -9.57,-5.2617 0,-0.2539 -0.246,-0.5079 -0.246,-0.75 0,-1.0079 0.734,-1.5039 1.468,-1.5039 l 0,0 c 4.176,0 7.86,-2.2579 9.821,-6.0274 0.98,-1.75 1.718,-3.5039 2.703,-5.0078 0.242,-0.7539 0.98,-1.2617 1.961,-1.2617 0.488,0 0.738,0 1.226,0.2539 3.93,2.2578 7.117,5.2656 9.574,9.0351 2.208,3.0079 5.153,5.7618 8.59,7.5196 l 34.118,10.2812 c -1.235,2.5117 -2.704,5.2653 -4.176,8.0153 l 0,0.254"
             id="path34"
             style="fill:#fcd213;fill-opacity:1;fill-rule:nonzero;stroke:none" /><path
             d="m 237.691,132.871 -40.5,16.301 c -5.398,2.508 -9.082,7.266 -10.304,13.035 -0.496,1.758 -1.723,2.766 -3.442,2.766 -0.242,0 -0.484,0 -0.734,0 -2.695,-0.754 -5.399,-1.504 -8.098,-2.766 -0.734,-0.254 -1.23,-0.754 -1.23,-1.504 0,-0.754 0.496,-1.25 0.98,-1.504 2.703,-1.258 4.176,-4.265 4.176,-7.273 0,-0.996 0,-2.004 -0.492,-3.008 -0.488,-1.25 -1.469,-2.258 -2.449,-2.758 -0.25,-0.508 -0.25,-1.258 -0.25,-1.758 0,-2.507 1.718,-4.761 4.418,-5.261 3.195,-0.75 6.382,-1.004 9.574,-1.004 1.472,0 2.699,0 4.172,0 3.679,0.496 7.363,-0.254 10.8,-1.504 l 35.586,-12.793 c -0.738,3.008 -1.468,6.023 -2.207,9.031"
             id="path36"
             style="fill:#fcd213;fill-opacity:1;fill-rule:nonzero;stroke:none" /><path
             d="m 230.328,200.32 -4.176,-6.011 c -1.468,-2.512 -2.207,-5.774 -2.207,-8.782 0,-1.75 0.243,-3.261 0.489,-4.765 1.718,-6.258 4.175,-12.539 7.613,-18.059 2.941,-4.258 6.867,-7.769 11.531,-9.773 3.684,-1.758 6.875,-4.012 9.57,-7.024 1.719,-2.508 3.684,-4.508 5.653,-6.519 7.847,-3.762 16.195,-5.766 24.785,-5.766 8.586,0 17.18,2.004 25.043,5.766 1.961,2.011 3.672,4.265 5.391,6.519 2.949,3.012 6.14,5.266 9.824,7.024 4.656,2.004 8.582,5.515 11.289,10.031 3.437,5.516 6.133,11.543 7.605,18.055 0.489,1.25 0.735,3.007 0.735,4.511 0,3.008 -0.977,6.016 -2.453,8.782 l -4.168,6.011 c -1.719,3.266 -1.965,7.024 -0.989,10.539 0.989,3.504 1.965,6.77 2.949,9.778 0.489,2.254 0.977,4.765 0.977,7.019 0,7.278 -2.937,14.047 -8.34,18.813 -1.719,1.504 -0.488,4.511 1.719,4.511 0.488,0 1.223,-0.246 1.719,-0.75 6.133,-5.765 9.816,-14.046 9.816,-22.574 0,-2.754 -0.488,-5.761 -1.23,-8.523 -0.735,-3.012 -1.719,-6.274 -2.696,-9.278 -0.5,-1.25 -0.5,-2.003 -0.5,-3.007 0,-1.262 0.254,-2.754 0.989,-4.016 l 2.207,-3.008 c 4.91,5.762 8.105,13.289 8.593,21.067 0.243,3.504 0.489,7.019 0.489,10.281 0,6.519 -0.489,12.789 -1.477,19.058 -1.961,13.54 -9.082,25.575 -19.871,33.602 -12.031,8.781 -26.516,13.797 -41.484,13.797 -0.246,0 -0.246,0 -0.489,0 l -11.046,0 c -0.25,0 -0.493,0 -0.739,0 -14.722,0 -29.453,-5.016 -41.476,-13.797 -10.559,-8.027 -17.914,-20.062 -19.879,-33.352 -0.739,-6.265 -1.231,-12.789 -1.231,-19.308 0,-3.516 0,-6.777 0.25,-10.281 0.731,-7.778 3.68,-15.305 8.832,-21.067 l 2.207,3.008 c 0.493,1.262 0.981,2.754 0.981,4.016 0,1.004 -0.242,1.757 -0.488,2.507 -0.739,2.754 -1.719,5.762 -2.7,9.024 -3.187,12.043 0,24.078 8.59,31.851 1.473,1.504 4.176,0.25 4.176,-2.007 0,-0.496 -0.25,-1.25 -0.984,-1.754 -5.157,-4.766 -8.098,-11.535 -8.098,-18.813 0,-2.508 0.242,-4.765 0.98,-7.019 0.981,-4.016 1.961,-7.024 2.946,-10.285 0.242,-0.75 0.492,-2 0.492,-3.504 0,-2.258 -0.738,-4.512 -1.719,-6.528"
             id="path38"
             style="fill:#fcd213;fill-opacity:1;fill-rule:nonzero;stroke:none" /><path
             d="m 277.203,205.344 c 1.473,-2.512 1.969,-5.52 1.969,-8.528 0,-8.781 -5.402,-16.296 -13.504,-18.808 -5.887,-1.758 -12.023,-3.008 -18.406,-4.016 -1.719,-0.254 -3.684,0.754 -4.418,2.512 -2.946,6.769 -4.91,14.043 -5.891,21.308 -0.492,3.516 1.477,6.778 4.664,7.774 11.531,3.769 24.051,3.769 35.586,-0.242"
             id="path40"
             style="fill:#231f20;fill-opacity:1;fill-rule:nonzero;stroke:none" /><path
             d="m 289.965,205.344 c -1.227,-2.512 -1.961,-5.52 -1.961,-8.528 0,-8.781 5.644,-16.296 13.504,-18.808 6.133,-1.758 12.265,-3.262 18.652,-4.016 0,0 0.246,0 0.488,0 1.477,0 2.95,1.008 3.684,2.512 2.949,6.769 5.156,14.043 6.133,21.562 0,0.254 0,0.508 0,0.75 0,3.008 -1.965,5.774 -4.66,6.77 -5.887,1.758 -11.785,2.766 -17.918,2.766 -5.891,0 -12.032,-1.008 -17.676,-3.008 l -0.246,0"
             id="path42"
             style="fill:#231f20;fill-opacity:1;fill-rule:nonzero;stroke:none" /><path
             d="m 249.469,142.648 c 0.734,-1.007 1.472,-2.003 2.211,-2.753 l 0.738,-10.286 c 0.73,-11.535 6.383,-22.312 15.215,-29.589 4.906,-3.0083 10.305,-4.5122 15.953,-4.5122 5.648,0 11.293,1.5039 16.203,4.5122 8.84,7.277 14.231,18.054 14.973,29.589 l 0.976,10.286 c 0.742,1.003 1.473,1.746 2.207,2.753 2.215,2.254 4.91,4.266 7.86,5.516 l 0.246,0 c 0,-9.531 -1.965,-19.305 -5.156,-28.34 -2.696,-7.265 -6.133,-14.543 -10.059,-21.3084 -12.031,-21.3203 -42.223,-21.3203 -54.25,-0.2539 -3.926,7.0193 -7.363,14.0433 -10.063,21.3163 -3.433,9.281 -5.152,18.813 -5.152,28.586 l 0,0 c 3.191,-1.25 5.891,-3.262 8.098,-5.516"
             id="path44"
             style="fill:#fcd213;fill-opacity:1;fill-rule:nonzero;stroke:none" /><path
             d="m 286.039,147.41 c 0.492,-0.75 1.227,-1.25 2.207,-1.25 l 0,0 c 2.219,0 3.684,1.75 3.684,4.016 l 0,0 c -0.246,8.015 -1.965,16.047 -5.153,23.562 -0.492,1.504 -1.718,2.27 -3.191,2.27 -1.227,0 -2.453,-0.766 -3.191,-2.016 -2.946,-7.515 -4.665,-15.547 -5.157,-23.57 0,-0.246 0,-0.246 0,-0.246 0,-2.266 1.719,-4.016 3.934,-4.016 l 0,0 c 0.73,0 1.711,0.5 1.961,1.25 0.98,2.258 4.172,2.258 4.906,0"
             id="path46"
             style="fill:#231f20;fill-opacity:1;fill-rule:nonzero;stroke:none" /><path
             d="m 290.211,127.598 c -0.734,0.761 -1.719,1.261 -2.945,1.261 -0.981,0 -2.207,-0.5 -2.946,-1.504 l 0,-9.789 c 1.965,0 3.926,0.254 5.891,0.508 l 0,9.524"
             id="path48"
             style="fill:#fcd213;fill-opacity:1;fill-rule:nonzero;stroke:none" /><path
             d="m 303.227,113.809 c 0,0 0,0 0,-0.243 0,-2.511 -1.719,-5.019 -4.18,-5.519 l 0,9.519 c 1.476,0.508 2.949,1.262 4.414,1.758 l -0.234,-6.012"
             id="path50"
             style="fill:#fcd213;fill-opacity:1;fill-rule:nonzero;stroke:none" /><path
             d="m 291.684,103.527 0,11.785 c 1.964,0.508 3.937,1.004 5.89,1.504 l 0,-10.285 c -0.246,-3.004 -3.429,-4.754 -5.89,-3.004"
             id="path52"
             style="fill:#fcd213;fill-opacity:1;fill-rule:nonzero;stroke:none" /><path
             d="m 297.574,128.605 c -0.734,0.75 -1.719,1.004 -2.695,1.004 -1.231,0 -2.453,-0.75 -3.195,-1.757 l 0,-9.532 c 1.964,0.508 3.937,1.004 5.89,1.758 l 0,8.527"
             id="path54"
             style="fill:#fcd213;fill-opacity:1;fill-rule:nonzero;stroke:none" /><path
             d="m 303.227,130.359 c -0.497,0.5 -0.985,0.754 -1.719,0.754 -1.231,0 -2.461,-0.754 -2.461,-2.011 l 0,-8.528 c 1.476,0.754 2.949,1.516 4.18,2.27 l 0,7.515"
             id="path56"
             style="fill:#fcd213;fill-opacity:1;fill-rule:nonzero;stroke:none" /><path
             d="m 284.32,103.027 0,11.535 c 1.965,0 3.926,0.254 5.891,0.497 l 0,-11.778 c -1.227,-2.265 -4.422,-2.265 -5.891,-0.254"
             id="path58"
             style="fill:#fcd213;fill-opacity:1;fill-rule:nonzero;stroke:none" /><path
             d="m 275.73,103.527 0,11.785 c -1.96,0.508 -3.921,1.004 -5.89,1.504 l 0,-10.285 c 0,-2 1.719,-3.504 3.68,-3.504 0.738,0 1.476,0.254 2.21,0.5"
             id="path60"
             style="fill:#fcd213;fill-opacity:1;fill-rule:nonzero;stroke:none" /><path
             d="m 263.949,113.809 c 0,0 0,0 0,-0.243 0,-2.511 1.965,-5.019 4.418,-5.519 l 0,9.519 c -1.472,0.508 -2.941,1.008 -4.418,1.758 l 0,-6.012"
             id="path62"
             style="fill:#fcd213;fill-opacity:1;fill-rule:nonzero;stroke:none" /><path
             d="m 259.531,120.332 c 0.25,-1.758 1.477,-3.262 2.946,-3.77 l 0,3.77 c -0.977,0.496 -1.965,0.996 -2.946,1.758 l 0,-1.758"
             id="path64"
             style="fill:#fcd213;fill-opacity:1;fill-rule:nonzero;stroke:none" /><path
             d="m 259.531,131.863 c 1.231,0.754 2.699,0 2.946,-1.25 l 0,-7.019 c -0.977,0.754 -1.965,1.25 -2.946,2.004 l 0,6.265"
             id="path66"
             style="fill:#fcd213;fill-opacity:1;fill-rule:nonzero;stroke:none" /><path
             d="m 263.949,130.359 c 1.477,1.504 4.176,0.754 4.418,-1.257 l 0,-8.528 c -1.472,0.754 -2.941,1.516 -4.418,2.27 l 0,7.515"
             id="path68"
             style="fill:#fcd213;fill-opacity:1;fill-rule:nonzero;stroke:none" /><path
             d="m 269.84,128.605 c 1.719,1.754 4.668,1.258 5.89,-1.007 l 0,-9.278 c -1.96,0.508 -3.921,1.004 -5.89,1.758 l 0,8.527"
             id="path70"
             style="fill:#fcd213;fill-opacity:1;fill-rule:nonzero;stroke:none" /><path
             d="m 282.848,103.027 0,11.535 c -1.715,0 -3.676,0.254 -5.645,0.497 l 0,-11.778 c 0.492,-1.004 1.719,-1.758 2.949,-1.758 0.981,0 2.207,0.5 2.696,1.504"
             id="path72"
             style="fill:#fcd213;fill-opacity:1;fill-rule:nonzero;stroke:none" /><path
             d="m 277.203,127.598 c 1.473,1.757 4.176,1.757 5.645,-0.243 l 0,-9.789 c -1.965,0 -3.926,0.254 -5.645,0.508 l 0,9.524"
             id="path74"
             style="fill:#fcd213;fill-opacity:1;fill-rule:nonzero;stroke:none" /><path
             d="m 307.641,120.332 c 0,-1.758 -1.231,-3.262 -2.95,-3.77 l 0,3.77 c 1.231,0.496 2.207,0.996 2.95,1.758 l 0,-1.758"
             id="path76"
             style="fill:#fcd213;fill-opacity:1;fill-rule:nonzero;stroke:none" /><path
             d="m 307.641,131.863 c -0.243,0.254 -0.743,0.254 -0.985,0.254 -0.976,0 -1.711,-0.508 -1.965,-1.504 l 0,-7.019 c 1.231,0.754 2.207,1.504 2.95,2.004 l 0,6.265"
             id="path78"
             style="fill:#fcd213;fill-opacity:1;fill-rule:nonzero;stroke:none" /></g></g></g></g></svg>