<?xml version="1.0" encoding="UTF-8" standalone="no"?>
<!-- Created with Inkscape (http://www.inkscape.org/) -->

<svg
   xmlns:dc="http://purl.org/dc/elements/1.1/"
   xmlns:cc="http://creativecommons.org/ns#"
   xmlns:rdf="http://www.w3.org/1999/02/22-rdf-syntax-ns#"
   xmlns:svg="http://www.w3.org/2000/svg"
   xmlns="http://www.w3.org/2000/svg"
   version="1.1"
   width="70.862503"
   height="62.037498"
   id="svg2"
   xml:space="preserve"><metadata
     id="metadata8"><rdf:RDF><cc:Work
         rdf:about=""><dc:format>image/svg+xml</dc:format><dc:type
           rdf:resource="http://purl.org/dc/dcmitype/StillImage" /><dc:title></dc:title></cc:Work></rdf:RDF></metadata><defs
     id="defs6"><clipPath
       id="clipPath18"><path
         d="m 0,0 566.938,0 0,496 L 0,496 0,0 z"
         id="path20" /></clipPath></defs><g
     transform="matrix(1.25,0,0,-1.25,0,62.0375)"
     id="g10"><g
       transform="scale(0.1,0.1)"
       id="g12"><g
         id="g14"><g
           clip-path="url(#clipPath18)"
           id="g16"><path
             d="M 30.5898,0 536.352,0 c 16.886,0 30.586,13.6211 30.586,30.4023 0,5.3516 -1.407,10.5821 -4.102,15.2032 L 309.957,481.035 c -8.437,14.594 -27.16,19.524 -41.777,11.129 -4.657,-2.617 -8.508,-6.504 -11.2,-11.129 L 4.10156,45.6055 C -4.33984,31.0742 0.679688,12.4609 15.2969,4.07031 19.9453,1.39844 25.207,0 30.5898,0 l 0,0"
             id="path22"
             style="fill:#fcd213;fill-opacity:1;fill-rule:evenodd;stroke:none" /><path
             d="m 30.5898,15.0117 505.7622,0 c 8.437,0 15.293,6.8047 15.293,15.2031 0,2.6758 -0.731,5.2813 -2.079,7.5977 L 296.684,473.242 c -4.219,7.297 -13.582,9.789 -20.864,5.59 -2.324,-1.336 -4.281,-3.281 -5.625,-5.59 L 17.3164,37.8125 c -4.2226,-7.2383 -1.7109,-16.543 5.6289,-20.7422 2.3242,-1.3359 4.957,-2.0586 7.6445,-2.0586 l 0,0"
             id="path24"
             style="fill:#231f20;fill-opacity:1;fill-rule:evenodd;stroke:none" /><path
             d="m 67.6055,51.6719 431.5585,0 L 283.418,423.242 67.6055,51.6719 l 0,0"
             id="path26"
             style="fill:#fcd213;fill-opacity:1;fill-rule:evenodd;stroke:none" /><path
             d="m 200.016,218.965 90.566,-7.024 c 5.156,-0.503 9.324,-5.015 9.324,-10.289 0,-5.761 -4.656,-10.531 -10.304,-10.531 -0.247,0 -0.497,0 -0.739,0 l -90.566,7.024 1.719,20.82"
             id="path28"
             style="fill:#231f20;fill-opacity:1;fill-rule:nonzero;stroke:none" /><path
             d="m 202.965,202.41 0.98,11.789 86.391,-6.777 c 2.695,-0.242 4.668,-2.254 5.156,-5.012 l -92.527,0"
             id="path30"
             style="fill:#fcd213;fill-opacity:1;fill-rule:evenodd;stroke:none" /><path
             d="m 323.227,269.879 -90.321,-7.024 c -5.402,-0.5 -9.328,-5.019 -9.328,-10.531 0,-5.769 4.414,-10.285 10.067,-10.285 0.242,0 0.73,0 0.98,0 l 90.566,7.023 -1.964,20.817"
             id="path32"
             style="fill:#231f20;fill-opacity:1;fill-rule:nonzero;stroke:none" /><path
             d="m 319.301,265.113 -86.153,-6.773 c -2.699,-0.25 -4.906,-2.504 -5.156,-5.27 l 92.285,0 -0.976,12.043"
             id="path34"
             style="fill:#fcd213;fill-opacity:1;fill-rule:evenodd;stroke:none" /><path
             d="m 430.238,77.7539 0,58.4371 c 0,2.508 -1.718,4.27 -4.179,4.512 l -58.164,4.27 c -11.043,-3.262 -22.579,-3.762 -33.622,-1.262 -0.246,0 -0.5,0 -0.742,0 -2.207,0 -4.172,-2 -4.172,-4.258 0,-2.258 1.477,-4.012 3.684,-4.512 9.57,-1.503 18.895,-2.507 28.23,-2.761 0.977,0 1.965,-1.008 1.965,-2.012 0,0 0,-0.246 -0.254,-0.246 l -14.726,-1.758 c -0.488,0 -0.977,0 -1.465,0 l -22.336,0 c -3.191,-0.242 -5.898,-2.512 -6.875,-5.516 -2.695,-2.003 -6.141,-2.003 -8.594,0 -1.718,1.258 -3.679,2.008 -5.644,2.008 -0.242,0 -0.242,0 -0.242,0 l -0.989,3.508 -16.195,0 0,0 c -2.699,0 -4.664,-2.004 -4.664,-4.766 0,-2.753 1.965,-4.765 4.664,-4.765 l 58.168,0 c 1.23,0 2.207,-1.004 2.207,-2.512 0,-1.25 -0.977,-2.254 -2.207,-2.254 l -63.566,0 0,0 c -2.704,0 -4.911,-2.258 -4.911,-4.765 0,-2.754 2.207,-4.766 4.911,-4.766 l 59.398,0 c 1.219,0 2.207,-1.25 2.207,-2.512 0,-1.25 -0.988,-2.2537 -2.207,-2.2537 l -48.352,0 0,0 c -2.461,0 -4.668,-2.2539 -4.668,-5.0078 0,-2.5117 2.207,-4.7656 4.668,-4.7656 l 54.485,0 c 1.23,0 2.461,-1.0078 2.461,-2.2696 0,-1.25 -1.231,-2.5 -2.461,-2.5 l -43.196,0 0,0 c -2.703,0 -4.667,-2.0078 -4.667,-4.7617 0,-2.5117 1.964,-4.7695 4.667,-4.7695 l 48.106,0 c 11.777,-2.7617 23.566,-4.0117 35.344,-4.0117 14.968,0 29.695,2.2539 44.179,6.2695 l -0.246,0"
             id="path36"
             style="fill:#231f20;fill-opacity:1;fill-rule:nonzero;stroke:none" /><path
             d="m 205.66,100.574 -5.402,-3.2576 0,-2.2578 -2.946,-1.7578 c -0.73,-0.4961 -1.468,-0.75 -2.207,-0.75 l -3.679,0 0,1.7578 -1.961,1.25 c -1.227,0.75 -1.965,2.2539 -1.965,3.7656 l 0,0 -1.965,1.2498 c -0.492,0.5 -1.473,0.754 -2.211,0.754 l -46.629,0 0,-12.0428 116.586,0 0,12.0428 -45.41,0 0,0 c -0.738,0 -1.476,-0.254 -2.211,-0.754"
             id="path38"
             style="fill:#231f20;fill-opacity:1;fill-rule:nonzero;stroke:none" /><path
             d="m 193.391,185.859 c -1.473,-3.515 -3.192,-7.031 -5.649,-10.285 -0.734,-1.258 -1.222,-2.762 -1.222,-4.012 0,-4.023 2.945,-7.031 6.871,-7.031 3.679,0 6.625,3.008 6.625,7.031 0,1.25 -0.246,2.754 -1.227,4.012 -2.207,3.012 -3.926,6.516 -5.398,10.285"
             id="path40"
             style="fill:#231f20;fill-opacity:1;fill-rule:nonzero;stroke:none" /><path
             d="m 197.562,141.453 c -1.472,-3.504 -3.437,-7.019 -5.644,-10.281 -0.734,-1.25 -1.23,-2.754 -1.23,-4.258 0,-3.762 2.945,-6.777 6.874,-6.777 3.684,0 6.626,3.015 6.626,6.777 0,1.504 -0.243,3.008 -1.223,4.258 -2.211,3.008 -4.176,6.523 -5.403,10.281"
             id="path42"
             style="fill:#231f20;fill-opacity:1;fill-rule:nonzero;stroke:none" /><path
             d="m 320.523,180.84 c -1.464,-3.77 -3.437,-7.274 -5.636,-10.281 -0.742,-1.262 -1.231,-2.766 -1.231,-4.27 0,-3.762 2.942,-6.766 6.867,-6.766 3.68,0 6.629,3.004 6.629,6.766 0,1.504 -0.488,3.008 -1.23,4.016 -2.207,3.261 -4.168,6.765 -5.399,10.535"
             id="path44"
             style="fill:#231f20;fill-opacity:1;fill-rule:nonzero;stroke:none" /><path
             d="m 322.984,226.238 c -1.476,-3.765 -3.195,-7.273 -5.402,-10.535 -0.984,-1.008 -1.473,-2.512 -1.473,-4.012 0,-3.761 3.192,-7.023 6.875,-7.023 3.68,0 6.864,3.262 6.864,7.023 0,1.5 -0.489,3.004 -1.219,4.012 -2.207,3.262 -4.172,6.77 -5.645,10.535"
             id="path46"
             style="fill:#231f20;fill-opacity:1;fill-rule:nonzero;stroke:none" /></g></g></g></g></svg>