<?xml version="1.0" encoding="UTF-8" standalone="no"?>
<!-- Created with Inkscape (http://www.inkscape.org/) -->

<svg
   xmlns:dc="http://purl.org/dc/elements/1.1/"
   xmlns:cc="http://creativecommons.org/ns#"
   xmlns:rdf="http://www.w3.org/1999/02/22-rdf-syntax-ns#"
   xmlns:svg="http://www.w3.org/2000/svg"
   xmlns="http://www.w3.org/2000/svg"
   version="1.1"
   width="70.862503"
   height="62.037498"
   id="svg2"
   xml:space="preserve"><metadata
     id="metadata8"><rdf:RDF><cc:Work
         rdf:about=""><dc:format>image/svg+xml</dc:format><dc:type
           rdf:resource="http://purl.org/dc/dcmitype/StillImage" /><dc:title></dc:title></cc:Work></rdf:RDF></metadata><defs
     id="defs6"><clipPath
       id="clipPath18"><path
         d="m 0,0 566.938,0 0,496 L 0,496 0,0 z"
         id="path20" /></clipPath></defs><g
     transform="matrix(1.25,0,0,-1.25,0,62.0375)"
     id="g10"><g
       transform="scale(0.1,0.1)"
       id="g12"><g
         id="g14"><g
           clip-path="url(#clipPath18)"
           id="g16"><path
             d="M 30.5898,0 536.352,0 c 16.886,0 30.586,13.6211 30.586,30.4023 0,5.3516 -1.407,10.5821 -4.102,15.2032 L 309.957,481.035 c -8.437,14.594 -27.16,19.524 -41.777,11.129 -4.657,-2.617 -8.508,-6.504 -11.2,-11.129 L 4.10156,45.6055 C -4.33984,31.0742 0.679688,12.4609 15.2969,4.07031 19.9453,1.39844 25.207,0 30.5898,0 l 0,0"
             id="path22"
             style="fill:#fcd213;fill-opacity:1;fill-rule:evenodd;stroke:none" /><path
             d="m 30.5898,15.0117 505.7622,0 c 8.437,0 15.293,6.8047 15.293,15.2031 0,2.6758 -0.731,5.2813 -2.079,7.5977 L 296.684,473.238 c -4.219,7.301 -13.582,9.793 -20.86,5.594 -2.324,-1.336 -4.285,-3.281 -5.629,-5.594 L 17.3164,37.8125 c -4.2226,-7.2383 -1.7109,-16.543 5.6289,-20.7422 2.3242,-1.3359 4.957,-2.0586 7.6445,-2.0586 l 0,0"
             id="path24"
             style="fill:#231f20;fill-opacity:1;fill-rule:evenodd;stroke:none" /><path
             d="m 67.6055,51.6719 431.5585,0 L 283.418,423.238 67.6055,51.6719 l 0,0"
             id="path26"
             style="fill:#fcd213;fill-opacity:1;fill-rule:evenodd;stroke:none" /><path
             d="m 272.422,291.484 c 0.25,-1.757 0.492,-3.765 0.492,-5.523 0,-6.02 -1.226,-11.785 -3.68,-17.309 -4.66,7.532 -12.511,12.293 -21.097,13.551 3.433,-6.777 5.398,-14.301 5.398,-21.828 0,-9.281 -2.699,-18.313 -7.847,-26.098 -3.68,6.782 -10.305,11.797 -17.911,13.555 3.184,-4.516 4.903,-9.531 4.903,-14.805 0,-2.761 -0.489,-5.515 -1.469,-8.281 -3.434,-10.535 -6.383,-21.316 -8.59,-32.351 -2.941,6.765 -9.562,11.531 -17.172,11.531 0,0 0,0 -0.246,0 6.629,-10.281 10.063,-22.071 10.063,-34.121 0,-3.504 -0.496,-6.77 -0.985,-10.028 -0.734,-5.019 -0.98,-9.789 -0.98,-14.55 0,-2.258 0,-4.27 0,-6.274 0.492,-5.015 2.699,-9.527 6.379,-12.793 4.418,-32.8592 31.648,-57.1952 64.027,-57.1952 35.086,0 63.789,28.3399 64.766,64.2192 5.156,3.261 8.593,9.035 8.593,15.3 0,1.008 -0.246,2.258 -0.246,3.262 -2.461,13.051 -3.437,26.34 -2.949,39.387 0,5.265 3.438,9.785 8.098,11.797 -0.977,0 -2.207,0.254 -3.43,0.254 -4.18,0 -8.594,-1.512 -12.031,-4.024 2.219,7.024 3.195,14.563 3.195,21.824 0,16.813 -5.402,33.118 -15.703,46.164 0.254,-1.757 0.496,-3.765 0.496,-5.765 0,-5.524 -1.473,-10.543 -4.668,-15.055 -1.719,14.801 -8.828,28.344 -19.617,38.129 0.488,-4.012 0.73,-8.273 0.73,-12.293 0,-2.762 0,-5.266 -0.242,-8.027 -3.683,3.765 -6.133,8.785 -6.867,14.051 -0.984,8.277 -4.91,16.304 -11.043,22.078 -3.437,2.507 -5.894,6.519 -6.629,11.039 -1.222,7.523 -1.222,15.047 0,22.574 -9.32,-8.024 -14.961,-19.817 -14.961,-32.359 0,-3.516 0.489,-6.774 1.223,-10.036"
             id="path28"
             style="fill:#231f20;fill-opacity:1;fill-rule:nonzero;stroke:none" /><path
             d="m 257.949,195.148 9.817,3.512 c 0,5.774 -2.207,11.289 -6.383,15.551 -0.246,0.508 -0.735,0.508 -1.227,0.508 -0.98,0 -1.715,-0.754 -1.715,-1.758 l 0,0 c 0,-1.25 0.247,-2.512 0.247,-3.52 0,-0.496 0.242,-0.996 0.242,-1.5 0,-1.503 -0.489,-3.007 -0.981,-4.257 -0.492,-1.516 -0.738,-2.766 -0.738,-4.27 0,-1.504 0.246,-3.016 0.738,-4.266"
             id="path30"
             style="fill:#fcd213;fill-opacity:1;fill-rule:evenodd;stroke:none" /><path
             d="m 337.438,134.191 c 0,30.352 -24.532,55.438 -54.219,55.438 -29.684,0 -54.219,-25.086 -54.219,-55.438 0,-30.351 24.535,-55.441 54.219,-55.441 29.687,0 54.219,25.09 54.219,55.441"
             id="path32"
             style="fill:#fcd213;fill-opacity:1;fill-rule:evenodd;stroke:none" /><path
             d="m 223.605,174.824 1.961,-0.996 c 0,-3.016 0.246,-6.023 1.227,-8.789 -1.715,-3.254 -3.188,-6.766 -4.172,-10.281 -1.719,6.531 -1.226,13.543 0.984,20.066"
             id="path34"
             style="fill:#fcd213;fill-opacity:1;fill-rule:evenodd;stroke:none" /><path
             d="m 246.422,188.621 -4.906,-4.012 c -3.926,2.254 -5.891,7.024 -4.664,11.543 0.492,1.758 1.222,3.262 1.96,4.766 0.5,1.008 0.739,2.266 0.985,3.516 0.242,1.75 2.453,1.504 2.453,0 0,-0.254 0,-0.254 0,-0.508 0,-0.242 -0.242,-0.742 -0.242,-1.25 0,-1.004 0.488,-2.012 0.976,-3.008 1.719,-1.504 2.946,-3.77 3.438,-6.277 0,-0.996 0.242,-2.258 0.242,-3.254 0,-0.508 -0.242,-1.004 -0.242,-1.516"
             id="path36"
             style="fill:#fcd213;fill-opacity:1;fill-rule:evenodd;stroke:none" /><path
             d="m 281.254,200.664 c 5.891,0.254 12.023,-0.496 17.668,-1.746 -8.098,14.297 -11.777,31.102 -10.309,47.66 -3.925,-3.008 -6.621,-7.277 -8.09,-12.035 -1.476,-5.031 -2.211,-10.297 -2.211,-15.813 0,-6.269 0.981,-12.292 2.942,-18.066"
             id="path38"
             style="fill:#fcd213;fill-opacity:1;fill-rule:evenodd;stroke:none" /><path
             d="m 325.66,184.863 5.645,-5.769 c 1.472,2.254 2.207,4.519 2.207,7.019 0,3.02 -1.231,6.028 -2.942,8.282 -0.742,0.753 -0.984,1.503 -1.23,2.257 0,0.504 -0.242,0.75 -0.731,0.75 -0.246,0 -0.5,-0.246 -0.5,-0.5 -0.73,-3.004 -1.464,-5.769 -2.449,-8.523 l 0,-3.516"
             id="path40"
             style="fill:#fcd213;fill-opacity:1;fill-rule:evenodd;stroke:none" /><path
             d="m 309.223,195.402 5.644,-3.007 c -0.488,3.25 0,6.523 1.719,9.277 0.488,1.004 0.734,2.012 0.734,3.262 0,0.496 0,0.75 0,1.25 0,0.507 -0.734,1.004 -1.23,1.004 -0.488,0 -0.977,-0.254 -1.223,-0.75 -0.488,-1.758 -1.719,-3.254 -3.437,-4.016 -0.731,-0.496 -1.473,-1.25 -1.473,-2.254 -0.246,-1.508 -0.488,-3.266 -0.734,-4.766"
             id="path42"
             style="fill:#fcd213;fill-opacity:1;fill-rule:evenodd;stroke:none" /><path
             d="m 345.043,154.258 c -1.231,4.015 -2.695,7.773 -4.668,11.543 1.973,2.754 2.949,6.269 2.949,9.531 0,0.242 0,0.242 0,0.242 0,1.262 1.719,1.516 2.207,0.512 1.231,-3.266 1.965,-6.777 1.965,-10.285 0,-4.016 -0.734,-7.781 -2.453,-11.543"
             id="path44"
             style="fill:#fcd213;fill-opacity:1;fill-rule:evenodd;stroke:none" /></g></g></g></g></svg>