<?xml version="1.0" encoding="UTF-8" standalone="no"?>
<!-- Created with Inkscape (http://www.inkscape.org/) -->

<svg
   xmlns:dc="http://purl.org/dc/elements/1.1/"
   xmlns:cc="http://creativecommons.org/ns#"
   xmlns:rdf="http://www.w3.org/1999/02/22-rdf-syntax-ns#"
   xmlns:svg="http://www.w3.org/2000/svg"
   xmlns="http://www.w3.org/2000/svg"
   version="1.1"
   width="70.862503"
   height="62.037498"
   id="svg2"
   xml:space="preserve"><metadata
     id="metadata8"><rdf:RDF><cc:Work
         rdf:about=""><dc:format>image/svg+xml</dc:format><dc:type
           rdf:resource="http://purl.org/dc/dcmitype/StillImage" /><dc:title></dc:title></cc:Work></rdf:RDF></metadata><defs
     id="defs6"><clipPath
       id="clipPath18"><path
         d="m 0,0 566.938,0 0,496 L 0,496 0,0 z"
         id="path20" /></clipPath></defs><g
     transform="matrix(1.25,0,0,-1.25,0,62.0375)"
     id="g10"><g
       transform="scale(0.1,0.1)"
       id="g12"><g
         id="g14"><g
           clip-path="url(#clipPath18)"
           id="g16"><path
             d="M 30.5898,0 536.352,0 c 16.886,0 30.586,13.6211 30.586,30.4102 0,5.3515 -1.407,10.5742 -4.102,15.1953 L 309.957,481.039 c -8.437,14.598 -27.16,19.52 -41.777,11.129 -4.657,-2.617 -8.508,-6.508 -11.2,-11.129 L 4.10156,45.6055 C -4.33984,31.0742 0.679688,12.4727 15.2969,4.07031 19.9453,1.39844 25.207,0 30.5898,0 l 0,0"
             id="path22"
             style="fill:#fcd213;fill-opacity:1;fill-rule:evenodd;stroke:none" /><path
             d="m 30.5898,15.0117 505.7622,0 c 8.437,0 15.293,6.8125 15.293,15.2031 0,2.6758 -0.743,5.293 -2.079,7.5977 L 296.684,473.242 c -4.219,7.301 -13.582,9.789 -20.86,5.598 -2.324,-1.34 -4.285,-3.289 -5.629,-5.598 L 17.3164,37.8125 c -4.2226,-7.2383 -1.7109,-16.5352 5.6289,-20.7344 2.3242,-1.3359 4.957,-2.0664 7.6445,-2.0664 l 0,0"
             id="path24"
             style="fill:#231f20;fill-opacity:1;fill-rule:evenodd;stroke:none" /><path
             d="m 67.6055,51.6719 431.5585,0 L 283.418,423.242 67.6055,51.6719 l 0,0"
             id="path26"
             style="fill:#fcd213;fill-opacity:1;fill-rule:evenodd;stroke:none" /><path
             d="m 304.262,358.168 -92.996,-211.176 108.964,182.477 -4.121,7.371 -28.339,-39.762 22.675,50.031 -6.183,11.059"
             id="path28"
             style="fill:#231f20;fill-opacity:1;fill-rule:nonzero;stroke:none" /><path
             d="m 204.055,155.684 38.383,172.203 -25.762,-45.813 -19.063,-131.918 3.867,2.11 c 1.543,0.793 2.321,1.836 2.575,3.418"
             id="path30"
             style="fill:#231f20;fill-opacity:1;fill-rule:nonzero;stroke:none" /><path
             d="m 182.156,153.312 -6.179,6.329 c -0.774,1.043 -2.063,1.57 -3.344,1.57 l -2.321,0 c -2.058,0 -3.867,1.055 -4.636,3.164 l -1.805,4.473 4.121,1.843 c 1.805,0.793 3.094,2.637 3.094,4.477 0,0.262 0,0.523 -0.262,0.789 l -2.316,15.012 1.804,0.789 c 3.09,1.054 6.18,-0.789 6.696,-3.953 l 5.148,-34.493"
             id="path32"
             style="fill:#231f20;fill-opacity:1;fill-rule:nonzero;stroke:none" /><path
             d="m 202.77,93.8086 c 1.031,1.3203 2.832,1.0547 3.863,-0.2617 1.543,-1.5821 2.57,-3.6836 2.57,-5.793 0,-0.2656 0,-0.5273 0,-1.0547 -20.598,-19.4804 -54.09,-4.4726 -54.09,24.2308 0,14.746 9.789,27.91 23.699,31.59 1.032,-1.582 1.543,-3.426 1.543,-5.528 0,-3.426 -1.543,-6.582 -4.378,-8.957 -0.258,-0.262 -0.512,-0.789 -0.512,-1.582 0,-0.523 0.254,-1.316 1.027,-1.582 0.774,-0.516 1.551,-1.305 1.551,-2.359 0.254,-1.582 1.543,-2.641 2.832,-2.641 0.512,0 1.023,0 1.543,0.266 2.578,1.582 5.664,1.582 8.5,0.527 3.863,-1.582 7.473,-3.43 11.078,-5.527 0.254,-0.266 0.516,-0.789 0.516,-1.321 0,-0.789 -0.516,-1.316 -1.289,-1.582 -4.121,-0.261 -7.469,-3.941 -7.985,-8.164 l 0,-0.261 c 0,-1.055 0.778,-2.098 2.059,-2.364 0.773,0 1.805,0 2.832,0 0.516,0 1.035,0 1.551,0 0.769,0 1.543,-0.793 1.543,-1.8434 0,-0.2657 0,-0.793 -0.254,-1.0547 -0.778,-0.793 -1.289,-1.836 -1.289,-3.1563 0,-0.2617 0,-0.5273 0,-0.5273 0.254,-1.0547 1.027,-1.5821 1.8,-1.5821 0.516,0 0.77,0.2657 1.29,0.5274"
             id="path34"
             style="fill:#231f20;fill-opacity:1;fill-rule:nonzero;stroke:none" /><path
             d="m 164.645,149.363 c -1.543,-0.261 -2.575,-1.582 -2.575,-2.898 0,-1.055 0.512,-2.102 1.285,-2.625 0.258,0 0.516,-0.266 0.77,-0.266 0,0 0,0 0.262,0 0.515,0.266 1.289,0.528 1.801,1.055 0.257,0 0.257,0.519 0.257,0.781 0,0.266 0,0.266 0,0.528 -0.257,0.261 -0.257,0.792 -0.257,1.054 0.257,0.266 0.257,0.528 0.257,0.789 0,0.793 -0.769,1.582 -1.543,1.582 -0.257,0 -0.257,0 -0.257,0"
             id="path36"
             style="fill:#231f20;fill-opacity:1;fill-rule:nonzero;stroke:none" /><path
             d="m 280.305,62.4727 -57.192,27.9101 c -0.769,0.2617 -1.543,0.5234 -2.054,0.5234 -0.516,0 -1.036,0 -1.551,-0.2617 L 216.676,89.8633 261.5,63.2617 c 0.77,-0.5273 1.543,-0.789 2.57,-0.789 l 16.235,0"
             id="path38"
             style="fill:#231f20;fill-opacity:1;fill-rule:nonzero;stroke:none" /><path
             d="m 391.84,62.4727 -166.922,37.9183 1.805,-2.6371 c 0.773,-1.043 1.543,-1.8359 2.574,-2.1016 L 344.195,62.7344 c 0.243,0 0.762,-0.2617 1.278,-0.2617 l 46.367,0"
             id="path40"
             style="fill:#231f20;fill-opacity:1;fill-rule:nonzero;stroke:none" /><path
             d="m 303.492,89.0703 c 3.602,-1.3164 7.469,-2.1055 11.59,-2.1055 3.086,0 6.438,0.5235 9.531,1.3164 0.774,0.2657 1.282,1.043 1.282,1.836 0,0.5273 -0.254,1.0547 -0.774,1.582 -2.832,2.3711 -6.18,4.2188 -10.039,4.7461 -1.289,0.2656 -2.324,0.2656 -3.613,0.2656 -2.832,0 -5.664,-0.5273 -8.242,-1.582 -1.289,-0.5273 -2.051,-1.582 -2.051,-2.9023 0,-1.5821 1.027,-2.6368 2.316,-3.1563"
             id="path42"
             style="fill:#231f20;fill-opacity:1;fill-rule:nonzero;stroke:none" /><path
             d="m 258.668,197.023 87.059,87.684 -6.688,11.848 -80.371,-99.532"
             id="path44"
             style="fill:#231f20;fill-opacity:1;fill-rule:nonzero;stroke:none" /><path
             d="m 257.117,146.992 131.891,60.828 -8.242,14.477 -123.649,-75.305"
             id="path46"
             style="fill:#231f20;fill-opacity:1;fill-rule:nonzero;stroke:none" /><path
             d="m 430.992,133.566 -122.871,-10.265 130.34,-3.164 -7.469,13.429"
             id="path48"
             style="fill:#231f20;fill-opacity:1;fill-rule:nonzero;stroke:none" /><path
             d="M 460.102,81.6992 242.949,116.973 c -0.258,0 -0.511,0.261 -0.511,0.539 0,0.515 0.253,0.781 0.511,0.781 0,0 0.258,0 0.258,-0.266 L 451.09,97.7539 460.102,81.6992"
             id="path50"
             style="fill:#231f20;fill-opacity:1;fill-rule:nonzero;stroke:none" /><path
             d="m 226.469,134.617 141.933,109.543 -12.109,21.586 -131.117,-131.129 1.293,0"
             id="path52"
             style="fill:#231f20;fill-opacity:1;fill-rule:nonzero;stroke:none" /><path
             d="m 245.012,133.035 174.133,21.328 -4.122,7.641 -56.921,-7.109 53.308,13.164 -3.601,6.316 -162.797,-41.34"
             id="path54"
             style="fill:#231f20;fill-opacity:1;fill-rule:nonzero;stroke:none" /><path
             d="m 222.859,193.605 c 0,0 0,0 -0.257,0 -1.032,0 -1.801,-0.793 -1.801,-1.847 0,-0.528 0,-0.789 0.258,-1.317 0.511,-0.531 0.765,-1.054 0.765,-1.847 0,-0.266 -0.254,-0.789 -0.254,-1.043 -0.511,-1.059 -1.547,-1.582 -2.578,-1.321 -1.543,0.262 -2.832,1.575 -3.344,2.891 0,0.789 -0.257,1.32 0,1.848 0,1.054 0.774,1.843 1.801,2.105 0.516,0 1.031,0.531 1.031,1.059 l 0,0 c -0.515,2.097 1.028,3.941 3.09,3.941 l 0,0 c 0.516,0 0.774,0.266 1.032,0.531 0.257,0.528 0.773,0.528 1.031,0.528 1.031,-0.528 1.801,-1.582 1.801,-2.641 0,-1.57 -1.289,-2.887 -2.575,-2.887"
             id="path56"
             style="fill:#231f20;fill-opacity:1;fill-rule:nonzero;stroke:none" /><path
             d="m 191.43,145.41 -3.602,5.274 c -0.773,0.793 -1.031,1.582 -1.031,2.628 l -4.641,65.567 5.41,-3.156 c 1.551,-0.789 2.321,-2.371 2.321,-4.219 l 1.543,-66.094"
             id="path58"
             style="fill:#231f20;fill-opacity:1;fill-rule:nonzero;stroke:none" /><path
             d="m 213.586,112.766 c -1.547,-2.102 -5.152,-1.055 -5.152,1.843 0,1.055 0.257,1.844 1.031,2.364 1.289,0.793 2.058,2.375 2.058,3.957 0,3.941 4.379,6.054 7.211,3.679 2.067,-1.574 4.125,-2.89 6.184,-3.945 1.551,-0.793 2.578,-2.637 2.578,-4.473 0,-0.261 0,-0.527 0,-0.789 -0.262,-1.054 -1.027,-1.586 -1.808,-1.586 -2.313,0.266 -4.376,0.793 -6.18,1.848 -0.774,0.266 -1.285,0.527 -2.059,0.527 -1.801,0 -3.605,-1.32 -3.863,-3.425"
             id="path60"
             style="fill:#231f20;fill-opacity:1;fill-rule:nonzero;stroke:none" /><path
             d="m 174.688,154.102 c 0.257,-1.043 0.515,-2.098 0.515,-3.157 l 0,0 c 0,-1.05 -0.515,-1.843 -1.289,-2.633 -0.512,-0.531 -1.543,0 -1.543,0.79 0,0 0,0 0,0.261 0,0 0,0.266 0,0.532 0,0.527 0,1.316 -0.258,1.843 0,1.043 0,2.11 0.778,2.891 0.511,0.527 1.543,0.527 1.797,-0.527"
             id="path62"
             style="fill:#231f20;fill-opacity:1;fill-rule:nonzero;stroke:none" /><path
             d="m 200.969,138.566 c -2.84,-1.574 -4.641,-4.472 -4.899,-7.628 0,-0.274 0,-0.274 0,-0.274 0,-1.57 1.289,-2.891 2.832,-2.891 1.032,0 2.067,0.793 2.321,1.844 0.515,1.321 1.289,2.629 2.316,3.418 1.035,0.793 1.805,1.848 2.063,3.164 0.257,0.266 0.257,0.531 0.257,0.793 0,0.789 -0.769,1.848 -1.804,1.848 -0.254,0.254 -0.516,0.254 -0.774,0.254 -0.769,0 -1.543,-0.254 -2.312,-0.528"
             id="path64"
             style="fill:#231f20;fill-opacity:1;fill-rule:nonzero;stroke:none" /><path
             d="m 225.434,71.1602 c 0.254,-0.5235 0.519,-0.5235 1.035,-0.5235 0.508,0 1.027,0.5235 1.027,1.0547 0.258,0.2617 0.258,0.2617 0.258,0.2617 0,2.6367 -1.801,5.2657 -4.379,6.0547 -0.773,0.2656 -1.551,0.5274 -2.316,0.5274 -2.579,0 -5.157,-1.5704 -6.446,-3.9454 0,-0.2656 0,-0.5273 0,-0.789 0,-0.5274 0.52,-1.0586 1.289,-1.0586 0.258,0 0.52,0 0.774,0.2656 0.773,0.5274 1.804,0.5274 2.578,0 1.027,-0.5273 2.058,-1.0547 3.348,-1.0547 0.257,0 0.511,0 0.773,0 0.77,0.2657 1.543,-0.2617 2.059,-0.7929"
             id="path66"
             style="fill:#231f20;fill-opacity:1;fill-rule:nonzero;stroke:none" /><path
             d="m 276.695,96.4453 c 0,-0.2617 0,-0.2617 0,-0.5273 0,-0.2657 0,-0.5274 0.258,-0.7891 0.258,-0.5273 0.774,-1.0586 1.285,-1.582 0.778,-0.5274 1.551,-1.0586 2.067,-1.3203 1.023,-0.5274 2.058,-0.7891 3.09,-1.0547 1.031,-0.2657 2.058,-0.5274 3.089,-0.7891 0.52,0 1.032,0 1.286,0 0.515,0 0.777,0 1.289,0 0.515,0.2617 1.296,0.2617 2.07,0.7891 0.254,0 0.508,0.5273 0.508,0.7929 l 0.261,0.2618 c 0,0.2617 -0.261,0.5273 -0.261,0.7929 -0.508,0.5274 -1.028,1.3164 -1.543,1.5821 -0.52,0.5273 -1.293,1.0507 -2.067,1.3164 -1.023,0.5273 -1.8,0.7929 -2.828,1.3164 -1.035,0.2539 -2.062,0.5195 -3.094,0.5195 -0.511,0 -1.031,0 -1.543,0 -0.257,0 -0.773,0 -1.031,0 -0.777,0 -1.547,-0.2656 -2.066,-0.5195 -0.254,-0.2696 -0.512,-0.5235 -0.77,-0.7891"
             id="path68"
             style="fill:#231f20;fill-opacity:1;fill-rule:nonzero;stroke:none" /><path
             d="m 257.633,285.234 c -0.774,2.368 0,5.262 2.058,7.11 1.547,1.578 3.61,3.16 5.668,4.211 0.516,0.261 0.774,0.523 0.774,1.054 0,0.528 -0.258,1.051 -0.512,1.317 -1.035,0.265 -2.062,0.265 -2.84,0.265 -3.347,0 -6.433,-1.054 -8.754,-3.425 -4.379,-5.27 -7.211,-11.586 -8.242,-18.43 0,-0.266 0,-0.266 0,-0.527 0,-0.793 0.516,-1.848 1.551,-2.106 0.512,-0.265 1.281,-0.265 1.797,-0.265 4.894,0 8.758,3.953 8.758,8.687 0,0.793 -0.258,1.316 -0.258,2.109 l 0,0"
             id="path70"
             style="fill:#231f20;fill-opacity:1;fill-rule:nonzero;stroke:none" /><path
             d="m 232.387,218.352 c 0.258,-1.321 0.519,-2.368 0.519,-3.684 0,-2.898 -1.031,-6.055 -3.094,-8.164 -1.8,-2.109 -5.148,-0.789 -5.148,1.848 0,0.261 0,0.261 0,0.515 -0.262,3.953 1.547,7.637 4.633,10.012 1.031,0.523 2.324,0.523 3.09,-0.527"
             id="path72"
             style="fill:#231f20;fill-opacity:1;fill-rule:nonzero;stroke:none" /><path
             d="m 304.516,266.539 c -5.157,-1.582 -10.567,2.106 -10.567,7.637 0,0.262 0,0.527 0.266,0.527 0,1.574 1.023,2.895 2.578,2.895 4.383,0.793 8.496,1.843 12.617,3.16 3.602,1.316 6.18,4.738 6.18,8.683 l 0,0 c 0,1.055 0.773,2.114 1.808,2.114 1.024,0 1.805,-1.059 1.805,-2.114 l 0,0 c 0,-2.367 -0.781,-4.468 -2.324,-6.582 -0.516,-0.785 -0.77,-1.574 -0.77,-2.629 0,-0.789 0,-1.312 0.254,-1.839 0.262,-0.793 0.516,-1.582 0.516,-2.114 0,-1.574 -0.516,-2.894 -1.543,-3.683 -3.348,-2.633 -6.953,-4.742 -10.82,-6.055 l 0,0"
             id="path74"
             style="fill:#231f20;fill-opacity:1;fill-rule:nonzero;stroke:none" /><path
             d="m 270.77,230.203 c -0.516,0 -0.774,-0.269 -1.036,-0.269 -0.254,-0.254 -0.504,-0.52 -0.504,-0.782 -0.261,-0.531 -0.523,-0.793 -0.523,-1.054 0,-0.266 0,-0.532 0,-0.793 0,0 0,-0.262 0,-0.528 0,-0.261 0.262,-0.793 0.262,-1.054 0.261,-0.262 0.511,-0.789 0.765,-1.055 0.262,0 0.52,-0.266 1.036,-0.527 0,0 0.253,0 0.515,0 l 0.258,0 c 0.258,0 0.769,0.261 1.031,0.527 0.258,0 0.516,0.266 0.516,0.793 0.254,0.262 0.254,0.523 0.515,0.789 0,0.266 0,0.527 0,0.793 0,0.262 0,0.262 0,0.523 0,0.532 -0.261,0.793 -0.515,1.055 0,0.531 -0.258,0.793 -0.516,1.059 -0.262,0.254 -0.519,0.254 -1.031,0.523 -0.258,0 -0.258,0 -0.52,0 -0.253,0 -0.253,0 -0.253,0"
             id="path76"
             style="fill:#231f20;fill-opacity:1;fill-rule:nonzero;stroke:none" /><path
             d="m 328.727,165.168 c -1.543,0 -2.832,1.316 -2.832,2.625 0,0.793 0.515,1.316 0.769,1.848 6.711,6.05 15.207,8.687 23.703,7.898 1.543,-0.262 2.832,-1.316 3.094,-2.898 0,-0.266 0.254,-0.793 0.254,-1.055 0,-2.629 -1.805,-4.738 -4.375,-5.266 -1.805,-0.261 -3.348,-0.261 -5.145,0 -0.527,0 -1.035,0 -1.554,0 -2.579,0 -4.891,-0.527 -7.215,-1.836 -2.051,-1.054 -4.375,-1.582 -6.699,-1.316"
             id="path78"
             style="fill:#231f20;fill-opacity:1;fill-rule:nonzero;stroke:none" /></g></g></g></g></svg>