<?xml version="1.0" encoding="UTF-8" standalone="no"?>
<!-- Created with Inkscape (http://www.inkscape.org/) -->

<svg
   xmlns:dc="http://purl.org/dc/elements/1.1/"
   xmlns:cc="http://creativecommons.org/ns#"
   xmlns:rdf="http://www.w3.org/1999/02/22-rdf-syntax-ns#"
   xmlns:svg="http://www.w3.org/2000/svg"
   xmlns="http://www.w3.org/2000/svg"
   version="1.1"
   width="70.862503"
   height="62.037498"
   id="svg2"
   xml:space="preserve"><metadata
     id="metadata8"><rdf:RDF><cc:Work
         rdf:about=""><dc:format>image/svg+xml</dc:format><dc:type
           rdf:resource="http://purl.org/dc/dcmitype/StillImage" /><dc:title></dc:title></cc:Work></rdf:RDF></metadata><defs
     id="defs6"><clipPath
       id="clipPath18"><path
         d="m 0,0 566.938,0 0,496 L 0,496 0,0 z"
         id="path20" /></clipPath></defs><g
     transform="matrix(1.25,0,0,-1.25,0,62.0375)"
     id="g10"><g
       transform="scale(0.1,0.1)"
       id="g12"><g
         id="g14"><g
           clip-path="url(#clipPath18)"
           id="g16"><path
             d="M 30.5898,0 536.352,0 c 16.886,0 30.586,13.6211 30.586,30.4102 0,5.3515 -1.407,10.5742 -4.102,15.1953 L 309.957,481.039 c -8.437,14.598 -27.16,19.52 -41.777,11.129 -4.657,-2.617 -8.508,-6.508 -11.2,-11.129 L 4.10156,45.6055 C -4.33984,31.0742 0.679688,12.4727 15.2969,4.07031 19.9453,1.39844 25.207,0 30.5898,0 l 0,0"
             id="path22"
             style="fill:#fcd213;fill-opacity:1;fill-rule:evenodd;stroke:none" /><path
             d="m 30.5898,15.0117 505.7622,0 c 8.437,0 15.293,6.8125 15.293,15.2031 0,2.6758 -0.743,5.293 -2.079,7.5977 L 296.684,473.242 c -4.219,7.301 -13.582,9.789 -20.86,5.598 -2.324,-1.34 -4.285,-3.289 -5.629,-5.598 L 17.3164,37.8125 c -4.2226,-7.2383 -1.7109,-16.5352 5.6289,-20.7344 2.3242,-1.3359 4.957,-2.0664 7.6445,-2.0664 l 0,0"
             id="path24"
             style="fill:#231f20;fill-opacity:1;fill-rule:evenodd;stroke:none" /><path
             d="m 67.6055,51.6719 431.5585,0 L 283.418,423.242 67.6055,51.6719 l 0,0"
             id="path26"
             style="fill:#fcd213;fill-opacity:1;fill-rule:evenodd;stroke:none" /><path
             d="m 179.52,173.191 69.214,0 c 0,12.793 6.625,24.582 17.422,31.106 l -34.601,61.199 C 199.645,246.43 179.766,211.562 179.52,173.445 l 0,-0.254"
             id="path28"
             style="fill:#231f20;fill-opacity:1;fill-rule:nonzero;stroke:none" /><path
             d="m 301.266,142.344 c -10.801,-6.27 -24.059,-6.27 -35.11,0 L 231.555,81.1445 c 15.949,-9.2812 33.871,-14.2968 52.031,-14.2968 18.41,0 36.332,5.0156 52.035,14.2968 l -34.355,61.1995"
             id="path30"
             style="fill:#231f20;fill-opacity:1;fill-rule:nonzero;stroke:none" /><path
             d="m 318.688,173.191 c 0,12.793 -6.633,24.582 -17.422,31.106 l 34.355,61.199 c 32.391,-19.312 52.031,-54.18 52.031,-92.305 l -68.964,0"
             id="path32"
             style="fill:#231f20;fill-opacity:1;fill-rule:nonzero;stroke:none" /><path
             d="m 306.898,173.191 c 0,13.047 -10.546,23.832 -23.312,23.832 -12.762,0 -23.316,-10.785 -23.316,-23.832 0,-13.043 10.554,-23.828 23.316,-23.828 12.766,0 23.312,10.785 23.312,23.828"
             id="path34"
             style="fill:#231f20;fill-opacity:1;fill-rule:nonzero;stroke:none" /></g></g></g></g></svg>