<?xml version="1.0" encoding="UTF-8" standalone="no"?>
<!-- Created with Inkscape (http://www.inkscape.org/) -->

<svg
   xmlns:dc="http://purl.org/dc/elements/1.1/"
   xmlns:cc="http://creativecommons.org/ns#"
   xmlns:rdf="http://www.w3.org/1999/02/22-rdf-syntax-ns#"
   xmlns:svg="http://www.w3.org/2000/svg"
   xmlns="http://www.w3.org/2000/svg"
   version="1.1"
   width="70.862503"
   height="62.037498"
   id="svg2"
   xml:space="preserve"><metadata
     id="metadata8"><rdf:RDF><cc:Work
         rdf:about=""><dc:format>image/svg+xml</dc:format><dc:type
           rdf:resource="http://purl.org/dc/dcmitype/StillImage" /><dc:title></dc:title></cc:Work></rdf:RDF></metadata><defs
     id="defs6"><clipPath
       id="clipPath18"><path
         d="m 0,0 566.938,0 0,496 L 0,496 0,0 z"
         id="path20" /></clipPath></defs><g
     transform="matrix(1.25,0,0,-1.25,0,62.0375)"
     id="g10"><g
       transform="scale(0.1,0.1)"
       id="g12"><g
         id="g14"><g
           clip-path="url(#clipPath18)"
           id="g16"><path
             d="M 30.5898,0 536.352,0 c 16.886,0 30.586,13.6211 30.586,30.4102 0,5.3515 -1.407,10.5742 -4.102,15.1953 L 309.957,481.039 c -8.437,14.598 -27.16,19.52 -41.777,11.129 -4.657,-2.617 -8.508,-6.508 -11.2,-11.129 L 4.10156,45.6055 C -4.33984,31.0742 0.679688,12.4727 15.2969,4.07031 19.9453,1.39844 25.207,0 30.5898,0 l 0,0"
             id="path22"
             style="fill:#fcd213;fill-opacity:1;fill-rule:evenodd;stroke:none" /><path
             d="m 30.5898,15.0117 505.7622,0 c 8.437,0 15.293,6.8125 15.293,15.2031 0,2.6758 -0.743,5.293 -2.079,7.5977 L 296.684,473.242 c -4.219,7.301 -13.582,9.789 -20.86,5.598 -2.324,-1.34 -4.285,-3.289 -5.629,-5.598 L 17.3164,37.8125 c -4.2226,-7.2383 -1.7109,-16.5352 5.6289,-20.7344 2.3242,-1.3359 4.957,-2.0664 7.6445,-2.0664 l 0,0"
             id="path24"
             style="fill:#231f20;fill-opacity:1;fill-rule:evenodd;stroke:none" /><path
             d="m 67.6055,51.6719 431.5585,0 L 283.418,423.242 67.6055,51.6719 l 0,0"
             id="path26"
             style="fill:#fcd213;fill-opacity:1;fill-rule:evenodd;stroke:none" /><path
             d="m 228.473,258.633 c -1.524,-0.863 -2.328,-3.008 -1.36,-4.719 l 25.66,-45.269 c 1.188,-1.583 0.723,-3.821 -1.019,-4.805 -1.527,-0.871 -3.442,-0.547 -4.391,0.613 l -16.953,17.188 c -1.164,1.035 -2.859,1.484 -4.39,0.617 -1.743,-0.988 -2.208,-3.227 -1.239,-4.934 0.121,-0.215 0.242,-0.429 0.586,-0.515 l 16.953,-17.192 c 1.961,-1.426 1.645,-4.429 -0.539,-5.664 -1.093,-0.625 -2.664,-0.387 -3.711,0.434 l -45.398,26.179 c -1.145,0.481 -2.379,0.625 -3.469,0.008 -1.746,-0.996 -2.426,-3.355 -1.461,-5.054 0.246,-0.43 0.703,-0.735 1.285,-1.25 l 45.285,-25.958 c 2.618,-1.066 2.879,-4.582 0.477,-5.941 -1.09,-0.613 -2.207,-0.68 -3.004,-0.293 l -23.41,6.195 c -1.016,0.274 -2.129,0.204 -2.789,-0.168 -1.742,-0.988 -2.426,-3.347 -1.453,-5.058 0.359,-0.637 1.281,-1.25 2.297,-1.516 l 23.414,-6.199 c 3.148,-0.469 3.773,-4.629 1.156,-6.113 -0.652,-0.371 -1.43,-0.528 -2.328,-0.469 l -52.766,-0.012 c -0.773,-0.152 -1.332,-0.191 -1.992,-0.554 -1.519,-0.868 -2.203,-3.235 -1.234,-4.942 0.605,-1.062 1.746,-1.551 2.98,-1.699 l 52.985,0.137 c 3.781,0.449 5.332,-4.317 2.054,-6.172 -0.433,-0.254 -0.871,-0.496 -1.211,-0.41 l -23.758,-6.407 c -0.339,0.086 -0.558,-0.039 -0.996,-0.285 -1.527,-0.867 -2.207,-3.23 -1.359,-4.722 0.848,-1.496 2.543,-1.946 4.098,-1.622 l 23.656,6.075 c 3.953,1.679 6.641,-3.575 2.93,-5.676 -0.215,-0.125 -0.438,-0.242 -0.438,-0.242 l -46.262,-26.235 c -1.75,-0.984 -2.425,-3.347 -1.461,-5.054 l 0,0 c 0.848,-1.496 3.223,-2.129 4.965,-1.133 l 0,0 46.27,26.219 c 0,0 0.222,0.129 0.433,0.254 1.532,0.859 3.567,0.324 4.414,-1.172 0.848,-1.493 0.481,-3.387 -0.925,-4.473 L 223.57,113.66 c -1.07,-1.172 -1.558,-2.859 -0.711,-4.351 0.848,-1.497 3.227,-2.121 4.754,-1.25 0.434,0.242 0.653,0.371 0.75,0.703 l 17.707,17.09 c 0.098,0.339 0.532,0.586 0.969,0.828 1.531,0.871 3.563,0.332 4.41,-1.16 0.731,-1.282 0.68,-2.727 -0.172,-3.774 L 223.949,76.3594 c -0.508,-1.1446 -0.679,-2.3672 -0.07,-3.4297 0.965,-1.707 3.344,-2.332 4.867,-1.4766 0.656,0.3711 0.973,0.8321 1.508,1.418 l 27.105,45.2739 c 0.411,0.8 0.946,1.386 1.602,1.757 1.527,0.86 3.562,0.325 4.414,-1.172 0.602,-1.062 0.527,-1.953 0.238,-2.957 L 256.902,92.5 c -0.293,-1.0156 -0.242,-2.1172 0.118,-2.7539 0.968,-1.7109 3.347,-2.3438 5.089,-1.3477 0.661,0.3711 1.289,1.2891 1.579,2.3047 l 6.707,23.2619 c 0.074,0.89 0.703,1.816 1.796,2.433 1.532,0.868 3.567,0.332 4.411,-1.171 0.367,-0.637 0.507,-1.399 0.433,-2.286 l -0.98,-52.1871 c 0.14,-0.7734 0.168,-1.3203 0.531,-1.9531 0.848,-1.5039 3.223,-2.1289 4.969,-1.1446 1.09,0.625 1.597,1.7579 1.769,2.9805 l 0.864,52.3983 c -0.168,1.32 0.558,2.578 1.652,3.195 1.742,0.997 3.777,0.45 4.625,-1.035 0.242,-0.429 0.488,-0.859 0.39,-1.203 l 6.043,-23.367 c -0.097,-0.3438 0.02,-0.5586 0.149,-0.7695 0.965,-1.711 3.125,-2.461 4.863,-1.4649 1.531,0.8555 2.02,2.5469 1.727,4.0821 l -5.918,23.1643 c -0.633,1.609 0.07,3.425 1.601,4.285 1.524,0.871 3.567,0.332 4.414,-1.16 0.118,-0.215 0.118,-0.215 0.235,-0.434 l 25.664,-45.2616 0,0 c 0.969,-1.707 3.34,-2.3437 4.875,-1.4726 l 0,0 c 1.738,0.996 2.422,3.3476 1.453,5.0585 l 0,0 -25.664,45.2617 c -1.18,1.594 -0.723,3.828 1.027,4.816 1.524,0.868 3.446,0.536 4.297,-0.957 l 17.039,-16.855 c 0.949,-1.152 2.863,-1.477 4.395,-0.617 1.523,0.871 2.207,3.23 1.242,4.941 -0.129,0.203 -0.246,0.418 -0.586,0.52 l -16.953,17.183 c -1.965,1.426 -1.524,4.223 0.437,5.332 1.309,0.746 2.766,0.715 3.809,-0.105 L 370.406,110 c 1.141,-0.477 2.371,-0.625 3.465,-0.012 1.75,0.996 2.422,3.352 1.582,4.848 -0.371,0.644 -0.828,0.945 -1.406,1.465 l -45.281,25.957 c -2.618,1.054 -2.883,4.566 -0.489,5.933 0.879,0.5 1.993,0.571 3.008,0.293 l 23.406,-6.199 c 1.028,-0.262 1.926,-0.32 2.793,0.176 1.75,0.984 2.207,3.223 1.243,4.934 -0.364,0.64 -1.067,1.375 -2.082,1.636 l -23.418,6.203 c -3.145,0.469 -3.993,4.5 -1.153,6.114 0.656,0.371 1.426,0.527 2.11,0.343 l 105.07,0.039 -4.004,7.047 -100.82,0.11 c -3.782,-0.449 -5.325,4.316 -2.051,6.172 0.43,0.246 0.652,0.371 1.211,0.402 l 23.758,6.414 c 0.332,-0.09 0.558,0.039 0.773,0.156 1.746,0.996 2.422,3.352 1.582,4.856 -0.851,1.48 -2.551,1.929 -4.101,1.621 L 331.84,182.09 c -3.848,-1.336 -6.531,3.918 -2.82,6.015 0.214,0.129 0.214,0.129 0.429,0.247 l 46.27,26.226 0,0 c 1.746,0.988 2.207,3.227 1.355,4.719 -0.965,1.711 -3.125,2.461 -4.863,1.476 l -46.27,-26.23 c -1.621,-1.203 -3.875,-0.781 -4.851,0.926 -0.84,1.496 -0.481,3.39 0.828,4.133 l 17.59,17.3 c 1.191,0.957 1.551,2.856 0.703,4.348 -0.84,1.492 -3.223,2.129 -4.973,1.145 -0.215,-0.129 -0.429,-0.254 -0.527,-0.586 l -17.703,-17.09 c -1.485,-1.977 -4.512,-1.723 -5.606,0.203 -0.722,1.277 -0.449,2.844 0.391,3.887 l 27.332,45.402 c 0.5,1.137 0.676,2.359 0.07,3.43 -0.968,1.711 -3.34,2.336 -5.09,1.343 -0.429,-0.246 -0.964,-0.832 -1.289,-1.289 l -27.324,-45.398 c -0.898,-2.481 -4.453,-2.813 -5.789,-0.461 -0.48,0.852 -0.527,1.953 -0.234,2.969 l 6.699,23.265 c 0.293,1.012 0.027,1.992 -0.332,2.633 -0.969,1.703 -3.125,2.461 -4.875,1.469 -0.867,-0.496 -1.289,-1.293 -1.582,-2.305 l -6.699,-23.273 c -0.535,-3.125 -4.637,-4.035 -6.211,-1.262 -0.36,0.645 -0.508,1.406 -0.434,2.297 l 0.981,52.187 c -0.141,0.766 -0.164,1.317 -0.411,1.743 -0.964,1.707 -3.343,2.339 -5.085,1.347 -1.094,-0.617 -1.602,-1.754 -1.774,-2.98 l -0.863,-52.406 c 0.387,-3.731 -4.465,-5.352 -6.281,-2.149 -0.239,0.43 -0.36,0.645 -0.383,1.191 l -6.043,23.383 c 0.097,0.336 -0.024,0.547 -0.145,0.762 -0.969,1.711 -3.343,2.34 -4.871,1.477 -1.527,-0.872 -2.234,-2.68 -1.726,-4.082 l 5.824,-23.5 c 1.5,-3.664 -3.856,-6.426 -5.91,-2.793 -0.125,0.214 -0.125,0.214 -0.246,0.425 L 233.441,257.5 c -0.964,1.711 -3.222,2.125 -4.968,1.133"
             id="path28"
             style="fill:#231f20;fill-opacity:1;fill-rule:nonzero;stroke:none" /></g></g></g></g></svg>