<?xml version="1.0" encoding="UTF-8" standalone="no"?>
<!-- Created with Inkscape (http://www.inkscape.org/) -->

<svg
   xmlns:dc="http://purl.org/dc/elements/1.1/"
   xmlns:cc="http://creativecommons.org/ns#"
   xmlns:rdf="http://www.w3.org/1999/02/22-rdf-syntax-ns#"
   xmlns:svg="http://www.w3.org/2000/svg"
   xmlns="http://www.w3.org/2000/svg"
   version="1.1"
   width="70.862503"
   height="62.037498"
   id="svg2"
   xml:space="preserve"><metadata
     id="metadata8"><rdf:RDF><cc:Work
         rdf:about=""><dc:format>image/svg+xml</dc:format><dc:type
           rdf:resource="http://purl.org/dc/dcmitype/StillImage" /><dc:title></dc:title></cc:Work></rdf:RDF></metadata><defs
     id="defs6"><clipPath
       id="clipPath18"><path
         d="m 0,0 566.938,0 0,496 L 0,496 0,0 z"
         id="path20" /></clipPath></defs><g
     transform="matrix(1.25,0,0,-1.25,0,62.0375)"
     id="g10"><g
       transform="scale(0.1,0.1)"
       id="g12"><g
         id="g14"><g
           clip-path="url(#clipPath18)"
           id="g16"><path
             d="M 30.5859,0 536.352,0 c 16.886,0 30.586,13.6211 30.586,30.4102 0,5.3515 -1.407,10.5742 -4.102,15.1953 L 309.957,481.039 c -8.437,14.59 -27.164,19.52 -41.777,11.125 -4.649,-2.613 -8.508,-6.5 -11.192,-11.125 L 4.10547,45.6055 C -4.33984,31.0859 0.671875,12.4727 15.293,4.08203 19.9453,1.40625 25.2109,0 30.5859,0 l 0,0"
             id="path22"
             style="fill:#fcd213;fill-opacity:1;fill-rule:evenodd;stroke:none" /><path
             d="m 30.5859,15.0117 505.7661,0 c 8.449,0 15.293,6.8125 15.293,15.2031 0,2.6758 -0.731,5.293 -2.079,7.6055 L 296.684,473.238 c -4.219,7.301 -13.582,9.793 -20.864,5.602 -2.324,-1.336 -4.277,-3.289 -5.621,-5.602 L 17.3203,37.8203 c -4.2265,-7.2461 -1.7148,-16.543 5.6289,-20.7422 2.3203,-1.3359 4.957,-2.0664 7.6367,-2.0664 l 0,0"
             id="path24"
             style="fill:#231f20;fill-opacity:1;fill-rule:evenodd;stroke:none" /><path
             d="m 67.6055,51.6797 431.5705,0 L 283.418,423.242 67.6055,51.6797 l 0,0"
             id="path26"
             style="fill:#fcd213;fill-opacity:1;fill-rule:evenodd;stroke:none" /><path
             d="m 293.793,165.461 -19.734,0 -23.954,-93.6915 67.633,0 c 0,0 -24.734,95.7965 -23.945,93.6915"
             id="path28"
             style="fill:#231f20;fill-opacity:1;fill-rule:nonzero;stroke:none" /><path
             d="m 297.691,191.359 c 0,-7.609 -6.164,-13.769 -13.765,-13.769 -7.598,0 -13.762,6.16 -13.762,13.769 0,7.594 6.164,13.758 13.762,13.758 7.601,0 13.765,-6.164 13.765,-13.758"
             id="path30"
             style="fill:#231f20;fill-opacity:1;fill-rule:nonzero;stroke:none" /><path
             d="m 251.996,221.074 9.961,-9.953 c 0,0 -7.5,-6.961 -7.523,-21.055 -0.024,-9.851 7.347,-19.453 7.347,-19.453 l -10.293,-9.441 c -4.625,3.191 -11.621,17.48 -11.91,27.617 -0.277,10.129 4.145,23.273 12.418,32.285"
             id="path32"
             style="fill:#231f20;fill-opacity:1;fill-rule:nonzero;stroke:none" /><path
             d="m 234.102,239.352 10.046,-10.668 c 0,0 -13.996,-14.563 -15.132,-36.567 -1.118,-21.433 14.562,-39.121 14.562,-39.121 l -9.707,-10.105 c -15.43,16.101 -19.422,34.519 -19.422,44.668 0,15.421 1.711,31.984 19.653,51.793"
             id="path34"
             style="fill:#231f20;fill-opacity:1;fill-rule:nonzero;stroke:none" /><path
             d="m 215.531,256.488 10.055,-10.672 c 0,0 -22.617,-23.902 -21.707,-54.742 1.141,-38.562 21.996,-55.41 21.996,-55.41 l -10.277,-10.762 c -22.856,22.754 -26.86,52.508 -26.86,62.657 0,15.421 1.434,41.211 26.793,68.929"
             id="path36"
             style="fill:#231f20;fill-opacity:1;fill-rule:nonzero;stroke:none" /><path
             d="m 315.18,221.074 -9.961,-9.953 c 0,0 7.492,-6.961 7.519,-21.055 0.02,-9.851 -7.351,-19.453 -7.351,-19.453 l 10.301,-9.441 c 4.621,3.191 11.621,17.48 11.906,27.617 0.281,10.129 -4.133,23.273 -12.414,32.285"
             id="path38"
             style="fill:#231f20;fill-opacity:1;fill-rule:nonzero;stroke:none" /><path
             d="m 333.07,239.352 -10.039,-10.668 c 0,0 13.985,-14.563 15.129,-36.567 1.113,-21.433 -14.562,-39.121 -14.562,-39.121 l 9.707,-10.105 c 15.422,16.101 19.425,34.519 19.425,44.668 0,15.421 -1.71,31.984 -19.66,51.793"
             id="path40"
             style="fill:#231f20;fill-opacity:1;fill-rule:nonzero;stroke:none" /><path
             d="m 351.637,256.914 -10.051,-10.68 c 0,0 22.617,-23.89 21.711,-54.73 -1.145,-38.563 -21.992,-55.41 -21.992,-55.41 l 10.281,-10.762 c 22.852,22.754 26.848,52.512 26.848,62.648 0,15.418 -1.426,41.219 -26.797,68.934"
             id="path42"
             style="fill:#231f20;fill-opacity:1;fill-rule:nonzero;stroke:none" /></g></g></g></g></svg>