<?xml version="1.0" encoding="UTF-8" standalone="no"?>
<!-- Created with Inkscape (http://www.inkscape.org/) -->

<svg
   xmlns:dc="http://purl.org/dc/elements/1.1/"
   xmlns:cc="http://creativecommons.org/ns#"
   xmlns:rdf="http://www.w3.org/1999/02/22-rdf-syntax-ns#"
   xmlns:svg="http://www.w3.org/2000/svg"
   xmlns="http://www.w3.org/2000/svg"
   version="1.1"
   width="70.862503"
   height="62.037498"
   id="svg2"
   xml:space="preserve"><metadata
     id="metadata8"><rdf:RDF><cc:Work
         rdf:about=""><dc:format>image/svg+xml</dc:format><dc:type
           rdf:resource="http://purl.org/dc/dcmitype/StillImage" /><dc:title></dc:title></cc:Work></rdf:RDF></metadata><defs
     id="defs6"><clipPath
       id="clipPath18"><path
         d="m 0,0 566.926,0 0,496 L 0,496 0,0 z"
         id="path20" /></clipPath></defs><g
     transform="matrix(1.25,0,0,-1.25,0,62.0375)"
     id="g10"><g
       transform="scale(0.1,0.1)"
       id="g12"><g
         id="g14"><g
           clip-path="url(#clipPath18)"
           id="g16"><path
             d="M 30.5859,0 536.355,0 c 16.887,0 30.571,13.6328 30.571,30.4102 0,5.3593 -1.399,10.5859 -4.094,15.2148 L 309.961,481.051 c -8.445,14.601 -27.164,19.519 -41.793,11.137 -4.645,-2.61 -8.504,-6.508 -11.18,-11.137 L 4.10156,45.625 C -4.35156,31.0859 0.671875,12.4688 15.2773,4.08203 19.9375,1.40625 25.1992,0 30.5859,0 l 0,0"
             id="path22"
             style="fill:#fcd213;fill-opacity:1;fill-rule:evenodd;stroke:none" /><path
             d="m 30.5859,15.0078 505.7691,0 c 8.43,0 15.293,6.8164 15.293,15.2149 0,2.6757 -0.73,5.2929 -2.078,7.5976 L 296.68,473.262 c -4.207,7.304 -13.582,9.789 -20.875,5.601 -2.321,-1.347 -4.262,-3.293 -5.614,-5.601 L 17.3047,37.8203 c -4.2149,-7.2344 -1.6992,-16.543 5.6406,-20.7305 2.3242,-1.3359 4.9414,-2.082 7.6406,-2.082 l 0,0"
             id="path24"
             style="fill:#231f20;fill-opacity:1;fill-rule:evenodd;stroke:none" /><path
             d="m 67.6016,51.6797 431.5584,0 L 283.422,423.262 67.6016,51.6797 l 0,0"
             id="path26"
             style="fill:#fcd213;fill-opacity:1;fill-rule:evenodd;stroke:none" /><path
             d="M 223.148,70.5156 208.852,216.863 c -2.793,31.575 15.203,71.071 75.687,71.071 60.695,0 72.133,-36.887 72.133,-63.852 0,-4.641 -12.016,-153.2929 -12.016,-153.2929 l -42.183,0.2461 15.054,138.3868 c 7.219,38.691 -14.265,47.613 -33.379,47.766 -17.871,0.132 -41.781,-3.149 -35.851,-47.684 L 263.793,70.8984 223.148,70.5156"
             id="path28"
             style="fill:#231f20;fill-opacity:1;fill-rule:nonzero;stroke:none" /><path
             d="m 224.312,118.398 28.668,0 4.872,-42.2847 -29.668,0 -3.872,42.2847"
             id="path30"
             style="fill:#fcd213;fill-opacity:1;fill-rule:evenodd;stroke:none" /><path
             d="m 342.695,118.398 -28.664,0 -4.883,-42.2847 29.668,0 3.879,42.2847"
             id="path32"
             style="fill:#fcd213;fill-opacity:1;fill-rule:evenodd;stroke:none" /><path
             d="m 178.305,71.0352 9.136,2.4296 c -7.437,27.8832 1.407,48.9962 1.489,49.1912 l -8.45,4.239 c -2.351,-4.719 -9.617,-27.9692 -2.175,-55.8598"
             id="path34"
             style="fill:#231f20;fill-opacity:1;fill-rule:nonzero;stroke:none" /><path
             d="m 197.004,71.0352 9.125,2.4296 c -7.43,27.8832 1.398,48.9962 1.5,49.1912 l -8.469,4.239 c -2.348,-4.719 -9.609,-27.9692 -2.156,-55.8598"
             id="path36"
             style="fill:#231f20;fill-opacity:1;fill-rule:nonzero;stroke:none" /><path
             d="m 388.848,71.0352 -9.121,2.4296 c 7.421,27.8832 -1.407,48.9962 -1.504,49.1912 l 8.465,4.239 c 2.343,-4.719 9.613,-27.9692 2.16,-55.8598"
             id="path38"
             style="fill:#231f20;fill-opacity:1;fill-rule:nonzero;stroke:none" /><path
             d="m 370.168,71.0352 -9.145,2.4296 c 7.446,27.8832 -1.382,48.9962 -1.492,49.1912 l 8.477,4.239 c 2.344,-4.719 9.597,-27.9692 2.16,-55.8598"
             id="path40"
             style="fill:#231f20;fill-opacity:1;fill-rule:nonzero;stroke:none" /></g></g></g></g></svg>