<?xml version="1.0" encoding="UTF-8" standalone="no"?>
<!-- Created with Inkscape (http://www.inkscape.org/) -->

<svg
   xmlns:dc="http://purl.org/dc/elements/1.1/"
   xmlns:cc="http://creativecommons.org/ns#"
   xmlns:rdf="http://www.w3.org/1999/02/22-rdf-syntax-ns#"
   xmlns:svg="http://www.w3.org/2000/svg"
   xmlns="http://www.w3.org/2000/svg"
   version="1.1"
   width="70.862503"
   height="62.037498"
   id="svg2"
   xml:space="preserve"><metadata
     id="metadata8"><rdf:RDF><cc:Work
         rdf:about=""><dc:format>image/svg+xml</dc:format><dc:type
           rdf:resource="http://purl.org/dc/dcmitype/StillImage" /><dc:title></dc:title></cc:Work></rdf:RDF></metadata><defs
     id="defs6"><clipPath
       id="clipPath18"><path
         d="m 0,0 566.934,0 0,496 L 0,496 0,0 z"
         id="path20" /></clipPath></defs><g
     transform="matrix(1.25,0,0,-1.25,0,62.0375)"
     id="g10"><g
       transform="scale(0.1,0.1)"
       id="g12"><g
         id="g14"><g
           clip-path="url(#clipPath18)"
           id="g16"><path
             d="M 30.5859,0 536.348,0 c 16.882,0 30.586,13.6211 30.586,30.4023 0,5.3594 -1.407,10.5821 -4.102,15.2032 L 309.949,481.035 c -8.433,14.594 -27.152,19.524 -41.773,11.129 -4.653,-2.613 -8.504,-6.504 -11.196,-11.129 L 4.10156,45.6055 C -4.33984,31.0742 0.679688,12.4609 15.2969,4.07031 19.9453,1.39844 25.207,0 30.5859,0 l 0,0"
             id="path22"
             style="fill:#fcd213;fill-opacity:1;fill-rule:evenodd;stroke:none" /><path
             d="m 30.5859,15.0117 505.7621,0 c 8.437,0 15.293,6.8047 15.293,15.2031 0,2.6758 -0.743,5.2813 -2.079,7.5977 L 296.68,473.242 c -4.219,7.297 -13.578,9.789 -20.86,5.598 -2.324,-1.34 -4.281,-3.289 -5.625,-5.598 L 17.3164,37.8125 c -4.2266,-7.2383 -1.7148,-16.543 5.625,-20.7344 2.3281,-1.3359 4.9531,-2.0664 7.6445,-2.0664 l 0,0"
             id="path24"
             style="fill:#231f20;fill-opacity:1;fill-rule:evenodd;stroke:none" /><path
             d="m 67.6055,51.6719 431.5545,0 L 283.418,423.242 67.6055,51.6719 l 0,0"
             id="path26"
             style="fill:#fcd213;fill-opacity:1;fill-rule:evenodd;stroke:none" /><path
             d="m 125.055,122.754 0,-10.051 47.332,0 0,-56.5897 10.051,0 0,66.6407 -57.383,0"
             id="path28"
             style="fill:#231f20;fill-opacity:1;fill-rule:evenodd;stroke:none" /><path
             d="m 254.695,267.633 14.867,-30.903 c 1.43,-2.98 4.813,-6.953 7.524,-8.839 l 22.633,-15.75 -19.578,-46.075 -52.746,5.321 c -3.286,0.332 -8.45,-0.469 -11.477,-1.778 l -52.969,-22.863 c -5.023,-2.168 -7.34,-8.008 -5.172,-13.023 2.168,-5.032 8,-7.336 13.024,-5.168 l 53.754,23.203 61.246,-6.184 -36.563,-19.207 c -2.922,-1.531 -7.027,-4.863 -9.125,-7.414 l -37.168,-45.0468 0,0 c -3.496,-4.2109 -2.91,-10.4609 1.301,-13.957 4.215,-3.4844 10.461,-2.8984 13.953,1.3125 l 38.676,46.8633 51.23,26.777 c 2.93,1.536 6.375,5.266 7.657,8.301 l 20.183,47.539 19.817,-15.984 13.066,-47.5 c 1.453,-5.274 6.902,-8.371 12.188,-6.914 5.273,1.453 8.371,6.902 6.914,12.176 0,0.007 0,0.007 0,0.007 l -13.157,47.856 c -0.878,3.172 -3.75,7.39 -6.382,9.375 0,0 -17.336,12.984 -22.27,18.277 -7.918,8.52 -18.902,9.785 -27.469,15.051 -4.687,2.883 -30.894,21.523 -30.894,21.523 l -22.199,46.164 c -2.379,4.926 -8.309,6.993 -13.235,4.614 -4.926,-2.383 -6.996,-8.309 -4.613,-13.235 0,-0.007 0.004,-0.011 0.008,-0.019 l 6.976,-14.5"
             id="path30"
             style="fill:#231f20;fill-opacity:1;fill-rule:evenodd;stroke:none" /><path
             d="m 361.73,243.082 c 0,10.512 -8.527,19.035 -19.042,19.035 -10.52,0 -19.036,-8.523 -19.036,-19.035 0,-10.523 8.516,-19.051 19.036,-19.051 10.515,0 19.042,8.528 19.042,19.051"
             id="path32"
             style="fill:#231f20;fill-opacity:1;fill-rule:evenodd;stroke:none" /></g></g></g></g></svg>