<?xml version="1.0" encoding="UTF-8" standalone="no"?>
<!-- Created with Inkscape (http://www.inkscape.org/) -->

<svg
   xmlns:dc="http://purl.org/dc/elements/1.1/"
   xmlns:cc="http://creativecommons.org/ns#"
   xmlns:rdf="http://www.w3.org/1999/02/22-rdf-syntax-ns#"
   xmlns:svg="http://www.w3.org/2000/svg"
   xmlns="http://www.w3.org/2000/svg"
   version="1.1"
   width="70.862503"
   height="62.037498"
   id="svg2"
   xml:space="preserve"><metadata
     id="metadata8"><rdf:RDF><cc:Work
         rdf:about=""><dc:format>image/svg+xml</dc:format><dc:type
           rdf:resource="http://purl.org/dc/dcmitype/StillImage" /><dc:title></dc:title></cc:Work></rdf:RDF></metadata><defs
     id="defs6"><clipPath
       id="clipPath18"><path
         d="m 0,0 566.938,0 0,496 L 0,496 0,0 z"
         id="path20" /></clipPath></defs><g
     transform="matrix(1.25,0,0,-1.25,0,62.0375)"
     id="g10"><g
       transform="scale(0.1,0.1)"
       id="g12"><g
         id="g14"><g
           clip-path="url(#clipPath18)"
           id="g16"><path
             d="M 30.5898,0 536.352,0 c 16.886,0 30.586,13.6211 30.586,30.4102 0,5.3515 -1.407,10.5742 -4.102,15.1953 L 309.957,481.039 c -8.437,14.598 -27.16,19.52 -41.777,11.129 -4.657,-2.617 -8.508,-6.508 -11.2,-11.129 L 4.10156,45.6055 C -4.33984,31.0742 0.679688,12.4727 15.2969,4.07031 19.9453,1.39844 25.207,0 30.5898,0 l 0,0"
             id="path22"
             style="fill:#fcd213;fill-opacity:1;fill-rule:evenodd;stroke:none" /><path
             d="m 30.5898,15.0117 505.7622,0 c 8.437,0 15.293,6.8125 15.293,15.2031 0,2.6758 -0.743,5.293 -2.079,7.5977 L 296.684,473.242 c -4.219,7.301 -13.582,9.789 -20.864,5.598 -2.324,-1.34 -4.281,-3.289 -5.625,-5.598 L 17.3164,37.8125 c -4.2226,-7.2383 -1.7109,-16.5352 5.6289,-20.7344 2.3242,-1.3359 4.957,-2.0664 7.6445,-2.0664 l 0,0"
             id="path24"
             style="fill:#231f20;fill-opacity:1;fill-rule:evenodd;stroke:none" /><path
             d="m 67.6055,51.6719 431.5585,0 L 283.418,423.242 67.6055,51.6719 l 0,0"
             id="path26"
             style="fill:#fcd213;fill-opacity:1;fill-rule:evenodd;stroke:none" /><path
             d="m 294.867,124.512 c -0.976,4.265 -1.707,8.781 -1.707,13.039 0,23.316 15.203,43.633 37.285,49.644 1.231,-4.507 1.961,-9.273 1.961,-14.285 0,-23.066 -15.457,-43.125 -37.539,-48.398 z m -25.758,48.398 c 0,8.274 6.621,15.039 14.477,15.039 7.855,0 14.476,-6.765 14.476,-15.039 0,-8.281 -6.621,-15.051 -14.476,-15.051 -7.856,0 -14.477,6.77 -14.477,15.051 z m 3.192,-48.398 c -21.836,5.273 -37.535,25.332 -37.535,48.398 0,5.012 0.738,9.778 2.207,14.285 21.836,-6.011 37.047,-26.328 37.047,-49.644 0,-4.258 -0.497,-8.774 -1.719,-13.039 z m 11.285,98.293 c 13.5,0 26.254,-5.508 35.57,-15.539 -9.562,-9.532 -22.316,-15.047 -35.57,-15.047 -13.25,0 -26.008,5.515 -35.328,15.047 9.078,10.031 21.836,15.539 35.328,15.539 z m 67.707,-10.024 -0.242,0 c 1.23,5.512 1.972,10.785 1.972,16.289 0,34.86 -24.785,64.45 -58.644,69.969 -0.242,0 -0.242,0 -0.488,0 -1.231,0 -2.207,-1.004 -2.207,-2.508 0,-1.004 0.734,-2.008 1.718,-2.254 23.801,-4.765 40.723,-25.832 40.723,-50.398 0,-9.531 -2.703,-19.063 -7.605,-27.094 -11.536,11.535 -26.739,18.059 -42.934,18.059 -15.949,0 -31.402,-6.524 -42.684,-18.059 -18.644,30.348 -1.722,70.465 32.868,77.492 0.98,0.246 1.718,1.25 1.718,2.254 0,1.504 -0.98,2.508 -2.207,2.508 -0.246,0 -0.246,0 -0.488,0 -33.613,-5.519 -58.391,-35.109 -58.391,-69.969 0,-5.504 0.496,-11.023 1.719,-16.289 -29.191,-9.031 -49.309,-36.609 -49.309,-67.703 0,-8.777 1.719,-17.305 4.665,-25.574 0.488,-0.754 1.222,-1.516 2.199,-1.516 1.23,0 2.215,1.016 2.215,2.266 0,0.242 0,0.5 0,0.754 -11.043,33.594 13.246,68.203 47.836,68.203 0.488,0 0.98,0 1.472,0 -1.23,-5.273 -1.961,-10.781 -1.961,-16.301 0,-27.832 18.399,-52.414 44.891,-59.676 -16.684,-31.6012 -59.121,-36.6129 -82.43,-9.789 -0.488,0.754 -0.976,1.008 -1.715,1.008 -1.226,0 -2.207,-1.008 -2.207,-2.512 0,-0.496 0.243,-1.003 0.489,-1.5 13.246,-16.5543 33.125,-26.3316 53.968,-26.3316 17.668,0 34.59,7.0234 47.352,19.3086 13,-12.2852 29.934,-19.3086 47.348,-19.3086 21.101,0 40.964,9.7773 53.972,26.3316 0.489,0.497 0.489,1.004 0.489,1.5 0,1.504 -0.977,2.512 -2.207,2.512 -0.743,0 -1.231,-0.254 -1.719,-0.754 -23.301,-27.0779 -65.742,-22.0662 -82.176,9.535 26.484,7.262 44.648,31.844 44.648,59.676 0,5.52 -0.5,10.781 -1.964,16.043 28.457,1.008 52.011,-22.312 52.011,-51.402 0,-5.52 -0.742,-11.035 -2.703,-16.301 0,-0.496 0,-0.754 0,-0.996 0,-1.25 0.977,-2.266 2.207,-2.266 0.977,0 1.961,0.762 2.207,1.516 3.192,8.269 4.668,16.797 4.668,25.574 0,31.094 -19.875,58.672 -49.074,67.703"
             id="path28"
             style="fill:#231f20;fill-opacity:1;fill-rule:nonzero;stroke:none" /></g></g></g></g></svg>