<?xml version="1.0" encoding="UTF-8" standalone="no"?>
<!-- Created with Inkscape (http://www.inkscape.org/) -->

<svg
   xmlns:dc="http://purl.org/dc/elements/1.1/"
   xmlns:cc="http://creativecommons.org/ns#"
   xmlns:rdf="http://www.w3.org/1999/02/22-rdf-syntax-ns#"
   xmlns:svg="http://www.w3.org/2000/svg"
   xmlns="http://www.w3.org/2000/svg"
   version="1.1"
   width="70.862503"
   height="62.037498"
   id="svg2"
   xml:space="preserve"><metadata
     id="metadata8"><rdf:RDF><cc:Work
         rdf:about=""><dc:format>image/svg+xml</dc:format><dc:type
           rdf:resource="http://purl.org/dc/dcmitype/StillImage" /><dc:title></dc:title></cc:Work></rdf:RDF></metadata><defs
     id="defs6"><clipPath
       id="clipPath18"><path
         d="m 0,0 566.93,0 0,496 L 0,496 0,0 z"
         id="path20" /></clipPath></defs><g
     transform="matrix(1.25,0,0,-1.25,0,62.0375)"
     id="g10"><g
       transform="scale(0.1,0.1)"
       id="g12"><g
         id="g14"><g
           clip-path="url(#clipPath18)"
           id="g16"><path
             d="M 30.5859,0 536.344,0 c 16.883,0 30.586,13.6211 30.586,30.4023 0,5.3516 -1.399,10.5821 -4.094,15.2032 L 309.957,481.035 c -8.449,14.594 -27.168,19.524 -41.777,11.133 -4.649,-2.613 -8.508,-6.508 -11.2,-11.133 L 4.10156,45.6055 C -4.33984,31.0742 0.671875,12.4609 15.293,4.07031 19.9414,1.39844 25.207,0 30.5859,0 l 0,0"
             id="path22"
             style="fill:#fcd213;fill-opacity:1;fill-rule:evenodd;stroke:none" /><path
             d="m 30.5859,15.0117 505.7581,0 c 8.445,0 15.293,6.8047 15.293,15.2031 0,2.668 -0.735,5.2813 -2.071,7.5977 L 296.684,473.242 c -4.219,7.297 -13.582,9.789 -20.864,5.598 -2.324,-1.348 -4.281,-3.293 -5.625,-5.598 L 17.3203,37.8125 c -4.2305,-7.2383 -1.7265,-16.543 5.6211,-20.7344 2.3242,-1.3359 4.9609,-2.0664 7.6445,-2.0664 l 0,0"
             id="path24"
             style="fill:#231f20;fill-opacity:1;fill-rule:evenodd;stroke:none" /><path
             d="m 67.6055,51.6719 431.5585,0 L 283.418,423.242 67.6055,51.6719 l 0,0"
             id="path26"
             style="fill:#fcd213;fill-opacity:1;fill-rule:evenodd;stroke:none" /><path
             d="m 378.883,154.055 -4.602,15.015 -41.16,-12.183 -24.66,14.218 c 0.324,1.61 0.5,3.27 0.5,4.969 0,1.707 -0.176,3.379 -0.5,5 l 24.473,14.18 41.152,-11.699 4.434,15.058 -26.778,7.52 27.043,15.644 -8.164,14.102 -27.539,-15.938 7.324,27.344 -15.226,3.863 -11.153,-42.242 -23.75,-13.75 c -2.48,2.18 -5.379,3.867 -8.574,4.953 l 0,23.731 30.957,30.023 -10.808,11.379 -20.149,-19.668 0,35.797 -16.281,0 0,-35.91 -19.793,19.781 -10.949,-11.25 30.742,-30.535 0,-23.348 c -3.203,-1.086 -6.113,-2.785 -8.606,-4.972 l -19.777,11.406 -11.73,42.523 -15.18,-4.027 7.652,-27.383 -31.355,18.098 -8.149,-14.113 30.602,-17.649 -26.609,-7.781 4.609,-15.02 40.648,12.043 21.129,-12.187 c -0.32,-1.613 -0.488,-3.274 -0.488,-4.973 0,-1.719 0.176,-3.386 0.492,-5 l -20.851,-12.082 -40.993,11.653 -4.437,-15.059 26.625,-7.481 -30.66,-17.734 8.164,-14.101 31.351,18.144 -7.355,-27.512 15.215,-3.855 11.199,42.402 19.93,11.543 c 2.476,-2.176 5.379,-3.879 8.574,-4.949 l 0,-27.766 -30.742,-29.8043 10.816,-11.3868 19.926,19.4531 0,-31.7656 16.281,0 0,32.3246 20,-20.0121 10.957,11.2618 -30.957,30.7503 0,26.945 c 3.215,1.07 6.113,2.781 8.606,4.969 l 23.953,-13.821 11.582,-41.992 15.176,4.028 -7.508,26.851 27.187,-15.68 8.145,14.098 -27.071,15.625 27.11,7.934"
             id="path28"
             style="fill:#231f20;fill-opacity:1;fill-rule:nonzero;stroke:none" /></g></g></g></g></svg>