<?xml version="1.0" encoding="UTF-8" standalone="no"?>
<!-- Created with Inkscape (http://www.inkscape.org/) -->

<svg
   xmlns:dc="http://purl.org/dc/elements/1.1/"
   xmlns:cc="http://creativecommons.org/ns#"
   xmlns:rdf="http://www.w3.org/1999/02/22-rdf-syntax-ns#"
   xmlns:svg="http://www.w3.org/2000/svg"
   xmlns="http://www.w3.org/2000/svg"
   version="1.1"
   width="70.862503"
   height="62.037498"
   id="svg2"
   xml:space="preserve"><metadata
     id="metadata8"><rdf:RDF><cc:Work
         rdf:about=""><dc:format>image/svg+xml</dc:format><dc:type
           rdf:resource="http://purl.org/dc/dcmitype/StillImage" /><dc:title></dc:title></cc:Work></rdf:RDF></metadata><defs
     id="defs6"><clipPath
       id="clipPath18"><path
         d="m 0,0 566.93,0 0,496 L 0,496 0,0 z"
         id="path20" /></clipPath></defs><g
     transform="matrix(1.25,0,0,-1.25,0,62.0375)"
     id="g10"><g
       transform="scale(0.1,0.1)"
       id="g12"><g
         id="g14"><g
           clip-path="url(#clipPath18)"
           id="g16"><path
             d="M 30.5859,0 536.344,0 c 16.883,0 30.586,13.6133 30.586,30.3984 0,5.3555 -1.407,10.586 -4.094,15.2071 L 309.957,481.031 c -8.449,14.594 -27.16,19.52 -41.777,11.129 -4.657,-2.613 -8.508,-6.504 -11.2,-11.129 L 4.10156,45.6055 C -4.33984,31.0742 0.679688,12.4609 15.2969,4.07031 19.9453,1.39453 25.207,0 30.5859,0 l 0,0"
             id="path22"
             style="fill:#fcd213;fill-opacity:1;fill-rule:evenodd;stroke:none" /><path
             d="m 30.5859,15.0117 505.7581,0 c 8.445,0 15.293,6.8047 15.293,15.1914 0,2.6797 -0.735,5.293 -2.071,7.6094 L 296.684,473.238 c -4.227,7.293 -13.582,9.789 -20.864,5.594 -2.324,-1.336 -4.281,-3.285 -5.625,-5.594 L 17.3164,37.8125 c -4.2226,-7.2383 -1.7148,-16.543 5.6289,-20.7422 2.3242,-1.3398 4.9492,-2.0586 7.6406,-2.0586 l 0,0"
             id="path24"
             style="fill:#231f20;fill-opacity:1;fill-rule:evenodd;stroke:none" /><path
             d="m 67.6055,51.6602 431.5585,0 L 283.418,423.238 67.6055,51.6602 l 0,0"
             id="path26"
             style="fill:#fcd213;fill-opacity:1;fill-rule:evenodd;stroke:none" /><path
             d="m 185.465,65.5586 0,152.8474 83.551,0 0,-25.945 -60.77,0 0,-33.856 56.652,0 0,-25.96 -56.652,0 0,-41.1411 62.981,0 0,-25.9453 -85.762,0"
             id="path28"
             style="fill:#231f20;fill-opacity:1;fill-rule:nonzero;stroke:none" /><path
             d="m 278.992,65.5586 38.707,79.3634 -35.222,73.484 26.972,0 21.961,-45.371 22.129,45.371 26.406,0 -35.215,-72.886 38.692,-79.9614 -27.664,0 -24.738,51.5824 -24.922,-51.5824 -27.106,0"
             id="path30"
             style="fill:#231f20;fill-opacity:1;fill-rule:nonzero;stroke:none" /></g></g></g></g></svg>