<?xml version="1.0" encoding="UTF-8" standalone="no"?>
<!-- Created with Inkscape (http://www.inkscape.org/) -->

<svg
   xmlns:dc="http://purl.org/dc/elements/1.1/"
   xmlns:cc="http://creativecommons.org/ns#"
   xmlns:rdf="http://www.w3.org/1999/02/22-rdf-syntax-ns#"
   xmlns:svg="http://www.w3.org/2000/svg"
   xmlns="http://www.w3.org/2000/svg"
   version="1.1"
   width="70.862503"
   height="70.862503"
   id="svg2"
   xml:space="preserve"><metadata
     id="metadata8"><rdf:RDF><cc:Work
         rdf:about=""><dc:format>image/svg+xml</dc:format><dc:type
           rdf:resource="http://purl.org/dc/dcmitype/StillImage" /><dc:title></dc:title></cc:Work></rdf:RDF></metadata><defs
     id="defs6"><clipPath
       id="clipPath18"><path
         d="M 0,566.934 0,0 l 566.934,0 0,566.934 -566.934,0 z"
         id="path20" /></clipPath></defs><g
     transform="matrix(1.25,0,0,-1.25,0,70.8625)"
     id="g10"><rect
       width="19.718863"
       height="19.028185"
       rx="0.036715977"
       x="0.16732889"
       y="-39.731682"
       transform="matrix(0.70846499,-0.70574596,-0.70574596,-0.70846499,0,0)"
       id="rect3009"
       style="color:#000000;fill:#ffffff;fill-opacity:1;fill-rule:nonzero;stroke:none;stroke-width:1;marker:none;visibility:visible;display:inline;overflow:visible;enable-background:accumulate" /><g
       transform="scale(0.1,0.1)"
       id="g12"><g
         id="g14"><g
           clip-path="url(#clipPath18)"
           id="g16"><path
             d="M 282.938,564.105 2.82812,284.527 284.27,2.82422 564.109,282.672 282.938,564.105"
             id="path22"
             style="fill:#231f20;fill-opacity:1;fill-rule:nonzero;stroke:none" /><path
             d="M 282.938,564.105 2.82812,284.527 284.27,2.82422 564.109,282.672 282.938,564.105 z"
             id="path24"
             style="fill:none;stroke:#231f20;stroke-width:7.9870801;stroke-linecap:butt;stroke-linejoin:bevel;stroke-miterlimit:4;stroke-opacity:1;stroke-dasharray:none" /><path
             d="M 283.633,277.848 150.305,144.719 284.324,10.5781 417.344,144.023 283.633,277.848"
             id="path26"
             style="fill:#ffffff;fill-opacity:1;fill-rule:nonzero;stroke:none" /><path
             d="M 282.996,556.02 149.562,422.715 283.457,288.707 416.633,421.73 282.996,556.02"
             id="path28"
             style="fill:#ed1c24;fill-opacity:1;fill-rule:nonzero;stroke:none" /><path
             d="M 144.508,416.367 11.207,283.688 145.074,149.719 278.137,282.621 144.508,416.367"
             id="path30"
             style="fill:#1670c2;fill-opacity:1;fill-rule:nonzero;stroke:none" /><path
             d="M 421.602,416.23 288.684,283.441 422.449,149.59 555.598,282.594 421.602,416.23"
             id="path32"
             style="fill:#fcd213;fill-opacity:1;fill-rule:evenodd;stroke:none" /></g></g></g></g></svg>