<?xml version="1.0" encoding="UTF-8" standalone="no"?>
<!-- Created with Inkscape (http://www.inkscape.org/) -->

<svg
   xmlns:dc="http://purl.org/dc/elements/1.1/"
   xmlns:cc="http://creativecommons.org/ns#"
   xmlns:rdf="http://www.w3.org/1999/02/22-rdf-syntax-ns#"
   xmlns:svg="http://www.w3.org/2000/svg"
   xmlns="http://www.w3.org/2000/svg"
   version="1.1"
   width="70.862503"
   height="53.150002"
   id="svg2"
   xml:space="preserve"><metadata
     id="metadata8"><rdf:RDF><cc:Work
         rdf:about=""><dc:format>image/svg+xml</dc:format><dc:type
           rdf:resource="http://purl.org/dc/dcmitype/StillImage" /><dc:title></dc:title></cc:Work></rdf:RDF></metadata><defs
     id="defs6"><clipPath
       id="clipPath18"><path
         d="m 0,0 566.934,0 0,425 L 0,425 0,0 z"
         id="path20" /></clipPath></defs><g
     transform="matrix(1.25,0,0,-1.25,0,53.15)"
     id="g10"><g
       transform="scale(0.1,0.1)"
       id="g12"><g
         id="g14"><g
           clip-path="url(#clipPath18)"
           id="g16"><path
             d="m 0,0 566.934,0 0,425.195 L 0,425.195 0,0 z"
             id="path22"
             style="fill:#f58113;fill-opacity:1;fill-rule:nonzero;stroke:none" /><path
             d="m 9.21484,9.21094 0,198.77706 548.50016,0 0,-198.77706 -548.50016,0 z m 0,406.76906 548.50016,0 0,-198.777 -548.50016,0 0,198.777 z M 0,425.195 0,0 l 566.934,0 0,425.195 -566.934,0"
             id="path24"
             style="fill:#231f20;fill-opacity:1;fill-rule:nonzero;stroke:none" /><path
             d="m 137.473,177.629 32.699,0 26.898,-86.3009 c 0.774,-2.5195 2.903,-11.2226 5.805,-26.125 1.738,12.1875 3.68,21.2891 5.609,27.0938 l 27.286,85.3321 32.316,0 -51.477,-138.3517 -28.054,0 -51.082,138.3517"
             id="path26"
             style="fill:#231f20;fill-opacity:1;fill-rule:nonzero;stroke:none" /><path
             d="m 282.984,177.629 30.766,0 61.145,-80.5001 c 3.484,-4.4453 7.742,-12.5781 12.39,-24.1797 -1.941,11.7969 -1.941,20.7031 -1.941,27.2738 l 0,77.406 28.25,0 0,-138.3517 -29.024,0 -62.89,82.0387 c -3.477,4.454 -7.735,12.774 -12.383,24.387 1.933,-11.613 1.933,-20.703 1.933,-27.48 l 0,-78.9457 -28.246,0 0,138.3517"
             id="path28"
             style="fill:#231f20;fill-opacity:1;fill-rule:nonzero;stroke:none" /><path
             d="m 322.168,320.215 c 0.195,-2.32 0.195,-4.645 0.195,-6.969 0,-42.371 -26.894,-69.656 -63.664,-69.656 -43.344,0 -73.914,30.961 -73.914,72.758 0,41.988 31.348,72.367 73.914,72.367 22.449,0 41.406,-9.481 56.113,-28.25 l -19.929,-14.707 c -8.707,10.832 -18.574,17.414 -34.633,17.414 -27.285,0 -45.09,-18.383 -45.09,-46.824 0,-28.254 18.387,-46.832 44.508,-46.832 19.547,0 32.695,10.257 32.695,24.769 0,0.582 0,0.969 0,1.551 l -33.277,0 0,24.379 63.082,0"
             id="path30"
             style="fill:#231f20;fill-opacity:1;fill-rule:nonzero;stroke:none" /><path
             d="m 346.355,247.266 29.6016,0 0,138.355 -29.6016,0 0,-138.355 z"
             id="path32"
             style="fill:#231f20;fill-opacity:1;fill-rule:nonzero;stroke:none" /></g></g></g></g></svg>