<?xml version="1.0" encoding="UTF-8" standalone="no"?>
<!-- Created with Inkscape (http://www.inkscape.org/) -->

<svg
   xmlns:dc="http://purl.org/dc/elements/1.1/"
   xmlns:cc="http://creativecommons.org/ns#"
   xmlns:rdf="http://www.w3.org/1999/02/22-rdf-syntax-ns#"
   xmlns:svg="http://www.w3.org/2000/svg"
   xmlns="http://www.w3.org/2000/svg"
   version="1.1"
   width="70.862503"
   height="62.037498"
   id="svg2"
   xml:space="preserve"><metadata
     id="metadata8"><rdf:RDF><cc:Work
         rdf:about=""><dc:format>image/svg+xml</dc:format><dc:type
           rdf:resource="http://purl.org/dc/dcmitype/StillImage" /><dc:title></dc:title></cc:Work></rdf:RDF></metadata><defs
     id="defs6"><clipPath
       id="clipPath18"><path
         d="m 0,0 566.93,0 0,496 L 0,496 0,0 z"
         id="path20" /></clipPath></defs><g
     transform="matrix(1.25,0,0,-1.25,0,62.0375)"
     id="g10"><g
       transform="scale(0.1,0.1)"
       id="g12"><g
         id="g14"><g
           clip-path="url(#clipPath18)"
           id="g16"><path
             d="M 30.5898,0 536.352,0 c 16.875,0 30.578,13.6211 30.578,30.4102 0,5.3515 -1.407,10.5742 -4.094,15.1953 L 309.957,481.035 c -8.449,14.594 -27.16,19.524 -41.777,11.129 -4.657,-2.617 -8.508,-6.508 -11.2,-11.129 L 4.10156,45.6055 C -4.33984,31.0742 0.679688,12.4727 15.2969,4.07031 19.9453,1.39844 25.207,0 30.5898,0 l 0,0"
             id="path22"
             style="fill:#fcd213;fill-opacity:1;fill-rule:evenodd;stroke:none" /><path
             d="m 30.5898,15.0117 505.7622,0 c 8.437,0 15.285,6.8125 15.285,15.2031 0,2.6758 -0.735,5.293 -2.082,7.5977 L 296.684,473.238 c -4.219,7.301 -13.582,9.793 -20.864,5.594 -2.32,-1.336 -4.277,-3.285 -5.625,-5.594 L 17.3164,37.8125 c -4.2226,-7.2383 -1.7148,-16.5352 5.6289,-20.7344 2.3242,-1.3359 4.9492,-2.0664 7.6445,-2.0664 l 0,0"
             id="path24"
             style="fill:#231f20;fill-opacity:1;fill-rule:evenodd;stroke:none" /><path
             d="m 67.6055,51.6719 431.5585,0 L 283.418,423.242 67.6055,51.6719 l 0,0"
             id="path26"
             style="fill:#fcd213;fill-opacity:1;fill-rule:evenodd;stroke:none" /><path
             d="M 197.93,98.6836 221,75.0977 c 0.738,-0.75 1.965,-1.25 2.945,-1.25 0.981,0 2.207,0.5 2.946,1.25 l 53.992,55.1953 c 1.476,1.504 4.176,1.504 5.644,0 l 54.004,-55.1953 c 0.735,-0.75 1.711,-1.25 2.942,-1.25 0.976,0 1.961,0.5 2.703,1.25 l 23.066,23.5859 c 0.735,0.75 1.223,1.7464 1.223,3.0074 0,1.004 -0.488,2.008 -1.223,2.75 l -53.992,55.2 c -1.477,1.757 -1.477,4.265 0,6.011 l 53.992,55.207 c 0.735,0.743 1.223,1.75 1.223,2.754 0,1.25 -0.488,2.254 -1.223,3.008 l -23.066,23.578 c -0.742,0.758 -1.727,1.262 -2.703,1.262 -1.231,0 -2.207,-0.504 -2.942,-1.262 l -54.004,-55.187 c -1.715,-1.504 -4.168,-1.504 -5.644,0 l -53.992,55.187 c -0.739,0.758 -1.965,1.262 -2.946,1.262 -0.98,0 -2.207,-0.504 -2.945,-1.262 l -23.07,-23.578 c -0.739,-0.754 -1.227,-1.758 -1.227,-3.008 0,-1.004 0.488,-2.011 1.227,-2.754 l 53.996,-55.207 c 0.734,-0.75 1.222,-2 1.222,-3.004 0,-0.996 -0.488,-2.003 -1.222,-3.007 l -53.996,-55.2 c -0.739,-0.742 -1.227,-1.746 -1.227,-2.75 0,-1.261 0.488,-2.2574 1.227,-3.0074"
             id="path28"
             style="fill:#231f20;fill-opacity:1;fill-rule:nonzero;stroke:none" /></g></g></g></g></svg>