<?xml version="1.0" encoding="UTF-8" standalone="no"?>
<!-- Creator: CorelDRAW X6 -->

<svg
   xmlns:dc="http://purl.org/dc/elements/1.1/"
   xmlns:cc="http://creativecommons.org/ns#"
   xmlns:rdf="http://www.w3.org/1999/02/22-rdf-syntax-ns#"
   xmlns:svg="http://www.w3.org/2000/svg"
   xmlns="http://www.w3.org/2000/svg"
   xmlns:sodipodi="http://sodipodi.sourceforge.net/DTD/sodipodi-0.dtd"
   xmlns:inkscape="http://www.inkscape.org/namespaces/inkscape"
   xml:space="preserve"
   width="70"
   height="70"
   version="1.0"
   style="clip-rule:evenodd;fill-rule:evenodd;image-rendering:optimizeQuality;shape-rendering:geometricPrecision;text-rendering:geometricPrecision"
   viewBox="0 0 70 70"
   id="svg17"
   sodipodi:docname="camping.svg"
   inkscape:version="0.92.4 (5da689c313, 2019-01-14)"><metadata
   id="metadata21"><rdf:RDF><cc:Work
       rdf:about=""><dc:format>image/svg+xml</dc:format><dc:type
         rdf:resource="http://purl.org/dc/dcmitype/StillImage" /><dc:title></dc:title></cc:Work></rdf:RDF></metadata><sodipodi:namedview
   pagecolor="#ffffff"
   bordercolor="#666666"
   borderopacity="1"
   objecttolerance="10"
   gridtolerance="10"
   guidetolerance="10"
   inkscape:pageopacity="0"
   inkscape:pageshadow="2"
   inkscape:window-width="960"
   inkscape:window-height="1017"
   id="namedview19"
   showgrid="false"
   inkscape:zoom="2.5613124"
   inkscape:cx="43.828172"
   inkscape:cy="5.3998777"
   inkscape:window-x="-8"
   inkscape:window-y="-8"
   inkscape:window-maximized="0"
   inkscape:current-layer="svg17"
   units="px" />
 <defs
   id="defs4">
  <style
   type="text/css"
   id="style2">
   <![CDATA[
    .str0 {stroke:#D6061C;stroke-width:30.1655}
    .fil1 {fill:#E31E24}
    .fil0 {fill:#FEFEFE}
   ]]>
  </style>
 </defs>
 
<g
   style="clip-rule:evenodd;fill-rule:evenodd;image-rendering:optimizeQuality;shape-rendering:geometricPrecision;text-rendering:geometricPrecision"
   id="Laag_x0020_1"
   transform="matrix(0.05325544,0,0,0.05325544,1.0813826,0.89343901)"><metadata
     id="CorelCorpID_0Corel-Layer" /><g
     id="_851543840"><rect
       class="fil0 str0"
       x="74"
       y="75"
       width="1131"
       height="1155"
       rx="50"
       ry="50"
       id="rect7"
       style="fill:#fefefe;stroke:#fefefe;stroke-width:22.61949921" /><rect
       class="fil1 str1"
       x="48"
       y="55"
       width="1174"
       height="1202"
       id="rect9"
       style="fill:#945231;stroke:#945231;stroke-width:22.61949921" /><path
       class="fil1 str1"
       d="m 112,1294 h 1055 c 56,0 101,-45 101,-100 V 112 C 1268,57 1223,11 1167,11 H 112 C 57,11 11,57 11,112 v 1082 c 0,55 46,100 101,100 z"
       id="path11"
       inkscape:connector-curvature="0"
       style="fill:#945231;stroke:#945231;stroke-width:22.61949921" /><path
       class="fil0 str1"
       d="m 124,75 h 1031 c 28,0 50,23 50,51 v 1054 c 0,27 -22,50 -50,50 H 124 c -27,0 -50,-23 -50,-50 V 126 C 74,98 97,75 124,75 Z"
       id="path13"
       inkscape:connector-curvature="0"
       style="fill:#fefefe;stroke:#945231;stroke-width:22.61949921" /><rect
       class="fil2 str2"
       x="219"
       y="843"
       width="858"
       height="71.501999"
       id="rect15"
       style="fill:#2b2a29;stroke:#2b2a29;stroke-width:22.61949921" /><polygon
       class="fil2 str2"
       points="648,631 475,843 309,843 648,437 "
       id="polygon17"
       style="fill:#2b2a29;stroke:#2b2a29;stroke-width:22.61949921" /><line
       class="fil3 str3"
       x1="648"
       y1="437"
       x2="571"
       y2="342"
       id="line19"
       style="fill:none;stroke:#2b2a29;stroke-width:29.68440056" /><polygon
       class="fil2 str2"
       points="648,631 820,843 986,843 648,437 "
       id="polygon21"
       style="fill:#2b2a29;stroke:#2b2a29;stroke-width:22.61949921" /><line
       class="fil3 str3"
       x1="648"
       y1="437"
       x2="724"
       y2="342"
       id="line23"
       style="fill:none;stroke:#2b2a29;stroke-width:29.68440056" /></g></g></svg>