<?xml version="1.0" encoding="UTF-8" standalone="no"?>
<!-- Creator: CorelDRAW X6 -->

<svg
   xmlns:dc="http://purl.org/dc/elements/1.1/"
   xmlns:cc="http://creativecommons.org/ns#"
   xmlns:rdf="http://www.w3.org/1999/02/22-rdf-syntax-ns#"
   xmlns:svg="http://www.w3.org/2000/svg"
   xmlns="http://www.w3.org/2000/svg"
   xmlns:sodipodi="http://sodipodi.sourceforge.net/DTD/sodipodi-0.dtd"
   xmlns:inkscape="http://www.inkscape.org/namespaces/inkscape"
   xml:space="preserve"
   width="70"
   height="50"
   version="1.0"
   style="clip-rule:evenodd;fill-rule:evenodd;image-rendering:optimizeQuality;shape-rendering:geometricPrecision;text-rendering:geometricPrecision"
   viewBox="0 0 70 50"
   id="svg21"
   sodipodi:docname="gastank.svg"
   inkscape:version="0.92.4 (5da689c313, 2019-01-14)"><metadata
   id="metadata25"><rdf:RDF><cc:Work
       rdf:about=""><dc:format>image/svg+xml</dc:format><dc:type
         rdf:resource="http://purl.org/dc/dcmitype/StillImage" /><dc:title></dc:title></cc:Work></rdf:RDF></metadata><sodipodi:namedview
   pagecolor="#ffffff"
   bordercolor="#666666"
   borderopacity="1"
   objecttolerance="10"
   gridtolerance="10"
   guidetolerance="10"
   inkscape:pageopacity="0"
   inkscape:pageshadow="2"
   inkscape:window-width="1920"
   inkscape:window-height="1017"
   id="namedview23"
   showgrid="false"
   units="px"
   inkscape:zoom="10.58154"
   inkscape:cx="61.667869"
   inkscape:cy="15.771528"
   inkscape:window-x="-8"
   inkscape:window-y="-8"
   inkscape:window-maximized="1"
   inkscape:current-layer="svg21" />
 <defs
   id="defs4">
  <style
   type="text/css"
   id="style2">
   <![CDATA[
    .str0 {stroke:#2B2A29;stroke-width:29.4006}
    .fil0 {fill:#FFED00}
    .fil1 {fill:#2B2A29;fill-rule:nonzero}
   ]]>
  </style>
 </defs>
 <g
   id="Laag_x0020_1"
   transform="matrix(0.04238826,0,0,0.04238826,-0.06243439,1.063567)">
  <metadata
   id="CorelCorpID_0Corel-Layer" />
  <g
   id="_855674832">
   <rect
   class="fil0 str0"
   x="330"
   y="872"
   width="255"
   height="252"
   id="rect7"
   style="fill:#ffed00;stroke:#2b2a29;stroke-width:29.40060043" />
   <rect
   class="fil0 str0"
   x="702"
   y="15"
   width="248"
   height="237"
   id="rect9"
   style="fill:#ffed00;stroke:#2b2a29;stroke-width:29.40060043" />
   <rect
   class="fil0 str0"
   x="1035"
   y="872"
   width="252"
   height="248"
   id="rect11"
   style="fill:#ffed00;stroke:#2b2a29;stroke-width:29.40060043" />
   <path
   class="fil0 str0"
   d="M 1381,252 H 826 280 C 134,252 15,391 15,562 15,733 134,872 280,872 h 546 546 c 146,0 265,-139 265,-310 0,-171 -110,-310 -256,-310 z"
   id="path13"
   inkscape:connector-curvature="0"
   style="fill:#ffed00;stroke:#2b2a29;stroke-width:29.40060043" />
   <path
   class="fil1"
   d="m 479,608 v -59 h 152 v 140 c -15,14 -36,27 -64,38 -28,11 -57,16 -85,16 -37,0 -69,-8 -96,-23 -27,-15 -47,-37 -61,-66 -14,-28 -20,-60 -20,-93 0,-36 7,-69 22,-97 16,-28 38,-50 67,-65 23,-12 51,-18 84,-18 43,0 77,9 101,28 25,18 40,43 47,75 l -70,13 c -5,-17 -14,-30 -27,-40 -14,-10 -31,-15 -51,-15 -31,0 -55,9 -73,29 -19,20 -28,49 -28,87 0,42 9,73 28,93 18,21 42,32 72,32 15,0 30,-3 44,-9 15,-6 28,-13 39,-21 v -45 z"
   id="path15"
   inkscape:connector-curvature="0"
   style="fill:#2b2a29;fill-rule:nonzero" />
   <path
   id="1"
   class="fil1"
   d="M 1028,737 H 951 L 921,657 H 781 l -29,80 H 678 L 813,388 h 75 z M 898,598 850,469 803,598 Z"
   inkscape:connector-curvature="0"
   style="fill:#2b2a29;fill-rule:nonzero" />
   <path
   id="2"
   class="fil1"
   d="m 1064,624 69,-7 c 4,23 12,40 25,50 12,11 29,17 50,17 23,0 40,-5 52,-15 11,-9 17,-21 17,-34 0,-8 -3,-15 -7,-21 -5,-5 -14,-10 -26,-15 -8,-3 -27,-8 -56,-15 -37,-9 -64,-21 -79,-35 -21,-19 -32,-42 -32,-70 0,-18 5,-35 15,-50 10,-16 25,-27 43,-36 19,-8 42,-12 69,-12 44,0 76,10 99,29 22,20 33,46 34,78 l -70,2 c -3,-18 -10,-30 -20,-38 -10,-8 -24,-12 -44,-12 -20,0 -36,4 -48,12 -7,6 -11,13 -11,22 0,8 4,16 11,21 9,8 30,16 64,24 34,8 60,16 76,25 16,9 29,20 39,36 9,15 13,33 13,55 0,20 -5,39 -16,56 -11,18 -27,31 -47,39 -21,9 -46,13 -76,13 -44,0 -78,-10 -102,-31 -24,-20 -38,-50 -42,-88 z"
   inkscape:connector-curvature="0"
   style="fill:#2b2a29;fill-rule:nonzero" />
  </g>
 </g>
</svg>