<?xml version="1.0" encoding="UTF-8" standalone="no"?>
<!-- Creator: CorelDRAW X6 -->

<svg
   xmlns:dc="http://purl.org/dc/elements/1.1/"
   xmlns:cc="http://creativecommons.org/ns#"
   xmlns:rdf="http://www.w3.org/1999/02/22-rdf-syntax-ns#"
   xmlns:svg="http://www.w3.org/2000/svg"
   xmlns="http://www.w3.org/2000/svg"
   xmlns:sodipodi="http://sodipodi.sourceforge.net/DTD/sodipodi-0.dtd"
   xmlns:inkscape="http://www.inkscape.org/namespaces/inkscape"
   xml:space="preserve"
   width="69"
   height="70"
   version="1.0"
   style="clip-rule:evenodd;fill-rule:evenodd;image-rendering:optimizeQuality;shape-rendering:geometricPrecision;text-rendering:geometricPrecision"
   viewBox="0 0 69 70"
   id="svg29"
   sodipodi:docname="hotel.svg"
   inkscape:version="0.92.4 (5da689c313, 2019-01-14)"><metadata
   id="metadata33"><rdf:RDF><cc:Work
       rdf:about=""><dc:format>image/svg+xml</dc:format><dc:type
         rdf:resource="http://purl.org/dc/dcmitype/StillImage" /><dc:title></dc:title></cc:Work></rdf:RDF></metadata><sodipodi:namedview
   pagecolor="#ffffff"
   bordercolor="#666666"
   borderopacity="1"
   objecttolerance="10"
   gridtolerance="10"
   guidetolerance="10"
   inkscape:pageopacity="0"
   inkscape:pageshadow="2"
   inkscape:window-width="1920"
   inkscape:window-height="1017"
   id="namedview31"
   showgrid="false"
   units="px"
   scale-x="67.90006"
   inkscape:zoom="7.099516"
   inkscape:cx="13.188001"
   inkscape:cy="12.483758"
   inkscape:window-x="-8"
   inkscape:window-y="-8"
   inkscape:window-maximized="1"
   inkscape:current-layer="svg29" />
 <defs
   id="defs4">
  <style
   type="text/css"
   id="style2">
   <![CDATA[
    .str3 {stroke:#2B2A29;stroke-width:22.5875}
    .str0 {stroke:#FEFEFE;stroke-width:22.5875}
    .str2 {stroke:#375895;stroke-width:22.5875}
    .str1 {stroke:#945231;stroke-width:22.5875}
    .fil3 {fill:#2B2A29}
    .fil0 {fill:#FEFEFE}
    .fil2 {fill:#375895}
    .fil1 {fill:#945231}
   ]]>
  </style>
 </defs>
 <g
   id="Laag_x0020_1"
   transform="matrix(0.05356036,0,0,0.05356036,0.28540586,0.1931216)">
  <metadata
   id="CorelCorpID_0Corel-Layer" />
  <g
   id="_851392960">
   <rect
   class="fil0 str0"
   x="74"
   y="75"
   width="1129"
   height="1153"
   rx="50"
   ry="50"
   id="rect7"
   style="fill:#fefefe;stroke:#fefefe;stroke-width:22.58749962" />
   <rect
   class="fil1 str1"
   x="48"
   y="55"
   width="1173"
   height="1200"
   id="rect9"
   style="fill:#945231;stroke:#945231;stroke-width:22.58749962" />
   <path
   class="fil2 str2"
   d="m 112,1292 h 1054 c 55,0 100,-45 100,-100 V 112 C 1266,56 1221,11 1166,11 H 112 C 56,11 11,56 11,112 v 1080 c 0,55 45,100 101,100 z"
   id="path11"
   inkscape:connector-curvature="0"
   style="fill:#375895;stroke:#375895;stroke-width:22.58749962" />
   <path
   class="fil0 str2"
   d="m 124,75 h 1029 c 28,0 50,23 50,51 v 1052 c 0,28 -22,50 -50,50 H 124 c -27,0 -50,-22 -50,-50 V 126 C 74,98 97,75 124,75 Z"
   id="path13"
   inkscape:connector-curvature="0"
   style="fill:#fefefe;stroke:#375895;stroke-width:22.58749962" />
   <rect
   class="fil3 str3"
   x="255"
   y="380"
   width="47.071999"
   height="529.383"
   id="rect15"
   style="fill:#2b2a29;stroke:#2b2a29;stroke-width:22.58749962" />
   <rect
   class="fil3 str3"
   x="1004"
   y="559"
   width="47.071999"
   height="350.965"
   id="rect17"
   style="fill:#2b2a29;stroke:#2b2a29;stroke-width:22.58749962" />
   <rect
   class="fil3 str3"
   x="271"
   y="734"
   width="756.85797"
   height="99.035103"
   id="rect19"
   style="fill:#2b2a29;stroke:#2b2a29;stroke-width:22.58749962" />
   <polygon
   class="fil3 str3"
   points="396,734 302,645 302,734 "
   id="polygon21"
   style="fill:#2b2a29;stroke:#2b2a29;stroke-width:22.58749962" />
   <path
   class="fil3 str3"
   d="m 737,690 h 230 c 0,-45 -103,-81 -230,-81 -126,0 -229,36 -229,81 z"
   id="path23"
   inkscape:connector-curvature="0"
   style="fill:#2b2a29;stroke:#2b2a29;stroke-width:22.58749962" />
   <ellipse
   class="fil3 str3"
   transform="rotate(-35.611569,1143.0344,-329.44088)"
   rx="43"
   ry="102"
   id="ellipse25"
   cx="0"
   cy="0"
   style="fill:#2b2a29;stroke:#2b2a29;stroke-width:22.58749962" />
  </g>
 </g>
</svg>