<?xml version="1.0" encoding="UTF-8" standalone="no"?>
<!-- Creator: CorelDRAW X6 -->

<svg
   xmlns:dc="http://purl.org/dc/elements/1.1/"
   xmlns:cc="http://creativecommons.org/ns#"
   xmlns:rdf="http://www.w3.org/1999/02/22-rdf-syntax-ns#"
   xmlns:svg="http://www.w3.org/2000/svg"
   xmlns="http://www.w3.org/2000/svg"
   xmlns:sodipodi="http://sodipodi.sourceforge.net/DTD/sodipodi-0.dtd"
   xmlns:inkscape="http://www.inkscape.org/namespaces/inkscape"
   xml:space="preserve"
   width="69"
   height="70"
   version="1.0"
   style="clip-rule:evenodd;fill-rule:evenodd;image-rendering:optimizeQuality;shape-rendering:geometricPrecision;text-rendering:geometricPrecision"
   viewBox="0 0 69 70"
   id="svg24"
   sodipodi:docname="mountainbike_route.svg"
   inkscape:version="0.92.4 (5da689c313, 2019-01-14)"><metadata
   id="metadata28"><rdf:RDF><cc:Work
       rdf:about=""><dc:format>image/svg+xml</dc:format><dc:type
         rdf:resource="http://purl.org/dc/dcmitype/StillImage" /><dc:title></dc:title></cc:Work></rdf:RDF></metadata><sodipodi:namedview
   pagecolor="#ffffff"
   bordercolor="#666666"
   borderopacity="1"
   objecttolerance="10"
   gridtolerance="10"
   guidetolerance="10"
   inkscape:pageopacity="0"
   inkscape:pageshadow="2"
   inkscape:window-width="1920"
   inkscape:window-height="1017"
   id="namedview26"
   showgrid="false"
   units="px"
   inkscape:zoom="7.0995161"
   inkscape:cx="-1.9124335"
   inkscape:cy="18.428887"
   inkscape:window-x="-8"
   inkscape:window-y="-8"
   inkscape:window-maximized="1"
   inkscape:current-layer="svg24" />
 <defs
   id="defs4">
  <style
   type="text/css"
   id="style2">
   <![CDATA[
    .str0 {stroke:#FEFEFE;stroke-width:22.5441}
    .str2 {stroke:#375895;stroke-width:22.5441}
    .str1 {stroke:#945231;stroke-width:22.5441}
    .fil4 {fill:none}
    .fil3 {fill:#2B2A29}
    .fil0 {fill:#FEFEFE}
    .fil2 {fill:#375895}
    .fil1 {fill:#945231}
   ]]>
  </style>
 </defs>
 <g
   id="Laag_x0020_1"
   transform="matrix(0.05364935,0,0,0.05364935,0.28295966,0.19831493)">
  <metadata
   id="CorelCorpID_0Corel-Layer" />
  <rect
   class="fil0 str0"
   x="74"
   y="75"
   width="1127"
   height="1151"
   rx="50"
   ry="50"
   id="rect7"
   style="fill:#fefefe;stroke:#fefefe;stroke-width:22.54409981" />
  <rect
   class="fil1 str1"
   x="48"
   y="55"
   width="1170"
   height="1198"
   id="rect9"
   style="fill:#945231;stroke:#945231;stroke-width:22.54409981" />
  <path
   class="fil2 str2"
   d="m 111,1290 h 1053 c 55,0 100,-45 100,-100 V 111 C 1264,56 1219,11 1164,11 H 111 C 56,11 11,56 11,111 v 1079 c 0,55 45,100 100,100 z"
   id="path11"
   inkscape:connector-curvature="0"
   style="fill:#375895;stroke:#375895;stroke-width:22.54409981" />
  <path
   class="fil0 str2"
   d="m 124,75 h 1027 c 28,0 50,23 50,50 v 1051 c 0,27 -22,50 -50,50 H 124 c -28,0 -50,-23 -50,-50 V 125 C 74,98 96,75 124,75 Z"
   id="path13"
   inkscape:connector-curvature="0"
   style="fill:#fefefe;stroke:#375895;stroke-width:22.54409981" />
  <circle
   class="fil3"
   transform="matrix(0,0.0272873,-0.0272873,0,424.252,455.343)"
   r="5821"
   id="circle15"
   cx="0"
   cy="0"
   style="fill:#2b2a29" />
  <polygon
   class="fil3"
   points="1120,654 633,297 633,654 633,1011 "
   id="polygon17"
   style="fill:#2b2a29" />
  <line
   class="fil4"
   x1="633"
   y1="297"
   x2="633"
   y2="654"
   id="line19"
   style="fill:none" />
  <circle
   class="fil3"
   transform="matrix(0,0.0272873,-0.0272873,0,424.252,843.16)"
   r="5821"
   id="circle21"
   cx="0"
   cy="0"
   style="fill:#2b2a29" />
 </g>
</svg>