<?xml version="1.0" encoding="UTF-8" standalone="no"?>
<!-- Creator: CorelDRAW X6 -->

<svg
   xmlns:dc="http://purl.org/dc/elements/1.1/"
   xmlns:cc="http://creativecommons.org/ns#"
   xmlns:rdf="http://www.w3.org/1999/02/22-rdf-syntax-ns#"
   xmlns:svg="http://www.w3.org/2000/svg"
   xmlns="http://www.w3.org/2000/svg"
   xmlns:sodipodi="http://sodipodi.sourceforge.net/DTD/sodipodi-0.dtd"
   xmlns:inkscape="http://www.inkscape.org/namespaces/inkscape"
   xml:space="preserve"
   width="68"
   height="70"
   version="1.0"
   style="clip-rule:evenodd;fill-rule:evenodd;image-rendering:optimizeQuality;shape-rendering:geometricPrecision;text-rendering:geometricPrecision"
   viewBox="0 0 68 70"
   id="svg45"
   sodipodi:docname="bungalowpark.svg"
   inkscape:version="0.92.4 (5da689c313, 2019-01-14)"><metadata
   id="metadata49"><rdf:RDF><cc:Work
       rdf:about=""><dc:format>image/svg+xml</dc:format><dc:type
         rdf:resource="http://purl.org/dc/dcmitype/StillImage" /><dc:title></dc:title></cc:Work></rdf:RDF></metadata><sodipodi:namedview
   pagecolor="#ffffff"
   bordercolor="#666666"
   borderopacity="1"
   objecttolerance="10"
   gridtolerance="10"
   guidetolerance="10"
   inkscape:pageopacity="0"
   inkscape:pageshadow="2"
   inkscape:window-width="1920"
   inkscape:window-height="1017"
   id="namedview47"
   showgrid="false"
   units="px"
   inkscape:zoom="7.0995161"
   inkscape:cx="-1.7896883"
   inkscape:cy="17.881673"
   inkscape:window-x="-8"
   inkscape:window-y="-8"
   inkscape:window-maximized="1"
   inkscape:current-layer="svg45" />
 <defs
   id="defs4">
  <style
   type="text/css"
   id="style2">
   <![CDATA[
    .str0 {stroke:#FEFEFE;stroke-width:22.6165}
    .str1 {stroke:#945231;stroke-width:22.6165}
    .str3 {stroke:#2B2A29;stroke-width:44.5207}
    .str2 {stroke:#2B2A29;stroke-width:44.5207}
    .fil3 {fill:none}
    .fil2 {fill:#2B2A29}
    .fil0 {fill:#FEFEFE}
    .fil1 {fill:#945231}
   ]]>
  </style>
 </defs>
 <g
   id="Laag_x0020_1"
   transform="matrix(0.0533409,0,0,0.05361931,0.08791322,0.02064489)">
  <metadata
   id="CorelCorpID_0Corel-Layer" />
  <g
   id="_851376640">
   <rect
   class="fil0 str0"
   x="74"
   y="75"
   width="1131"
   height="1154"
   rx="50"
   ry="50"
   id="rect7"
   style="fill:#fefefe;stroke:#fefefe;stroke-width:22.61650085" />
   <rect
   class="fil1 str1"
   x="48"
   y="55"
   width="1174"
   height="1202"
   id="rect9"
   style="fill:#945231;stroke:#945231;stroke-width:22.61650085" />
   <path
   class="fil1 str1"
   d="m 112,1294 h 1055 c 56,0 101,-45 101,-101 V 112 C 1268,57 1223,11 1167,11 H 112 C 57,11 11,57 11,112 v 1081 c 0,56 46,101 101,101 z"
   id="path11"
   inkscape:connector-curvature="0"
   style="fill:#945231;stroke:#945231;stroke-width:22.61650085" />
   <path
   class="fil0 str1"
   d="m 124,75 h 1031 c 27,0 50,23 50,51 v 1054 c 0,27 -23,50 -50,50 H 124 c -27,0 -50,-23 -50,-50 V 126 C 74,98 97,75 124,75 Z"
   id="path13"
   inkscape:connector-curvature="0"
   style="fill:#fefefe;stroke:#945231;stroke-width:22.61650085" />
   <polygon
   class="fil2 str2"
   points="727,713 727,468 842,468 842,713 "
   id="polygon15"
   style="fill:#2b2a29;stroke:#2b2a29;stroke-width:44.52069855" />
   <polygon
   class="fil0 str3"
   points="408,411 823,303 967,392 967,713 842,713 727,713 408,713 "
   id="polygon17"
   style="fill:#fefefe;stroke:#2b2a29;stroke-width:44.52069855" />
   <polyline
   class="fil3 str2"
   points="353,425 408,411 823,303 967,392 1031,429 "
   id="polyline19"
   style="fill:none;stroke:#2b2a29;stroke-width:44.52069855" />
   <polyline
   class="fil3 str2"
   points="408,411 408,713 967,713 967,392 "
   id="polyline21"
   style="fill:none;stroke:#2b2a29;stroke-width:44.52069855" />
   <polygon
   class="fil2 str2"
   points="514,582 514,484 630,484 630,582 "
   id="polygon23"
   style="fill:#2b2a29;stroke:#2b2a29;stroke-width:44.52069855" />
   <polygon
   class="fil2 str2"
   points="520,856 520,611 635,611 635,856 "
   id="polygon25"
   style="fill:#2b2a29;stroke:#2b2a29;stroke-width:44.52069855" />
   <polygon
   class="fil0 str3"
   points="202,555 617,447 760,536 760,856 635,856 520,856 202,856 "
   id="polygon27"
   style="fill:#fefefe;stroke:#2b2a29;stroke-width:44.52069855" />
   <polyline
   class="fil3 str2"
   points="146,568 202,555 617,447 760,536 825,572 "
   id="polyline29"
   style="fill:none;stroke:#2b2a29;stroke-width:44.52069855" />
   <polyline
   class="fil3 str2"
   points="202,555 202,856 760,856 760,536 "
   id="polyline31"
   style="fill:none;stroke:#2b2a29;stroke-width:44.52069855" />
   <polygon
   class="fil2 str2"
   points="776,947 776,702 891,702 891,947 "
   id="polygon33"
   style="fill:#2b2a29;stroke:#2b2a29;stroke-width:44.52069855" />
   <polygon
   class="fil0 str3"
   points="776,702 776,947 457,947 457,646 873,537 1016,627 1016,947 891,947 891,702 "
   id="polygon35"
   style="fill:#fefefe;stroke:#2b2a29;stroke-width:44.52069855" />
   <polyline
   class="fil3 str2"
   points="402,659 457,646 873,537 1016,627 1081,663 "
   id="polyline37"
   style="fill:none;stroke:#2b2a29;stroke-width:44.52069855" />
   <polyline
   class="fil3 str2"
   points="457,646 457,947 1016,947 1016,627 "
   id="polyline39"
   style="fill:none;stroke:#2b2a29;stroke-width:44.52069855" />
   <polygon
   class="fil2 str2"
   points="564,816 564,718 679,718 679,816 "
   id="polygon41"
   style="fill:#2b2a29;stroke:#2b2a29;stroke-width:44.52069855" />
  </g>
 </g>
</svg>