<?xml version="1.0" encoding="UTF-8" standalone="no"?>
<!-- Creator: CorelDRAW X6 -->

<svg
   xmlns:dc="http://purl.org/dc/elements/1.1/"
   xmlns:cc="http://creativecommons.org/ns#"
   xmlns:rdf="http://www.w3.org/1999/02/22-rdf-syntax-ns#"
   xmlns:svg="http://www.w3.org/2000/svg"
   xmlns="http://www.w3.org/2000/svg"
   xmlns:sodipodi="http://sodipodi.sourceforge.net/DTD/sodipodi-0.dtd"
   xmlns:inkscape="http://www.inkscape.org/namespaces/inkscape"
   xml:space="preserve"
   width="69"
   height="70"
   version="1.0"
   style="clip-rule:evenodd;fill-rule:evenodd;image-rendering:optimizeQuality;shape-rendering:geometricPrecision;text-rendering:geometricPrecision"
   viewBox="0 0 69 70"
   id="svg45"
   sodipodi:docname="rustplaats.svg"
   inkscape:version="0.92.4 (5da689c313, 2019-01-14)"><metadata
   id="metadata49"><rdf:RDF><cc:Work
       rdf:about=""><dc:format>image/svg+xml</dc:format><dc:type
         rdf:resource="http://purl.org/dc/dcmitype/StillImage" /><dc:title></dc:title></cc:Work></rdf:RDF></metadata><sodipodi:namedview
   pagecolor="#ffffff"
   bordercolor="#666666"
   borderopacity="1"
   objecttolerance="10"
   gridtolerance="10"
   guidetolerance="10"
   inkscape:pageopacity="0"
   inkscape:pageshadow="2"
   inkscape:window-width="1920"
   inkscape:window-height="1017"
   id="namedview47"
   showgrid="false"
   units="px"
   inkscape:zoom="10.040232"
   inkscape:cx="22.430579"
   inkscape:cy="31.106407"
   inkscape:window-x="-8"
   inkscape:window-y="-8"
   inkscape:window-maximized="1"
   inkscape:current-layer="svg45" />
 <defs
   id="defs4">
  <style
   type="text/css"
   id="style2">
   <![CDATA[
    .str2 {stroke:#2B2A29;stroke-width:22.5875}
    .str0 {stroke:#FEFEFE;stroke-width:22.5875}
    .str1 {stroke:#945231;stroke-width:22.5875}
    .fil2 {fill:#2B2A29}
    .fil0 {fill:#FEFEFE}
    .fil1 {fill:#945231}
   ]]>
  </style>
 </defs>
 <g
   id="Laag_x0020_1"
   transform="matrix(0.05366012,0,0,0.05366012,0.3196142,0.16428904)">
  <metadata
   id="CorelCorpID_0Corel-Layer" />
  <g
   id="_851890432">
   <rect
   class="fil0 str0"
   x="74"
   y="75"
   width="1129"
   height="1153"
   rx="50"
   ry="50"
   id="rect7"
   style="fill:#fefefe;stroke:#fefefe;stroke-width:22.58749962" />
   <rect
   class="fil1 str1"
   x="48"
   y="55"
   width="1173"
   height="1200"
   id="rect9"
   style="fill:#945231;stroke:#945231;stroke-width:22.58749962" />
   <path
   class="fil1 str1"
   d="m 112,1292 h 1054 c 55,0 100,-45 100,-100 V 112 C 1266,56 1221,11 1166,11 H 112 C 56,11 11,56 11,112 v 1080 c 0,55 45,100 101,100 z"
   id="path11"
   inkscape:connector-curvature="0"
   style="fill:#945231;stroke:#945231;stroke-width:22.58749962" />
   <path
   class="fil0 str1"
   d="m 124,75 h 1029 c 28,0 50,23 50,51 v 1052 c 0,28 -22,50 -50,50 H 124 c -27,0 -50,-22 -50,-50 V 126 C 74,98 97,75 124,75 Z"
   id="path13"
   inkscape:connector-curvature="0"
   style="fill:#fefefe;stroke:#945231;stroke-width:22.58749962" />
   <g
   id="g19">
    <path
   class="fil2"
   d="m 865,918 c 22,-27 70,-32 93,11 l 40,102 h 47 v 49 H 772 l -104,-130 -48,89 h 49 v 41 H 545 l 89,-176 100,-28 84,108 47,-66 m 73,113 -82,-1 53,-72 z"
   id="path15"
   inkscape:connector-curvature="0"
   style="fill:#2b2a29" />
    <circle
   class="fil2"
   cx="665"
   cy="823"
   r="71"
   id="circle17"
   style="fill:#2b2a29" />
   </g>
   <rect
   class="fil2 str2"
   x="413"
   y="700"
   width="74.520897"
   height="380.51901"
   id="rect21"
   style="fill:#2b2a29;stroke:#2b2a29;stroke-width:22.58749962" />
   <circle
   class="fil2 str2"
   cx="283"
   cy="651"
   r="74"
   id="circle23"
   style="fill:#2b2a29;stroke:#2b2a29;stroke-width:22.58749962" />
   <circle
   class="fil2 str2"
   cx="267"
   cy="501"
   r="74"
   id="circle25"
   style="fill:#2b2a29;stroke:#2b2a29;stroke-width:22.58749962" />
   <circle
   class="fil2 str2"
   cx="308"
   cy="338"
   r="74"
   id="circle27"
   style="fill:#2b2a29;stroke:#2b2a29;stroke-width:22.58749962" />
   <circle
   class="fil2 str2"
   cx="435"
   cy="273"
   r="74"
   id="circle29"
   style="fill:#2b2a29;stroke:#2b2a29;stroke-width:22.58749962" />
   <circle
   class="fil2 str2"
   cx="566"
   cy="338"
   r="74"
   id="circle31"
   style="fill:#2b2a29;stroke:#2b2a29;stroke-width:22.58749962" />
   <circle
   class="fil2 str2"
   cx="607"
   cy="487"
   r="74"
   id="circle33"
   style="fill:#2b2a29;stroke:#2b2a29;stroke-width:22.58749962" />
   <circle
   class="fil2 str2"
   cx="600"
   cy="632"
   r="74"
   id="circle35"
   style="fill:#2b2a29;stroke:#2b2a29;stroke-width:22.58749962" />
   <circle
   class="fil2 str2"
   cx="498"
   cy="715"
   r="74"
   id="circle37"
   style="fill:#2b2a29;stroke:#2b2a29;stroke-width:22.58749962" />
   <circle
   class="fil2 str2"
   cx="368"
   cy="732"
   r="74"
   id="circle39"
   style="fill:#2b2a29;stroke:#2b2a29;stroke-width:22.58749962" />
   <polygon
   class="fil2 str2"
   points="267,501 308,338 435,273 566,338 607,487 600,632 498,715 368,732 283,651 "
   id="polygon41"
   style="fill:#2b2a29;stroke:#2b2a29;stroke-width:22.58749962" />
  </g>
 </g>
</svg>