<?xml version="1.0" encoding="UTF-8" standalone="no"?>
<!-- Creator: CorelDRAW X6 -->

<svg
   xmlns:dc="http://purl.org/dc/elements/1.1/"
   xmlns:cc="http://creativecommons.org/ns#"
   xmlns:rdf="http://www.w3.org/1999/02/22-rdf-syntax-ns#"
   xmlns:svg="http://www.w3.org/2000/svg"
   xmlns="http://www.w3.org/2000/svg"
   xmlns:sodipodi="http://sodipodi.sourceforge.net/DTD/sodipodi-0.dtd"
   xmlns:inkscape="http://www.inkscape.org/namespaces/inkscape"
   xml:space="preserve"
   width="69.288254"
   height="70.62085"
   version="1.0"
   style="clip-rule:evenodd;fill-rule:evenodd;image-rendering:optimizeQuality;shape-rendering:geometricPrecision;text-rendering:geometricPrecision"
   viewBox="0 0 69.288254 70.62085"
   id="svg23"
   sodipodi:docname="passeerplaats.svg"
   inkscape:version="0.92.4 (5da689c313, 2019-01-14)"><metadata
   id="metadata27"><rdf:RDF><cc:Work
       rdf:about=""><dc:format>image/svg+xml</dc:format><dc:type
         rdf:resource="http://purl.org/dc/dcmitype/StillImage" /><dc:title></dc:title></cc:Work></rdf:RDF></metadata><sodipodi:namedview
   pagecolor="#ffffff"
   bordercolor="#666666"
   borderopacity="1"
   objecttolerance="10"
   gridtolerance="10"
   guidetolerance="10"
   inkscape:pageopacity="0"
   inkscape:pageshadow="2"
   inkscape:window-width="1920"
   inkscape:window-height="1017"
   id="namedview25"
   showgrid="false"
   units="px"
   inkscape:zoom="7.0995161"
   inkscape:cx="66.190774"
   inkscape:cy="26.143902"
   inkscape:window-x="-8"
   inkscape:window-y="-8"
   inkscape:window-maximized="1"
   inkscape:current-layer="svg23" />
 <defs
   id="defs4">
  <style
   type="text/css"
   id="style2">
   <![CDATA[
    .str0 {stroke:#FEFEFE;stroke-width:24.4761}
    .str2 {stroke:#3334E1;stroke-width:24.4761}
    .str1 {stroke:#945231;stroke-width:24.4761}
    .fil0 {fill:#FEFEFE}
    .fil2 {fill:#3334E1}
    .fil1 {fill:#945231}
   ]]>
  </style>
 </defs>
 <g
   id="Laag_x0020_1"
   transform="matrix(0.04976502,0,0,0.04976502,0.05550546,0.24885916)">
  <metadata
   id="CorelCorpID_0Corel-Layer" />
  <g
   id="_852288560">
   <rect
   class="fil0 str0"
   x="80"
   y="82"
   width="1224"
   height="1249"
   rx="54"
   ry="54"
   id="rect7"
   style="fill:#fefefe;stroke:#fefefe;stroke-width:24.47610092" />
   <rect
   class="fil1 str1"
   x="52"
   y="60"
   width="1271"
   height="1300"
   id="rect9"
   style="fill:#945231;stroke:#945231;stroke-width:24.47610092" />
   <path
   class="fil2 str2"
   d="m 121,1400 h 1142 c 60,0 109,-49 109,-108 V 121 C 1372,61 1323,12 1263,12 H 121 C 61,12 12,61 12,121 v 1171 c 0,59 49,108 109,108 z"
   id="path11"
   inkscape:connector-curvature="0"
   style="fill:#3334e1;stroke:#3334e1;stroke-width:24.47610092" />
   <path
   class="fil0 str0"
   d="m 135,82 h 1115 c 30,0 54,24 54,54 v 1141 c 0,29 -24,54 -54,54 H 135 c -30,0 -55,-25 -55,-54 V 136 c 0,-30 25,-54 55,-54 z"
   id="path13"
   inkscape:connector-curvature="0"
   style="fill:#fefefe;stroke:#fefefe;stroke-width:24.47610092" />
   <path
   class="fil2 str0"
   d="m 162,113 h 1060 c 28,0 51,23 51,52 v 1083 c 0,28 -23,52 -51,52 H 162 c -28,0 -51,-24 -51,-52 V 165 c 0,-29 23,-52 51,-52 z"
   id="path15"
   inkscape:connector-curvature="0"
   style="fill:#3334e1;stroke:#fefefe;stroke-width:24.47610092" />
   <path
   class="fil0"
   d="m 470,1015 c -6,14 -51,73 -62,89 -11,17 -8,18 1,33 26,2 166,-34 201,-42 100,-24 119,-17 87,-65 L 554,811 c -6,-6 -12,-10 -23,-6 -8,4 -9,11 -11,22 -3,20 -11,94 -17,104 -32,-15 -21,-81 -22,-121 0,-48 0,-96 0,-144 1,-47 -6,-89 17,-126 21,-33 43,-40 86,-57 54,-22 151,-55 198,-89 78,-57 74,-138 76,-215 h -90 c 2,51 4,102 -29,132 -17,16 -19,20 -48,32 l -172,69 c -155,63 -126,219 -127,357 0,102 -19,201 78,246 z"
   id="path17"
   inkscape:connector-curvature="0"
   style="fill:#fefefe" />
   <path
   class="fil0"
   d="m 768,731 v 502 l 89,1 1,-503 c 47,5 179,66 117,-21 L 851,532 c -46,-66 -38,-57 -104,40 l -93,134 c -63,87 46,38 114,25 z"
   id="path19"
   inkscape:connector-curvature="0"
   style="fill:#fefefe" />
  </g>
 </g>
</svg>