<?xml version="1.0" encoding="UTF-8" standalone="no"?>
<!-- Creator: CorelDRAW X6 -->

<svg
   xmlns:dc="http://purl.org/dc/elements/1.1/"
   xmlns:cc="http://creativecommons.org/ns#"
   xmlns:rdf="http://www.w3.org/1999/02/22-rdf-syntax-ns#"
   xmlns:svg="http://www.w3.org/2000/svg"
   xmlns="http://www.w3.org/2000/svg"
   xmlns:sodipodi="http://sodipodi.sourceforge.net/DTD/sodipodi-0.dtd"
   xmlns:inkscape="http://www.inkscape.org/namespaces/inkscape"
   xml:space="preserve"
   width="70"
   height="70"
   version="1.0"
   style="clip-rule:evenodd;fill-rule:evenodd;image-rendering:optimizeQuality;shape-rendering:geometricPrecision;text-rendering:geometricPrecision"
   viewBox="0 0 70 70"
   id="svg17"
   sodipodi:docname="solitair_bouwwerk.svg"
   inkscape:version="0.92.4 (5da689c313, 2019-01-14)"><metadata
   id="metadata21"><rdf:RDF><cc:Work
       rdf:about=""><dc:format>image/svg+xml</dc:format><dc:type
         rdf:resource="http://purl.org/dc/dcmitype/StillImage" /><dc:title></dc:title></cc:Work></rdf:RDF></metadata><sodipodi:namedview
   pagecolor="#ffffff"
   bordercolor="#666666"
   borderopacity="1"
   objecttolerance="10"
   gridtolerance="10"
   guidetolerance="10"
   inkscape:pageopacity="0"
   inkscape:pageshadow="2"
   inkscape:window-width="1920"
   inkscape:window-height="1017"
   id="namedview19"
   showgrid="false"
   units="px"
   inkscape:zoom="7.0995161"
   inkscape:cx="24.760746"
   inkscape:cy="10.436411"
   inkscape:window-x="-8"
   inkscape:window-y="-8"
   inkscape:window-maximized="1"
   inkscape:current-layer="svg17" />
 <defs
   id="defs4">
  <style
   type="text/css"
   id="style2">
   <![CDATA[
    .str0 {stroke:#2B2A29;stroke-width:19.7508}
    .fil0 {fill:#2B2A29}
    .fil1 {fill:#FEFEFE}
   ]]>
  </style>
 </defs>
 <g
   id="Laag_x0020_1"
   transform="matrix(0.06110176,0,0,0.06141969,0.96368294,0.1885127)">
  <metadata
   id="CorelCorpID_0Corel-Layer" />
  <g
   id="_928877920">
   <path
   class="fil0 str0"
   d="m 98,1130 h 921 c 49,0 88,-40 88,-88 V 98 c 0,-49 -39,-88 -88,-88 H 98 C 49,10 10,49 10,98 v 944 c 0,48 39,88 88,88 z"
   id="path7"
   inkscape:connector-curvature="0"
   style="fill:#2b2a29;stroke:#2b2a29;stroke-width:19.75079918" />
   <path
   class="fil1 str0"
   d="m 109,66 h 899 c 25,0 44,20 44,44 v 920 c 0,24 -19,44 -44,44 H 109 c -25,0 -44,-20 -44,-44 V 110 C 65,86 84,66 109,66 Z"
   id="path9"
   inkscape:connector-curvature="0"
   style="fill:#fefefe;stroke:#2b2a29;stroke-width:19.75079918" />
   <path
   class="fil0 str0"
   d="M 559,867 H 837 V 486 H 768 V 406 L 559,273 349,406 v 80 h -69 v 381 z m 0,76 H 901 V 486 h 65 V 406 H 901 L 559,193 216,406 h -65 v 80 h 65 v 457 z"
   id="path11"
   inkscape:connector-curvature="0"
   style="fill:#2b2a29;stroke:#2b2a29;stroke-width:19.75079918" />
   <polygon
   class="fil0 str0"
   points="280,486 280,867 559,867 837,867 837,486 768,486 768,406 559,273 349,406 349,486 "
   id="polygon13"
   style="fill:#2b2a29;stroke:#2b2a29;stroke-width:19.75079918" />
  </g>
 </g>
</svg>