<?xml version="1.0" encoding="UTF-8" standalone="no"?>
<!-- Creator: CorelDRAW X6 -->

<svg
   xmlns:dc="http://purl.org/dc/elements/1.1/"
   xmlns:cc="http://creativecommons.org/ns#"
   xmlns:rdf="http://www.w3.org/1999/02/22-rdf-syntax-ns#"
   xmlns:svg="http://www.w3.org/2000/svg"
   xmlns="http://www.w3.org/2000/svg"
   xmlns:sodipodi="http://sodipodi.sourceforge.net/DTD/sodipodi-0.dtd"
   xmlns:inkscape="http://www.inkscape.org/namespaces/inkscape"
   xml:space="preserve"
   width="70"
   height="70"
   version="1.0"
   style="clip-rule:evenodd;fill-rule:evenodd;image-rendering:optimizeQuality;shape-rendering:geometricPrecision;text-rendering:geometricPrecision"
   viewBox="0 0 70 70"
   id="svg31"
   sodipodi:docname="overdrachtplaats.svg"
   inkscape:version="0.92.4 (5da689c313, 2019-01-14)"><metadata
   id="metadata35"><rdf:RDF><cc:Work
       rdf:about=""><dc:format>image/svg+xml</dc:format><dc:type
         rdf:resource="http://purl.org/dc/dcmitype/StillImage" /><dc:title></dc:title></cc:Work></rdf:RDF></metadata><sodipodi:namedview
   pagecolor="#ffffff"
   bordercolor="#666666"
   borderopacity="1"
   objecttolerance="10"
   gridtolerance="10"
   guidetolerance="10"
   inkscape:pageopacity="0"
   inkscape:pageshadow="2"
   inkscape:window-width="1920"
   inkscape:window-height="1017"
   id="namedview33"
   showgrid="false"
   units="mm"
   scale-x="1"
   inkscape:zoom="5.12"
   inkscape:cx="55.864521"
   inkscape:cy="28.341929"
   inkscape:window-x="-8"
   inkscape:window-y="-8"
   inkscape:window-maximized="1"
   inkscape:current-layer="svg31" />
 <defs
   id="defs4">
  <style
   type="text/css"
   id="style2">
   <![CDATA[
    .str0 {stroke:#2B2A29;stroke-width:18.4154}
    .fil0 {fill:#2B2A29}
    .fil2 {fill:#FCFCFC}
    .fil1 {fill:#FFFF21}
   ]]>
  </style>
 </defs>
 <g
   id="Laag_x0020_1"
   transform="matrix(0.06577073,0,0,0.06577073,0.9481901,0.26596192)">
  <metadata
   id="CorelCorpID_0Corel-Layer" />
  <g
   id="_996241088">
   <path
   class="fil0 str0"
   d="m 91,1054 h 859 c 45,0 82,-37 82,-82 V 91 C 1032,46 995,9 950,9 H 91 C 46,9 9,46 9,91 v 881 c 0,45 37,82 82,82 z"
   id="path7"
   inkscape:connector-curvature="0"
   style="fill:#2b2a29;stroke:#2b2a29;stroke-width:18.41539955" />
   <path
   class="fil1 str0"
   d="m 101,61 h 839 c 23,0 41,19 41,41 v 858 c 0,23 -18,41 -41,41 H 101 C 79,1001 60,983 60,960 V 102 C 60,80 79,61 101,61 Z"
   id="path9"
   inkscape:connector-curvature="0"
   style="fill:#ffff21;stroke:#2b2a29;stroke-width:18.41539955" />
   <path
   class="fil0"
   d="m 227,309 c 0,3 -4,7 -5,11 -2,3 -4,7 -6,10 -3,4 -8,16 -11,19 -1,0 -32,60 -37,64 0,3 -19,37 -21,38 l -19,34 c -2,4 -4,8 -6,11 -2,9 -14,17 -14,32 0,7 3,13 6,17 5,5 10,6 13,9 2,1 1,1 2,2 0,0 1,1 1,0 0,0 0,1 0,1 4,0 38,21 39,23 10,3 8,7 23,6 9,-2 14,-6 18,-12 3,-5 7,-14 10,-18 5,3 30,34 32,38 -6,11 -12,13 -11,34 2,14 7,23 15,30 10,11 13,10 30,15 3,26 -1,7 6,28 2,1 3,4 5,6 2,2 3,3 5,5 3,3 9,7 11,9 5,1 9,3 14,4 h 12 c 0,0 0,0 1,0 l 1,1 c 1,0 1,1 1,1 2,1 5,10 6,13 2,1 2,2 4,4 1,2 2,2 3,3 2,3 0,1 2,3 1,1 -1,0 2,1 17,12 19,13 43,10 2,5 4,9 6,13 4,5 8,7 8,10 12,6 22,15 42,11 19,-5 23,-18 30,-24 2,1 12,4 14,6 l 38,9 30,1 h 8 c 3,-2 11,-3 15,-5 10,-5 16,-11 23,-18 13,-15 2,-12 29,-13 1,-1 7,-3 9,-4 4,-1 7,-3 9,-4 2,-3 1,-2 3,-3 9,-12 10,-13 14,-32 5,0 10,-1 14,-1 4,-1 8,-3 11,-3 3,-4 9,-5 14,-12 2,-3 7,-12 9,-14 3,-14 2,-14 6,-15 h 10 c 3,-2 22,-4 33,-23 12,-22 4,-33 1,-45 3,-3 9,-6 13,-9 15,-11 23,-23 31,-29 0,0 0,1 1,1 0,0 0,0 0,0 l 1,2 c 8,11 9,27 34,26 l 12,-4 c 3,-3 7,-5 11,-8 6,-3 28,-17 32,-18 l 3,-3 c 4,-3 7,-3 11,-8 4,-5 6,-11 6,-18 0,-13 -11,-24 -15,-34 -2,-1 -21,-36 -21,-39 -5,-3 -25,-41 -26,-44 -2,-2 -14,-24 -17,-29 -3,-6 -16,-27 -16,-31 -2,-2 -2,-2 -4,-5 -5,-8 -19,-32 -20,-38 -6,-4 -14,-27 -24,-35 -19,-14 -31,5 -41,7 -1,1 0,0 -2,1 l -42,26 c -1,4 0,1 -2,1 -4,11 -7,11 -6,27 1,1 7,13 7,14 l 2,3 c -1,2 2,0 -2,2 -13,7 -35,2 -47,0 -70,-16 -83,-17 -158,-11 -6,1 -13,3 -18,2 -4,2 -4,1 -11,3 -4,1 -8,2 -12,2 -7,4 -15,4 -23,10 -10,7 -10,11 -17,18 l -42,-7 c -10,-1 -14,-4 -21,-9 -5,-2 -16,-8 -19,-12 5,-11 9,-11 9,-27 -2,-7 -5,-10 -6,-13 -2,-2 -4,-3 -6,-6 -5,-1 -15,-8 -20,-11 -4,-3 -17,-9 -19,-12 -13,-5 -23,-21 -43,-8 -6,4 -13,19 -18,28 -3,4 -3,6 -6,9 z"
   id="path11"
   inkscape:connector-curvature="0"
   style="fill:#2b2a29" />
   <path
   class="fil2"
   d="m 234,531 c 3,5 13,15 18,20 3,4 13,18 17,20 11,-8 21,-17 42,-11 21,6 26,20 31,24 6,-5 7,-12 20,-20 19,-10 45,-2 58,16 8,10 9,18 10,32 15,3 25,9 33,18 10,12 10,20 11,39 8,4 26,5 37,29 13,29 -5,47 -6,51 7,4 38,11 48,12 24,3 34,-4 45,-17 -5,-4 -49,-23 -58,-28 -9,-5 -24,-9 -25,-19 -1,-7 3,-12 8,-14 8,-2 12,1 18,4 19,10 39,19 59,29 10,5 19,10 33,10 16,-1 22,-12 21,-24 -16,-11 -95,-53 -101,-59 -9,-9 -1,-30 21,-18 22,13 44,26 67,39 8,5 27,18 36,18 19,0 29,-8 27,-27 -3,-4 -16,-10 -21,-14 -8,-5 -15,-9 -23,-13 -15,-10 -29,-18 -44,-27 -8,-5 -15,-9 -22,-13 -4,-3 -7,-4 -9,-9 -2,-6 0,-11 3,-14 9,-9 20,0 26,4 11,7 108,66 113,67 22,7 39,-15 24,-34 -5,-6 -31,-26 -39,-32 -59,-46 -106,-77 -174,-113 -4,-3 -21,-12 -23,-12 -2,-1 -23,5 -26,9 -6,6 -8,10 -17,19 -5,6 -11,12 -19,17 -31,24 -94,37 -94,-9 0,-21 17,-44 29,-61 4,-5 10,-13 12,-18 -4,-3 -33,-6 -43,-10 -10,-3 -28,-17 -35,-18 -2,6 -7,13 -11,19 -8,15 -75,133 -77,138 z"
   id="path13"
   inkscape:connector-curvature="0"
   style="fill:#fcfcfc" />
   <path
   class="fil2"
   d="m 760,574 c 17,-6 36,-31 48,-40 0,-5 -58,-106 -65,-119 -4,-7 -20,-35 -23,-39 -21,3 -25,11 -59,4 -19,-3 -36,-8 -55,-12 -38,-6 -88,-3 -125,3 -29,6 -30,6 -43,25 -10,15 -50,68 -52,83 -1,7 1,6 9,6 29,-1 56,-24 72,-46 7,-11 5,-10 20,-14 36,-12 24,-13 71,12 49,26 81,47 125,79 14,9 26,18 39,28 z"
   id="path15"
   inkscape:connector-curvature="0"
   style="fill:#fcfcfc" />
   <path
   class="fil2"
   d="m 135,528 c 10,5 17,10 26,16 6,3 20,13 27,15 4,-9 10,-19 16,-29 l 49,-87 c 10,-19 22,-39 33,-58 5,-10 31,-52 32,-59 l -51,-31 c -4,3 -89,156 -99,173 -5,11 -11,20 -16,30 -4,6 -15,25 -17,30 z"
   id="path17"
   inkscape:connector-curvature="0"
   style="fill:#fcfcfc" />
   <path
   class="fil2"
   d="m 724,326 130,233 c 4,-1 49,-28 52,-31 -2,-7 -13,-23 -16,-30 -5,-10 -11,-19 -16,-29 L 792,324 c -6,-10 -11,-21 -17,-29 -4,2 -49,29 -51,31 z"
   id="path19"
   inkscape:connector-curvature="0"
   style="fill:#fcfcfc" />
   <path
   class="fil2"
   d="m 377,587 c -7,2 -17,18 -24,27 -6,9 -40,53 -41,60 -1,13 13,28 26,24 6,-1 19,-21 23,-27 l 32,-44 c 4,-4 10,-8 10,-16 2,-13 -13,-28 -26,-24 z"
   id="path21"
   inkscape:connector-curvature="0"
   style="fill:#fcfcfc" />
   <path
   class="fil2"
   d="m 422,639 c -8,2 -14,13 -21,23 -7,8 -13,17 -19,25 -3,5 -6,8 -9,13 -4,4 -7,9 -6,16 2,10 13,22 25,20 9,-2 34,-40 40,-49 6,-7 17,-18 15,-29 -1,-11 -13,-22 -25,-19 z"
   id="path23"
   inkscape:connector-curvature="0"
   style="fill:#fcfcfc" />
   <path
   class="fil2"
   d="m 461,697 c -7,3 -24,29 -30,37 -14,19 8,41 23,34 5,-2 12,-13 16,-18 5,-7 9,-13 14,-19 15,-21 -9,-40 -23,-34 z"
   id="path25"
   inkscape:connector-curvature="0"
   style="fill:#fcfcfc" />
   <path
   class="fil2"
   d="m 296,585 c -8,2 -11,9 -15,15 -4,4 -10,12 -12,17 -7,14 10,33 25,29 7,-2 25,-30 26,-32 6,-14 -10,-32 -24,-29 z"
   id="path27"
   inkscape:connector-curvature="0"
   style="fill:#fcfcfc" />
  </g>
 </g>
</svg>