<?xml version="1.0" encoding="UTF-8" standalone="no"?>
<!-- Creator: CorelDRAW X6 -->

<svg
   xmlns:dc="http://purl.org/dc/elements/1.1/"
   xmlns:cc="http://creativecommons.org/ns#"
   xmlns:rdf="http://www.w3.org/1999/02/22-rdf-syntax-ns#"
   xmlns:svg="http://www.w3.org/2000/svg"
   xmlns="http://www.w3.org/2000/svg"
   xmlns:sodipodi="http://sodipodi.sourceforge.net/DTD/sodipodi-0.dtd"
   xmlns:inkscape="http://www.inkscape.org/namespaces/inkscape"
   xml:space="preserve"
   width="68"
   height="70"
   version="1.0"
   style="clip-rule:evenodd;fill-rule:evenodd;image-rendering:optimizeQuality;shape-rendering:geometricPrecision;text-rendering:geometricPrecision"
   viewBox="0 0 68 70"
   id="svg17"
   sodipodi:docname="solitair_bouwwerk_risico_ontvangen.svg"
   inkscape:version="0.92.4 (5da689c313, 2019-01-14)"><metadata
   id="metadata21"><rdf:RDF><cc:Work
       rdf:about=""><dc:format>image/svg+xml</dc:format><dc:type
         rdf:resource="http://purl.org/dc/dcmitype/StillImage" /><dc:title></dc:title></cc:Work></rdf:RDF></metadata><sodipodi:namedview
   pagecolor="#ffffff"
   bordercolor="#666666"
   borderopacity="1"
   objecttolerance="10"
   gridtolerance="10"
   guidetolerance="10"
   inkscape:pageopacity="0"
   inkscape:pageshadow="2"
   inkscape:window-width="1920"
   inkscape:window-height="1017"
   id="namedview19"
   showgrid="false"
   units="px"
   inkscape:zoom="7.0995161"
   inkscape:cx="13.463383"
   inkscape:cy="25.557236"
   inkscape:window-x="-8"
   inkscape:window-y="-8"
   inkscape:window-maximized="1"
   inkscape:current-layer="svg17" />
 <defs
   id="defs4">
  <style
   type="text/css"
   id="style2">
   <![CDATA[
    .str0 {stroke:#2B2A29;stroke-width:19.6382}
    .fil0 {fill:#2B2A29}
    .fil1 {fill:#FEFEFE}
    .fil2 {fill:#73CE18}
   ]]>
  </style>
 </defs>
 <g
   id="Laag_x0020_1"
   transform="matrix(0.06118867,0,0,0.06118867,0.05359909,0.56212704)">
  <metadata
   id="CorelCorpID_0Corel-Layer" />
  <g
   id="_996254112">
   <path
   class="fil0 str0"
   d="m 97,1124 h 917 c 48,0 87,-40 87,-88 V 97 c 0,-48 -39,-87 -87,-87 H 97 C 49,10 10,49 10,97 v 939 c 0,48 39,88 87,88 z"
   id="path7"
   inkscape:connector-curvature="0"
   style="fill:#2b2a29;stroke:#2b2a29;stroke-width:19.63820076" />
   <path
   class="fil1 str0"
   d="m 108,65 h 895 c 24,0 43,20 43,44 v 915 c 0,24 -19,44 -43,44 H 108 c -24,0 -44,-20 -44,-44 V 109 C 64,85 84,65 108,65 Z"
   id="path9"
   inkscape:connector-curvature="0"
   style="fill:#fefefe;stroke:#2b2a29;stroke-width:19.63820076" />
   <path
   class="fil0 str0"
   d="M 555,862 H 832 V 483 H 764 V 404 L 555,271 347,404 v 79 h -68 v 379 z m 0,76 H 896 V 483 h 65 V 404 H 896 L 555,192 214,404 h -64 v 79 h 64 v 455 z"
   id="path11"
   inkscape:connector-curvature="0"
   style="fill:#2b2a29;stroke:#2b2a29;stroke-width:19.63820076" />
   <polygon
   class="fil2 str0"
   points="279,483 279,862 555,862 832,862 832,483 764,483 764,404 555,271 347,404 347,483 "
   id="polygon13"
   style="fill:#73ce18;stroke:#2b2a29;stroke-width:19.63820076" />
  </g>
 </g>
</svg>