<?xml version="1.0" encoding="UTF-8" standalone="no"?>
<!-- Creator: CorelDRAW X6 -->

<svg
   xmlns:dc="http://purl.org/dc/elements/1.1/"
   xmlns:cc="http://creativecommons.org/ns#"
   xmlns:rdf="http://www.w3.org/1999/02/22-rdf-syntax-ns#"
   xmlns:svg="http://www.w3.org/2000/svg"
   xmlns="http://www.w3.org/2000/svg"
   xmlns:sodipodi="http://sodipodi.sourceforge.net/DTD/sodipodi-0.dtd"
   xmlns:inkscape="http://www.inkscape.org/namespaces/inkscape"
   xml:space="preserve"
   width="70"
   height="70"
   version="1.0"
   style="clip-rule:evenodd;fill-rule:evenodd;image-rendering:optimizeQuality;shape-rendering:geometricPrecision;text-rendering:geometricPrecision"
   viewBox="0 0 70 70"
   id="svg33"
   sodipodi:docname="vuurhaard.svg"
   inkscape:version="0.92.4 (5da689c313, 2019-01-14)"><metadata
   id="metadata37"><rdf:RDF><cc:Work
       rdf:about=""><dc:format>image/svg+xml</dc:format><dc:type
         rdf:resource="http://purl.org/dc/dcmitype/StillImage" /><dc:title></dc:title></cc:Work></rdf:RDF></metadata><sodipodi:namedview
   pagecolor="#ffffff"
   bordercolor="#666666"
   borderopacity="1"
   objecttolerance="10"
   gridtolerance="10"
   guidetolerance="10"
   inkscape:pageopacity="0"
   inkscape:pageshadow="2"
   inkscape:window-width="1920"
   inkscape:window-height="1017"
   id="namedview35"
   showgrid="false"
   units="px"
   inkscape:zoom="7.3829064"
   inkscape:cx="43.652153"
   inkscape:cy="11.007257"
   inkscape:window-x="-8"
   inkscape:window-y="-8"
   inkscape:window-maximized="1"
   inkscape:current-layer="svg33" />
 <defs
   id="defs4">
  <style
   type="text/css"
   id="style2">
   <![CDATA[
    .fil0 {fill:#E63A01}
    .fil1 {fill:#E68B00}
    .fil2 {fill:#E7E105}
    .fil3 {fill:#FDFD9A}
    .fil4 {fill:#FEFEFB}
   ]]>
  </style>
 </defs>
 <g
   id="Laag_x0020_1"
   transform="matrix(0.03420148,0,0,0.03420148,0.11648514,0.11453574)">
  <metadata
   id="CorelCorpID_0Corel-Layer" />
  <g
   id="_998886160">
   <path
   class="fil0"
   d="m 1137,1858 c 263,11 481,-155 505,-164 173,-67 345,-246 206,-520 C 1804,1089 1680,995 1656,918 1533,512 1803,446 1898,354 1719,351 1391,525 1261,810 1126,772 1087,286 1087,166 973,203 707,831 687,973 632,917 402,523 225,422 c -44,116 29,301 -143,672 -96,291 116,561 311,615 454,124 476,138 744,149 z"
   id="path7"
   inkscape:connector-curvature="0"
   style="fill:#e63a01" />
   <path
   class="fil1"
   d="m 1559,1686 c 365,-229 -198,-491 -18,-960 -155,61 -225,288 -325,398 C 1120,1081 978,860 969,760 959,660 1002,563 1018,465 864,594 809,1125 709,1264 659,1194 435,866 378,853 c 30,425 -383,728 209,857 173,38 374,149 550,148 144,-1 211,-40 422,-172 z"
   id="path9"
   inkscape:connector-curvature="0"
   style="fill:#e68b00" />
   <path
   class="fil2"
   d="m 888,1769 c 212,106 366,93 517,3 101,-60 173,-131 140,-224 -46,-129 -77,-96 -151,-257 -25,-54 -41,-91 11,-176 -198,111 -141,123 -207,276 -121,-47 -226,-320 -250,-424 -73,29 -105,349 -120,426 -20,19 -202,-127 -225,-146 -65,-64 -80,-108 -112,-117 -8,105 -74,221 -76,293 -2,104 53,159 142,211 87,50 187,62 331,135 z"
   id="path11"
   inkscape:connector-curvature="0"
   style="fill:#e7e105" />
   <path
   class="fil3"
   d="m 1342,1390 c -144,79 -146,166 -149,241 -69,-1 -197,-189 -200,-277 -59,57 -47,195 -53,238 -46,-44 -362,-219 -389,-278 35,189 -48,154 86,269 89,76 186,136 522,210 59,13 198,-40 248,-113 35,-51 -92,-225 -65,-290 z"
   id="path13"
   inkscape:connector-curvature="0"
   style="fill:#fdfd9a" />
   <path
   class="fil4"
   d="m 1985,29 20,23 c 23,-7 25,-9 32,-30 -11,-15 -11,-17 -30,-22 -14,10 -18,10 -22,29 z"
   id="path15"
   inkscape:connector-curvature="0"
   style="fill:#fefefb" />
   <path
   class="fil4"
   d="M 1,29 22,52 C 42,46 42,44 53,29 46,8 44,6 23,0 9,10 5,10 1,29 Z"
   id="path17"
   inkscape:connector-curvature="0"
   style="fill:#fefefb" />
   <path
   class="fil4"
   d="m 993,29 21,23 c 20,-6 20,-8 31,-23 -7,-21 -9,-23 -30,-29 -14,10 -18,10 -22,29 z"
   id="path19"
   inkscape:connector-curvature="0"
   style="fill:#fefefb" />
   <path
   class="fil4"
   d="m 1984,2004 c 6,20 8,20 23,31 21,-6 23,-9 30,-30 -11,-14 -11,-16 -30,-21 z"
   id="path21"
   inkscape:connector-curvature="0"
   style="fill:#fefefb" />
   <path
   class="fil4"
   d="m 0,2004 c 7,20 9,20 23,31 19,-6 19,-8 30,-22 -7,-21 -9,-23 -30,-29 z"
   id="path23"
   inkscape:connector-curvature="0"
   style="fill:#fefefb" />
   <path
   class="fil4"
   d="m 1984,1012 c 6,20 8,21 23,31 21,-6 23,-9 30,-29 -11,-15 -11,-17 -30,-22 z"
   id="path25"
   inkscape:connector-curvature="0"
   style="fill:#fefefb" />
   <path
   class="fil4"
   d="m 992,2004 c 7,20 8,20 23,31 19,-6 19,-8 30,-22 -7,-21 -9,-23 -30,-29 z"
   id="path27"
   inkscape:connector-curvature="0"
   style="fill:#fefefb" />
   <path
   class="fil4"
   d="m 0,1012 c 7,20 9,21 23,31 19,-6 19,-7 30,-22 -7,-21 -9,-23 -30,-29 z"
   id="path29"
   inkscape:connector-curvature="0"
   style="fill:#fefefb" />
  </g>
 </g>
</svg>