<?xml version="1.0" encoding="UTF-8" standalone="no"?>
<!-- Creator: CorelDRAW X6 -->

<svg
   xmlns:dc="http://purl.org/dc/elements/1.1/"
   xmlns:cc="http://creativecommons.org/ns#"
   xmlns:rdf="http://www.w3.org/1999/02/22-rdf-syntax-ns#"
   xmlns:svg="http://www.w3.org/2000/svg"
   xmlns="http://www.w3.org/2000/svg"
   xmlns:sodipodi="http://sodipodi.sourceforge.net/DTD/sodipodi-0.dtd"
   xmlns:inkscape="http://www.inkscape.org/namespaces/inkscape"
   xml:space="preserve"
   width="70"
   height="70"
   version="1.0"
   style="clip-rule:evenodd;fill-rule:evenodd;image-rendering:optimizeQuality;shape-rendering:geometricPrecision;text-rendering:geometricPrecision"
   viewBox="0 0 70 70"
   id="svg15"
   sodipodi:docname="wegafsluiting_passeerbaar.svg"
   inkscape:version="0.92.4 (5da689c313, 2019-01-14)"><metadata
   id="metadata19"><rdf:RDF><cc:Work
       rdf:about=""><dc:format>image/svg+xml</dc:format><dc:type
         rdf:resource="http://purl.org/dc/dcmitype/StillImage" /><dc:title></dc:title></cc:Work></rdf:RDF></metadata><sodipodi:namedview
   pagecolor="#ffffff"
   bordercolor="#666666"
   borderopacity="1"
   objecttolerance="10"
   gridtolerance="10"
   guidetolerance="10"
   inkscape:pageopacity="0"
   inkscape:pageshadow="2"
   inkscape:window-width="1920"
   inkscape:window-height="1017"
   id="namedview17"
   showgrid="false"
   units="px"
   inkscape:zoom="3.6222427"
   inkscape:cx="44.157108"
   inkscape:cy="-27.900687"
   inkscape:window-x="-8"
   inkscape:window-y="-8"
   inkscape:window-maximized="1"
   inkscape:current-layer="svg15" />
 <defs
   id="defs4">
  <style
   type="text/css"
   id="style2">
   <![CDATA[
    .str1 {stroke:#2B2A29;stroke-width:30.7167}
    .str0 {stroke:#FEFEFE;stroke-width:30.7167}
    .fil2 {fill:#2B2A29}
    .fil1 {fill:#FEFEFE}
    .fil0 {fill:#D6061C}
   ]]>
  </style>
 </defs>
 <g
   id="Laag_x0020_1"
   transform="matrix(0.04030482,0,0,0.04030706,-0.0035656,0.03428821)">
  <metadata
   id="CorelCorpID_0Corel-Layer" />
  <g
   id="_850318064">
   <circle
   class="fil0 str0"
   cx="869"
   cy="869"
   r="853"
   id="circle7"
   style="fill:#d6061c;stroke:#fefefe;stroke-width:30.7166996" />
   <circle
   class="fil1 str0"
   cx="869"
   cy="869"
   r="633"
   id="circle9"
   style="fill:#fefefe;stroke:#fefefe;stroke-width:30.7166996" />
   <path
   class="fil2 str1"
   d="m 461,807 c 32,0 57,25 57,57 0,31 -25,57 -57,57 -31,0 -57,-26 -57,-57 0,-32 26,-57 57,-57 z m 327,-15 h 512 l 74,66 -114,92 -68,-41 -75,42 -103,-82 -86,73 H 789 c -30,85 -111,146 -207,146 -121,0 -219,-98 -219,-219 0,-122 98,-220 219,-220 95,0 175,59 206,143 z"
   id="path11"
   inkscape:connector-curvature="0"
   style="fill:#2b2a29;stroke:#2b2a29;stroke-width:30.7166996" />
  </g>
 </g>
</svg>