<?xml version="1.0" encoding="UTF-8" standalone="no"?>
<!-- Creator: CorelDRAW X6 -->

<svg
   xmlns:dc="http://purl.org/dc/elements/1.1/"
   xmlns:cc="http://creativecommons.org/ns#"
   xmlns:rdf="http://www.w3.org/1999/02/22-rdf-syntax-ns#"
   xmlns:svg="http://www.w3.org/2000/svg"
   xmlns="http://www.w3.org/2000/svg"
   xmlns:sodipodi="http://sodipodi.sourceforge.net/DTD/sodipodi-0.dtd"
   xmlns:inkscape="http://www.inkscape.org/namespaces/inkscape"
   xml:space="preserve"
   width="69"
   height="70"
   version="1.0"
   style="clip-rule:evenodd;fill-rule:evenodd;image-rendering:optimizeQuality;shape-rendering:geometricPrecision;text-rendering:geometricPrecision"
   viewBox="0 0 69 70"
   id="svg39"
   sodipodi:docname="wildrooster.svg"
   inkscape:version="0.92.4 (5da689c313, 2019-01-14)"><metadata
   id="metadata43"><rdf:RDF><cc:Work
       rdf:about=""><dc:format>image/svg+xml</dc:format><dc:type
         rdf:resource="http://purl.org/dc/dcmitype/StillImage" /><dc:title></dc:title></cc:Work></rdf:RDF></metadata><sodipodi:namedview
   pagecolor="#ffffff"
   bordercolor="#666666"
   borderopacity="1"
   objecttolerance="10"
   gridtolerance="10"
   guidetolerance="10"
   inkscape:pageopacity="0"
   inkscape:pageshadow="2"
   inkscape:window-width="1920"
   inkscape:window-height="1017"
   id="namedview41"
   showgrid="false"
   width="70mm"
   units="px"
   scale-x="1"
   inkscape:zoom="3.5497581"
   inkscape:cx="67.480666"
   inkscape:cy="30.855171"
   inkscape:window-x="-8"
   inkscape:window-y="-8"
   inkscape:window-maximized="1"
   inkscape:current-layer="svg39" />
 <defs
   id="defs4">
  <style
   type="text/css"
   id="style2">
   <![CDATA[
    .str2 {stroke:#2B2A29;stroke-width:24.3355}
    .str0 {stroke:#FEFEFE;stroke-width:24.3355}
    .str1 {stroke:#945231;stroke-width:24.3355}
    .fil2 {fill:none}
    .fil0 {fill:#FEFEFE}
    .fil1 {fill:#945231}
   ]]>
  </style>
 </defs>
 <g
   id="Laag_x0020_1"
   transform="matrix(0.05018649,0,0,0.05018649,-0.15933156,0.04352207)">
  <metadata
   id="CorelCorpID_0Corel-Layer" />
  <g
   id="_851891488">
   <rect
   class="fil0 str0"
   x="80"
   y="81"
   width="1217"
   height="1242"
   rx="54"
   ry="54"
   id="rect7"
   style="fill:#fefefe;stroke:#fefefe;stroke-width:24.33550072" />
   <rect
   class="fil1 str1"
   x="52"
   y="59"
   width="1263"
   height="1293"
   id="rect9"
   style="fill:#945231;stroke:#945231;stroke-width:24.33550072" />
   <path
   class="fil1 str1"
   d="m 120,1392 h 1136 c 60,0 108,-48 108,-108 V 120 C 1364,61 1316,12 1256,12 H 120 C 61,12 12,61 12,120 v 1164 c 0,60 49,108 108,108 z"
   id="path11"
   inkscape:connector-curvature="0"
   style="fill:#945231;stroke:#945231;stroke-width:24.33550072" />
   <path
   class="fil0 str1"
   d="m 134,81 h 1108 c 30,0 55,24 55,54 v 1134 c 0,30 -25,54 -55,54 H 134 c -30,0 -54,-24 -54,-54 V 135 c 0,-30 24,-54 54,-54 z"
   id="path13"
   inkscape:connector-curvature="0"
   style="fill:#fefefe;stroke:#945231;stroke-width:24.33550072" />
   <line
   class="fil2 str2"
   x1="368"
   y1="314"
   x2="368"
   y2="1091"
   id="line15"
   style="fill:none;stroke:#2b2a29;stroke-width:24.33550072" />
   <line
   class="fil2 str2"
   x1="472"
   y1="314"
   x2="472"
   y2="1091"
   id="line17"
   style="fill:none;stroke:#2b2a29;stroke-width:24.33550072" />
   <line
   class="fil2 str2"
   x1="579"
   y1="314"
   x2="579"
   y2="1091"
   id="line19"
   style="fill:none;stroke:#2b2a29;stroke-width:24.33550072" />
   <line
   class="fil2 str2"
   x1="688"
   y1="314"
   x2="688"
   y2="1091"
   id="line21"
   style="fill:none;stroke:#2b2a29;stroke-width:24.33550072" />
   <line
   class="fil2 str2"
   x1="798"
   y1="314"
   x2="798"
   y2="1091"
   id="line23"
   style="fill:none;stroke:#2b2a29;stroke-width:24.33550072" />
   <line
   class="fil2 str2"
   x1="902"
   y1="314"
   x2="902"
   y2="1091"
   id="line25"
   style="fill:none;stroke:#2b2a29;stroke-width:24.33550072" />
   <line
   class="fil2 str2"
   x1="1009"
   y1="314"
   x2="1009"
   y2="1091"
   id="line27"
   style="fill:none;stroke:#2b2a29;stroke-width:24.33550072" />
   <line
   class="fil2 str2"
   x1="301"
   y1="842"
   x2="1075"
   y2="842"
   id="line29"
   style="fill:none;stroke:#2b2a29;stroke-width:24.33550072" />
   <line
   class="fil2 str2"
   x1="301"
   y1="554"
   x2="1075"
   y2="554"
   id="line31"
   style="fill:none;stroke:#2b2a29;stroke-width:24.33550072" />
   <line
   class="fil2 str2"
   x1="301"
   y1="314"
   x2="1075"
   y2="314"
   id="line33"
   style="fill:none;stroke:#2b2a29;stroke-width:24.33550072" />
   <line
   class="fil2 str2"
   x1="301"
   y1="1091"
   x2="1075"
   y2="1091"
   id="line35"
   style="fill:none;stroke:#2b2a29;stroke-width:24.33550072" />
  </g>
 </g>
</svg>