<?xml version="1.0" encoding="UTF-8" standalone="no"?>
<!-- Creator: CorelDRAW X6 -->

<svg
   xmlns:dc="http://purl.org/dc/elements/1.1/"
   xmlns:cc="http://creativecommons.org/ns#"
   xmlns:rdf="http://www.w3.org/1999/02/22-rdf-syntax-ns#"
   xmlns:svg="http://www.w3.org/2000/svg"
   xmlns="http://www.w3.org/2000/svg"
   xmlns:sodipodi="http://sodipodi.sourceforge.net/DTD/sodipodi-0.dtd"
   xmlns:inkscape="http://www.inkscape.org/namespaces/inkscape"
   xml:space="preserve"
   width="69"
   height="70"
   version="1.0"
   style="clip-rule:evenodd;fill-rule:evenodd;image-rendering:optimizeQuality;shape-rendering:geometricPrecision;text-rendering:geometricPrecision"
   viewBox="0 0 69 70"
   id="svg19"
   sodipodi:docname="zittafel.svg"
   inkscape:version="0.92.4 (5da689c313, 2019-01-14)"><metadata
   id="metadata23"><rdf:RDF><cc:Work
       rdf:about=""><dc:format>image/svg+xml</dc:format><dc:type
         rdf:resource="http://purl.org/dc/dcmitype/StillImage" /><dc:title></dc:title></cc:Work></rdf:RDF></metadata><sodipodi:namedview
   pagecolor="#ffffff"
   bordercolor="#666666"
   borderopacity="1"
   objecttolerance="10"
   gridtolerance="10"
   guidetolerance="10"
   inkscape:pageopacity="0"
   inkscape:pageshadow="2"
   inkscape:window-width="1920"
   inkscape:window-height="1017"
   id="namedview21"
   showgrid="false"
   units="px"
   inkscape:zoom="5.020116"
   inkscape:cx="28.058578"
   inkscape:cy="25.247946"
   inkscape:window-x="-8"
   inkscape:window-y="-8"
   inkscape:window-maximized="1"
   inkscape:current-layer="svg19" />
 <defs
   id="defs4">
  <style
   type="text/css"
   id="style2">
   <![CDATA[
    .str2 {stroke:#2B2A29;stroke-width:24.2998}
    .str0 {stroke:#FEFEFE;stroke-width:24.2998}
    .str1 {stroke:#945231;stroke-width:24.2998}
    .fil2 {fill:#2B2A29}
    .fil0 {fill:#FEFEFE}
    .fil1 {fill:#945231}
   ]]>
  </style>
 </defs>
 <g
   id="Laag_x0020_1"
   transform="matrix(0.04996055,0,0,0.04996055,0.05678174,0.18479317)">
  <metadata
   id="CorelCorpID_0Corel-Layer" />
  <g
   id="_851931328">
   <rect
   class="fil0 str0"
   x="80"
   y="81"
   width="1215"
   height="1240"
   rx="54"
   ry="54"
   id="rect7"
   style="fill:#fefefe;stroke:#fefefe;stroke-width:24.29980087" />
   <rect
   class="fil1 str1"
   x="52"
   y="59"
   width="1261"
   height="1291"
   id="rect9"
   style="fill:#945231;stroke:#945231;stroke-width:24.29980087" />
   <path
   class="fil1 str1"
   d="m 120,1390 h 1134 c 60,0 108,-48 108,-108 V 120 C 1362,61 1314,12 1254,12 H 120 C 61,12 12,61 12,120 v 1162 c 0,60 49,108 108,108 z"
   id="path11"
   inkscape:connector-curvature="0"
   style="fill:#945231;stroke:#945231;stroke-width:24.29980087" />
   <path
   class="fil0 str1"
   d="m 134,81 h 1107 c 29,0 54,24 54,54 v 1132 c 0,30 -25,54 -54,54 H 134 c -30,0 -54,-24 -54,-54 V 135 c 0,-30 24,-54 54,-54 z"
   id="path13"
   inkscape:connector-curvature="0"
   style="fill:#fefefe;stroke:#945231;stroke-width:24.29980087" />
   <path
   class="fil2 str2"
   d="M 683,383 H 393 v 78 H 538 L 448,696 H 230 v 73 H 418 L 312,1027 H 416 L 523,768 h 160 m 0,-73 H 543 l 91,-239 h 49 44 l 92,239 z m 0,-312 h 289 v 78 H 828 l 89,235 h 218 v 73 H 948 l 106,258 H 949 L 842,768 H 683"
   id="path15"
   inkscape:connector-curvature="0"
   style="fill:#2b2a29;stroke:#2b2a29;stroke-width:24.29980087" />
  </g>
 </g>
</svg>