<?xml version="1.0" encoding="UTF-8" standalone="no"?>
<!-- Creator: CorelDRAW X6 -->

<svg
   xml:space="preserve"
   width="70"
   height="70"
   version="1.0"
   style="clip-rule:evenodd;fill-rule:evenodd;image-rendering:optimizeQuality;shape-rendering:geometricPrecision;text-rendering:geometricPrecision"
   viewBox="0 0 70 70"
   id="svg851"
   sodipodi:docname="B10P01.svg"
   inkscape:version="1.1.1 (3bf5ae0d25, 2021-09-20)"
   xmlns:inkscape="http://www.inkscape.org/namespaces/inkscape"
   xmlns:sodipodi="http://sodipodi.sourceforge.net/DTD/sodipodi-0.dtd"
   xmlns="http://www.w3.org/2000/svg"
   xmlns:svg="http://www.w3.org/2000/svg"
   xmlns:rdf="http://www.w3.org/1999/02/22-rdf-syntax-ns#"
   xmlns:cc="http://creativecommons.org/ns#"
   xmlns:dc="http://purl.org/dc/elements/1.1/"><metadata
   id="metadata855"><rdf:RDF><cc:Work
       rdf:about=""><dc:format>image/svg+xml</dc:format><dc:type
         rdf:resource="http://purl.org/dc/dcmitype/StillImage" /></cc:Work></rdf:RDF></metadata><sodipodi:namedview
   pagecolor="#ffffff"
   bordercolor="#666666"
   borderopacity="1"
   objecttolerance="10"
   gridtolerance="10"
   guidetolerance="10"
   inkscape:pageopacity="0"
   inkscape:pageshadow="2"
   inkscape:window-width="1720"
   inkscape:window-height="1377"
   id="namedview853"
   showgrid="false"
   units="px"
   inkscape:zoom="9.0191915"
   inkscape:cx="25.168553"
   inkscape:cy="28.439356"
   inkscape:window-x="3632"
   inkscape:window-y="-8"
   inkscape:window-maximized="0"
   inkscape:current-layer="Laag_x0020_1"
   inkscape:pagecheckerboard="0" />
 <defs
   id="defs838">
  <style
   type="text/css"
   id="style836">
   <![CDATA[
    .str0 {stroke:#2B2A29;stroke-width:19.7191}
    .fil0 {fill:#2B2A29}
    .fil2 {fill:#E31E24}
    .fil1 {fill:#FEFEFE}
   ]]>
  </style>
 </defs>
 <g
   id="Laag_x0020_1"
   transform="matrix(0.06133429,0,0,0.06133429,0.68621065,0.24838829)"
   inkscape:label="Laag 1"
   inkscape:groupmode="layer">
  <metadata
   id="CorelCorpID_0Corel-Layer" />
  
 <path
   class="fil0"
   d="m 92.91265,349.74811 c -19.72214,53.9568 9.67501,53.9568 56.56161,71.44624 40.56062,15.25675 192.01177,77.02798 223.2695,72.9347 39.81639,-4.8375 74.42316,-46.51447 115.3559,-35.351 18.97791,20.83849 74.79529,157.77711 93.77319,196.47716 28.65292,57.67795 30.88562,44.6539 23.4433,120.56553 -13.02405,132.47323 -21.58272,110.89052 74.42317,194.24446 15.62886,13.39617 101.2155,103.0761 114.98379,107.9136 23.07118,8.5587 43.90967,-3.3491 45.77024,-23.8154 3.34905,-34.6068 -71.07412,-81.8655 -102.33185,-112.379 -85.95876,-83.35395 -77.02798,-72.9347 -64.74815,-147.35787 4.46539,-27.53657 12.27982,-108.65782 20.09425,-127.63573 10.41924,-25.30388 62.14335,-58.42219 94.14531,-33.49042 l 144.75305,293.59939 c 18.23368,40.56062 23.07119,77.02793 78.88854,61.77122 17.4895,-47.25871 -32.74617,-115.3559 -53.95677,-160.75404 L 805.51447,504.17618 c -17.48945,-35.351 -73.30682,-133.58958 -68.0972,-170.42905 17.48944,-11.16347 74.42317,-42.4212 101.58762,-35.72312 35.35101,8.55867 143.2646,110.5184 180.84831,104.19243 18.9779,-2.97692 30.1414,-18.60579 23.0712,-41.30485 -6.326,-19.35003 -105.30881,-78.14433 -125.03095,-91.5405 -21.95484,-14.88463 -59.53854,-48.74717 -93.02896,-44.6539 -52.46833,6.32597 -157.03288,88.93569 -207.26852,73.67894 -10.41924,-45.39813 31.62985,-75.53952 -7.0702,-134.70594 -20.46637,-31.25773 -64.37604,-57.30583 -118.33283,-43.90966 -94.14531,22.69906 -110.5184,149.96268 -24.93176,193.12812 18.23367,9.30289 44.28178,8.93078 45.02601,33.1183 0.74423,33.11831 -140.65978,82.98183 -167.82424,78.14433 -65.12027,-11.53559 -194.24446,-90.79626 -251.5503,-74.42317 z"
   id="path64"
   style="clip-rule:evenodd;fill:#fefefe;fill-rule:evenodd;stroke-width:0.372116;image-rendering:optimizeQuality;shape-rendering:geometricPrecision;text-rendering:geometricPrecision" /><path
   class="fil1"
   d="m 673.41335,794.42653 c -12.27983,74.42317 -21.21061,64.00392 64.74815,147.35787 31.25773,30.5135 105.6809,77.7722 102.33185,112.379 -1.86057,20.4663 -22.69906,32.3741 -45.77024,23.8154 -13.76829,-4.8375 -99.35493,-94.51743 -114.98379,-107.9136 -96.00589,-83.35394 -87.44722,-61.77123 -74.42317,-194.24446 7.44232,-75.91163 5.20962,-62.88758 -23.4433,-120.56553 -18.9779,-38.70005 -74.79528,-175.63867 -93.77319,-196.47716 -40.93274,-11.16347 -75.53951,30.5135 -115.3559,35.351 -31.25773,4.09328 -182.70888,-57.67795 -223.2695,-72.9347 -46.8866,-17.48944 -76.28375,-17.48944 -56.56161,-71.44624 57.30584,-16.37309 186.43003,62.88758 251.5503,74.42317 27.16446,4.8375 168.56847,-45.02602 167.82424,-78.14433 -0.74423,-24.18752 -26.79234,-23.81541 -45.02601,-33.1183 -85.58664,-43.16544 -69.21355,-170.42906 24.93176,-193.12812 53.95679,-13.39617 97.86646,12.65193 118.33283,43.90966 38.70005,59.16642 -3.34904,89.30781 7.0702,134.70594 50.23564,15.25675 154.80019,-67.35297 207.26852,-73.67894 33.49042,-4.09327 71.07412,29.76927 93.02896,44.6539 19.72214,13.39617 118.70495,72.19047 125.03095,91.5405 7.0702,22.69906 -4.0933,38.32793 -23.0712,41.30485 -37.58371,6.32597 -145.4973,-95.63376 -180.84831,-104.19243 -27.16445,-6.69808 -84.09818,24.55965 -101.58762,35.72312 -5.20962,36.83947 50.60775,135.07805 68.0972,170.42905 l 151.82326,323.74077 c 21.2106,45.39814 71.44627,113.49533 53.95677,160.75404 -55.81735,15.25671 -60.65486,-21.2106 -78.88854,-61.77122 L 787.65291,633.30038 c -32.00196,-24.93177 -83.72607,8.18654 -94.14531,33.49042 -7.81443,18.97791 -15.62886,100.09916 -20.09425,127.63573 z M 687.92586,92.243954 c 25.30388,53.956796 83.35395,16.000986 94.14531,106.425126 -32.00196,8.55867 -88.93568,45.02602 -116.10014,46.51448 7.0702,-38.70005 -2.97693,-75.53951 -21.2106,-103.4482 -20.46637,-31.25773 -41.30486,-38.70005 -77.02798,-61.026996 10.04713,-27.908688 30.14138,-44.653898 70.32989,-38.327928 33.49043,5.209619 37.21159,23.071179 49.86352,49.863518 z M 526.79971,74.75451 C 336.64852,80.336248 335.90429,303.23363 444.19,342.67791 c -17.86156,17.11733 -27.90869,19.72214 -50.23564,29.39715 -54.32891,23.4433 -80.37702,-2.23269 -167.45213,-34.23465 -25.67599,-9.3029 -85.21452,-35.35101 -112.00686,-34.60678 -41.30486,1.48847 -75.91163,37.95582 -68.46931,84.4703 7.0702,45.77024 38.70004,54.32891 81.12125,68.84143 40.56062,14.1404 194.24446,75.53951 222.52526,79.26067 45.77025,5.58174 80.00491,-23.81542 116.10014,-35.35101 13.02406,35.35101 39.8164,89.3078 58.42219,125.03092 21.2106,41.67698 46.88659,81.12125 41.67697,134.70593 -18.60579,188.29061 3.34904,168.94059 103.4482,257.13203 34.23466,30.1414 59.16642,62.8876 94.88954,90.052 65.8645,49.8636 167.82424,-34.6067 88.56357,-113.49529 L 706.90377,856.19776 729.23072,695.0716 c 5.95385,-25.30387 4.83751,-21.2106 32.37408,-27.90868 17.86156,23.81541 104.19243,220.66468 130.24054,269.03974 23.81541,44.28178 35.351,106.05304 102.33185,98.23854 62.88761,-7.8144 77.40011,-69.95774 48.00291,-124.65876 L 782.07117,357.56255 c 54.32891,-32.37408 50.97987,-18.97791 152.19537,49.4914 21.21061,14.1404 46.51448,37.95582 80.00486,37.5837 37.5837,-0.37212 61.7713,-23.4433 69.5857,-54.32891 16.3731,-65.12027 -68.4693,-105.6809 -103.82031,-128.00785 -24.93176,-15.25675 -46.14236,-30.5135 -70.32989,-46.8866 C 862.44819,183.41233 866.91358,196.8085 821.51545,179.31906 810.35197,137.64209 796.9558,114.94302 768.675,97.825692 747.83651,85.545869 737.41727,89.639144 725.13745,74.010279 714.34609,59.869877 714.7182,44.241016 701.32203,30.100606 648.10947,-26.088884 543.91704,5.5409662 526.79971,74.75451 Z"
   id="path66"
   style="clip-rule:evenodd;fill:#555759;fill-rule:evenodd;stroke-width:0.372116;image-rendering:optimizeQuality;shape-rendering:geometricPrecision;text-rendering:geometricPrecision" /><path
   class="fil2"
   d="m 567.73245,80.708364 c 35.72312,22.326946 56.56161,29.769266 77.02798,61.026996 18.23367,27.90869 28.2808,64.74815 21.2106,103.4482 27.16446,-1.48846 84.09818,-37.95581 116.10014,-46.51448 C 771.27981,108.24494 713.22974,146.20075 687.92586,92.243954 675.27393,65.451615 671.55277,47.590055 638.06234,42.380436 c -40.18851,-6.32597 -60.28276,10.41924 -70.32989,38.327928 z"
   id="path68"
   style="clip-rule:evenodd;fill:#e31e24;fill-rule:evenodd;stroke-width:0.372116;image-rendering:optimizeQuality;shape-rendering:geometricPrecision;text-rendering:geometricPrecision" /></g>
</svg>
