<?xml version="1.0" encoding="UTF-8"?>
<!DOCTYPE svg PUBLIC "-//W3C//DTD SVG 1.0//EN" "http://www.w3.org/TR/2001/REC-SVG-20010904/DTD/svg10.dtd">
<!-- Creator: CorelDRAW X7 -->
<svg xmlns="http://www.w3.org/2000/svg" xml:space="preserve" width="4.0762mm" height="4.0762mm" version="1.0" style="shape-rendering:geometricPrecision; text-rendering:geometricPrecision; image-rendering:optimizeQuality; fill-rule:evenodd; clip-rule:evenodd"
viewBox="0 0 30 30"
 xmlns:xlink="http://www.w3.org/1999/xlink">
 <defs>
  <style type="text/css">
   <![CDATA[
    .str0 {stroke:#FEFEFE;stroke-width:0.558032}
    .fil0 {fill:#FEFEFE}
    .fil1 {fill:#39870C}
   ]]>
  </style>
 </defs>
 <g id="Laag_x0020_1">
  <metadata id="CorelCorpID_0Corel-Layer"/>
  <g id="_2927950826512">
   <rect class="fil0 str0" x="2" width="25.1418" height="29.293"/>
   <path class="fil1 str0" d="M8 14l-2 0 9 -6 9 6 -2 0 0 8 -5 0 0 -6 -4 0 0 6 -5 0 0 -8zm-6 -14l25 0c2,0 3,1 3,2l0 25c0,2 -1,3 -3,3l-25 0c-1,0 -2,-1 -2,-3l0 -25c0,-1 1,-2 2,-2z"/>
  </g>
 </g>
</svg>
