<?xml version="1.0" encoding="UTF-8"?>
<!DOCTYPE svg PUBLIC "-//W3C//DTD SVG 1.0//EN" "http://www.w3.org/TR/2001/REC-SVG-20010904/DTD/svg10.dtd">
<!-- Creator: CorelDRAW X7 -->
<svg xmlns="http://www.w3.org/2000/svg" xml:space="preserve" width="4.0762mm" height="4.0762mm" version="1.0" style="shape-rendering:geometricPrecision; text-rendering:geometricPrecision; image-rendering:optimizeQuality; fill-rule:evenodd; clip-rule:evenodd"
viewBox="0 0 53 53"
 xmlns:xlink="http://www.w3.org/1999/xlink">
 <defs>
  <style type="text/css">
   <![CDATA[
    .str0 {stroke:#FEFEFE;stroke-width:0.984864}
    .fil1 {fill:#FEFEFE}
    .fil0 {fill:#E31E24}
   ]]>
  </style>
 </defs>
 <g id="Laag_x0020_1">
  <metadata id="CorelCorpID_0Corel-Layer"/>
  <path class="fil0 str0" d="M4 0l45 0c2,0 3,2 3,4l0 45c0,2 -1,3 -3,3l-45 0c-2,0 -4,-1 -4,-3l0 -45c0,-2 2,-4 4,-4z"/>
  <g id="_1287195753760">
   <path class="fil1" d="M31 27c0,1 1,2 2,1l2 -4c0,0 1,0 1,0l1 0c0,0 -6,8 -6,10 -1,0 -4,-1 -5,0 0,0 -1,0 -1,0 -1,1 0,3 1,3l6 0c0,0 1,-1 1,-1l2 -2c0,-1 0,-1 1,-1 0,0 3,3 3,3 0,1 -1,3 -1,4 0,0 -1,3 -1,3 0,1 1,2 2,2 1,0 1,-1 1,-2 0,-1 2,-7 2,-9 0,0 -1,-1 -2,-2 0,0 0,-1 -1,-1 0,0 0,-1 0,-1l2 -4 2 2c1,1 2,0 2,0l3 -4c0,0 0,0 0,-1l0 0c0,-1 -1,-2 -2,0 0,0 0,0 0,1 -1,0 -1,0 -1,1 0,0 -1,0 -1,1l-2 -3c0,0 -1,-2 -2,-2l-5 0c0,0 -1,2 -2,2l-2 3c0,1 0,1 0,1z"/>
   <path class="fil1" d="M10 32c0,0 1,2 2,0 0,0 0,0 0,-1 1,0 2,-3 3,-3l1 0c0,0 0,1 -1,1l-3 5c0,0 -2,3 -2,3 -1,0 -2,0 -3,0 -1,0 -2,0 -2,0 0,1 -1,1 -1,2l0 0c0,1 1,1 2,1l5 0c0,0 1,0 1,0l2 -4c1,0 1,1 1,1l2 2c0,1 0,1 0,1 0,1 0,2 0,3 0,1 -1,3 -1,4 0,0 1,1 1,1l1 0c0,0 0,0 0,0 1,-1 1,-1 1,-2l1 -5c0,0 0,-1 0,-1 0,-3 0,-2 -2,-5l-1 -1c0,0 2,-2 2,-2 0,-1 0,-1 0,-1 0,0 1,-1 1,-1 1,1 2,4 3,2 1,0 3,-3 3,-4 1,-1 0,-1 -1,-1 0,0 -1,1 -1,1 -1,1 -1,1 -2,2 0,0 0,-1 0,-1 -1,-1 -1,-1 -1,-1 -1,-1 -2,-2 -2,-2l-5 0c0,0 -1,1 -1,1l-2 3c0,0 -1,1 -1,2z"/>
   <path class="fil1" d="M21 13c0,0 0,1 1,1 0,0 1,0 1,0l3 -4c0,0 0,0 1,0 0,0 0,0 0,0l-3 5c-1,1 -3,3 -3,4 -1,0 -2,0 -3,0 -1,0 -1,0 -2,0 -1,1 0,3 1,3l5 0c1,0 1,-1 1,-1 0,0 1,0 1,0 0,-1 0,-1 0,-1l2 -2c0,0 3,3 3,3 0,1 -1,4 -1,5 0,1 -1,1 -1,2 0,1 2,2 3,1 0,-1 1,-6 1,-7 0,0 0,-1 0,-1 0,-2 0,-2 -2,-4l-1 -1 3 -4 1 1c0,0 0,0 1,1 1,1 1,0 3,-2l1 -1c0,-1 0,-1 0,-2 0,0 0,-1 -1,0 -1,0 -1,1 -1,1 0,0 -1,1 -2,1 0,0 0,0 0,0l-1 -2c-1,0 -1,-1 -2,-1l-4 0c-1,0 -1,0 -1,0l-3 4c0,0 -1,1 -1,1z"/>
   <path class="fil1" d="M44 22c1,0 2,-1 2,-2l0 0c0,-1 -1,-2 -2,-2 -1,0 -1,0 -2,0 -1,2 0,4 2,4z"/>
   <path class="fil1" d="M20 25l0 0c0,2 2,3 4,2 1,-1 0,-4 -2,-4 -1,0 -2,1 -2,2z"/>
   <path class="fil1" d="M31 6c0,1 0,2 1,2 1,1 2,1 3,0 1,-1 1,-2 0,-3 -1,0 -1,0 -1,0l-1 0c-1,0 -2,1 -2,1z"/>
  </g>
 </g>
</svg>
