<?xml version="1.0" encoding="UTF-8"?>
<!DOCTYPE svg PUBLIC "-//W3C//DTD SVG 1.1//EN" "http://www.w3.org/Graphics/SVG/1.1/DTD/svg11.dtd">
<!-- Creator: CorelDRAW X7 -->
<svg xmlns="http://www.w3.org/2000/svg" xml:space="preserve" width="3.9762mm" height="8.1206mm" version="1.1" style="shape-rendering:geometricPrecision; text-rendering:geometricPrecision; image-rendering:optimizeQuality; fill-rule:evenodd; clip-rule:evenodd"
viewBox="0 0 25 50"
 xmlns:xlink="http://www.w3.org/1999/xlink">
 <defs>
  <style type="text/css">
   <![CDATA[
    .str1 {stroke:black;stroke-width:0.470547;stroke-linejoin:bevel}
    .str0 {stroke:red;stroke-width:0.470547;stroke-linejoin:bevel}
    .fil1 {fill:none}
    .fil2 {fill:black}
    .fil0 {fill:red}
   ]]>
  </style>
 </defs>
 <g id="_0">
  <metadata id="CorelCorpID_0Corel-Layer"/>
  <polygon class="fil0 str0" points="10,45 10,2 15,2 15,45 "/>
  <polygon class="fil0 str0" points="15,2 15,8 18,10 20,6 "/>
  <polygon class="fil0 str0" points="10,2 10,8 7,10 4,6 "/>
  <path class="fil1 str1" d="M15 2zm0 0l0 0 -5 0 0 0 5 0m-5 0m0 0l0 0 -6 4 0 0 6 -4m-6 4m0 0l0 0 3 4 0 0 -3 -4m3 4m0 0l0 0 3 -2 0 0 -3 2m3 -2m0 0l0 0 0 37 0 0 0 -37m0 37m0 0l0 0 5 0 0 0 -5 0m5 0m0 0l0 0 0 -37 0 0 0 37m0 -37m0 0l0 0 3 2 0 0 -3 -2m3 2m0 0l0 0 2 -4 1 0 -3 4m2 -4m1 0l-1 0 -5 -4 0 0 6 4z"/>
  <path class="fil1 str1" d="M7 4m0 0l0 0 -2 -3 0 0 2 3"/>
  <path class="fil1 str1" d="M4 2m0 0l0 0 2 -2 1 0 -3 2"/>
  <path class="fil1 str1" d="M2 6m0 0l0 -1 1 -1 0 1 -1 1m1 -1m0 0l0 -1 5 8 0 0 -5 -7m5 7m0 -1l0 1 -1 1 -1 -1 2 -1"/>
  <path class="fil1 str1" d="M23 6m0 -1l0 1 -2 -1 1 -1 1 1m-2 0m0 -1l1 1 -5 7 0 0 4 -8m-4 8m0 0l0 -1 1 1 0 1 -1 -1"/>
  <path class="fil1 str1" d="M21 2m0 0l0 0 -3 -2 0 0 3 2"/>
  <path class="fil1 str1" d="M18 4m0 0l0 0 1 -3 1 0 -2 3"/>
  <path class="fil1 str1" d="M10 11m0 0l0 0 5 0 0 0 -5 0"/>
  <path class="fil1 str1" d="M10 21m0 0l0 0 5 0 0 0 -5 0"/>
  <path class="fil1 str1" d="M8 16m0 0l0 0 9 0 0 0 -9 0"/>
  <path class="fil1 str1" d="M10 40m0 0m0 0c-1,0 -2,0 -3,0m0 0c1,0 2,0 3,0m-3 0m0 0c-1,0 -2,1 -3,1m0 0c1,-1 2,-1 3,-1m-3 1m0 0c-1,1 -2,1 -3,2m0 0c1,-1 2,-2 3,-2m-3 2m0 0c0,1 0,1 0,2m-1 0c0,-1 0,-2 1,-2m-1 2m1 0c0,0 0,1 0,1m0 0c-1,0 -1,-1 -1,-1m1 1m0 0c1,1 2,2 3,2m0 0c-1,0 -2,-1 -3,-2m3 2m0 0c1,1 2,1 3,1m0 0c-1,0 -2,0 -3,-1m3 1m0 0c2,0 4,1 5,1m0 0c-1,0 -3,0 -5,-1m5 1m0 0c2,0 3,-1 5,-1m0 0c-1,1 -3,1 -5,1m5 -1m0 0c1,0 2,0 4,-1m0 0c-1,1 -3,1 -4,1m4 -1m0 0c1,0 2,-1 2,-2m1 0c-1,1 -2,2 -3,2m3 -2m-1 0c1,0 1,-1 1,-1m0 0c0,0 0,1 0,1m0 -1m0 0c0,-1 0,-1 -1,-2m1 0c0,0 0,1 0,2m0 -2m-1 0c0,-1 -1,-1 -2,-2m0 0c1,0 2,1 3,2m-3 -2m0 0c-2,0 -3,-1 -4,-1m0 0c1,0 3,0 4,1m-4 -1m0 0c-1,0 -1,0 -2,0m0 0c1,0 1,0 2,0"/>
  <path class="fil2 str1" d="M12 25c0,0 0,0 0,0 0,0 0,0 0,0 0,0 0,0 0,0 0,0 0,0 0,0z"/>
 </g>
</svg>
