<?xml version="1.0" encoding="UTF-8" standalone="no"?>
<svg
   version="1.1"
   x="0px"
   y="0px"
   viewBox="0 0 94.696663 39.996151"
   enable-background="new 0 0 100 100"
   xml:space="preserve"
   id="svg2"
   sodipodi:docname="argus.svg"
   width="94.696663"
   height="39.996151"
   inkscape:version="1.3.1 (91b66b0783, 2023-11-16)"
   xmlns:inkscape="http://www.inkscape.org/namespaces/inkscape"
   xmlns:sodipodi="http://sodipodi.sourceforge.net/DTD/sodipodi-0.dtd"
   xmlns="http://www.w3.org/2000/svg"
   xmlns:svg="http://www.w3.org/2000/svg"><defs
     id="defs2" /><sodipodi:namedview
     id="namedview2"
     pagecolor="#ffffff"
     bordercolor="#000000"
     borderopacity="0.25"
     inkscape:showpageshadow="2"
     inkscape:pageopacity="0.0"
     inkscape:pagecheckerboard="0"
     inkscape:deskcolor="#d1d1d1"
     inkscape:zoom="9.384"
     inkscape:cx="47.36786"
     inkscape:cy="28.07971"
     inkscape:window-width="3440"
     inkscape:window-height="1369"
     inkscape:window-x="1912"
     inkscape:window-y="-8"
     inkscape:window-maximized="1"
     inkscape:current-layer="svg2" /><path
     d="m 85.94833,1.3 c -3.4,0 -6.3,0.2 -8.7,0.6 -0.7,-1.2 -1.7,-1.9 -2.9,-1.9 -1,0 -2,0.6 -2.7,1.6 -3.1,-0.2 -7,-0.3 -11.2,-0.3 -10,0 -7.7,4.6 2.3,4.6 3,0 5.7,-0.2 7.9,-0.5 0.3,0.8 1.3,1.4 2.5,1.6 v 1.6 c -1.4,0.2 -2.5,0.9 -2.5,2 0,0.4 0.1,0.7 0.1,1 h -17.5 c -1.6,-1.3 -3.7,-2.1 -5.9,-2.1 -2.2,0 -4.3,0.8 -5.9,2.1 h -17.5 c 0,-0.3 0.1,-0.6 0.1,-1 0,-1.1 -1.1,-1.8 -2.5,-2 V 7 c 1.2,-0.2 2.2,-0.8 2.5,-1.6 2.2,0.3 4.9,0.5 7.9,0.5 10,0 12.3,-4.6 2.3,-4.6 -4.2,0 -8.1,0.1 -11.2,0.3 -0.7,-1 -1.7,-1.6 -2.7,-1.6 -1.2,0 -2.2,0.7 -2.9,1.9 -2.4,-0.4 -5.3,-0.6 -8.7000001,-0.6 -10,0 -12.3,4.6 -2.3,4.6 3.8000001,0 7.3000001,-0.1 10.3000001,-0.3 0.3,0.8 1.3,1.2 2.4,1.4 v 1.6 c -1.4,0.3 -2.5,0.9 -2.5,2 0,2.9 1.7,5.2 3.8,5.2 0.8,0 1.5,-0.3 2.1,-0.9 h 7.3 l -10.6,22 c -0.5,1 -0.1,2.3 1,2.7 1,0.5 2.3,0.1 2.7,-1 l 11,-22.9 c 0.1,-0.3 0.2,-0.6 0.2,-0.9 h 4.9 c -0.4,0.9 -0.7,2 -0.8,3.1 h -1.1 c -2,0 -3.7,1.7 -3.7,3.7 v 11.1 c 0,2 1.7,3.7 3.7,3.7 h 4.4 c 1.4,1.9 3.6,3.2 6.1,3.2 2.5,0 4.8,-1.3 6.1,-3.2 h 4.4 c 2,0 3.7,-1.7 3.7,-3.7 V 21.8 c 0,-2 -1.7,-3.7 -3.7,-3.7 h -1.1 c -0.1,-1.1 -0.4,-2.1 -0.8,-3.1 h 4.9 c 0,0.3 0.1,0.6 0.2,0.9 l 11,22.9 c 0.5,1 1.7,1.5 2.7,1 1,-0.5 1.5,-1.7 1,-2.7 l -10.6,-22 6.7,-0.2 c 0.6,0.6 1.3,0.9 2.1,0.9 2.1,0 3.8,-2.3 3.8,-5.2 0,-1.1 -1.1,-1.7 -2.5,-2 V 7 c 1.1,-0.2 2.1,-0.6 2.4,-1.4 3,0.2 6.5,0.3 10.3,0.3 10,0 7.7,-4.6 -2.3,-4.6 z m -46.4,21.6 c -1.5,0 -2.8,-0.7 -2.8,-1.5 0,-0.8 1.3,-1.5 2.8,-1.5 1.5,0 2.8,0.7 2.8,1.5 0,0.8 -1.3,1.5 -2.8,1.5 z m 7.8,11.6 c -2.9,0 -5.2,-2.3 -5.2,-5.2 0,-2.9 2.3,-5.2 5.2,-5.2 2.9,0 5.2,2.3 5.2,5.2 0,2.8 -2.3,5.2 -5.2,5.2 z"
     id="path1" /></svg>
