<?xml version="1.0" encoding="UTF-8" standalone="no"?>
<!-- Creator: CorelDRAW X6 -->

<svg
   xml:space="preserve"
   width="40"
   height="40"
   version="1.0"
   style="clip-rule:evenodd;fill-rule:evenodd;image-rendering:optimizeQuality;shape-rendering:geometricPrecision;text-rendering:geometricPrecision"
   viewBox="0 0 40 40"
   id="svg17"
   sodipodi:docname="B10P02.svg"
   inkscape:version="1.1.1 (3bf5ae0d25, 2021-09-20)"
   xmlns:inkscape="http://www.inkscape.org/namespaces/inkscape"
   xmlns:sodipodi="http://sodipodi.sourceforge.net/DTD/sodipodi-0.dtd"
   xmlns:xlink="http://www.w3.org/1999/xlink"
   xmlns="http://www.w3.org/2000/svg"
   xmlns:svg="http://www.w3.org/2000/svg"
   xmlns:rdf="http://www.w3.org/1999/02/22-rdf-syntax-ns#"
   xmlns:cc="http://creativecommons.org/ns#"
   xmlns:dc="http://purl.org/dc/elements/1.1/"><metadata
   id="metadata21"><rdf:RDF><cc:Work
       rdf:about=""><dc:format>image/svg+xml</dc:format><dc:type
         rdf:resource="http://purl.org/dc/dcmitype/StillImage" /></cc:Work></rdf:RDF></metadata><sodipodi:namedview
   pagecolor="#ffffff"
   bordercolor="#666666"
   borderopacity="1"
   objecttolerance="10"
   gridtolerance="10"
   guidetolerance="10"
   inkscape:pageopacity="0"
   inkscape:pageshadow="2"
   inkscape:window-width="1920"
   inkscape:window-height="1017"
   id="namedview19"
   showgrid="false"
   units="px"
   inkscape:zoom="8.2714364"
   inkscape:cx="-9.1277979"
   inkscape:cy="17.590657"
   inkscape:window-x="-8"
   inkscape:window-y="-8"
   inkscape:window-maximized="1"
   inkscape:current-layer="Laag_x0020_1"
   inkscape:pagecheckerboard="0" />
 <defs
   id="defs4"><linearGradient
   id="linearGradient1022"
   inkscape:swatch="solid"><stop
     style="stop-color:#000000;stop-opacity:1;"
     offset="0"
     id="stop1020" /></linearGradient>
  <style
   type="text/css"
   id="style2">
   <![CDATA[
    .str1 {stroke:#2B2A29;stroke-width:12.0358}
    .str0 {stroke:#D6061C;stroke-width:12.0358}
    .fil1 {fill:none}
    .fil0 {fill:#FEFEFE}
    .fil2 {fill:#D6061C}
   ]]>
  </style>
 <linearGradient
   inkscape:collect="always"
   xlink:href="#linearGradient1022"
   id="linearGradient1262"
   gradientUnits="userSpaceOnUse"
   x1="-4.0179"
   y1="14.965658"
   x2="33.1597"
   y2="14.965658"
   gradientTransform="matrix(1.2740653,0,0,1.3331055,-162.49992,-273.38548)" /><linearGradient
   inkscape:collect="always"
   xlink:href="#linearGradient1022"
   id="linearGradient1264"
   gradientUnits="userSpaceOnUse"
   x1="-4.0179"
   y1="14.965658"
   x2="33.1597"
   y2="14.965658" /><linearGradient
   inkscape:collect="always"
   xlink:href="#linearGradient1022"
   id="linearGradient1266"
   gradientUnits="userSpaceOnUse"
   x1="-4.0179"
   y1="14.965658"
   x2="33.1597"
   y2="14.965658" /><linearGradient
   inkscape:collect="always"
   xlink:href="#linearGradient1022"
   id="linearGradient1268"
   gradientUnits="userSpaceOnUse"
   x1="-4.0179"
   y1="14.965658"
   x2="33.1597"
   y2="14.965658" /><linearGradient
   inkscape:collect="always"
   xlink:href="#linearGradient1022"
   id="linearGradient1270"
   gradientUnits="userSpaceOnUse"
   x1="-4.0179"
   y1="14.965658"
   x2="33.1597"
   y2="14.965658" /><linearGradient
   inkscape:collect="always"
   xlink:href="#linearGradient1022"
   id="linearGradient1272"
   gradientUnits="userSpaceOnUse"
   x1="-4.0179"
   y1="14.965658"
   x2="33.1597"
   y2="14.965658" /><linearGradient
   inkscape:collect="always"
   xlink:href="#linearGradient1022"
   id="linearGradient1274"
   gradientUnits="userSpaceOnUse"
   x1="-4.0179"
   y1="14.965658"
   x2="33.1597"
   y2="14.965658" /><linearGradient
   inkscape:collect="always"
   xlink:href="#linearGradient1022"
   id="linearGradient1276"
   gradientUnits="userSpaceOnUse"
   x1="-4.0179"
   y1="14.965658"
   x2="33.1597"
   y2="14.965658" /><linearGradient
   inkscape:collect="always"
   xlink:href="#linearGradient1022"
   id="linearGradient1278"
   gradientUnits="userSpaceOnUse"
   x1="-4.0179"
   y1="14.965658"
   x2="33.1597"
   y2="14.965658" /><linearGradient
   inkscape:collect="always"
   xlink:href="#linearGradient1022"
   id="linearGradient1280"
   gradientUnits="userSpaceOnUse"
   x1="-4.0179"
   y1="14.965658"
   x2="33.1597"
   y2="14.965658"
   gradientTransform="matrix(11.888602,0,0,13.38513,26.762548,-5.4604582)" /><linearGradient
   inkscape:collect="always"
   xlink:href="#linearGradient1022"
   id="linearGradient1282"
   gradientUnits="userSpaceOnUse"
   x1="-4.0179"
   y1="14.965658"
   x2="33.1597"
   y2="14.965658"
   gradientTransform="matrix(11.888602,0,0,13.38513,26.762548,-5.4604582)" /><linearGradient
   inkscape:collect="always"
   xlink:href="#linearGradient1022"
   id="linearGradient1284"
   gradientUnits="userSpaceOnUse"
   x1="-4.0179"
   y1="14.965658"
   x2="33.1597"
   y2="14.965658"
   gradientTransform="matrix(11.888602,0,0,13.38513,26.762548,-5.4604582)" /><linearGradient
   inkscape:collect="always"
   xlink:href="#linearGradient1022"
   id="linearGradient1286"
   gradientUnits="userSpaceOnUse"
   x1="-4.0179"
   y1="14.965658"
   x2="33.1597"
   y2="14.965658"
   gradientTransform="matrix(11.888602,0,0,13.38513,26.762548,-5.4604582)" /></defs>
 <g
   id="Laag_x0020_1"
   transform="matrix(0.09494929,0,0,0.09494929,0.32779346,0.11568286)"
   inkscape:label="Laag 1"
   inkscape:groupmode="layer">
  <metadata
   id="CorelCorpID_0Corel-Layer" />
  
 <g
   id="_897168976"
   style="clip-rule:evenodd;opacity:1;fill:#ffffff;fill-rule:evenodd;stroke:url(#linearGradient1278);stroke-linejoin:round;stroke-opacity:1;image-rendering:optimizeQuality;shape-rendering:geometricPrecision;text-rendering:geometricPrecision;stroke-width:43.6965894;stroke-miterlimit:4;stroke-dasharray:none"
   transform="matrix(0.26606044,0,0,0.21878086,73.152658,73.363508)"><path
     class="fil0"
     d="m 971.41823,-273.38548 h -569.5072 c -84.08832,0 -151.61378,70.65459 -151.61378,158.63955 v 50.658008 h -48.41448 c -12.74066,0 -25.48131,1.333113 -36.94789,2.666213 L 87.216885,-142.74115 108.876,-164.07083 c 12.74066,-13.33106 12.74066,-35.99385 0,-49.3249 -14.014712,-13.33106 -34.399764,-13.33106 -48.414487,0 l -105.747413,111.98085 -62.4292,65.322175 c 0,0 0,0 0,0 l -44.59229,46.658696 c -14.01472,13.331052 -14.01472,34.660743 0,49.324896 6.37032,6.665538 15.28878,9.331739 22.93317,9.331739 8.91846,0 17.83692,-2.666201 24.20725,-9.331739 l 20.385041,-22.662791 71.347658,74.653914 c -3.822196,17.33036 -6.37033,35.99384 -6.37033,54.65732 V 1218.3596 c 0,126.6449 99.377094,230.6272 221.687371,230.6272 h 681.62495 c 121.03618,0 220.41328,-103.9823 220.41328,-230.6272 V -133.40941 c 0,-77.32011 -59.8811,-139.97607 -132.50277,-139.97607 z"
     id="path229"
     style="fill:#ffffff;stroke:url(#linearGradient1262);stroke-width:43.6965894;stroke-linejoin:round;stroke-opacity:1;stroke-miterlimit:4;stroke-dasharray:none" /><g
     id="g243"
     style="fill:#ffffff;stroke:url(#linearGradient1276);stroke-width:33.52891015;stroke-linejoin:round;stroke-miterlimit:4;stroke-dasharray:none;stroke-opacity:1"
     transform="matrix(1.2740653,0,0,1.3331055,-162.49991,-273.38548)"><g
       id="g235"
       style="fill:#ffffff;stroke:url(#linearGradient1268);stroke-width:33.52891015;stroke-linejoin:round;stroke-miterlimit:4;stroke-dasharray:none;stroke-opacity:1"><path
         class="fil0"
         d="m 828,409 c 9,-11 6,-28 -5,-37 -12,-8 -28,-6 -37,5 L 661,540 H 445 L 320,377 c -8,-11 -25,-13 -36,-5 -12,9 -14,26 -5,37 l 127,167 v 297 l -127,167 c -9,11 -7,28 5,36 4,4 10,6 16,6 7,0 15,-4 20,-10 L 445,908 h 216 l 125,164 c 5,6 13,10 21,10 5,0 11,-2 16,-6 11,-8 14,-25 5,-36 L 700,873 V 576 Z M 648,856 H 459 V 593 h 189 z"
         id="path231"
         style="fill:#ffffff;stroke:url(#linearGradient1264);stroke-width:33.52891015;stroke-linejoin:round;stroke-miterlimit:4;stroke-dasharray:none;stroke-opacity:1" /><path
         class="fil0"
         d="M 890,0 H 443 C 377,0 324,53 324,119 v 38 h -38 c -10,0 -20,1 -29,2 L 196,98 213,82 c 10,-10 10,-27 0,-37 -11,-10 -27,-10 -38,0 l -83,84 -49,49 c 0,0 0,0 0,0 L 8,213 c -11,10 -11,26 0,37 5,5 12,7 18,7 7,0 14,-2 19,-7 l 16,-17 56,56 c -3,13 -5,27 -5,41 v 789 c 0,95 78,173 174,173 h 535 c 95,0 173,-78 173,-173 V 105 C 994,47 947,0 890,0 Z M 377,119 c 0,-37 29,-66 66,-66 h 227 c -13,10 -24,23 -34,36 v 0 c -31,42 -81,68 -134,68 H 377 Z m -278,77 60,-60 43,42 c -26,14 -47,35 -63,59 z m 843,923 c 0,66 -55,121 -121,121 H 286 c -67,0 -121,-55 -121,-121 V 330 c 0,-66 54,-121 121,-121 h 216 c 69,0 135,-33 176,-89 31,-42 81,-67 134,-67 h 78 c 28,0 52,23 52,52 z"
         id="path233"
         style="fill:#ffffff;stroke:url(#linearGradient1266);stroke-width:33.52891015;stroke-linejoin:round;stroke-miterlimit:4;stroke-dasharray:none;stroke-opacity:1" /></g><g
       id="g241"
       style="fill:#ffffff;stroke:url(#linearGradient1274);stroke-width:33.52891015;stroke-linejoin:round;stroke-miterlimit:4;stroke-dasharray:none;stroke-opacity:1"><path
         class="fil1"
         d="m 828,409 c 9,-11 6,-28 -5,-37 -12,-8 -28,-6 -37,5 L 661,540 H 445 L 320,377 c -8,-11 -25,-13 -36,-5 -12,9 -14,26 -5,37 l 127,167 v 297 l -127,167 c -9,11 -7,28 5,36 4,4 10,6 16,6 7,0 15,-4 20,-10 L 445,908 h 216 l 125,164 c 5,6 13,10 21,10 5,0 11,-2 16,-6 11,-8 14,-25 5,-36 L 700,873 V 576 Z M 648,856 H 459 V 593 h 189 z"
         id="path237"
         style="fill:#ffffff;stroke:url(#linearGradient1270);stroke-width:33.52891015;stroke-linejoin:round;stroke-miterlimit:4;stroke-dasharray:none;stroke-opacity:1" /><path
         class="fil1"
         d="M 890,0 H 443 C 377,0 324,53 324,119 v 38 h -38 c -10,0 -20,1 -29,2 L 196,98 213,82 c 10,-10 10,-27 0,-37 -11,-10 -27,-10 -38,0 l -83,84 -49,49 c 0,0 0,0 0,0 L 8,213 c -11,10 -11,26 0,37 5,5 12,7 18,7 7,0 14,-2 19,-7 l 16,-17 56,56 c -3,13 -5,27 -5,41 v 789 c 0,95 78,173 174,173 h 535 c 95,0 173,-78 173,-173 V 105 C 994,47 947,0 890,0 Z M 377,119 c 0,-37 29,-66 66,-66 h 227 c -13,10 -24,23 -34,36 v 0 c -31,42 -81,68 -134,68 H 377 Z m -278,77 60,-60 43,42 c -26,14 -47,35 -63,59 z m 843,923 c 0,66 -55,121 -121,121 H 286 c -67,0 -121,-55 -121,-121 V 330 c 0,-66 54,-121 121,-121 h 216 c 69,0 135,-33 176,-89 31,-42 81,-67 134,-67 h 78 c 28,0 52,23 52,52 z"
         id="path239"
         style="fill:#ffffff;stroke:url(#linearGradient1272);stroke-width:33.52891015;stroke-linejoin:round;stroke-miterlimit:4;stroke-dasharray:none;stroke-opacity:1" /></g></g></g><path
   style="clip-rule:evenodd;opacity:1;fill:#ffffff;fill-opacity:1;fill-rule:evenodd;stroke:url(#linearGradient1280);stroke-width:2.19263346;stroke-linejoin:round;stroke-opacity:1;image-rendering:optimizeQuality;shape-rendering:geometricPrecision;text-rendering:geometricPrecision;stroke-miterlimit:4;stroke-dasharray:none"
   d="m 115.77836,373.60763 c -13.20533,-3.26484 -23.800327,-12.4936 -28.054029,-24.43642 -1.291934,-3.62722 -1.351726,-9.09765 -1.351726,-123.65765 0,-130.206542 -0.234085,-122.74257 4.099633,-130.615365 4.654473,-8.455137 13.058642,-14.754145 24.570932,-18.416275 3.38198,-1.075807 7.37721,-1.198142 49.98977,-1.530772 l 46.31411,-0.361634 7.35143,-1.705027 c 15.8744,-3.68185 29.62221,-11.464096 40.34357,-22.837403 7.15177,-7.586587 13.48643,-12.18664 21.34771,-15.502198 10.10438,-4.261489 12.47818,-4.608878 33.77281,-4.941707 13.64878,-0.213587 19.91096,-0.08004 22.20732,0.473473 3.96942,0.956193 8.67169,4.347985 10.82032,7.804667 l 1.62876,2.620245 0.20828,150.539726 c 0.14695,106.40743 -0.0297,151.74507 -0.59217,154.65113 -2.5153,12.9163 -15.15019,24.84713 -29.78739,28.12743 -3.78018,0.84716 -16.48491,0.96293 -101.38993,0.92331 -89.60005,-0.0428 -97.40776,-0.12984 -101.47924,-1.13559 z m 21.03622,-45.55241 c 0.9644,-0.65533 11.34682,-12.03804 23.07241,-25.29476 l 21.3191,-24.10312 36.38965,0.0241 36.38962,0.0201 20.9516,23.76371 c 11.52346,13.07002 21.88679,24.44302 23.02968,25.27322 3.74777,2.72249 11.40534,1.44775 13.72722,-2.28505 1.46899,-2.36166 1.06178,-6.15867 -0.9348,-8.71169 -1.01386,-1.29675 -11.13374,-12.74701 -22.48845,-25.44488 l -20.64505,-23.08695 -0.0215,-43.15267 -0.0215,-43.15269 19.32982,-21.68062 c 27.82397,-31.20773 25.71438,-28.63477 25.71438,-31.36287 0,-6.57465 -7.56466,-10.49859 -13.80069,-7.15855 -1.21297,0.6497 -11.79895,12.01828 -23.52455,25.26353 l -21.31914,24.08227 -36.38957,0.0295 -36.38965,0.0295 -21.68682,-24.4006 c -12.22802,-13.76171 -22.55246,-24.79334 -23.67181,-25.29664 -6.30605,-2.83533 -13.0853,0.95164 -13.0853,7.3098 0,2.74395 0.11414,2.88109 34.79863,42.03778 l 10.04523,11.34019 v 42.90002 42.90007 l -22.42188,25.36969 -22.42198,25.36977 v 3.17548 c 0,2.8218 0.29222,3.41278 2.62549,5.3059 2.22849,1.80839 3.15783,2.1303 6.14944,2.1303 2.3414,0 4.11277,-0.39968 5.27753,-1.19154 z"
   id="path484" /><path
   style="clip-rule:evenodd;opacity:1;fill:#ffffff;fill-opacity:1;fill-rule:evenodd;stroke:url(#linearGradient1282);stroke-width:2.19263346;stroke-linejoin:round;stroke-opacity:1;image-rendering:optimizeQuality;shape-rendering:geometricPrecision;text-rendering:geometricPrecision;stroke-miterlimit:4;stroke-dasharray:none"
   d="m 185.85025,224.73376 v -37.95118 h 31.61112 31.61118 v 37.95118 37.95118 h -31.61118 -31.61112 z"
   id="path2411" /><path
   style="clip-rule:evenodd;opacity:1;fill:#ffffff;fill-opacity:1;fill-rule:evenodd;stroke:url(#linearGradient1284);stroke-width:2.19263346;stroke-linejoin:round;stroke-opacity:1;image-rendering:optimizeQuality;shape-rendering:geometricPrecision;text-rendering:geometricPrecision;stroke-miterlimit:4;stroke-dasharray:none"
   d="m 70.235758,76.239068 -6.415013,-5.545217 9.868318,-8.473312 9.868398,-8.473312 6.854022,5.539951 c 3.769608,3.046948 6.933912,5.726212 7.031595,5.953885 0.09877,0.227602 -1.166741,1.074665 -2.80982,1.882219 -3.5768,1.757969 -13.033574,9.367125 -15.474572,12.4513 -0.958457,1.21054 -1.914471,2.202939 -2.125027,2.205352 -0.210303,0.0024 -3.269662,-2.491018 -6.797901,-5.540866 z"
   id="path2450" /><path
   style="clip-rule:evenodd;opacity:1;fill:#ffffff;fill-opacity:1;fill-rule:evenodd;stroke:url(#linearGradient1286);stroke-width:2.19263346;stroke-linejoin:round;stroke-opacity:1;image-rendering:optimizeQuality;shape-rendering:geometricPrecision;text-rendering:geometricPrecision;stroke-miterlimit:4;stroke-dasharray:none"
   d="m 158.0556,51.265444 c 0.24717,-6.012711 0.65446,-8.393136 1.82049,-10.626843 2.17738,-4.172531 5.64212,-7.260803 10.40249,-9.272142 l 4.17681,-1.764816 40.69915,-0.178878 40.69894,-0.178879 -5.77973,5.519804 c -14.31579,13.672055 -19.54683,17.350862 -29.67982,20.8724 -8.40323,2.920333 -13.69532,3.377403 -39.10802,3.377403 h -23.54877 z"
   id="path2489" /></g>
</svg>
