<?xml version="1.0" encoding="UTF-8" standalone="no"?>
<!-- Created with Inkscape (http://www.inkscape.org/) -->

<svg
   xmlns:dc="http://purl.org/dc/elements/1.1/"
   xmlns:cc="http://creativecommons.org/ns#"
   xmlns:rdf="http://www.w3.org/1999/02/22-rdf-syntax-ns#"
   xmlns:svg="http://www.w3.org/2000/svg"
   xmlns="http://www.w3.org/2000/svg"
   xmlns:sodipodi="http://sodipodi.sourceforge.net/DTD/sodipodi-0.dtd"
   xmlns:inkscape="http://www.inkscape.org/namespaces/inkscape"
   version="1.1"
   width="70.862503"
   height="70.862503"
   id="svg2"
   xml:space="preserve"
   inkscape:version="0.48.5 r10040"
   sodipodi:docname="Falck26RGB.svg"><sodipodi:namedview
     pagecolor="#ffffff"
     bordercolor="#666666"
     borderopacity="1"
     objecttolerance="10"
     gridtolerance="10"
     guidetolerance="10"
     inkscape:pageopacity="0"
     inkscape:pageshadow="2"
     inkscape:window-width="1600"
     inkscape:window-height="838"
     id="namedview18"
     showgrid="false"
     inkscape:zoom="5.6568543"
     inkscape:cx="-11.428367"
     inkscape:cy="42.814316"
     inkscape:window-x="-8"
     inkscape:window-y="-8"
     inkscape:window-maximized="1"
     inkscape:current-layer="svg2" /><metadata
     id="metadata8"><rdf:RDF><cc:Work
         rdf:about=""><dc:format>image/svg+xml</dc:format><dc:type
           rdf:resource="http://purl.org/dc/dcmitype/StillImage" /><dc:title></dc:title></cc:Work></rdf:RDF></metadata><defs
     id="defs6"><clipPath
       id="clipPath18"><path
         d="M 0,566.93 0,0 l 566.934,0 0,566.93 -566.934,0 z"
         id="path20" /></clipPath></defs><rect
     style="color:#000000;fill:#ffffff;fill-opacity:1;fill-rule:nonzero;stroke:#000000;stroke-width:2;stroke-linecap:butt;stroke-linejoin:miter;stroke-miterlimit:4;stroke-opacity:1;stroke-dasharray:none;stroke-dashoffset:0;marker:none;visibility:visible;display:inline;overflow:visible;enable-background:accumulate"
     id="rect2995"
     width="69.988068"
     height="69.988068"
     x="0.43721792"
     y="0.2870855"
     rx="0.0039863177" /><path
     d="m 59.314,24.37275 c 0,1.59525 0,25.69625 0,27.289125 C 57.892125,50.8415 35.7685,38.06225 35.693375,38.01975 35.7685,37.97675 57.892125,25.194 59.314,24.37275 z m -47.40335,0 c 1.42185,0.82125 23.544975,13.604 23.6191,13.647 -0.07413,0.0425 -22.19725,12.82175 -23.6191,13.642125 0,-1.592875 0,-25.693875 0,-27.289125 z M 35.611875,36.898625 C 35.11725,36.6145 10.8999,22.62275 10.8999,22.62275 l 0,30.791 c 0,0 24.21735,-13.98925 24.711975,-14.276375 C 36.1065,39.4245 60.32475,53.41375 60.32475,53.41375 l 0,-30.791 c 0,0 -24.21825,13.99175 -24.712875,14.275875"
     id="path26"
     style="fill:#231f20;fill-opacity:1;fill-rule:nonzero;stroke:none"
     inkscape:connector-curvature="0" /><path
     d="M 35.746625,38.0095 11.8081,51.847875 l 0,-27.674875 23.938525,13.8365"
     id="path28"
     style="fill:#176fc1;fill-opacity:1;fill-rule:nonzero;stroke:none"
     inkscape:connector-curvature="0" /><path
     d="m 35.46725,38.0095 23.938,13.838375 0,-27.674875 -23.938,13.8365"
     id="path30"
     style="fill:#176fc1;fill-opacity:1;fill-rule:nonzero;stroke:none"
     inkscape:connector-curvature="0" /><path
     d="m 4.311525,39.87375 7.117188,0 0,-3.167975 -7.117188,0 0,3.167975 z"
     id="path32"
     style="fill:#231f20;fill-opacity:1;fill-rule:nonzero;stroke:none"
     inkscape:connector-curvature="0" /><path
     d="m 59.80075,39.87375 7.113275,0 0,-3.167975 -7.113275,0 0,3.167975 z"
     id="path34"
     style="fill:#231f20;fill-opacity:1;fill-rule:nonzero;stroke:none"
     inkscape:connector-curvature="0" /><text
     xml:space="preserve"
     style="font-size:40px;font-style:normal;font-weight:normal;line-height:125%;letter-spacing:0px;word-spacing:0px;fill:#000000;fill-opacity:1;stroke:none;font-family:Sans"
     x="23.720922"
     y="23.420658"
     id="text3072"
     sodipodi:linespacing="125%"><tspan
       sodipodi:role="line"
       id="tspan3074"
       x="23.720922"
       y="23.420658"
       style="font-size:24px;font-weight:bold;-inkscape-font-specification:Sans Bold">....</tspan></text>
<path
     style="fill:#00ff00;fill-opacity:1"
     d="m 12.010594,38.030916 0,-13.558596 0.975861,0.571538 c 0.536723,0.314347 5.738812,3.320604 11.560196,6.680573 5.821385,3.359968 10.583387,6.190084 10.582228,6.289146 -0.0012,0.09906 -4.628991,2.850408 -10.284071,6.114104 -5.65508,3.263696 -10.856219,6.277756 -11.558088,6.697912 l -1.276126,0.763919 0,-13.558596 z"
     id="path3076"
     inkscape:connector-curvature="0" /><path
     style="fill:#00ff00;fill-opacity:1"
     d="m 47.523487,44.808629 c -6.313206,-3.638217 -11.481515,-6.687353 -11.485131,-6.775858 -0.0036,-0.0885 5.161734,-3.147579 11.478556,-6.797943 l 11.48513,-6.637026 0.0807,6.722877 c 0.04439,3.697582 0.04439,9.73338 0,13.412884 l -0.0807,6.690006 -11.478555,-6.61494 z"
     id="path3078"
     inkscape:connector-curvature="0" /><path
     style="fill:#00ff00;fill-opacity:1"
     d="m 11.832566,38.004194 0,-13.80006 0.121982,0.07446 c 0.06709,0.04096 5.415319,3.133663 11.884951,6.872684 l 11.762968,6.798219 0.491591,-0.280577 c 0.270375,-0.154318 5.617675,-3.243934 11.882888,-6.865813 l 11.391298,-6.585235 0.0094,13.777045 c 0.0052,7.577375 0.0035,13.782958 -0.0037,13.790184 -0.0072,0.0072 -5.348677,-3.071826 -11.869894,-6.842339 -6.521205,-3.770514 -11.873635,-6.855799 -11.894278,-6.85619 -0.02064,-3.9e-4 -5.286576,3.033788 -11.702074,6.742618 -6.415497,3.708831 -11.756927,6.795469 -11.869844,6.859195 l -0.205304,0.115866 0,-13.80006 z m 0.8498,13.206988 c 0.36866,-0.219033 2.958872,-1.724736 5.756026,-3.346008 10.919085,-6.32886 12.520565,-7.263801 14.91941,-8.709921 1.217596,-0.734016 1.782822,-1.095032 1.782822,-1.13871 0,-0.144227 -4.194075,-2.617875 -16.345667,-9.640606 -3.240984,-1.873051 -6.083683,-3.517463 -6.31711,-3.654249 -0.233426,-0.136785 -0.440328,-0.2487 -0.45978,-0.2487 -0.02207,0 -0.03537,5.101395 -0.03537,13.568217 0,7.46252 0.0066,13.568218 0.01469,13.568218 0.0081,0 0.316319,-0.179209 0.684979,-0.398241 z m 46.3437,-0.60577 c 0.06673,-2.352772 0.107176,-9.561607 0.08538,-15.217343 -0.02229,-5.782919 -0.0732,-10.750898 -0.110572,-10.788266 -0.023,-0.02301 -13.334541,7.670899 -17.460855,10.092159 -3.716597,2.180844 -5.510677,3.273769 -5.488844,3.343715 0.02913,0.09332 1.257927,0.839668 4.888314,2.969062 3.449398,2.023235 17.984686,10.416534 18.039657,10.416872 0.01307,7.5e-5 0.03419,-0.367209 0.04692,-0.816199 z"
     id="path3080"
     inkscape:connector-curvature="0" /><path
     style="fill:#00ff00;fill-opacity:1"
     d="m 33.733026,38.934829 c 0.0049,-0.0044 0.0997,-0.06285 0.210655,-0.12988 0.290597,-0.175561 0.788591,-0.487704 0.952402,-0.596966 0.171914,-0.114666 0.248657,-0.172704 0.248657,-0.18805 0,-0.05572 -0.453349,-0.352833 -1.567007,-1.026968 -0.405889,-0.245698 -2.055355,-1.225242 -2.657813,-1.578356 l -0.438668,-0.257112 0,-0.07782 c 0,-0.0428 0.0024,-0.07782 0.0053,-0.07782 0.004,0 4.391739,2.533198 5.006706,2.890553 l 0.109253,0.06349 0.331761,-0.189985 C 36.230117,37.596496 46.64037,31.582096 50.00683,29.635661 l 1.317329,-0.761659 0.108023,0.0026 0.108022,0.0026 -2.640486,1.529072 c -5.354315,3.100616 -8.214804,4.771186 -10.283166,6.005532 -1.466442,0.875135 -2.368938,1.437161 -2.525925,1.573011 -0.01706,0.01476 0.02176,-0.0084 0.08627,-0.05151 0.565994,-0.378079 2.775524,-1.700101 5.902081,-3.531374 1.998693,-1.170666 3.93774,-2.296521 7.597664,-4.411381 l 1.934856,-1.118043 0.389851,0 0.38985,0 0,5.034128 0,5.034128 -7.446511,0 -7.44651,0 -0.245431,-0.147155 c -0.336095,-0.201517 -0.964784,-0.591408 -1.087579,-0.674478 -0.09589,-0.06487 -0.126043,-0.08024 -0.07976,-0.04066 0.102088,0.08731 0.734748,0.490206 1.259384,0.802019 l 0.09351,0.05558 -0.160318,0.0026 -0.160319,0.0026 -0.266299,-0.153473 c -0.578307,-0.333287 -1.232174,-0.703959 -1.241601,-0.703853 -0.0093,1.04e-4 -0.728624,0.407455 -1.270972,0.719718 l -0.238252,0.137176 -0.188218,0 c -0.104512,0 -0.184253,-0.0036 -0.179303,-0.008 z"
     id="path3082"
     inkscape:connector-curvature="0" /><path
     style="fill:#00ff00;fill-opacity:1"
     d=""
     id="path3084"
     inkscape:connector-curvature="0" /><path
     style="fill:#00ff00;fill-opacity:1"
     d=""
     id="path3086"
     inkscape:connector-curvature="0" /><path
     style="fill:#00ff00;fill-opacity:1"
     d=""
     id="path3088"
     inkscape:connector-curvature="0" /><path
     style="fill:#00ff00;fill-opacity:1"
     d=""
     id="path3090"
     inkscape:connector-curvature="0" /><path
     style="fill:#00ff00;fill-opacity:1"
     d=""
     id="path3092"
     inkscape:connector-curvature="0" /><path
     style="fill:#00ff00;fill-opacity:1"
     d=""
     id="path3094"
     inkscape:connector-curvature="0" /><path
     style="fill:#00ff00;fill-opacity:1"
     d="m 41.128859,34.936793 c 0.0093,-0.0088 2.182323,-1.27734 3.59733,-2.09999 1.151929,-0.669703 2.525853,-1.467168 2.549805,-1.47998 0.0077,-0.0041 0.0088,-0.0038 0.0088,0.0027 0,0.0057 -0.232214,0.141892 -1.020508,0.598563 -1.317784,0.763415 -2.968583,1.72476 -4.164019,2.424925 -0.721252,0.422436 -0.95117,0.555358 -0.960612,0.555358 -0.0068,0 -0.01168,-6.93e-4 -0.01078,-0.0015 z"
     id="path3096"
     inkscape:connector-curvature="0" /><path
     style="fill:#00d400;fill-opacity:1;opacity:1"
     d="m 40.798455,34.930816 c 0.0064,-0.0041 1.454004,-0.840956 3.216797,-1.859761 1.762793,-1.018806 3.219694,-1.86093 3.237558,-1.871387 l 0.03248,-0.01901 -0.0012,0.01057 c -0.0011,0.0097 -0.273858,0.168144 -3.233652,1.878822 -2.842479,1.642874 -3.234307,1.868244 -3.248047,1.868201 l -0.01563,-4.9e-5 0.01172,-0.0074 0,0 z"
     id="path3098"
     inkscape:connector-curvature="0" /><path
     style="fill:#00d400;fill-opacity:1"
     d="m 12.047723,38.014446 0,-13.357388 7.5625,4.369665 c 4.159375,2.403316 9.28512,5.39673 11.390543,6.652031 3.668226,2.187079 3.806563,2.298557 3.313525,2.670166 -0.42227,0.318271 -16.217745,9.570418 -20.954068,12.273777 l -1.3125,0.749138 0,-13.357389 z"
     id="path3100"
     inkscape:connector-curvature="0" /><path
     style="fill:#00d400;fill-opacity:1"
     d="m 59.003576,49.67422 -0.04415,-1.9375 -0.143354,1.68068 -0.143353,1.68068 -3.5,-2.025567 c -1.925,-1.114061 -6.48125,-3.772634 -10.125,-5.90794 -3.64375,-2.135306 -7.242087,-4.156016 -7.996305,-4.490468 -1.269805,-0.563084 -1.336471,-0.633566 -0.90067,-0.952231 0.25885,-0.189276 0.566562,-0.284852 0.683806,-0.212392 0.117243,0.07246 0.213169,0.006 0.213169,-0.147762 0,-0.15373 0.113295,-0.209489 0.251766,-0.123909 0.138471,0.08558 0.319009,-0.01964 0.401196,-0.23381 0.08219,-0.214175 0.232821,-0.337871 0.334744,-0.27488 0.101922,0.06299 0.962009,-0.378345 1.911304,-0.980747 0.949294,-0.602402 2.73849,-1.664916 3.97599,-2.36114 1.2375,-0.696225 5.0625,-2.87815 8.5,-4.848723 l 6.25,-3.582859 0.113978,1.640534 0.113977,1.640534 0.136023,-1.875 c 0.07481,-1.03125 0.136022,4.228126 0.136022,11.687503 0,7.459377 -0.02812,13.562502 -0.0625,13.562499 -0.03437,0 -0.08237,-0.871877 -0.106647,-1.937502 z"
     id="path3102"
     inkscape:connector-curvature="0" /><path
     style="fill:#00d400;fill-opacity:1"
     d="m 37.356194,37.259803 c -0.0196,-0.0053 -0.06188,-0.02453 -0.05904,-0.02688 0.0037,-0.0031 0.406081,-0.244438 0.407496,-0.244438 0.0022,0 -0.01492,0.03889 -0.03187,0.07227 -0.07395,0.145597 -0.206239,0.228774 -0.316588,0.199056 z"
     id="path3104"
     inkscape:connector-curvature="0" /><path
     style="fill:#00d400;fill-opacity:1;opacity:1"
     d="m 33.273129,39.208481 c 0.130051,-0.07781 0.882368,-0.535542 1.020393,-0.620839 0.494222,-0.305419 0.794051,-0.503662 0.838747,-0.554567 0.0134,-0.01527 0.0127,-0.02072 -0.0052,-0.04022 -0.104425,-0.113709 -0.945552,-0.64133 -2.43289,-1.526099 l -0.373883,-0.222411 -1.4e-4,-0.09504 -1.4e-4,-0.09505 0.0127,0.0078 c 0.007,0.0043 0.744824,0.430887 1.639648,0.948027 1.452188,0.839253 1.628002,0.939856 1.636719,0.936553 0.02233,-0.0085 1.423425,-0.816023 4.441927,-2.560227 l 0.5806,-0.335492 0.14528,0.001 0.14528,0.001 -0.311817,0.183376 c -0.710821,0.418026 -2.308025,1.365888 -2.482385,1.473174 -0.0446,0.02744 -0.06213,0.03014 -0.09717,0.01492 -0.03076,-0.01336 -0.0688,-0.01493 -0.100182,-0.0041 -0.06586,0.02264 -0.139713,0.09958 -0.194573,0.202706 l -0.01807,0.03396 -0.147221,0.08883 c -0.08097,0.04886 -0.179703,0.108839 -0.219402,0.13329 l -0.07218,0.04446 -0.02389,-0.0098 c -0.03145,-0.01292 -0.06927,-0.01953 -0.09347,-0.01634 -0.06903,0.0091 -0.108632,0.0628 -0.116163,0.157524 -9.86e-4,0.01241 -0.0051,0.0154 -0.110131,0.08021 l -0.109108,0.06732 -0.02175,-0.0074 c -0.07456,-0.02534 -0.209143,-0.0036 -0.357689,0.05771 -0.158024,0.06525 -0.344571,0.188529 -0.461231,0.304802 -0.03886,0.03873 -0.0497,0.05217 -0.06155,0.07628 -0.01886,0.03839 -0.022,0.06713 -0.01081,0.09896 0.04093,0.116394 0.24032,0.237439 0.831268,0.504631 l 0.149241,0.06748 0.155446,0.09543 c 0.0855,0.05249 0.321972,0.195482 0.525504,0.31777 l 0.370057,0.22234 -0.156327,0.001 -0.156327,0.001 -0.596543,-0.343227 c -0.715312,-0.411563 -1.148912,-0.659833 -1.307177,-0.748461 l -0.116884,-0.06546 -0.01398,0.0066 c -0.04386,0.02079 -0.586748,0.33048 -1.454373,0.829641 l -0.557584,0.320789 -0.184603,0 -0.184603,0 0.05664,-0.03389 0,-1.9e-5 z"
     id="path3106"
     inkscape:connector-curvature="0" /><path
     style="fill:#00d400;fill-opacity:1"
     d="m 38.18144,36.701966 c 0.01053,-0.0072 0.531059,-0.317498 0.900283,-0.536683 0.166504,-0.09884 0.659382,-0.390045 1.095284,-0.647115 l 0.792549,-0.4674 0.052,0.0011 0.052,0.0011 -0.116029,0.07004 c -0.229341,0.138447 -0.632904,0.387103 -0.907045,0.558876 -0.450215,0.282099 -0.589163,0.366409 -0.867187,0.526182 -0.406506,0.233608 -0.790643,0.426756 -0.974317,0.489896 -0.03059,0.01052 -0.03877,0.01171 -0.02753,0.004 l 0,0 z"
     id="path3108"
     inkscape:connector-curvature="0" /><path
     style="fill:#00d400;fill-opacity:1"
     d="m 36.890317,37.53279 c -0.02064,-0.0069 -0.04687,-0.01826 -0.04687,-0.02035 4e-6,-0.0021 0.138323,-0.08847 0.18827,-0.117624 l 0.01445,-0.0084 -0.0021,0.01491 c -0.01226,0.08719 -0.05479,0.134359 -0.120544,0.133709 -0.01504,-1.49e-4 -0.02998,-0.0011 -0.0332,-0.0022 z"
     id="path3110"
     inkscape:connector-curvature="0" /><path
     style="fill:#00d400;fill-opacity:1"
     d="m 12.107369,37.982749 0,-13.265461 0.287262,0.173581 c 0.157994,0.09547 1.719153,0.999606 3.469242,2.009193 4.0157,2.316565 13.267933,7.713443 15.423767,8.996766 2.058739,1.225524 3.18198,1.97597 3.18198,2.125905 0,0.06413 -0.0696,0.177306 -0.154679,0.251497 -0.216631,0.18892 -7.270778,4.353686 -14.296815,8.440833 -7.107047,4.134272 -7.798822,4.533147 -7.861907,4.533147 -0.02687,0 -0.04885,-5.969457 -0.04885,-13.265461 z"
     id="path3112"
     inkscape:connector-curvature="0" /><path
     style="fill:#00d400;fill-opacity:1"
     d="m 12.107369,37.994198 c 0,-7.300109 0.02983,-13.255965 0.06629,-13.235236 2.924737,1.662803 19.083225,11.088406 20.263028,11.819871 1.320156,0.818483 2.032932,1.32488 2.032932,1.444314 0,0.0639 -0.0696,0.177502 -0.154679,0.252439 -0.342499,0.301689 -21.565016,12.744965 -22.062939,12.936037 -0.133523,0.05124 -0.144633,-0.964077 -0.144633,-13.217425 z"
     id="path3114"
     inkscape:connector-curvature="0" /><path
     style="fill:#00d400;fill-opacity:1"
     d="m 12.107369,37.981559 0,-13.266651 0.37565,0.216333 c 2.830493,1.630052 9.964227,5.774941 14.075844,8.17844 6.643378,3.883472 7.910757,4.671553 7.910757,4.919064 0,0.06083 -0.0696,0.171769 -0.154679,0.24654 -0.422976,0.371758 -21.938749,12.972925 -22.150527,12.972925 -0.03138,0 -0.05705,-5.969993 -0.05705,-13.266651 z"
     id="path3116"
     inkscape:connector-curvature="0" /><path
     style="fill:#00d400;fill-opacity:1"
     d="m 12.107369,37.986849 0,-13.261363 0.198873,0.104178 c 0.703941,0.368749 17.991652,10.444544 19.997864,11.655353 1.353265,0.816736 2.165514,1.394328 2.165514,1.539902 0,0.06293 -0.0696,0.175811 -0.154679,0.250846 -0.446593,0.393899 -21.923473,12.972445 -22.149431,12.972445 -0.03198,0 -0.05814,-5.967612 -0.05814,-13.261361 z"
     id="path3118"
     inkscape:connector-curvature="0" /><path
     style="fill:#00d400;fill-opacity:1"
     d="m 29.184781,41.405202 c 0.0018,-0.0015 0.509505,-0.30094 1.128255,-0.665367 1.84647,-1.087519 3.596566,-2.129355 3.894236,-2.318247 0.166772,-0.105828 0.274241,-0.20351 0.300827,-0.27343 0.0193,-0.05077 0.01306,-0.116241 -0.01622,-0.17004 -0.09596,-0.176307 -0.434232,-0.43461 -1.20025,-0.916498 -0.782113,-0.492014 -3.022817,-1.826418 -5.630878,-3.353353 l -1.160099,-0.6792 0.141523,-0.0021 0.141523,-0.0021 0.963888,0.56153 c 4.133008,2.407752 7.207604,4.250935 7.358014,4.411039 l 0.01718,0.01829 -0.01815,0.01709 c -0.15328,0.144321 -2.260486,1.420247 -5.0275,3.044183 l -0.564037,0.331029 -0.165781,0 c -0.09118,0 -0.164317,-0.0012 -0.162526,-0.0028 z"
     id="path3120"
     inkscape:connector-curvature="0" /><path
     style="fill:#00d400;fill-opacity:1"
     d="M 31.883349,35.984602 C 31.244861,35.605225 29.282494,34.454704 27.987897,33.70073 l -1.153265,-0.671663 0.118873,-0.0021 0.118873,-0.0021 2.620329,1.514282 2.620329,1.514282 0.0022,0.09138 c 0.0012,0.05026 -5.48e-4,0.09119 -0.0039,0.09097 -0.0034,-2.28e-4 -0.195951,-0.113215 -0.427982,-0.251084 z"
     id="path3122"
     inkscape:connector-curvature="0" /></svg>