<?xml version="1.0" encoding="UTF-8"?>
<!DOCTYPE svg PUBLIC "-//W3C//DTD SVG 1.1//EN" "http://www.w3.org/Graphics/SVG/1.1/DTD/svg11.dtd">
<!-- Creator: CorelDRAW X6 -->
<svg xmlns="http://www.w3.org/2000/svg" xml:space="preserve" width="20.0002mm" height="17.5067mm" version="1.1" style="shape-rendering:geometricPrecision; text-rendering:geometricPrecision; image-rendering:optimizeQuality; fill-rule:evenodd; clip-rule:evenodd"
viewBox="0 0 171 150"
 xmlns:xlink="http://www.w3.org/1999/xlink">
 <defs>
  <style type="text/css">
   <![CDATA[
    .str0 {stroke:#E31E24;stroke-width:2.13725}
    .fil2 {fill:none}
    .fil1 {fill:#2B2A29}
    .fil0 {fill:#FFD512}
   ]]>
  </style>
 </defs>
 <g id="Laag_x0020_1">
  <metadata id="CorelCorpID_0Corel-Layer"/>
  <path class="fil0" d="M9 150l153 0c5,0 9,-4 9,-10l0 0c0,-1 0,-3 -1,-4l-77 -131c-2,-5 -8,-6 -12,-4 -2,1 -3,2 -3,4l-77 131c-2,4 -1,10 4,12 1,1 3,2 4,2l0 0 0 0z"/>
  <path class="fil1" d="M9 145l153 0c2,0 4,-2 4,-4 0,-1 0,-2 0,-3l-77 -131c-1,-2 -4,-3 -6,-2 -1,1 -1,1 -2,2l-76 131c-1,2 0,5 2,7 1,0 1,0 2,0l0 0z"/>
  <polygon class="fil0" points="20,134 151,134 85,22 "/>
  <circle class="fil2 str0" cx="52" cy="115" r="7"/>
  <line class="fil2 str0" x1="52" y1="106" x2="52" y2= "101" />
  <line class="fil2 str0" x1="45" y1="109" x2="41" y2= "105" />
  <line class="fil2 str0" x1="42" y1="115" x2="37" y2= "115" />
  <line class="fil2 str0" x1="45" y1="122" x2="42" y2= "125" />
  <line class="fil2 str0" x1="52" y1="124" x2="52" y2= "129" />
  <line class="fil2 str0" x1="58" y1="122" x2="62" y2= "125" />
  <line class="fil2 str0" x1="61" y1="115" x2="66" y2= "115" />
  <line class="fil2 str0" x1="58" y1="109" x2="62" y2= "105" />
  <polygon class="fil1" points="91,82 80,119 75,117 78,130 89,122 84,121 104,72 75,85 92,45 83,42 68,94 "/>
  <circle class="fil2 str0" cx="118" cy="115" r="7"/>
  <line class="fil2 str0" x1="118" y1="106" x2="118" y2= "101" />
  <line class="fil2 str0" x1="111" y1="109" x2="108" y2= "105" />
  <line class="fil2 str0" x1="109" y1="115" x2="104" y2= "115" />
  <line class="fil2 str0" x1="111" y1="122" x2="108" y2= "125" />
  <line class="fil2 str0" x1="118" y1="124" x2="118" y2= "129" />
  <line class="fil2 str0" x1="124" y1="122" x2="128" y2= "125" />
  <line class="fil2 str0" x1="127" y1="115" x2="132" y2= "115" />
  <line class="fil2 str0" x1="124" y1="109" x2="128" y2= "105" />
 </g>
</svg>
