<?xml version="1.0" encoding="UTF-8" standalone="no"?>
<!-- Created with Inkscape (http://www.inkscape.org/) -->

<svg
   xmlns:dc="http://purl.org/dc/elements/1.1/"
   xmlns:cc="http://creativecommons.org/ns#"
   xmlns:rdf="http://www.w3.org/1999/02/22-rdf-syntax-ns#"
   xmlns:svg="http://www.w3.org/2000/svg"
   xmlns="http://www.w3.org/2000/svg"
   xmlns:sodipodi="http://sodipodi.sourceforge.net/DTD/sodipodi-0.dtd"
   xmlns:inkscape="http://www.inkscape.org/namespaces/inkscape"
   width="9.6860256mm"
   height="13.647392mm"
   viewBox="0 0 9.6860256 13.647392"
   version="1.1"
   id="svg8"
   inkscape:version="0.92.4 (5da689c313, 2019-01-14)"
   sodipodi:docname="Marker_black.svg">
  <defs
     id="defs2" />
  <sodipodi:namedview
     id="base"
     pagecolor="#ffffff"
     bordercolor="#666666"
     borderopacity="1.0"
     inkscape:pageopacity="0.0"
     inkscape:pageshadow="2"
     inkscape:zoom="9.5391837"
     inkscape:cx="33.627973"
     inkscape:cy="7.6659722"
     inkscape:document-units="mm"
     inkscape:current-layer="layer1"
     showgrid="false"
     inkscape:window-width="1718"
     inkscape:window-height="1360"
     inkscape:window-x="3633"
     inkscape:window-y="0"
     inkscape:window-maximized="0"
     fit-margin-top="0"
     fit-margin-left="0"
     fit-margin-right="0"
     fit-margin-bottom="0" />
  <metadata
     id="metadata5">
    <rdf:RDF>
      <cc:Work
         rdf:about="">
        <dc:format>image/svg+xml</dc:format>
        <dc:type
           rdf:resource="http://purl.org/dc/dcmitype/StillImage" />
        <dc:title></dc:title>
      </cc:Work>
    </rdf:RDF>
  </metadata>
  <g
     inkscape:label="Laag 1"
     inkscape:groupmode="layer"
     id="layer1"
     transform="translate(-70.593718,-55.437612)">
    <g
       id="g4585">
      <path
         sodipodi:nodetypes="scss"
         inkscape:connector-curvature="0"
         id="path3750"
         d="m 70.726197,60.466467 c 0.02413,3.248809 4.643808,8.418991 4.643808,8.418991 0,0 4.780511,-5.447323 4.777445,-8.719668 -0.0057,-6.065298 -9.470206,-6.290513 -9.421253,0.300677 z"
         style="fill:#000000;stroke:#000000;stroke-width:0.26458332px;stroke-linecap:butt;stroke-linejoin:miter;stroke-opacity:1" />
      <ellipse
         ry="1.9544084"
         rx="2.0713389"
         style="fill:#ffffff;stroke:#000000;stroke-width:0.350207"
         cy="60.583397"
         cx="75.47023"
         id="path3752" />
      <path
         transform="scale(0.26458333)"
         inkscape:connector-curvature="0"
         id="path4559"
         d="m 283.58275,236.13144 c -1.45328,-0.31409 -2.88958,-1.09362 -3.9247,-2.13008 -2.91607,-2.91983 -2.89316,-7.24522 0.0536,-10.11304 1.39581,-1.35843 3.04984,-2.06606 5.08672,-2.17623 5.06181,-0.27377 9.02478,4.00981 8.05295,8.70444 -0.51986,2.51134 -2.71685,4.77563 -5.41753,5.58349 -1.00803,0.30153 -2.78353,0.36212 -3.851,0.13142 z"
         style="fill:none;stroke-width:0.12626907" />
      <path
         transform="scale(0.26458333)"
         inkscape:connector-curvature="0"
         id="path4561"
         d="m 283.58275,236.13144 c -1.45328,-0.31409 -2.88958,-1.09362 -3.9247,-2.13008 -2.91607,-2.91983 -2.89316,-7.24522 0.0536,-10.11304 1.39581,-1.35843 3.04984,-2.06606 5.08672,-2.17623 5.06181,-0.27377 9.02478,4.00981 8.05295,8.70444 -0.51986,2.51134 -2.71685,4.77563 -5.41753,5.58349 -1.00803,0.30153 -2.78353,0.36212 -3.851,0.13142 z"
         style="fill:none;stroke-width:0.12626907" />
      <path
         id="path4563"
         transform="scale(0.26458333)"
         d="m 285.03516,210.64648 c -2.46018,0.009 -3.89968,0.2381 -5.99805,0.95313 -5.472,1.86461 -9.4287,6.31532 -10.65039,11.98047 -1.03172,4.78419 -0.50832,8.68145 1.89844,14.13476 2.55332,5.78542 7.425,13.20129 13.33789,20.30274 1.02091,1.22609 1.21443,1.40116 1.38281,1.26172 0.3386,-0.28041 3.97204,-4.87372 5.49609,-6.94727 2.49596,-3.39587 5.13015,-7.4342 7.06446,-10.83203 0.63522,-1.11584 2.22692,-4.37226 2.73632,-5.59961 0.64567,-1.55565 1.4263,-3.98254 1.73243,-5.38672 0.3267,-1.50027 0.33112,-5.17049 0.008,-6.67187 -1.29347,-6.00659 -4.96736,-10.2012 -10.67383,-12.1875 -2.19328,-0.76342 -3.78436,-1.01782 -6.33398,-1.00782 z m 0.38476,10.91602 c 2.13347,0.0492 4.24976,0.91654 5.78125,2.58789 3.62324,3.95413 1.86916,10.07743 -3.39258,11.84375 -0.94392,0.3169 -2.76523,0.50669 -3.59375,0.375 -3.44477,-0.54757 -6.04158,-2.85319 -6.69726,-5.94726 -0.22902,-1.08039 -0.22891,-1.7622 0.004,-2.8711 0.29199,-1.39075 0.96918,-2.62348 2.01563,-3.66992 1.5992,-1.59921 3.74935,-2.36753 5.88281,-2.31836 z m -0.62109,0.15039 c -0.50855,0.0275 -0.99428,0.0925 -1.45703,0.19531 -0.46399,0.1031 -0.90627,0.24335 -1.32813,0.42383 -0.42129,0.18024 -0.8219,0.39911 -1.20508,0.6582 -0.19164,0.12953 -0.37968,0.27037 -0.5625,0.41993 -0.1824,0.1493 -0.36103,0.30905 -0.53515,0.47851 -0.18417,0.17924 -0.35625,0.36476 -0.51758,0.55469 -0.8066,0.94964 -1.32771,2.02274 -1.5625,3.13476 -0.2819,1.33439 -0.1522,2.7223 0.39062,4.01368 2.4e-4,5.7e-4 -2.3e-4,0.001 0,0.002 0.18083,0.4299 0.40929,0.84914 0.68164,1.25195 3.2e-4,4.7e-4 -3.1e-4,10e-4 0,0.002 0.13611,0.20121 0.2844,0.39748 0.44336,0.58984 3.4e-4,4.1e-4 -3.3e-4,0.002 0,0.002 0.15904,0.19239 0.32981,0.38036 0.51172,0.5625 0.51756,0.51823 1.13478,0.97253 1.80469,1.33594 0.67013,0.3637 1.3925,0.63592 2.11914,0.79297 0.53374,0.11535 1.24591,0.15877 1.94922,0.13476 0.35106,-0.012 0.70107,-0.0416 1.02539,-0.0859 0.32489,-0.0445 0.62495,-0.10431 0.87695,-0.17969 2.70068,-0.80786 4.89811,-3.07264 5.41797,-5.58398 0.0609,-0.29409 0.10191,-0.58517 0.125,-0.875 0.0231,-0.28919 0.0283,-0.5745 0.0156,-0.85743 -0.10093,-2.26261 -1.31621,-4.29354 -3.16407,-5.57421 -7.3e-4,-5.1e-4 -10e-4,-0.001 -0.002,-0.002 -0.4618,-0.31982 -0.96263,-0.59244 -1.49609,-0.81054 -5.7e-4,-2.4e-4 -10e-4,2.3e-4 -0.002,0 -0.26647,-0.10888 -0.54071,-0.20468 -0.82226,-0.28516 -6.1e-4,-1.7e-4 -10e-4,1.7e-4 -0.002,0 -0.0636,-0.0182 -0.13102,-0.0283 -0.19532,-0.0449 -0.7917,-0.20501 -1.63196,-0.30139 -2.50976,-0.25391 z"
         style="fill:none;stroke-width:0.12626907"
         inkscape:connector-curvature="0" />
    </g>
  </g>
</svg>
