<?xml version="1.0" encoding="UTF-8" standalone="no"?>
<!-- Created with Inkscape (http://www.inkscape.org/) -->

<svg
   xmlns:dc="http://purl.org/dc/elements/1.1/"
   xmlns:cc="http://creativecommons.org/ns#"
   xmlns:rdf="http://www.w3.org/1999/02/22-rdf-syntax-ns#"
   xmlns:svg="http://www.w3.org/2000/svg"
   xmlns="http://www.w3.org/2000/svg"
   xmlns:sodipodi="http://sodipodi.sourceforge.net/DTD/sodipodi-0.dtd"
   xmlns:inkscape="http://www.inkscape.org/namespaces/inkscape"
   version="1.1"
   width="71"
   height="71"
   id="svg2"
   xml:space="preserve"
   inkscape:version="0.48.4 r9939"
   sodipodi:docname="F03.svg"><sodipodi:namedview
     pagecolor="#ffffff"
     bordercolor="#666666"
     borderopacity="1"
     objecttolerance="10"
     gridtolerance="10"
     guidetolerance="10"
     inkscape:pageopacity="0"
     inkscape:pageshadow="2"
     inkscape:window-width="640"
     inkscape:window-height="480"
     id="namedview12"
     showgrid="false"
     inkscape:zoom="3.3239437"
     inkscape:cx="35.5"
     inkscape:cy="35.5"
     inkscape:window-x="0"
     inkscape:window-y="27"
     inkscape:window-maximized="0"
     inkscape:current-layer="svg2" /><metadata
     id="metadata8"><rdf:RDF><cc:Work
         rdf:about=""><dc:format>image/svg+xml</dc:format><dc:type
           rdf:resource="http://purl.org/dc/dcmitype/StillImage" /><dc:title></dc:title></cc:Work></rdf:RDF></metadata><defs
     id="defs6"><clipPath
       id="clipPath18"><path
         d="M 0,566.93 0,0 l 566.934,0 0,566.93 -566.934,0 z"
         id="path20" /></clipPath></defs><rect
     width="69.988068"
     height="69.988068"
     rx="0.0039863177"
     x="1.0377476"
     y="0.424582"
     id="rect2995-6"
     style="color:#000000;fill:#ffffff;fill-opacity:1;stroke:#000000;stroke-width:2;stroke-linecap:butt;stroke-linejoin:miter;stroke-miterlimit:4;stroke-opacity:1;stroke-dasharray:none;stroke-dashoffset:0;marker:none;visibility:visible;display:inline;overflow:visible;enable-background:accumulate" /><path
     d="M 10.186432,21.99923 C 6.5335508,22.650753 10.070717,27.411394 1.6906787,39.186312 L 0,71 71.991517,71 71.504237,41.331022 C 67.569217,39.47749 57.361024,44.744822 56.576263,35.726567 55.364092,30.150561 49.843579,20.117576 40.40889,21.698383 c -4.565463,0.310721 0.804585,6.109092 -0.222458,14.780302 -0.568821,5.815522 0.04671,5.689253 -6.088983,8.763354 -6.067017,4.122254 -13.437219,-6.153672 -13.911017,-13.576913 -1.228591,-9.706684 -5.645416,-9.590408 -10,-9.665896"
     id="path3841"
     style="fill:#000cff;fill-opacity:1;stroke:none"
     inkscape:connector-curvature="0"
     sodipodi:nodetypes="ccccccccccc" /><rect
     width="69.988068"
     height="69.988068"
     rx="0.0039863177"
     x="1.0377476"
     y="0.42458245"
     id="rect2995"
     style="color:#000000;fill:none;stroke:#000000;stroke-width:2;stroke-linecap:butt;stroke-linejoin:miter;stroke-miterlimit:4;stroke-opacity:1;stroke-dasharray:none;stroke-dashoffset:0;marker:none;visibility:visible;display:inline;overflow:visible;enable-background:accumulate" /><path
     d="M 1.6016949,37.415254 C 13.016949,34.822034 1.302062,22.331832 10.186432,21.885584 c 8.88437,-0.446248 10,10 10,10 0,0 6.614663,17.757115 15.415254,13.008475 6.690678,-3.61017 4.73517,-16.769068 4.73517,-16.769068 0,0 -3.61017,-8.947034 3.531779,-7.141949 9.695133,2.450387 13.008475,14.512711 13.008475,14.512711"
     id="path3042"
     style="fill:none;stroke:#000000;stroke-width:3;stroke-linecap:butt;stroke-linejoin:round;stroke-miterlimit:4;stroke-opacity:1;stroke-dasharray:none"
     inkscape:connector-curvature="0"
     sodipodi:nodetypes="cscscsc" /><path
     d="m 56.87711,35.044482 c 0,0 3.459746,8.947034 13.309322,6.841102"
     id="path3042-12"
     style="fill:none;stroke:#000000;stroke-width:3;stroke-linecap:butt;stroke-linejoin:round;stroke-miterlimit:4;stroke-opacity:1;stroke-dasharray:none"
     inkscape:connector-curvature="0"
     sodipodi:nodetypes="cc" /></svg>