<?xml version="1.0" encoding="UTF-8"?>
<!DOCTYPE svg PUBLIC "-//W3C//DTD SVG 1.1//EN" "http://www.w3.org/Graphics/SVG/1.1/DTD/svg11.dtd">
<!-- Creator: CorelDRAW X6 -->
<svg xmlns="http://www.w3.org/2000/svg" xml:space="preserve" width="7.0646mm" height="5.076mm" version="1.1" style="shape-rendering:geometricPrecision; text-rendering:geometricPrecision; image-rendering:optimizeQuality; fill-rule:evenodd; clip-rule:evenodd"
viewBox="0 0 291 209"
 xmlns:xlink="http://www.w3.org/1999/xlink">
 <defs>
  <style type="text/css">
   <![CDATA[
    .str0 {stroke:#2B2A29;stroke-width:3.13971}
    .fil1 {fill:#00A0E3}
    .fil0 {fill:#9D9E9E}
   ]]>
  </style>
 </defs>
 <g id="Laag_x0020_1">
  <metadata id="CorelCorpID_0Corel-Layer"/>
  <path class="fil0 str0" d="M289 75c-3,-2 -213,-71 -226,-73 -17,-3 -17,12 -21,27 -5,14 -9,25 -13,39 -5,19 9,20 23,24l126 41 20 -19c10,-8 29,-25 38,-34l38 11 15 -16z"/>
  <path class="fil0 str0" d="M74 130l-22 25 -29 0c-1,-23 5,-30 -21,-30l0 83c28,0 18,-9 22,-31 23,-2 33,6 45,-10l26 -29 38 8 4 -14 -92 -30 -1 17 30 11z"/>
  <polygon class="fil1 str0" points="202,126 249,142 258,100 239,94 "/>
 </g>
</svg>
