<?xml version="1.0" encoding="UTF-8"?>
<!DOCTYPE svg PUBLIC "-//W3C//DTD SVG 1.1//EN" "http://www.w3.org/Graphics/SVG/1.1/DTD/svg11.dtd">
<!-- Creator: CorelDRAW X6 -->
<svg xmlns="http://www.w3.org/2000/svg" xml:space="preserve" width="5.0761mm" height="5.0761mm" version="1.1" style="shape-rendering:geometricPrecision; text-rendering:geometricPrecision; image-rendering:optimizeQuality; fill-rule:evenodd; clip-rule:evenodd"
viewBox="0 0 179 179"
 xmlns:xlink="http://www.w3.org/1999/xlink">
 <defs>
  <style type="text/css">
   <![CDATA[
    .str0 {stroke:#2B2A29;stroke-width:2.68503}
    .fil3 {fill:#00A0E3}
    .fil2 {fill:#EBECEC}
    .fil1 {fill:#9D9E9E}
    .fil0 {fill:#C5C6C6}
   ]]>
  </style>
 </defs>
 <g id="Laag_x0020_1">
  <metadata id="CorelCorpID_0Corel-Layer"/>
  <path class="fil0 str0" d="M40 159c0,0 0,0 0,0l0 1c1,0 1,0 1,1 1,1 2,1 3,2 22,15 48,19 73,9 8,-3 17,-8 22,-13 -1,-1 -1,0 0,-2l3 -4c1,-3 2,-5 2,-8 1,-6 0,-14 0,-20 0,-13 -1,-22 -7,-32 -21,-41 -76,-40 -96,-2 -5,11 -7,19 -7,33 0,6 0,15 0,20 1,3 2,6 2,8 2,3 3,5 4,7z"/>
  <path class="fil1 str0" d="M8 49c6,2 67,1 79,1 6,0 77,1 81,0 12,-3 9,-5 9,-27 0,-5 1,-14 -1,-18 -3,-4 -7,-3 -14,-3l-141 0c-5,0 -13,-1 -16,1 -4,3 -4,8 -4,15 0,6 0,13 0,19 0,7 0,10 7,12z"/>
  <path class="fil0 str0" d="M40 159c-1,-2 -2,-4 -4,-7 0,-2 -1,-5 -2,-8 0,-5 0,-14 0,-20 0,-14 2,-22 7,-33 20,-38 75,-39 96,2 6,10 7,19 7,32 0,6 1,14 0,20 0,3 -1,5 -2,8l-3 4c-1,2 -1,1 0,2 2,-1 7,-7 8,-8 9,-11 14,-18 18,-34 5,-18 3,-47 3,-67 -4,1 -75,0 -81,0l-77 0 0 0c1,35 -5,67 17,96 2,3 10,12 13,13z"/>
  <path class="fil2 str0" d="M82 72c-23,4 -42,27 -37,55 6,39 53,55 80,22 4,-5 6,-9 8,-15 2,-8 2,-14 1,-22 -3,-24 -25,-44 -52,-40z"/>
  <path class="fil3 str0" d="M86 88c-15,1 -28,16 -27,34 2,17 16,30 34,28 15,-1 28,-16 26,-35 -1,-16 -15,-29 -33,-27z"/>
 </g>
</svg>
