<svg width="291" height="209" xmlns="http://www.w3.org/2000/svg" version="1.1" xml:space="preserve">

 <g>
  <title>Layer 1</title>
  <metadata id="CorelCorpID_0Corel-Layer"/>
  <path id="svg_1" fill="#7fff00" stroke-width="3.13971" stroke="#2B2A29" d="m289,75c-3,-2 -213,-71 -226,-73c-17,-3 -17,12 -21,27c-5,14 -9,25 -13,39c-5,19 9,20 23,24l126,41l20,-19c10,-8 29,-25 38,-34l38,11l15,-16z" class="fil0 str0"/>
  <path id="svg_2" fill="#7fff00" stroke-width="3.13971" stroke="#2B2A29" d="m74,130l-22,25l-29,0c-1,-23 5,-30 -21,-30l0,83c28,0 18,-9 22,-31c23,-2 33,6 45,-10l26,-29l38,8l4,-14l-92,-30l-1,17l30,11z" class="fil0 str0"/>
  <polygon id="svg_3" fill="#00A0E3" stroke-width="3.13971" stroke="#2B2A29" points="202,126 249,142 258,100 239,94 " class="fil1 str0"/>
 </g>
</svg>