<?xml version="1.0" encoding="UTF-8" standalone="no"?>
<svg
   width="179.04118"
   height="177.59377"
   xml:space="preserve"
   version="1.1"
   id="svg362"
   sodipodi:docname="camera_dome_goed.svg"
   inkscape:version="1.2 (dc2aedaf03, 2022-05-15)"
   xmlns:inkscape="http://www.inkscape.org/namespaces/inkscape"
   xmlns:sodipodi="http://sodipodi.sourceforge.net/DTD/sodipodi-0.dtd"
   xmlns="http://www.w3.org/2000/svg"
   xmlns:svg="http://www.w3.org/2000/svg"><defs
   id="defs366" /><sodipodi:namedview
   id="namedview364"
   pagecolor="#ffffff"
   bordercolor="#666666"
   borderopacity="1.0"
   inkscape:showpageshadow="2"
   inkscape:pageopacity="0.0"
   inkscape:pagecheckerboard="0"
   inkscape:deskcolor="#d1d1d1"
   showgrid="false"
   inkscape:zoom="2.7988827"
   inkscape:cx="40.551896"
   inkscape:cy="61.453094"
   inkscape:window-width="1664"
   inkscape:window-height="1205"
   inkscape:window-x="3979"
   inkscape:window-y="134"
   inkscape:window-maximized="0"
   inkscape:current-layer="g360" />
 <g
   id="g360"
   inkscape:label="g360"
   inkscape:groupmode="layer"
   transform="translate(0.01002225,-0.65748501)">
  <title
   id="title351">Layer 1</title>
  <metadata
   id="CorelCorpID_0Corel-Layer" />
  
 <g
   id="g373"
   transform="matrix(0.88298917,0,0,0.87713692,-0.12468093,0.54997186)"
   style="clip-rule:evenodd;fill-rule:evenodd;image-rendering:optimizeQuality;shape-rendering:geometricPrecision;text-rendering:geometricPrecision"><path
     class="fil0 str0"
     d="m 45,180 c 0,0 0,0 0,0 l 1,1 c 0,0 1,1 1,1 1,1 2,2 3,2 25,18 54,22 83,11 9,-3 19,-10 24,-15 0,-1 0,0 0,-2 l 4,-5 c 1,-3 2,-6 2,-9 1,-6 0,-15 0,-22 0,-15 -2,-26 -7,-37 -24,-46 -86,-45 -109,-1 -6,11 -8,21 -8,37 0,6 -1,16 0,23 0,3 1,6 2,8 2,3 4,5 4,8 z"
     id="path212"
     style="fill:#393185;stroke:#2b2a29;stroke-width:3.04167" /><path
     class="fil0 str0"
     d="m 9,56 c 7,2 77,1 90,1 7,0 87,0 91,0 14,-4 11,-6 11,-31 0,-5 1,-16 -2,-20 -3,-5 -8,-4 -15,-4 H 23 C 18,2 9,1 5,4 1,7 2,13 2,20 c 0,8 0,15 0,22 0,8 0,11 7,14 z"
     id="path214"
     style="fill:#393185;stroke:#2b2a29;stroke-width:3.04167" /><path
     class="fil0 str0"
     d="m 45,180 c 0,-3 -2,-5 -4,-8 -1,-2 -2,-5 -2,-8 -1,-7 0,-17 0,-23 0,-16 2,-26 8,-37 23,-44 85,-45 109,1 5,11 7,22 7,37 0,7 1,16 0,22 0,3 -1,6 -2,9 l -4,5 c 0,2 0,1 0,2 3,-1 8,-7 10,-9 9,-13 16,-21 20,-39 5,-20 3,-53 3,-75 -4,0 -84,0 -91,0 L 12,56 v 0 c 0,41 -6,77 18,109 3,4 12,14 15,15 z"
     id="path216"
     style="fill:#393185;stroke:#2b2a29;stroke-width:3.04167" /><path
     class="fil1 str0"
     d="m 93,82 c -26,4 -47,30 -43,61 7,45 61,63 91,25 5,-5 7,-10 9,-17 3,-8 3,-15 2,-24 C 149,99 123,77 93,82 Z"
     id="path218"
     style="fill:#ebecec;stroke:#2b2a29;stroke-width:3.04167" /><path
     class="fil2 str0"
     d="m 98,99 c -18,2 -33,19 -31,40 2,18 18,34 38,31 18,-2 32,-18 30,-39 -2,-18 -17,-34 -37,-32 z"
     id="path220"
     style="fill:#00a0e3;stroke:#2b2a29;stroke-width:3.04167" /></g></g>

</svg>
