<svg width="179" height="179" xmlns="http://www.w3.org/2000/svg" xml:space="preserve" version="1.1">
 <g>
  <title>Layer 1</title>
  <metadata id="CorelCorpID_0Corel-Layer"/>
  <g id="svg_8">
   <path class="fil0 str0" d="m41.16667,159.41667c0,0 0,0 0,0l0,1c1,0 1,0 1,1c1,1 2,1 3,2c22,15 48,19 73,9c8,-3 17,-8 22,-13c-1,-1 -1,0 0,-2l3,-4c1,-3 2,-5 2,-8c1,-6 0,-14 0,-20c0,-13 -1,-22 -7,-32c-21,-41 -76,-40 -96,-2c-5,11 -7,19 -7,33c0,6 0,15 0,20c1,3 2,6 2,8c2,3 3,5 4,7z" stroke="#2B2A29" stroke-width="2.68503" fill="#ff7f00" id="svg_1"/>
   <path class="fil1 str0" d="m8.33334,50.25c6,2 67,1 79,1c6,0 77,1 81,0c12,-3 9,-5 9,-27c0,-5 1,-14 -1,-18c-3,-4 -7,-3 -14,-3l-141,0c-5,0 -13,-1 -16,1c-4,3 -4,8 -4,15c0,6 0,13 0,19c0,7 0,10 7,12z" stroke="#2B2A29" stroke-width="2.68503" fill="#ff7f00" id="svg_2"/>
   <path class="fil0 str0" d="m39.33334,159.25c-1,-2 -2,-4 -4,-7c0,-2 -1,-5 -2,-8c0,-5 0,-14 0,-20c0,-14 2,-22 7,-33c20,-38 75,-39 96,2c6,10 7,19 7,32c0,6 1,14 0,20c0,3 -1,5 -2,8l-3,4c-1,2 -1,1 0,2c2,-1 7,-7 8,-8c9,-11 14,-18 18,-34c5,-18 3,-47 3,-67c-4,1 -75,0 -81,0l-77,0l0,0c1,35 -5,67 17,96c2,3 10,12 13,13z" stroke="#2B2A29" stroke-width="2.68503" fill="#ff7f00" id="svg_3"/>
   <path class="fil2 str0" d="m82.33334,73.25c-23,4 -42,27 -37,55c6,39 53,55 80,22c4,-5 6,-9 8,-15c2,-8 2,-14 1,-22c-3,-24 -25,-44 -52,-40z" stroke="#2B2A29" stroke-width="2.68503" fill="#EBECEC" id="svg_4"/>
   <path class="fil3 str0" d="m86.33334,89.25c-15,1 -28,16 -27,34c2,17 16,30 34,28c15,-1 28,-16 26,-35c-1,-16 -15,-29 -33,-27z" stroke="#2B2A29" stroke-width="2.68503" fill="#00A0E3" id="svg_5"/>
  </g>
 </g>

</svg>